<?xml version="1.0" standalone="no"?>
<!DOCTYPE svg PUBLIC "-//W3C//DTD SVG 1.1//EN" "http://www.w3.org/Graphics/SVG/1.1/DTD/svg11.dtd" >
<svg xmlns="http://www.w3.org/2000/svg" xmlns:xlink="http://www.w3.org/1999/xlink" version="1.1">
<metadata>
Created by FontForge 20201107 at Mon Aug 20 12:45:37 2018
 By Jimmy Wärting
Copyright \251 2018 by Piotr ?apa. All rights reserved.
</metadata>
<defs>
<font id="GilmerRegular" horiz-adv-x="1243" >
  <font-face 
    font-family="Gilmer Regular"
    font-weight="400"
    font-stretch="normal"
    units-per-em="2048"
    panose-1="0 0 5 0 0 0 0 0 0 0"
    ascent="1618"
    descent="-430"
    x-height="1022"
    cap-height="1434"
    bbox="-649 -517 2825 1984"
    underline-thickness="0"
    underline-position="0"
    unicode-range="U+0020-FB02"
  />
<missing-glyph horiz-adv-x="1024" 
d="M840 1618v-2048h-650v2048h650zM682 1481h-338v-68h133v-76h-135v-67h340v67h-135v76h135v68zM547 1217h-205v-213h340v69h-135v144zM477 1147v-74h-67v74h67zM682 948h-340v-67h135v-76h-135v-68h205v144h135v67zM682 825h-68v-135h-272v-69h340v204zM682 575h-205v-114
h70v47h67v-96h-204v163h-68v-231h340v231zM682 221h-340v-231h340v231zM614 154v-97h-204v97h204zM682 -57h-340v-68h143l-143 -96v-68h340v68h-209l143 96h66v68z" />
    <glyph glyph-name="uniFB01" unicode="fi" horiz-adv-x="1189" 
d="M1059 1022l-1 -1023h-158v879h-477v-879h-156v879h-215v143h215v135c0 116 31 206 93 270s153 96 273 96c127 0 235 -36 325 -107l-38 -133c-87 65 -179 98 -275 98c-73 0 -128 -19 -165 -58s-56 -95 -56 -169v-131h635z" />
    <glyph glyph-name="uniFB02" unicode="fl" horiz-adv-x="1212" 
d="M635 1522h-2c163 0 304 -44 424 -131v-1391h-158v1313c-79 45 -164 67 -255 66c-73 0 -128 -19 -165 -58s-56 -95 -56 -169v-131h311v-143h-311v-879h-156v879h-215v143h215v135c0 116 31 206 93 270s154 96 275 96z" />
    <glyph glyph-name="f_f.liga" unicode="ff" horiz-adv-x="1452" 
d="M1059 1153v-131h366v-143h-366v-879h-158v879h-477v-879h-156v879h-215v143h215v135c0 116 27 206 82 270s135 96 240 96c81 0 150 -14 207 -43l-41 -133c-45 23 -96 34 -152 33c-120 0 -180 -76 -180 -227v-131h477v135c0 116 27 206 82 270s135 96 240 96
c81 0 150 -14 207 -43l-39 -133c-47 23 -98 34 -154 33c-119 0 -178 -76 -178 -227z" />
    <glyph glyph-name="f_f_i.liga" unicode="ffi" horiz-adv-x="1822" 
d="M1692 1022l-1 -1023h-158v879h-475v-879h-158v879h-477v-879h-156v879h-215v143h215v135c0 116 29 206 86 270s142 96 255 96c81 0 150 -14 207 -43l-41 -133c-45 23 -95 34 -150 33c-65 0 -115 -19 -149 -58s-51 -95 -51 -169v-131h477v135c0 116 31 206 93 270
s153 96 274 96c125 0 233 -36 324 -107l-41 -133c-87 65 -178 98 -273 98c-146 0 -219 -76 -219 -227v-131h633z" />
    <glyph glyph-name="f_f_l.liga" unicode="ffl" horiz-adv-x="1845" 
d="M1268 1522h3c163 0 304 -44 424 -131v-1391h-158v1313c-81 45 -166 67 -256 66c-146 0 -219 -76 -219 -227v-131h309v-143h-309v-879h-158v879h-477v-879h-156v879h-215v143h215v135c0 116 28 206 83 270s137 96 245 96c79 0 147 -14 204 -43l-39 -133
c-47 23 -98 34 -153 33c-124 0 -186 -76 -186 -227v-131h477v135c0 116 31 206 93 270s153 96 273 96z" />
    <glyph glyph-name=".notdef" horiz-adv-x="1024" 
d="M840 1618v-2048h-650v2048h650zM682 1481h-338v-68h133v-76h-135v-67h340v67h-135v76h135v68zM547 1217h-205v-213h340v69h-135v144zM477 1147v-74h-67v74h67zM682 948h-340v-67h135v-76h-135v-68h205v144h135v67zM682 825h-68v-135h-272v-69h340v204zM682 575h-205v-114
h70v47h67v-96h-204v163h-68v-231h340v231zM682 221h-340v-231h340v231zM614 154v-97h-204v97h204zM682 -57h-340v-68h143l-143 -96v-68h340v68h-209l143 96h66v68z" />
    <glyph glyph-name="space" unicode=" " horiz-adv-x="530" 
 />
    <glyph glyph-name="exclam" unicode="!" horiz-adv-x="509" 
d="M195 395l-27 1039h180l-24 -1039h-129zM256 -14c-33 0 -60 11 -82 33s-33 49 -33 82c0 31 11 57 33 78s49 32 82 32s60 -11 82 -32s33 -47 33 -78c0 -33 -11 -60 -33 -82s-49 -33 -82 -33z" />
    <glyph glyph-name="quotedbl" unicode="&#x22;" horiz-adv-x="692" 
d="M135 1012l-22 422h168l-21 -422h-125zM434 1012l-22 422h168l-21 -422h-125z" />
    <glyph glyph-name="numbersign" unicode="#" horiz-adv-x="1478" 
d="M1378 848h-297l-51 -322h299l-20 -133h-299l-62 -393h-143l61 393h-348l-61 -393h-144l62 393h-295l20 133h295l51 322h-296l20 131h297l63 403h144l-64 -403h348l64 403h143l-63 -403h297zM887 526l51 322h-348l-51 -322h348z" />
    <glyph glyph-name="dollar" unicode="$" horiz-adv-x="1323" 
d="M1235 397l1 -5c0 -113 -48 -210 -144 -292s-220 -126 -371 -132v-270h-139v279c-129 19 -240 68 -333 146s-157 170 -192 275l156 48c33 -95 92 -174 178 -236s188 -93 305 -93c111 0 202 27 272 81s105 116 105 187c0 56 -20 103 -60 141s-108 72 -205 102l-356 114
c-211 68 -317 180 -318 336c0 100 42 187 126 260s190 113 319 120v271h139v-277c116 -17 215 -56 298 -117s143 -136 181 -225l-151 -47c-37 77 -93 138 -168 182s-165 66 -269 66c-90 0 -165 -22 -224 -67s-89 -98 -89 -160c0 -48 17 -87 52 -118s93 -59 174 -85l348 -111
c123 -39 215 -86 275 -141s90 -132 90 -232z" />
    <glyph glyph-name="percent" unicode="%" horiz-adv-x="2045" 
d="M494 682c-109 0 -202 37 -278 111s-114 165 -114 273s38 199 114 273s169 111 278 111c111 0 204 -37 280 -111s114 -165 114 -273s-38 -199 -114 -273s-169 -111 -280 -111zM483 0l930 1434h148l-928 -1434h-150zM494 811h-3c74 0 136 25 185 75s74 110 74 179
c0 71 -25 131 -74 180s-110 74 -184 74s-135 -25 -183 -74s-72 -109 -72 -180c0 -69 25 -129 74 -179s110 -75 183 -75zM1549 -16v-2c-109 0 -201 37 -277 111s-114 165 -114 272c0 108 38 199 114 273s168 111 277 111c111 0 204 -37 279 -111s113 -165 113 -272
s-38 -197 -113 -271s-168 -111 -279 -111zM1549 111v-1c73 0 134 25 183 75s74 110 74 180c0 71 -24 131 -72 180s-109 74 -183 74s-135 -25 -184 -74s-73 -109 -73 -180c0 -69 24 -129 72 -179s109 -75 183 -75z" />
    <glyph glyph-name="ampersand" unicode="&#x26;" horiz-adv-x="1421" 
d="M1391 0l-203 -1l-168 176c-133 -135 -286 -203 -459 -203c-119 0 -220 38 -304 113s-126 171 -126 288c0 85 25 164 74 238s122 136 219 187c-45 52 -79 100 -102 144s-34 95 -34 152c0 112 38 201 114 266s172 98 288 98c107 0 197 -30 269 -89s119 -132 140 -219
l-144 -41c-19 64 -51 115 -96 152s-101 56 -168 56c-73 0 -132 -20 -178 -61s-69 -95 -69 -163c0 -65 40 -141 121 -228l445 -467c52 86 87 175 106 267l141 -37c-22 -119 -70 -232 -143 -339zM573 118v1c130 0 246 54 347 162l-400 417c-154 -85 -231 -191 -231 -318
c0 -71 27 -132 80 -184s121 -78 204 -78z" />
    <glyph glyph-name="quotesingle" unicode="'" horiz-adv-x="393" 
d="M135 1012l-22 422h168l-21 -422h-125z" />
    <glyph glyph-name="parenleft" unicode="(" horiz-adv-x="575" 
d="M516 -281l-158 -1c-159 265 -237 566 -235 903c3 340 81 640 235 901h158c-157 -275 -235 -575 -234 -901c-1 -329 77 -630 234 -902z" />
    <glyph glyph-name="parenright" unicode=")" horiz-adv-x="575" 
d="M59 -281h1c157 272 236 573 236 902c0 326 -79 626 -236 901h158c154 -261 233 -561 236 -901c1 -336 -78 -637 -237 -902h-158z" />
    <glyph glyph-name="asterisk" unicode="*" horiz-adv-x="843" 
d="M731 1247l-196 -106l196 -107l-63 -106l-191 116l6 -225h-123l7 225l-191 -116l-63 106l196 107l-196 106l63 107l191 -117l-7 223h123l-6 -223l191 117z" />
    <glyph glyph-name="plus" unicode="+" horiz-adv-x="1132" 
d="M989 784v-133h-354v-356h-135v356h-357v133h357v357h135v-357h354z" />
    <glyph glyph-name="comma" unicode="," horiz-adv-x="493" 
d="M113 -281l88 492h180l-133 -492h-135z" />
    <glyph glyph-name="hyphen" unicode="-" horiz-adv-x="1013" 
d="M143 567v135h727v-135h-727z" />
    <glyph glyph-name="period" unicode="." horiz-adv-x="454" 
d="M227 -14c-33 0 -60 11 -82 33s-33 49 -33 82c0 31 11 57 33 78s49 32 82 32s60 -11 82 -32s33 -47 33 -78c0 -33 -11 -60 -33 -82s-49 -33 -82 -33z" />
    <glyph glyph-name="slash" unicode="/" horiz-adv-x="1118" 
d="M82 -186l811 1804h143l-811 -1804h-143z" />
    <glyph glyph-name="zero" unicode="0" horiz-adv-x="1302" 
d="M651 -27l-1 -1c-178 0 -316 69 -414 207s-147 317 -147 537c0 221 49 400 147 537s236 206 414 206s316 -68 413 -205s146 -316 146 -537c0 -220 -49 -399 -146 -537s-234 -207 -412 -207zM649 124h-2c129 0 228 53 296 159s102 250 102 432s-34 326 -102 433
s-166 160 -295 160c-127 0 -224 -53 -292 -160s-102 -251 -102 -433s34 -326 102 -432s166 -159 293 -159z" />
    <glyph glyph-name="one" unicode="1" horiz-adv-x="788" 
d="M473 1434h137v-1434h-164v1245l-360 -174l-39 141z" />
    <glyph glyph-name="two" unicode="2" horiz-adv-x="1173" 
d="M330 150l738 -3v-150h-983v121l571 551c78 74 135 137 171 188s54 106 54 165c0 89 -28 159 -83 210s-131 77 -227 77c-86 0 -158 -25 -217 -76s-98 -119 -117 -205l-148 41c17 107 69 199 156 275s195 114 323 114c141 0 255 -38 342 -115s131 -182 131 -316
c0 -83 -22 -158 -66 -225s-112 -144 -205 -231z" />
    <glyph glyph-name="three" unicode="3" horiz-adv-x="1196" 
d="M664 870l-1 -1c134 0 242 -40 323 -120s122 -184 122 -313c0 -130 -48 -240 -144 -331s-215 -136 -358 -136c-150 0 -271 40 -363 119s-150 175 -174 287l149 41c18 -86 61 -157 129 -214s153 -85 255 -85c107 0 191 31 253 93s93 137 93 226s-28 162 -84 219
s-130 86 -223 86c-69 0 -131 -18 -186 -55l-31 109l414 491h-727v148h940v-121z" />
    <glyph glyph-name="four" unicode="4" horiz-adv-x="1212" 
d="M1163 465v-148h-196v-317h-162v317h-744v123l535 994h178l-522 -969h553v362h162v-362h196z" />
    <glyph glyph-name="five" unicode="5" horiz-adv-x="1193" 
d="M618 913v-1c143 0 260 -43 351 -130s137 -199 137 -337c0 -134 -47 -246 -142 -337s-215 -136 -360 -136c-139 0 -253 37 -342 110s-148 164 -178 273l149 39c25 -82 69 -148 131 -198s140 -75 234 -75c105 0 190 31 254 94s96 141 96 234c0 95 -31 173 -92 234
s-147 91 -258 91c-127 0 -239 -40 -336 -119l-123 39l64 740h829v-148h-686l-39 -459c86 57 190 86 311 86z" />
    <glyph glyph-name="six" unicode="6" horiz-adv-x="1161" 
d="M598 946h1c146 -3 265 -50 357 -142s138 -206 138 -343c0 -138 -48 -254 -144 -348s-219 -141 -369 -141s-273 47 -369 141s-144 210 -144 348c0 101 39 211 116 330l430 643h185l-342 -512c41 16 88 24 141 24zM583 123l1 -2c104 0 189 32 254 96s98 145 98 242
s-33 178 -99 243s-151 98 -256 98c-104 0 -189 -32 -255 -97s-99 -146 -99 -243s33 -177 99 -241s152 -96 257 -96z" />
    <glyph glyph-name="seven" unicode="7" horiz-adv-x="1073" 
d="M39 1434h985v-123l-584 -1311h-174l574 1284h-801v150z" />
    <glyph glyph-name="eight" unicode="8" horiz-adv-x="1234" 
d="M877 776l-1 -1c83 -33 148 -82 195 -147s71 -140 71 -226c0 -124 -48 -227 -145 -308s-223 -122 -379 -122c-157 0 -284 41 -381 122s-145 184 -145 308c0 86 24 162 71 227s112 114 195 147c-64 31 -114 73 -150 126s-54 114 -54 182c0 105 43 194 128 266
s197 108 336 108c138 0 250 -36 335 -108s128 -161 128 -266c0 -68 -18 -129 -54 -182s-86 -95 -150 -126zM617 1320h-1c-95 0 -170 -23 -224 -69s-81 -104 -81 -175s27 -129 81 -175s129 -69 224 -69c93 0 167 23 222 69s83 104 83 175s-27 129 -82 175s-129 69 -222 69z
M616 116l1 -1c108 0 195 28 261 84s99 126 99 209c0 85 -33 155 -99 209s-153 81 -262 81c-111 0 -199 -27 -265 -81s-99 -123 -99 -208s33 -155 99 -210s154 -83 265 -83z" />
    <glyph glyph-name="nine" unicode="9" horiz-adv-x="1161" 
d="M579 1460l2 1c150 0 273 -47 369 -140s144 -209 144 -347c0 -101 -39 -211 -117 -330l-430 -643h-185l343 512c-42 -17 -89 -25 -142 -24c-146 1 -265 48 -357 140s-138 207 -138 344c0 138 48 254 143 347s218 140 368 140zM583 636l1 -1c104 0 189 32 254 97
s98 145 98 241c0 97 -33 178 -99 242s-151 96 -256 96c-104 0 -189 -32 -255 -96s-99 -145 -99 -242s33 -177 99 -241s152 -96 257 -96z" />
    <glyph glyph-name="colon" unicode=":" horiz-adv-x="454" 
d="M227 778c-33 0 -60 11 -82 33s-33 49 -33 80s11 58 33 80s49 33 82 33s60 -11 82 -33s33 -49 33 -80s-11 -58 -33 -80s-49 -33 -82 -33zM227 -14c-33 0 -60 11 -82 33s-33 49 -33 82c0 31 11 57 33 78s49 32 82 32s60 -11 82 -32s33 -47 33 -78c0 -33 -11 -60 -33 -82
s-49 -33 -82 -33z" />
    <glyph glyph-name="semicolon" unicode=";" horiz-adv-x="501" 
d="M274 780c-33 0 -60 11 -82 32s-33 48 -33 81c0 31 11 57 33 78s49 32 82 32s60 -11 82 -32s33 -47 33 -78c0 -33 -11 -60 -33 -81s-49 -32 -82 -32zM112 -281l88 492h180l-133 -492h-135z" />
    <glyph glyph-name="less" unicode="&#x3c;" horiz-adv-x="1122" 
d="M969 1128v-147l-680 -262l680 -264v-148l-846 336v150z" />
    <glyph glyph-name="equal" unicode="=" horiz-adv-x="1134" 
d="M143 844v133h846v-133h-846zM147 459v133h844v-133h-844z" />
    <glyph glyph-name="greater" unicode="&#x3e;" horiz-adv-x="1122" 
d="M154 1128l845 -335v-150l-845 -336v148l680 264l-680 262v147z" />
    <glyph glyph-name="question" unicode="?" horiz-adv-x="1148" 
d="M471 395l-4 -1c0 68 13 130 40 186s59 102 97 137s76 69 113 101s69 68 96 107s40 81 40 126c0 77 -26 140 -77 188s-120 72 -207 72s-159 -25 -216 -76s-96 -119 -116 -205l-146 43c23 111 76 203 158 276s190 110 323 110c130 0 237 -37 320 -112s125 -171 125 -288
c0 -60 -14 -115 -41 -164s-60 -91 -99 -125s-77 -68 -115 -102s-71 -74 -98 -120s-41 -97 -41 -153h-152zM541 -15c-33 0 -60 11 -82 33s-33 49 -33 82c0 31 11 57 33 78s49 32 82 32s60 -11 82 -32s33 -47 33 -78c0 -33 -11 -60 -33 -82s-49 -33 -82 -33z" />
    <glyph glyph-name="at" unicode="@" horiz-adv-x="2052" 
d="M1010 -362l4 -2c-262 0 -479 85 -651 256s-258 381 -258 630c0 168 42 322 126 461s198 249 341 329s300 120 471 120c263 0 481 -85 653 -256s258 -386 258 -646c0 -151 -37 -272 -112 -362s-166 -135 -273 -135c-69 0 -124 18 -164 55s-66 87 -78 150
c-78 -117 -193 -176 -344 -177c-124 0 -228 44 -313 132s-127 197 -127 328c0 133 42 243 126 330s189 131 316 131c146 0 259 -58 340 -174v149h141v-639c0 -113 41 -169 123 -168c61 0 116 34 164 103s72 162 72 279c0 223 -72 409 -216 557s-332 222 -565 222
c-224 0 -415 -76 -573 -228s-237 -338 -237 -559c0 -217 74 -399 222 -545s334 -219 558 -219c181 0 324 41 429 123l35 -119c-119 -84 -275 -126 -468 -126zM997 193h-1c94 0 173 31 237 93s96 140 96 234c0 95 -31 174 -93 236s-142 93 -239 93c-90 0 -164 -31 -223 -92
s-88 -140 -88 -236c0 -93 30 -171 89 -234s133 -94 222 -94z" />
    <glyph glyph-name="A" unicode="A" horiz-adv-x="1423" 
d="M1227 0l-156 385h-719l-155 -385h-174l587 1434h203l588 -1434h-174zM412 532h600l-299 738z" />
    <glyph glyph-name="B" unicode="B" horiz-adv-x="1402" 
d="M1051 750l-1 -1c81 -27 144 -72 189 -134s68 -135 68 -218c0 -115 -41 -210 -123 -285s-193 -112 -334 -112h-696v1434h649c129 0 235 -35 318 -105s125 -159 126 -268c2 -146 -63 -250 -196 -311zM796 1287l-484 -2v-485h500c82 0 148 24 198 71s74 105 73 174
c0 71 -26 129 -78 175s-122 68 -209 67zM841 142h-1c91 0 164 26 219 77s82 114 82 188c0 69 -27 130 -80 182s-125 78 -216 78h-533v-525h529z" />
    <glyph glyph-name="C" unicode="C" horiz-adv-x="1597" 
d="M829 -27l1 -2c-211 0 -388 72 -530 215s-213 321 -213 533c0 209 71 384 213 526s318 213 528 213c164 0 306 -40 426 -121s203 -184 248 -310l-160 -39c-37 93 -101 169 -192 229s-199 90 -324 90c-169 0 -307 -57 -415 -170s-162 -251 -162 -414
c0 -167 54 -308 161 -423s246 -173 417 -173c124 0 232 29 323 88s155 135 192 229l156 -41c-47 -125 -130 -228 -249 -309s-259 -121 -420 -121z" />
    <glyph glyph-name="D" unicode="D" horiz-adv-x="1488" 
d="M698 1434c217 0 389 -67 515 -201s189 -306 189 -516s-63 -382 -189 -516s-298 -201 -515 -201h-544v1434h544zM696 150l-2 2c171 0 304 53 400 159s144 243 144 411c0 164 -48 299 -144 405s-229 159 -398 159h-381v-1136h381z" />
    <glyph glyph-name="E" unicode="E" horiz-adv-x="1275" 
d="M1163 1284h-848v-483h744v-144h-744v-507h846v-150h-1007v1434h1009v-150z" />
    <glyph glyph-name="F" unicode="F" horiz-adv-x="1185" 
d="M1147 1284h-830v-502h725v-145h-725v-637h-163v1434h993v-150z" />
    <glyph glyph-name="G" unicode="G" horiz-adv-x="1636" 
d="M1550 760l2 -91c-1 -216 -68 -386 -202 -511s-304 -187 -511 -187c-213 0 -391 71 -535 214s-216 321 -216 534c0 209 71 384 213 526s318 213 528 213c161 0 301 -39 420 -117s203 -180 252 -306l-153 -41c-41 94 -106 170 -196 227s-197 86 -322 86
c-171 0 -310 -57 -418 -170s-162 -251 -162 -414c0 -167 54 -308 162 -424s251 -174 429 -174c155 0 283 45 383 134s155 209 165 359h-564v142h725z" />
    <glyph glyph-name="H" unicode="H" horiz-adv-x="1470" 
d="M1153 1434h164v-1434h-164v657h-836v-657h-163v1434h163v-629h836v629z" />
    <glyph glyph-name="I" unicode="I" horiz-adv-x="471" 
d="M154 0v1434h163v-1434h-163z" />
    <glyph glyph-name="J" unicode="J" 
d="M1108 1434l1 -963c0 -151 -47 -272 -141 -363s-217 -136 -370 -136c-131 0 -242 35 -333 104s-155 161 -193 276l149 45c60 -184 185 -276 375 -276c109 0 195 33 257 99s93 151 93 255v813h-770v146h932z" />
    <glyph glyph-name="K" unicode="K" horiz-adv-x="1388" 
d="M1147 0l-553 676l-277 -301v-375h-163v1434h163v-840l768 840h209l-592 -643l646 -791h-201z" />
    <glyph glyph-name="L" unicode="L" horiz-adv-x="1169" 
d="M317 150h795v-150h-958v1434h163v-1284z" />
    <glyph glyph-name="M" unicode="M" horiz-adv-x="1685" 
d="M1376 1434h156v-1434h-162v1153l-526 -745l-527 745v-1153h-163v1434h155l535 -764z" />
    <glyph glyph-name="N" unicode="N" horiz-adv-x="1480" 
d="M1165 1434h162v-1434h-141l-869 1147v-1147h-163v1434h141l870 -1149v1149z" />
    <glyph glyph-name="O" unicode="O" horiz-adv-x="1650" 
d="M825 -27c-210 0 -386 72 -527 215s-212 321 -212 533c0 209 71 384 212 526s317 213 527 213s386 -71 527 -213s212 -317 212 -526c0 -211 -71 -388 -212 -532s-317 -216 -527 -216zM824 125h-1c169 0 307 57 414 172s161 256 161 424c0 164 -54 303 -161 417
s-245 171 -414 171s-307 -57 -414 -171s-160 -253 -160 -417c0 -168 54 -309 161 -424s245 -172 414 -172z" />
    <glyph glyph-name="P" unicode="P" horiz-adv-x="1316" 
d="M786 1434l-1 -2c143 0 257 -47 342 -141s127 -201 127 -321c0 -123 -43 -230 -128 -322s-201 -138 -348 -138h-463v-510h-161v1434h632zM773 655h-1c98 0 177 31 236 93s89 136 89 221s-30 158 -89 220s-135 93 -227 93h-467v-627h459z" />
    <glyph glyph-name="Q" unicode="Q" horiz-adv-x="1646" 
d="M1559 721h-1c0 -206 -68 -380 -203 -522l168 -199h-174l-95 111c-129 -91 -273 -137 -432 -138c-207 0 -382 72 -524 215s-213 321 -213 533c0 209 71 384 213 526s317 213 525 213s383 -71 524 -213s212 -317 212 -526zM822 125h-2c125 0 236 33 332 100l-340 396h189
l253 -304c94 112 141 247 142 404c0 165 -54 304 -161 417s-245 170 -414 170s-307 -57 -415 -170s-162 -252 -162 -417c0 -168 54 -309 162 -424s247 -172 416 -172z" />
    <glyph glyph-name="R" unicode="R" horiz-adv-x="1384" 
d="M1110 0l-374 562h-420v-563h-161v1434h663c139 0 250 -44 332 -133s123 -190 123 -303c0 -101 -32 -192 -96 -273s-152 -132 -264 -153l385 -571h-188zM316 1285l1 -578h496c91 0 164 28 219 85s83 125 83 204c0 78 -28 146 -83 203s-128 86 -218 86h-498z" />
    <glyph glyph-name="S" unicode="S" horiz-adv-x="1353" 
d="M705 -27l-5 -4c-155 0 -289 42 -403 125s-190 185 -229 305l155 48c33 -95 93 -174 180 -236s189 -93 306 -93c111 0 201 27 270 81s104 116 104 187c0 56 -20 103 -59 141s-107 72 -203 102l-358 114c-211 68 -317 180 -317 336c0 104 46 193 137 267s205 111 342 111
c142 0 264 -33 366 -98s175 -148 218 -249l-151 -47c-35 77 -90 138 -165 182s-164 66 -267 66c-91 0 -166 -22 -225 -67s-88 -98 -88 -160c0 -48 17 -87 51 -118s92 -59 173 -85l348 -111c123 -39 214 -86 274 -141s90 -132 90 -232c0 -117 -51 -217 -153 -300
s-232 -124 -391 -124z" />
    <glyph glyph-name="T" unicode="T" horiz-adv-x="1284" 
d="M1253 1434v-150h-528v-1284h-164v1284h-530v150h1222z" />
    <glyph glyph-name="U" unicode="U" horiz-adv-x="1449" 
d="M1151 1434h162v-865c0 -180 -52 -324 -157 -433s-249 -163 -433 -163s-328 54 -433 163s-157 253 -157 433v865h166v-861c0 -137 37 -246 110 -327s178 -121 315 -121s242 41 316 122s111 190 111 326v861z" />
    <glyph glyph-name="V" unicode="V" horiz-adv-x="1390" 
d="M1184 1434h176l-578 -1434h-174l-577 1434h176l489 -1231z" />
    <glyph glyph-name="W" unicode="W" horiz-adv-x="2019" 
d="M1819 1434h170l-451 -1434h-170l-358 1167l-359 -1167h-170l-450 1434h170l366 -1203l367 1203h149l367 -1203z" />
    <glyph glyph-name="X" unicode="X" horiz-adv-x="1396" 
d="M1356 0h-199l-459 606l-458 -606h-199l545 723l-533 711h199l446 -594l447 594h198l-532 -711z" />
    <glyph glyph-name="Y" unicode="Y" horiz-adv-x="1335" 
d="M1128 1434h185l-563 -885v-549h-164v549l-563 885h186l459 -732z" />
    <glyph glyph-name="Z" unicode="Z" horiz-adv-x="1280" 
d="M311 147h893v-147h-1120v109l874 1177h-852v148h1076v-111z" />
    <glyph glyph-name="bracketleft" unicode="[" horiz-adv-x="679" 
d="M608 1378h-299v-1517h299v-142h-454v1803h454v-144z" />
    <glyph glyph-name="backslash" unicode="\" horiz-adv-x="1118" 
d="M1036 -186h-143l-811 1804h143z" />
    <glyph glyph-name="bracketright" unicode="]" horiz-adv-x="679" 
d="M526 1522v-1803h-454v142h299v1517h-299v144h454z" />
    <glyph glyph-name="asciicircum" unicode="^" horiz-adv-x="1087" 
d="M1004 856h-166l-293 502l-295 -502h-166l379 639h162z" />
    <glyph glyph-name="underscore" unicode="_" horiz-adv-x="1208" 
d="M88 -268v127h1034v-127h-1034z" />
    <glyph glyph-name="grave" unicode="`" horiz-adv-x="344" 
d="M344 1184h-145l-199 278h182z" />
    <glyph glyph-name="a" unicode="a" horiz-adv-x="1318" 
d="M604 -27h-1c-147 0 -270 51 -368 154s-147 231 -147 385c0 153 49 280 147 382s221 153 368 153c179 0 314 -70 405 -209v184h157v-1022h-157v186c-89 -142 -224 -213 -404 -213zM626 117l-1 -2c107 0 198 38 273 113s113 169 113 281s-38 206 -113 281
s-166 113 -272 113c-112 0 -204 -37 -276 -111s-108 -168 -108 -283c0 -113 36 -207 108 -281s164 -111 276 -111z" />
    <glyph glyph-name="b" unicode="b" horiz-adv-x="1318" 
d="M715 1047l-1 -1c147 0 270 -51 368 -153s147 -229 147 -382c0 -154 -49 -282 -147 -385s-221 -154 -368 -154c-90 0 -169 19 -238 57s-124 90 -165 157v-186h-157v1495h157v-657c88 139 223 209 404 209zM691 116l-1 -2c112 0 204 37 276 111s108 168 108 281
c0 115 -36 209 -108 283s-164 111 -276 111c-107 0 -198 -37 -273 -112s-112 -168 -112 -280s38 -205 113 -280s166 -112 273 -112z" />
    <glyph glyph-name="c" unicode="c" horiz-adv-x="1181" 
d="M621 -27h5c-153 0 -280 52 -381 155s-152 232 -152 386c0 151 51 278 152 380s228 153 381 153c121 0 224 -32 309 -96s139 -135 162 -214l-148 -43c-18 56 -57 105 -117 147s-129 63 -208 63c-112 0 -203 -38 -273 -115s-105 -170 -105 -279c0 -108 35 -200 105 -277
s161 -115 272 -115c81 0 151 20 210 60s97 88 114 144l148 -39c-23 -81 -77 -153 -162 -216s-189 -94 -312 -94z" />
    <glyph glyph-name="d" unicode="d" horiz-adv-x="1318" 
d="M1008 1495h157v-1495h-157v186c-89 -142 -224 -213 -405 -213c-147 0 -270 51 -368 154s-147 231 -147 385c0 153 49 280 147 382s221 153 368 153c179 0 314 -70 405 -209v657zM627 117l-1 -2c107 0 198 38 273 113s113 169 113 281s-38 206 -113 281s-166 113 -272 113
c-112 0 -204 -37 -276 -111s-108 -168 -108 -283c0 -113 36 -207 108 -281s164 -111 276 -111z" />
    <glyph glyph-name="e" unicode="e" horiz-adv-x="1208" 
d="M627 -27c-159 0 -288 49 -388 147s-150 229 -150 392c0 153 49 280 146 382s222 153 375 153c159 0 284 -48 375 -145s137 -219 137 -366c0 -31 -1 -56 -4 -74h-872c7 -104 45 -188 113 -252s158 -96 270 -96c83 0 153 19 210 56s99 84 126 141l145 -43
c-38 -83 -98 -153 -180 -210s-183 -85 -303 -85zM244 578l720 2c-7 98 -42 177 -105 237s-147 90 -252 90c-101 0 -185 -32 -252 -96s-104 -142 -111 -233z" />
    <glyph glyph-name="f" unicode="f" horiz-adv-x="819" 
d="M424 1153v-131h367v-143h-367v-879h-156v879h-215v143h215v135c0 116 27 206 82 270s135 96 240 96c81 0 150 -14 207 -43l-41 -133c-45 23 -96 34 -152 33c-120 0 -180 -76 -180 -227z" />
    <glyph glyph-name="g" unicode="g" horiz-adv-x="1314" 
d="M1006 1022l156 -2v-987c0 -142 -47 -259 -141 -352s-216 -139 -365 -139c-224 0 -386 90 -485 269l139 51c73 -121 189 -182 348 -182c107 0 191 33 252 100s93 152 96 255v174c-89 -131 -223 -197 -402 -197c-149 0 -272 50 -370 149s-147 222 -147 369
c0 149 49 272 147 370s221 147 370 147c180 0 314 -65 402 -195v170zM628 154l-1 -3c107 0 197 36 271 108s111 160 111 265c0 107 -37 196 -111 268s-164 108 -270 108c-112 0 -204 -35 -276 -105s-108 -160 -108 -269c0 -108 36 -197 108 -267s164 -105 276 -105z" />
    <glyph glyph-name="h" unicode="h" 
d="M690 1047v-1c127 0 227 -40 300 -119s110 -188 110 -327v-600h-158v578c0 101 -25 180 -75 236s-121 84 -213 84c-103 0 -186 -35 -249 -106s-95 -164 -95 -279v-514h-157v1495h157v-653c38 61 90 111 155 149s140 57 225 57z" />
    <glyph glyph-name="i" unicode="i" horiz-adv-x="481" 
d="M240 1212l-2 -1c-31 0 -57 10 -78 31s-31 47 -31 78c0 29 11 54 32 74s47 30 77 30s56 -10 77 -30s32 -44 32 -73c0 -31 -10 -57 -30 -78s-46 -31 -77 -31zM160 -1v1022h157v-1022h-157z" />
    <glyph glyph-name="j" unicode="j" horiz-adv-x="475" 
d="M235 1212l-2 -1c-32 0 -58 10 -78 31s-30 47 -30 78c0 29 11 54 32 74s47 30 77 30s56 -10 77 -30s32 -44 32 -73c0 -31 -10 -57 -30 -78s-46 -31 -78 -31zM153 -105l-1 1126h157v-1118c0 -113 -25 -201 -76 -265s-127 -96 -228 -96c-55 0 -111 14 -168 41l39 131
c35 -22 74 -33 117 -32c107 0 160 71 160 213z" />
    <glyph glyph-name="k" unicode="k" horiz-adv-x="1077" 
d="M860 0l-393 471l-156 -162v-309h-157v1495h157v-983l488 510h194l-424 -444l478 -578h-187z" />
    <glyph glyph-name="l" unicode="l" horiz-adv-x="464" 
d="M154 0v1495h157v-1495h-157z" />
    <glyph glyph-name="m" unicode="m" horiz-adv-x="1886" 
d="M1346 1047l-1 -2c123 0 220 -38 291 -114s107 -182 107 -319v-614h-158v590c0 98 -22 174 -67 228s-111 81 -198 81s-158 -32 -212 -96s-81 -149 -81 -256v-547h-158v590c0 97 -21 173 -64 228s-105 82 -187 82c-90 0 -163 -34 -220 -103s-85 -160 -85 -273v-522h-157
v1022h157v-168c77 129 190 193 340 193c155 0 264 -66 327 -197c75 131 197 197 366 197z" />
    <glyph glyph-name="n" unicode="n" 
d="M690 1047v-1c127 0 227 -40 300 -119s110 -188 110 -327v-600h-158v578c0 101 -25 180 -75 236s-121 84 -213 84c-103 0 -186 -35 -249 -106s-95 -164 -95 -279v-514h-157v1022h157v-180c38 61 90 111 155 149s140 57 225 57z" />
    <glyph glyph-name="o" unicode="o" horiz-adv-x="1255" 
d="M628 -27h-1c-154 0 -283 52 -386 155s-154 231 -154 384s52 280 155 382s232 153 386 153s282 -51 384 -153s153 -229 153 -382s-51 -281 -153 -384s-230 -155 -384 -155zM627 119l-1 -2c109 0 200 37 273 111s110 167 110 279s-36 206 -109 281s-164 113 -273 113
c-111 0 -203 -37 -277 -112s-111 -168 -111 -280s37 -205 111 -279s166 -111 277 -111z" />
    <glyph glyph-name="p" unicode="p" horiz-adv-x="1318" 
d="M715 1047l-1 -1c147 0 270 -51 368 -153s147 -229 147 -382c0 -154 -49 -282 -147 -385s-221 -154 -368 -154c-90 0 -169 19 -238 57s-124 90 -165 157v-616h-157v1452h157v-184c88 139 223 209 404 209zM691 116l-1 -2c112 0 204 37 276 111s108 168 108 281
c0 115 -36 209 -108 283s-164 111 -276 111c-107 0 -198 -37 -273 -112s-112 -168 -112 -280s38 -205 113 -280s166 -112 273 -112z" />
    <glyph glyph-name="q" unicode="q" horiz-adv-x="1318" 
d="M1008 1022h157v-1452h-157v616c-89 -142 -224 -213 -405 -213c-147 0 -270 51 -368 154s-147 231 -147 385c0 153 49 280 147 382s221 153 368 153c179 0 314 -70 405 -209v184zM627 117l-1 -2c107 0 198 38 273 113s113 169 113 281s-38 206 -113 281s-166 113 -272 113
c-112 0 -204 -37 -276 -111s-108 -168 -108 -283c0 -113 36 -207 108 -281s164 -111 276 -111z" />
    <glyph glyph-name="r" unicode="r" horiz-adv-x="724" 
d="M311 846h1c31 69 78 121 141 155s138 45 225 32v-147c-115 15 -205 -10 -270 -76s-97 -177 -97 -333v-477h-157v1022h157v-176z" />
    <glyph glyph-name="s" unicode="s" horiz-adv-x="1044" 
d="M528 -27l-2 -5c-113 0 -213 30 -300 90s-143 134 -169 221l148 41c19 -61 58 -112 117 -152s128 -60 207 -60c75 0 137 16 185 49s72 73 72 120c0 39 -11 69 -34 90s-61 40 -114 57l-291 86c-159 47 -238 130 -237 249c0 78 36 145 108 202s161 85 266 85
s195 -24 271 -72s130 -109 162 -182l-144 -43c-19 47 -54 86 -106 117s-113 47 -184 47c-64 0 -116 -16 -156 -47s-60 -66 -60 -104c0 -55 46 -96 137 -123l291 -86c78 -23 139 -55 183 -95s66 -97 66 -170c0 -90 -39 -165 -118 -225s-178 -90 -298 -90z" />
    <glyph glyph-name="t" unicode="t" horiz-adv-x="837" 
d="M715 166l43 -135c-69 -30 -140 -45 -213 -45c-100 0 -175 29 -225 87s-75 137 -75 238v568h-203v143h203v352h157v-352h351v-143h-351v-568c0 -120 55 -180 166 -180c51 0 100 12 147 35z" />
    <glyph glyph-name="u" unicode="u" 
d="M932 1022l158 -2v-1022h-158v178c-83 -137 -209 -205 -377 -205c-129 0 -230 40 -303 119s-109 189 -109 330v600h158v-578c0 -101 25 -180 75 -236s121 -84 212 -84c104 0 187 36 250 107s94 164 94 279v514z" />
    <glyph glyph-name="v" unicode="v" horiz-adv-x="1107" 
d="M915 1022h170l-444 -1022h-174l-444 1022h170l362 -850z" />
    <glyph glyph-name="w" unicode="w" horiz-adv-x="1574" 
d="M1386 1022h164l-350 -1022h-153l-259 786l-260 -786h-153l-352 1022h165l269 -821l262 821h137l262 -821z" />
    <glyph glyph-name="x" unicode="x" horiz-adv-x="1071" 
d="M1049 0h-189l-323 410l-326 -410h-188l407 516l-387 506h184l310 -397l307 397h184l-387 -506z" />
    <glyph glyph-name="y" unicode="y" horiz-adv-x="1118" 
d="M928 1022h168l-629 -1452h-166l195 450l-473 1002h174l378 -825z" />
    <glyph glyph-name="z" unicode="z" horiz-adv-x="1056" 
d="M307 137h660v-137h-875v104l643 781h-631v137h844v-109z" />
    <glyph glyph-name="braceleft" unicode="{" horiz-adv-x="772" 
d="M485 868v-1c0 -135 -51 -217 -153 -246c103 -31 154 -114 153 -248v-344c0 -120 52 -180 156 -181h59v-139h-90c-184 0 -276 100 -276 301v363c0 52 -16 94 -49 127s-76 49 -129 49h-43v143h43c53 0 96 16 129 48s49 75 49 128v361c0 202 92 303 276 303h90v-141h-59
c-104 0 -156 -60 -156 -181v-342z" />
    <glyph glyph-name="bar" unicode="|" horiz-adv-x="430" 
d="M143 -256v1905h144v-1905h-144z" />
    <glyph glyph-name="braceright" unicode="}" horiz-adv-x="772" 
d="M616 692h43v-143h-43c-53 0 -96 -16 -129 -49s-49 -75 -49 -127v-363c0 -201 -92 -301 -276 -301h-90v139h59c104 0 156 60 156 181v344c0 134 51 217 153 248c-103 30 -154 112 -153 247v342c0 120 -52 180 -156 181h-59v141h90c184 0 276 -101 276 -303v-361
c0 -53 16 -96 49 -128s76 -48 129 -48z" />
    <glyph glyph-name="asciitilde" unicode="~" horiz-adv-x="1206" 
d="M264 582l-138 40c0 71 20 130 60 177s102 71 185 71c53 0 108 -14 164 -42s109 -55 158 -82s91 -40 126 -40c82 0 123 50 123 151l141 -41c0 -71 -20 -131 -59 -180s-100 -73 -182 -73c-55 0 -111 14 -168 42s-110 56 -159 83s-91 41 -126 41c-83 0 -125 -49 -125 -147z
" />
    <glyph glyph-name="exclamdown" unicode="&#xa1;" horiz-adv-x="454" 
d="M227 1034v-3c33 0 60 -10 82 -31s33 -48 33 -81c0 -31 -11 -57 -33 -78s-49 -32 -82 -32s-60 11 -82 32s-33 48 -33 80c0 33 11 60 33 81s49 32 82 32zM289 624l24 -1039h-180l27 1039h129z" />
    <glyph glyph-name="cent" unicode="&#xa2;" horiz-adv-x="1177" 
d="M625 322v-1c81 0 151 20 210 60s97 88 114 144l148 -41c-21 -73 -67 -139 -139 -198s-161 -94 -268 -105v-215h-139v215c-134 18 -244 77 -330 176s-129 219 -129 360c0 139 43 258 128 356s195 156 330 173v217h139v-217c105 -11 194 -47 267 -108s120 -127 141 -198
l-148 -43c-18 55 -57 104 -117 146s-129 63 -208 63c-111 0 -201 -38 -271 -114s-105 -169 -105 -278c0 -108 35 -200 105 -277s161 -115 272 -115z" />
    <glyph glyph-name="sterling" unicode="&#xa3;" horiz-adv-x="1323" 
d="M453 152h790v-152h-1147v152h195v444h-158v135h158v326c0 130 38 230 113 301s175 106 300 106c119 0 217 -33 294 -100s125 -149 144 -246l-144 -41c-45 160 -144 240 -297 240c-79 0 -140 -23 -183 -70s-65 -113 -65 -198v-318h522v-135h-522v-444z" />
    <glyph glyph-name="currency" unicode="&#xa4;" horiz-adv-x="1261" 
d="M1110 655v1c0 -108 -31 -204 -94 -288l164 -164l-97 -97l-159 164c-86 -64 -184 -96 -293 -96c-111 0 -208 32 -291 96l-162 -164l-96 97l164 164c-61 86 -92 182 -92 288c0 109 31 206 94 291l-166 162l96 96l164 -164c82 64 178 96 289 96s208 -32 291 -97l161 164
l97 -96l-164 -162c63 -85 94 -182 94 -291zM295 656v1c0 -96 32 -176 96 -240s144 -96 240 -96s176 32 241 96s98 144 99 239c-1 95 -34 175 -99 240s-145 98 -241 98s-176 -32 -240 -97s-96 -145 -96 -241z" />
    <glyph glyph-name="yen" unicode="&#xa5;" horiz-adv-x="1372" 
d="M1331 1434l-495 -779h360v-108h-428v-137h428v-109h-428v-301h-164v301h-422v109h422v137h-422v108h355l-496 779h184l461 -734l461 734h184z" />
    <glyph glyph-name="brokenbar" unicode="&#xa6;" horiz-adv-x="430" 
d="M143 911v738h144v-738h-144zM143 -256v737h144v-737h-144z" />
    <glyph glyph-name="section" unicode="&#xa7;" horiz-adv-x="1132" 
d="M872 412l-2 -3c78 -51 117 -119 117 -205c0 -89 -39 -164 -117 -226s-178 -93 -300 -93c-109 0 -207 30 -293 89s-141 132 -166 218l145 43c21 -63 61 -114 120 -154s128 -60 207 -60c73 1 133 19 180 54s71 75 71 119c0 37 -11 65 -34 84s-62 38 -117 56l-301 98
c-168 52 -252 144 -252 275c0 52 17 101 50 146s74 81 122 107c-77 51 -115 119 -115 204c0 81 36 150 109 207s163 86 270 86c97 0 181 -22 252 -67s121 -103 150 -175l-144 -41c-19 44 -51 80 -95 108s-98 42 -163 42c-73 1 -129 -15 -168 -49s-58 -69 -58 -105
c0 -60 46 -108 139 -143l293 -98c81 -27 143 -61 185 -101s63 -97 63 -171c-1 -94 -50 -176 -148 -245zM453 554l280 -88c85 52 127 113 127 182c0 39 -11 70 -34 92s-61 42 -114 60l-279 94c-45 -19 -81 -45 -108 -78s-40 -66 -40 -100c0 -77 56 -131 168 -162z" />
    <glyph glyph-name="dieresis" unicode="&#xa8;" horiz-adv-x="571" 
d="M96 1178v-1c-27 0 -50 9 -68 27s-27 41 -27 68s9 50 27 68s41 27 68 27s50 -9 69 -27s28 -40 28 -67s-9 -50 -28 -68s-42 -27 -69 -27zM475 1177v-1c-29 0 -52 9 -70 27s-27 41 -27 68s9 50 27 68s41 27 70 27c27 0 50 -9 68 -27s27 -40 27 -67s-9 -50 -27 -68
s-41 -27 -68 -27z" />
    <glyph glyph-name="copyright" unicode="&#xa9;" horiz-adv-x="1546" 
d="M774 33h-3c-195 0 -359 66 -491 198s-198 295 -198 489c0 191 67 352 200 483s297 197 491 197c195 0 359 -65 491 -195s198 -291 198 -484c0 -195 -66 -358 -198 -490s-295 -198 -490 -198zM771 141h-2c164 0 301 55 412 166s166 249 166 414c0 164 -55 300 -166 408
s-248 162 -412 162s-301 -54 -412 -162s-166 -244 -166 -408c0 -165 56 -303 167 -414s249 -166 413 -166zM777 365l-2 1c-101 0 -185 34 -252 101s-101 151 -101 252c0 98 34 181 102 248s152 101 251 101c83 0 153 -21 210 -63s95 -93 114 -153l-115 -27
c-12 38 -37 70 -75 95s-82 38 -133 38c-71 0 -128 -23 -172 -69s-66 -102 -66 -169c0 -68 22 -126 66 -173s101 -71 172 -71c52 0 97 13 135 38s63 57 75 95l113 -30c-18 -59 -56 -109 -113 -151s-127 -63 -209 -63z" />
    <glyph glyph-name="guillemotleft" unicode="&#xab;" horiz-adv-x="964" 
d="M510 1014l-205 -359l205 -358h-160l-207 358l207 359h160zM821 1014l-205 -359l205 -358h-157l-209 358l209 359h157z" />
    <glyph glyph-name="logicalnot" unicode="&#xac;" horiz-adv-x="1163" 
d="M1020 899v-430h-141v297h-736v133h877z" />
    <glyph glyph-name="registered" unicode="&#xae;" horiz-adv-x="1546" 
d="M774 1401l-1 -4c195 0 359 -65 491 -196s198 -293 198 -487s-66 -356 -198 -487s-295 -196 -490 -196s-359 66 -491 197s-198 294 -198 488s66 357 198 488s296 197 491 197zM773 133c165 0 303 55 413 166s165 249 165 414s-55 303 -165 413s-248 165 -413 165
s-303 -55 -413 -165s-165 -248 -165 -413s55 -303 165 -414s248 -166 413 -166zM1070 836l-2 -2c0 -45 -14 -87 -41 -125s-65 -64 -114 -79l162 -256h-133l-151 246h-162v-246h-115v680h328c68 0 123 -22 165 -66s63 -95 63 -152zM628 946l1 -226h205c35 0 64 11 86 33
s33 49 33 80s-11 58 -33 80s-50 33 -85 33h-207z" />
    <glyph glyph-name="macron" unicode="&#xaf;" horiz-adv-x="538" 
d="M0 1212v123h539v-123h-539z" />
    <glyph glyph-name="degree" unicode="&#xb0;" horiz-adv-x="821" 
d="M411 887h-1c-92 0 -169 31 -232 93s-95 137 -95 226c0 90 32 166 95 228s141 93 233 93s169 -31 232 -93s94 -138 94 -228c0 -89 -31 -164 -94 -226s-140 -93 -232 -93zM410 1008c56 0 103 19 141 58s57 86 57 141c1 56 -17 103 -55 141s-86 57 -143 57
s-105 -19 -143 -57s-57 -85 -57 -141c0 -55 19 -102 57 -141s86 -58 143 -58z" />
    <glyph glyph-name="plusminus" unicode="&#xb1;" horiz-adv-x="1132" 
d="M635 920h354v-134h-354v-307h-135v307h-357v134h357v305h135v-305zM143 211v133h846v-133h-846z" />
    <glyph glyph-name="uni00B2" unicode="&#xb2;" horiz-adv-x="694" 
d="M244 1036l393 -1v-114h-592v88l328 313c41 39 70 72 88 98s27 54 27 84c0 42 -13 76 -39 102s-63 39 -111 39c-91 0 -148 -51 -170 -154l-121 33c9 65 40 121 93 167s118 69 196 69c86 0 155 -22 208 -67s79 -106 79 -184c0 -48 -12 -90 -36 -126s-61 -77 -110 -123z" />
    <glyph glyph-name="uni00B3" unicode="&#xb3;" horiz-adv-x="716" 
d="M434 1425l-1 1c68 -8 123 -35 165 -81s63 -102 63 -169c0 -77 -28 -142 -83 -195s-126 -79 -212 -79c-93 0 -166 24 -220 72s-87 106 -100 174l117 33c8 -48 30 -88 66 -119s80 -47 131 -47c53 0 96 15 128 46s48 69 48 114s-15 83 -46 113s-75 45 -132 45
c-11 0 -30 -1 -57 -4l-20 78l194 221h-403v113h561v-94z" />
    <glyph glyph-name="acute" unicode="&#xb4;" horiz-adv-x="344" 
d="M0 1184l164 278h180l-199 -278h-145z" />
    <glyph glyph-name="paragraph" unicode="&#xb6;" horiz-adv-x="1320" 
d="M1184 1434l-1 -150h-131v-1714h-150v1714h-260v-1714h-151v1046c-117 0 -215 39 -293 117s-117 174 -117 289c0 116 40 214 121 293s181 119 300 119h682z" />
    <glyph glyph-name="periodcentered" unicode="&#xb7;" horiz-adv-x="454" 
d="M227 481c-33 0 -60 11 -82 33s-33 49 -33 80s11 58 33 80s49 33 82 33s60 -11 82 -33s33 -49 33 -80s-11 -58 -33 -80s-49 -33 -82 -33z" />
    <glyph glyph-name="cedilla" unicode="&#xb8;" horiz-adv-x="428" 
d="M207 -455l-2 2c-79 0 -148 22 -207 66l27 90c63 -44 125 -62 186 -54s92 34 92 78c0 35 -23 59 -69 72s-93 14 -142 3l64 199h127l-37 -119c55 -4 99 -21 132 -51s49 -67 49 -111c0 -55 -21 -98 -63 -129s-94 -46 -157 -46z" />
    <glyph glyph-name="uni00B9" unicode="&#xb9;" horiz-adv-x="497" 
d="M268 1741h111v-819h-127v671l-205 -98l-31 113z" />
    <glyph glyph-name="guillemotright" unicode="&#xbb;" horiz-adv-x="964" 
d="M303 1014l207 -359l-207 -358h-160l205 358l-205 359h160zM614 1014l207 -359l-207 -358h-159l204 358l-204 359h159z" />
    <glyph glyph-name="onequarter" unicode="&#xbc;" horiz-adv-x="1589" 
d="M252 614v672l-205 -98l-31 112l252 134h111v-820h-127zM1071 1434h133l-895 -1434h-133zM1554 287v-115h-106v-172h-123v172h-416v100l295 547h137l-284 -532h268v182h123v-182h106z" />
    <glyph glyph-name="onehalf" unicode="&#xbd;" horiz-adv-x="1576" 
d="M252 614v672l-205 -98l-31 112l252 134h111v-820h-127zM1071 1434h133l-895 -1434h-133zM1126 115h397v-115h-592v88l327 313c41 39 70 72 88 98s27 54 27 84c0 42 -13 76 -40 101s-64 38 -111 38c-91 0 -148 -51 -170 -154l-121 33c9 65 40 121 93 168s118 70 196 70
c86 0 155 -22 207 -67s78 -106 78 -184c0 -48 -12 -90 -36 -126s-60 -77 -109 -124z" />
    <glyph glyph-name="threequarters" unicode="&#xbe;" horiz-adv-x="1808" 
d="M662 868l-1 -4c0 -77 -28 -141 -83 -193s-126 -78 -212 -78c-93 0 -166 24 -220 72s-87 106 -100 175l117 32c8 -48 30 -87 66 -118s80 -46 131 -46c53 0 96 15 128 46s48 69 48 114s-15 83 -46 113s-75 45 -132 45c-11 0 -30 -1 -57 -4l-20 78l194 221h-403v113h561v-95
l-199 -221c68 -8 123 -35 165 -81s63 -102 63 -169zM1289 1430h133l-895 -1434h-133zM1773 283v-115h-107v-172h-123v172h-416v100l295 547h138l-285 -532h268v182h123v-182h107z" />
    <glyph glyph-name="questiondown" unicode="&#xbf;" horiz-adv-x="1107" 
d="M565 1034v-3c33 0 60 -10 82 -31s33 -48 33 -81c0 -31 -11 -57 -33 -78s-49 -32 -82 -32s-60 11 -82 32s-33 48 -33 80c0 33 11 60 33 81s49 32 82 32zM639 624l2 -3c0 -68 -13 -130 -40 -186s-59 -102 -97 -137s-75 -69 -112 -101s-69 -67 -96 -106s-40 -81 -40 -126
c0 -77 26 -139 78 -187s121 -72 207 -72c87 0 159 25 216 75s96 118 117 204l144 -41c-23 -111 -76 -203 -158 -276s-190 -109 -323 -109c-130 0 -237 38 -320 113s-125 171 -125 288c0 60 14 115 41 164s60 91 99 125s78 68 116 101s71 73 98 120s41 98 41 154h152z" />
    <glyph glyph-name="Agrave" unicode="&#xc0;" horiz-adv-x="1423" 
d="M801 1595h-146l-198 279h182zM1227 0l-156 385h-719l-155 -385h-174l587 1434h203l588 -1434h-174zM412 532h600l-299 738z" />
    <glyph glyph-name="Aacute" unicode="&#xc1;" horiz-adv-x="1423" 
d="M965 1874l-199 -279h-145l163 279h181zM1227 0l-156 385h-719l-155 -385h-174l587 1434h203l588 -1434h-174zM412 532h600l-299 738z" />
    <glyph glyph-name="Acircumflex" unicode="&#xc2;" horiz-adv-x="1423" 
d="M711 1778l-144 -187h-161l221 271h166l223 -271h-160zM1227 0l-156 385h-719l-155 -385h-174l587 1434h203l588 -1434h-174zM412 532h600l-299 738z" />
    <glyph glyph-name="Atilde" unicode="&#xc3;" horiz-adv-x="1423" 
d="M578 1722h1c-37 0 -56 -38 -57 -114h-119c0 161 55 241 166 240c41 0 92 -20 152 -61s101 -61 123 -61c37 0 55 38 55 115h121c0 -160 -55 -240 -166 -239c-41 0 -91 20 -151 60s-102 60 -125 60zM1228 0l-156 385h-719l-155 -385h-174l587 1434h203l588 -1434h-174z
M413 532h600l-299 738z" />
    <glyph glyph-name="Adieresis" unicode="&#xc4;" horiz-adv-x="1423" 
d="M522 1589v-1c-27 0 -50 9 -68 28s-27 42 -27 69s9 50 27 68s41 27 68 27s50 -9 68 -27s27 -40 27 -67s-9 -50 -27 -69s-41 -28 -68 -28zM901 1588v-1c-29 0 -52 9 -70 28s-27 42 -27 69s9 50 27 68s41 27 70 27c27 0 50 -9 68 -27s27 -40 27 -67s-9 -50 -27 -69
s-41 -28 -68 -28zM1227 -2l-156 385h-719l-155 -385h-174l587 1434h203l588 -1434h-174zM412 530h600l-299 738z" />
    <glyph glyph-name="Aring" unicode="&#xc5;" horiz-adv-x="1423" 
d="M711 1542h-2c-64 0 -118 21 -162 63s-66 95 -66 158s22 116 66 158s98 63 163 63s120 -21 164 -63s66 -95 66 -158s-22 -116 -66 -158s-98 -63 -163 -63zM709 1878l-3 -2c-35 0 -63 -10 -84 -31s-32 -49 -32 -83s11 -62 32 -83s50 -31 86 -31c37 0 66 11 87 32
s32 49 32 83s-10 62 -31 83s-50 32 -87 32zM1222 -2l-156 385h-719l-155 -385h-174l587 1434h203l588 -1434h-174zM407 530h600l-299 738z" />
    <glyph glyph-name="AE" unicode="&#xc6;" horiz-adv-x="1996" 
d="M1884 1284h-749v-483h645v-144h-645v-507h747v-150h-907v387h-537l-233 -387h-182l872 1434h989v-150zM528 535h447v739z" />
    <glyph glyph-name="Ccedilla" unicode="&#xc7;" horiz-adv-x="1597" 
d="M827 127l-3 -2c124 0 232 29 323 88s155 135 192 229l156 -41c-42 -116 -117 -213 -224 -292s-234 -124 -380 -135l-29 -94c55 -4 99 -21 132 -51s49 -67 49 -111c0 -55 -21 -98 -63 -129s-95 -46 -158 -46c-79 0 -148 22 -207 66l27 90c63 -44 125 -62 187 -54
s93 34 93 78c0 35 -23 59 -69 72s-93 14 -142 3l55 174c-197 15 -359 93 -487 234s-192 312 -192 513c0 209 71 384 213 526s318 213 528 213c164 0 306 -40 426 -121s203 -184 248 -310l-160 -39c-37 93 -101 169 -192 229s-199 90 -324 90c-169 0 -307 -57 -415 -170
s-162 -251 -162 -414c0 -167 54 -308 161 -423s246 -173 417 -173z" />
    <glyph glyph-name="Egrave" unicode="&#xc8;" horiz-adv-x="1275" 
d="M741 1595h-145l-199 279h183zM1163 1284h-848v-483h744v-144h-744v-507h846v-150h-1007v1434h1009v-150z" />
    <glyph glyph-name="Eacute" unicode="&#xc9;" horiz-adv-x="1275" 
d="M905 1874l-198 -279h-146l164 279h180zM1163 1284h-848v-483h744v-144h-744v-507h846v-150h-1007v1434h1009v-150z" />
    <glyph glyph-name="Ecircumflex" unicode="&#xca;" horiz-adv-x="1275" 
d="M651 1778l-143 -187h-162l221 271h166l223 -271h-159zM1163 1284h-848v-483h744v-144h-744v-507h846v-150h-1007v1434h1009v-150z" />
    <glyph glyph-name="Edieresis" unicode="&#xcb;" horiz-adv-x="1275" 
d="M463 1589v-1c-27 0 -50 9 -68 28s-27 42 -27 69s9 50 27 68s41 27 68 27s50 -9 68 -27s27 -40 27 -67s-9 -50 -27 -69s-41 -28 -68 -28zM842 1588v-1c-29 0 -52 9 -70 28s-27 42 -27 69s9 50 27 68s41 27 70 27c27 0 50 -9 68 -27s27 -40 27 -67s-9 -50 -27 -69
s-41 -28 -68 -28zM1163 1282h-848v-483h744v-144h-744v-507h846v-150h-1007v1434h1009v-150z" />
    <glyph glyph-name="Igrave" unicode="&#xcc;" horiz-adv-x="471" 
d="M326 1595h-146l-198 279h182zM154 0v1434h163v-1434h-163z" />
    <glyph glyph-name="Iacute" unicode="&#xcd;" horiz-adv-x="471" 
d="M147 1595l164 279h181l-199 -279h-146zM154 0v1434h163v-1434h-163z" />
    <glyph glyph-name="Icircumflex" unicode="&#xce;" horiz-adv-x="471" 
d="M319 1862l224 -271h-160l-145 187l-144 -187h-162l222 271h165zM154 0v1434h163v-1434h-163z" />
    <glyph glyph-name="Idieresis" unicode="&#xcf;" horiz-adv-x="471" 
d="M47 1589v-1c-27 0 -50 9 -68 28s-27 42 -27 69s9 50 27 68s41 27 68 27s50 -9 68 -27s27 -40 27 -67s-9 -50 -27 -69s-41 -28 -68 -28zM426 1588v-1c-29 0 -52 9 -70 28s-27 42 -27 69s9 50 27 68s41 27 70 27c27 0 50 -9 68 -27s27 -40 27 -67s-9 -50 -27 -69
s-41 -28 -68 -28zM154 -2v1434h163v-1434h-163z" />
    <glyph glyph-name="Eth" unicode="&#xd0;" horiz-adv-x="1552" 
d="M762 1434h-1c217 0 389 -67 515 -201s189 -306 189 -516s-63 -382 -189 -516s-297 -201 -514 -201h-545v645h-145v141h145v648h545zM759 150v2c169 0 302 53 398 159s144 243 144 411c0 164 -48 299 -144 405s-229 159 -398 159h-381v-500h444v-141h-444v-495h381z" />
    <glyph glyph-name="Ntilde" unicode="&#xd1;" horiz-adv-x="1480" 
d="M608 1722h-2c-37 0 -55 -38 -55 -114h-119c0 161 55 241 166 240c41 0 92 -20 152 -61s101 -61 122 -61c37 0 56 38 57 115h121c0 -160 -55 -240 -166 -239c-41 0 -91 20 -151 60s-102 60 -125 60zM1163 1434h162v-1434h-141l-869 1147v-1147h-163v1434h141l870 -1149
v1149z" />
    <glyph glyph-name="Ograve" unicode="&#xd2;" horiz-adv-x="1650" 
d="M915 1595h-145l-199 279h183zM825 -27c-210 0 -386 72 -527 215s-212 321 -212 533c0 209 71 384 212 526s317 213 527 213s386 -71 527 -213s212 -317 212 -526c0 -211 -71 -388 -212 -532s-317 -216 -527 -216zM824 125h-1c169 0 307 57 414 172s161 256 161 424
c0 164 -54 303 -161 417s-245 171 -414 171s-307 -57 -414 -171s-160 -253 -160 -417c0 -168 54 -309 161 -424s245 -172 414 -172z" />
    <glyph glyph-name="Oacute" unicode="&#xd3;" horiz-adv-x="1650" 
d="M735 1595l164 279h180l-198 -279h-146zM825 -27c-210 0 -386 72 -527 215s-212 321 -212 533c0 209 71 384 212 526s317 213 527 213s386 -71 527 -213s212 -317 212 -526c0 -211 -71 -388 -212 -532s-317 -216 -527 -216zM824 125h-1c169 0 307 57 414 172
s161 256 161 424c0 164 -54 303 -161 417s-245 171 -414 171s-307 -57 -414 -171s-160 -253 -160 -417c0 -168 54 -309 161 -424s245 -172 414 -172z" />
    <glyph glyph-name="Ocircumflex" unicode="&#xd4;" horiz-adv-x="1650" 
d="M827 1778l-143 -187h-162l221 271h166l224 -271h-160zM825 1460c210 0 386 -71 527 -213s212 -317 212 -526c0 -211 -71 -388 -212 -532s-317 -216 -527 -216s-386 72 -527 215s-212 321 -212 533c0 209 71 384 212 526s317 213 527 213zM824 125h-1
c169 0 307 57 414 172s161 256 161 424c0 164 -54 303 -161 417s-245 171 -414 171s-307 -57 -414 -171s-160 -253 -160 -417c0 -168 54 -309 161 -424s245 -172 414 -172z" />
    <glyph glyph-name="Otilde" unicode="&#xd5;" horiz-adv-x="1650" 
d="M969 1602h-2c-41 0 -91 20 -151 60s-102 60 -125 60c-37 0 -55 -38 -55 -114h-119c0 161 55 241 166 240c41 0 92 -20 152 -61s101 -61 122 -61c37 0 56 38 57 115h121c0 -159 -55 -239 -166 -239zM823 -27c-210 0 -386 72 -527 215s-212 321 -212 533
c0 209 71 384 212 526s317 213 527 213s386 -71 527 -213s212 -317 212 -526c0 -211 -71 -388 -212 -532s-317 -216 -527 -216zM822 125h-1c169 0 307 57 414 172s161 256 161 424c0 164 -54 303 -161 417s-245 171 -414 171s-307 -57 -414 -171s-160 -253 -160 -417
c0 -168 54 -309 161 -424s245 -172 414 -172z" />
    <glyph glyph-name="Odieresis" unicode="&#xd6;" horiz-adv-x="1650" 
d="M637 1589v-1c-27 0 -50 9 -68 28s-27 42 -27 69s9 50 27 68s41 27 68 27s50 -9 68 -27s27 -40 27 -67s-9 -50 -27 -69s-41 -28 -68 -28zM1016 1588v-1c-29 0 -52 9 -70 28s-27 42 -27 69s9 50 27 68s41 27 70 27c27 0 50 -9 68 -27s27 -40 27 -67s-9 -50 -27 -69
s-41 -28 -68 -28zM825 -29c-210 0 -386 72 -527 215s-212 321 -212 533c0 209 71 384 212 526s317 213 527 213s386 -71 527 -213s212 -317 212 -526c0 -211 -71 -388 -212 -532s-317 -216 -527 -216zM824 123h-1c169 0 307 57 414 172s161 256 161 424
c0 164 -54 303 -161 417s-245 171 -414 171s-307 -57 -414 -171s-160 -253 -160 -417c0 -168 54 -309 161 -424s245 -172 414 -172z" />
    <glyph glyph-name="multiply" unicode="&#xd7;" horiz-adv-x="1030" 
d="M887 997l-279 -278l277 -277l-92 -96l-277 279l-276 -277l-97 94l279 277l-277 276l93 95l276 -277l279 277z" />
    <glyph glyph-name="Oslash" unicode="&#xd8;" horiz-adv-x="1650" 
d="M1307 1290l-1 -1c81 -68 144 -151 190 -249s69 -204 69 -319c0 -211 -71 -388 -212 -532s-317 -216 -528 -216c-137 0 -262 32 -375 97l-68 -97h-133l110 158c-86 68 -153 153 -201 256s-72 214 -72 334c0 209 71 384 212 526s317 213 527 213c142 0 273 -35 392 -106
l73 106h135zM249 720l-1 1c0 -193 67 -347 201 -462l677 967c-89 55 -190 82 -303 82c-169 0 -307 -57 -414 -171s-160 -253 -160 -417zM823 125l1 -1c169 0 307 57 414 172s161 256 161 424c0 179 -61 326 -184 441l-678 -964c87 -48 182 -72 286 -72z" />
    <glyph glyph-name="Ugrave" unicode="&#xd9;" horiz-adv-x="1449" 
d="M815 1595h-145l-199 279h182zM1151 1434h162v-865c0 -180 -52 -324 -157 -433s-249 -163 -433 -163s-328 54 -433 163s-157 253 -157 433v865h166v-861c0 -137 37 -246 110 -327s178 -121 315 -121s242 41 316 122s111 190 111 326v861z" />
    <glyph glyph-name="Uacute" unicode="&#xda;" horiz-adv-x="1449" 
d="M979 1874l-199 -279h-145l164 279h180zM1151 1434h162v-865c0 -180 -52 -324 -157 -433s-249 -163 -433 -163s-328 54 -433 163s-157 253 -157 433v865h166v-861c0 -137 37 -246 110 -327s178 -121 315 -121s242 41 316 122s111 190 111 326v861z" />
    <glyph glyph-name="Ucircumflex" unicode="&#xdb;" horiz-adv-x="1449" 
d="M725 1778l-143 -187h-162l221 271h166l223 -271h-160zM1151 1434h162v-865c0 -180 -52 -324 -157 -433s-249 -163 -433 -163s-328 54 -433 163s-157 253 -157 433v865h166v-861c0 -137 37 -246 110 -327s178 -121 315 -121s242 41 316 122s111 190 111 326v861z" />
    <glyph glyph-name="Udieresis" unicode="&#xdc;" horiz-adv-x="1449" 
d="M537 1589v-1c-27 0 -50 9 -69 28s-28 42 -28 69s9 50 28 68s42 27 69 27s50 -9 68 -27s27 -40 27 -67s-9 -50 -27 -69s-41 -28 -68 -28zM915 1588v-1c-29 0 -52 9 -70 28s-27 42 -27 69s9 50 27 68s41 27 70 27c27 0 50 -9 69 -27s28 -40 28 -67s-9 -50 -28 -69
s-42 -28 -69 -28zM1151 1432h162v-865c0 -180 -52 -324 -157 -433s-249 -163 -433 -163s-328 54 -433 163s-157 253 -157 433v865h166v-861c0 -137 37 -246 110 -327s178 -121 315 -121s242 41 316 122s111 190 111 326v861z" />
    <glyph glyph-name="Yacute" unicode="&#xdd;" horiz-adv-x="1335" 
d="M924 1874l-199 -279h-145l163 279h181zM1128 1434h185l-563 -885v-549h-164v549l-563 885h186l459 -732z" />
    <glyph glyph-name="Thorn" unicode="&#xde;" horiz-adv-x="1316" 
d="M786 1200l-1 -1c143 0 257 -47 342 -141s127 -201 127 -322s-43 -228 -128 -321s-201 -139 -348 -139h-463v-276h-161v1434h161v-234h471zM773 423l-1 -1c98 0 177 31 236 93s89 135 89 220s-29 159 -88 222s-135 95 -228 95h-467v-629h459z" />
    <glyph glyph-name="germandbls" unicode="&#xdf;" horiz-adv-x="1208" 
d="M834 811h-3c86 -29 154 -76 204 -142s75 -147 75 -244c0 -134 -44 -238 -133 -313s-208 -112 -357 -112h-140v143h138c104 0 186 26 245 77s89 121 89 210c0 91 -28 162 -84 213s-134 76 -233 76h-109v133h45c89 0 160 25 214 74s81 114 81 195c0 75 -24 136 -73 183
s-113 71 -192 71c-97 0 -171 -31 -223 -93s-78 -148 -78 -259v-1022h-158v1022c0 150 41 270 122 360s192 135 333 135c123 0 225 -37 306 -110s121 -167 121 -282c0 -147 -63 -252 -190 -315z" />
    <glyph glyph-name="agrave" unicode="&#xe0;" horiz-adv-x="1318" 
d="M721 1184h-146l-198 278h182zM604 -27h-1c-147 0 -270 51 -368 154s-147 231 -147 385c0 153 49 280 147 382s221 153 368 153c179 0 314 -70 405 -209v184h157v-1022h-157v186c-89 -142 -224 -213 -404 -213zM626 117l-1 -2c107 0 198 38 273 113s113 169 113 281
s-38 206 -113 281s-166 113 -272 113c-112 0 -204 -37 -276 -111s-108 -168 -108 -283c0 -113 36 -207 108 -281s164 -111 276 -111z" />
    <glyph glyph-name="aacute" unicode="&#xe1;" horiz-adv-x="1318" 
d="M541 1184l164 278h180l-199 -278h-145zM604 -27h-1c-147 0 -270 51 -368 154s-147 231 -147 385c0 153 49 280 147 382s221 153 368 153c179 0 314 -70 405 -209v184h157v-1022h-157v186c-89 -142 -224 -213 -404 -213zM626 117l-1 -2c107 0 198 38 273 113
s113 169 113 281s-38 206 -113 281s-166 113 -272 113c-112 0 -204 -37 -276 -111s-108 -168 -108 -283c0 -113 36 -207 108 -281s164 -111 276 -111z" />
    <glyph glyph-name="acircumflex" unicode="&#xe2;" horiz-adv-x="1318" 
d="M631 1366l-144 -186h-161l221 270h166l223 -270h-160zM1008 1022h157v-1022h-157v186c-89 -142 -224 -213 -405 -213c-147 0 -270 51 -368 154s-147 231 -147 385c0 153 49 280 147 382s221 153 368 153c179 0 314 -70 405 -209v184zM627 117l-1 -2c107 0 198 38 273 113
s113 169 113 281s-38 206 -113 281s-166 113 -272 113c-112 0 -204 -37 -276 -111s-108 -168 -108 -283c0 -113 36 -207 108 -281s164 -111 276 -111z" />
    <glyph glyph-name="atilde" unicode="&#xe3;" horiz-adv-x="1318" 
d="M774 1190c-41 0 -91 20 -151 60s-101 60 -124 60c-37 0 -56 -38 -57 -115h-118c0 161 55 242 165 242c41 0 92 -20 152 -61s101 -61 123 -61c37 0 55 38 55 115h121c0 -160 -55 -240 -166 -240zM604 -27h-1c-147 0 -270 51 -368 154s-147 231 -147 385
c0 153 49 280 147 382s221 153 368 153c179 0 314 -70 405 -209v184h157v-1022h-157v186c-89 -142 -224 -213 -404 -213zM626 117l-1 -2c107 0 198 38 273 113s113 169 113 281s-38 206 -113 281s-166 113 -272 113c-112 0 -204 -37 -276 -111s-108 -168 -108 -283
c0 -113 36 -207 108 -281s164 -111 276 -111z" />
    <glyph glyph-name="adieresis" unicode="&#xe4;" horiz-adv-x="1318" 
d="M442 1178v-1c-27 0 -50 9 -68 27s-27 41 -27 68s9 50 27 68s41 27 68 27s50 -9 69 -27s28 -40 28 -67s-9 -50 -28 -68s-42 -27 -69 -27zM821 1177v-1c-29 0 -52 9 -70 27s-27 41 -27 68s9 50 27 68s41 27 70 27c27 0 50 -9 69 -27s28 -40 28 -67s-9 -50 -28 -68
s-42 -27 -69 -27zM604 -29h-1c-147 0 -270 51 -368 154s-147 231 -147 385c0 153 49 280 147 382s221 153 368 153c179 0 314 -70 405 -209v184h157v-1022h-157v186c-89 -142 -224 -213 -404 -213zM626 115l-1 -2c107 0 198 38 273 113s113 169 113 281s-38 206 -113 281
s-166 113 -272 113c-112 0 -204 -37 -276 -111s-108 -168 -108 -283c0 -113 36 -207 108 -281s164 -111 276 -111z" />
    <glyph glyph-name="aring" unicode="&#xe5;" horiz-adv-x="1318" 
d="M631 1130h-1c-64 0 -118 21 -162 63s-66 95 -66 158s22 116 66 158s98 63 162 63c65 0 120 -21 164 -63s66 -95 66 -158s-22 -116 -66 -158s-98 -63 -163 -63zM630 1237v-2c37 0 66 11 87 32s32 49 32 83s-11 62 -32 83s-50 32 -87 32c-35 0 -63 -10 -84 -31
s-32 -49 -32 -83s11 -62 32 -83s49 -31 84 -31zM603 -29h-1c-147 0 -270 51 -368 154s-147 231 -147 385c0 153 49 280 147 382s221 153 368 153c179 0 314 -70 405 -209v184h157v-1022h-157v186c-89 -142 -224 -213 -404 -213zM625 115l-1 -2c107 0 198 38 273 113
s113 169 113 281s-38 206 -113 281s-166 113 -272 113c-112 0 -204 -37 -276 -111s-108 -168 -108 -283c0 -113 36 -207 108 -281s164 -111 276 -111z" />
    <glyph glyph-name="ae" unicode="&#xe6;" horiz-adv-x="2131" 
d="M2046 528c0 -15 -1 -40 -4 -75h-873c9 -103 48 -185 117 -247s155 -93 257 -93c75 0 140 16 195 47s95 71 121 119l145 -43c-39 -78 -97 -141 -173 -190s-169 -73 -280 -73c-176 0 -308 68 -397 205v-178h-147v186c-89 -142 -224 -213 -405 -213c-147 0 -270 51 -368 154
s-147 231 -147 385c0 153 49 280 147 382s221 153 368 153c179 0 314 -70 405 -209v184h147v-182c90 138 220 207 389 207c153 0 275 -49 366 -147s137 -222 137 -372zM1167 571l726 1c-7 100 -42 181 -105 243s-147 93 -252 93c-101 0 -186 -33 -255 -99
s-107 -145 -114 -238zM628 116l-1 -2c107 0 198 38 273 113s113 169 113 281s-38 206 -113 281s-166 113 -272 113c-112 0 -204 -37 -276 -111s-108 -168 -108 -283c0 -113 36 -207 108 -281s164 -111 276 -111z" />
    <glyph glyph-name="ccedilla" unicode="&#xe7;" horiz-adv-x="1181" 
d="M621 117l2 1c81 0 151 20 210 60s97 88 114 144l148 -39c-21 -73 -67 -139 -139 -198s-160 -95 -264 -108l-30 -96c55 -4 99 -21 132 -51s49 -67 49 -111c0 -55 -21 -98 -63 -129s-94 -46 -157 -46c-79 0 -148 22 -207 66l26 90c63 -44 125 -62 187 -54s93 34 93 78
c0 35 -23 59 -69 72s-93 14 -142 3l55 174c-138 13 -252 70 -341 171s-134 224 -134 369c0 151 51 278 152 380s228 153 381 153c121 0 224 -32 309 -96s139 -135 162 -214l-148 -43c-18 56 -57 105 -117 147s-129 63 -208 63c-112 0 -203 -38 -273 -115
s-105 -170 -105 -279c0 -108 35 -200 105 -277s161 -115 272 -115z" />
    <glyph glyph-name="egrave" unicode="&#xe8;" horiz-adv-x="1208" 
d="M702 1184h-145l-199 278h183zM627 -27c-159 0 -288 49 -388 147s-150 229 -150 392c0 153 49 280 146 382s222 153 375 153c159 0 284 -48 375 -145s137 -219 137 -366c0 -31 -1 -56 -4 -74h-872c7 -104 45 -188 113 -252s158 -96 270 -96c83 0 153 19 210 56
s99 84 126 141l145 -43c-38 -83 -98 -153 -180 -210s-183 -85 -303 -85zM244 578l720 2c-7 98 -42 177 -105 237s-147 90 -252 90c-101 0 -185 -32 -252 -96s-104 -142 -111 -233z" />
    <glyph glyph-name="eacute" unicode="&#xe9;" horiz-adv-x="1208" 
d="M522 1184l164 278h180l-198 -278h-146zM627 -27c-159 0 -288 49 -388 147s-150 229 -150 392c0 153 49 280 146 382s222 153 375 153c159 0 284 -48 375 -145s137 -219 137 -366c0 -31 -1 -56 -4 -74h-872c7 -104 45 -188 113 -252s158 -96 270 -96c83 0 153 19 210 56
s99 84 126 141l145 -43c-38 -83 -98 -153 -180 -210s-183 -85 -303 -85zM244 578l720 2c-7 98 -42 177 -105 237s-147 90 -252 90c-101 0 -185 -32 -252 -96s-104 -142 -111 -233z" />
    <glyph glyph-name="ecircumflex" unicode="&#xea;" horiz-adv-x="1208" 
d="M612 1366l-143 -186h-162l221 270h166l224 -270h-160zM1120 535c0 -31 -1 -56 -4 -74h-872c7 -104 45 -188 113 -252s158 -96 270 -96c83 0 153 19 210 56s99 84 126 141l145 -43c-38 -83 -98 -153 -180 -210s-183 -85 -303 -85c-159 0 -288 49 -388 147
s-150 229 -150 392c0 153 49 280 146 382s222 153 375 153c159 0 284 -48 375 -145s137 -219 137 -366zM244 578l720 2c-7 98 -42 177 -105 237s-147 90 -252 90c-101 0 -185 -32 -252 -96s-104 -142 -111 -233z" />
    <glyph glyph-name="edieresis" unicode="&#xeb;" horiz-adv-x="1208" 
d="M422 1178v-1c-27 0 -50 9 -68 27s-27 41 -27 68s9 50 27 68s41 27 68 27s50 -9 68 -27s27 -40 27 -67s-9 -50 -27 -68s-41 -27 -68 -27zM801 1177v-1c-29 0 -52 9 -70 27s-27 41 -27 68s9 50 27 68s41 27 70 27c27 0 50 -9 68 -27s27 -40 27 -67s-9 -50 -27 -68
s-41 -27 -68 -27zM627 -29c-159 0 -288 49 -388 147s-150 229 -150 392c0 153 49 280 146 382s222 153 375 153c159 0 284 -48 375 -145s137 -219 137 -366c0 -31 -1 -56 -4 -74h-872c7 -104 45 -188 113 -252s158 -96 270 -96c83 0 153 19 210 56s99 84 126 141l145 -43
c-38 -83 -98 -153 -180 -210s-183 -85 -303 -85zM244 576l720 2c-7 98 -42 177 -105 237s-147 90 -252 90c-101 0 -185 -32 -252 -96s-104 -142 -111 -233z" />
    <glyph glyph-name="igrave" unicode="&#xec;" horiz-adv-x="466" 
d="M322 1184h-146l-199 278h183zM154 0v1022h159v-1022h-159z" />
    <glyph glyph-name="iacute" unicode="&#xed;" horiz-adv-x="466" 
d="M141 1184l164 278h180l-198 -278h-146zM154 0v1022h159v-1022h-159z" />
    <glyph glyph-name="icircumflex" unicode="&#xee;" horiz-adv-x="466" 
d="M313 1450l224 -270h-160l-146 186l-143 -186h-162l221 270h166zM154 0v1022h159v-1022h-159z" />
    <glyph glyph-name="idieresis" unicode="&#xef;" horiz-adv-x="466" 
d="M74 1178l-1 -1c-27 0 -50 9 -69 27s-28 41 -28 68s9 50 28 68s42 27 69 27c29 0 53 -9 71 -27s27 -40 27 -67s-9 -50 -27 -68s-41 -27 -70 -27zM390 1177v-1c-27 0 -50 9 -68 27s-27 41 -27 68s9 50 27 68s41 27 68 27s50 -9 68 -27s27 -40 27 -67s-9 -50 -27 -68
s-41 -27 -68 -27zM153 -2v1022h159v-1022h-159z" />
    <glyph glyph-name="eth" unicode="&#xf0;" horiz-adv-x="1251" 
d="M852 1206l-1 -3c205 -221 307 -456 307 -704c0 -157 -50 -285 -150 -383s-227 -147 -382 -147c-151 0 -278 49 -381 147s-154 220 -154 365c0 146 50 265 150 356s225 137 375 137c117 0 215 -31 294 -94c-53 100 -123 195 -210 286l-401 -100l-25 100l336 86
c-67 59 -145 119 -235 181h219c60 -45 117 -92 172 -141l244 62l24 -103zM626 116v-1c112 0 202 34 270 102s102 154 102 259c0 101 -34 185 -102 252s-158 100 -270 100s-202 -33 -270 -99s-102 -149 -102 -249c0 -107 34 -194 102 -262s158 -102 270 -102z" />
    <glyph glyph-name="ntilde" unicode="&#xf1;" 
d="M498 1311h1c-37 0 -56 -38 -57 -115h-118c0 161 55 242 165 242c41 0 92 -20 152 -61s101 -61 123 -61c37 0 55 38 55 115h121c0 -160 -55 -240 -166 -240c-41 0 -91 20 -151 60s-102 60 -125 60zM691 1047v-1c127 0 227 -40 300 -119s110 -188 110 -327v-600h-158v578
c0 101 -25 180 -75 236s-121 84 -213 84c-103 0 -186 -35 -249 -106s-95 -164 -95 -279v-514h-157v1022h157v-180c38 61 90 111 155 149s140 57 225 57z" />
    <glyph glyph-name="ograve" unicode="&#xf2;" horiz-adv-x="1255" 
d="M719 1184h-146l-198 278h182zM628 -27h-1c-154 0 -283 52 -386 155s-154 231 -154 384s52 280 155 382s232 153 386 153s282 -51 384 -153s153 -229 153 -382s-51 -281 -153 -384s-230 -155 -384 -155zM627 119l-1 -2c109 0 200 37 273 111s110 167 110 279
s-36 206 -109 281s-164 113 -273 113c-111 0 -203 -37 -277 -112s-111 -168 -111 -280s37 -205 111 -279s166 -111 277 -111z" />
    <glyph glyph-name="oacute" unicode="&#xf3;" horiz-adv-x="1255" 
d="M539 1184l163 278h181l-199 -278h-145zM628 -27h-1c-154 0 -283 52 -386 155s-154 231 -154 384s52 280 155 382s232 153 386 153s282 -51 384 -153s153 -229 153 -382s-51 -281 -153 -384s-230 -155 -384 -155zM627 119l-1 -2c109 0 200 37 273 111s110 167 110 279
s-36 206 -109 281s-164 113 -273 113c-111 0 -203 -37 -277 -112s-111 -168 -111 -280s37 -205 111 -279s166 -111 277 -111z" />
    <glyph glyph-name="ocircumflex" unicode="&#xf4;" horiz-adv-x="1255" 
d="M629 1366l-144 -186h-161l221 270h166l223 -270h-160zM628 1047h-1c154 0 282 -51 384 -153s153 -229 153 -382s-51 -281 -153 -384s-230 -155 -384 -155s-283 52 -386 155s-154 231 -154 384s52 280 155 382s232 153 386 153zM627 119l-1 -2c109 0 200 37 273 111
s110 167 110 279s-36 206 -109 281s-164 113 -273 113c-111 0 -203 -37 -277 -112s-111 -168 -111 -280s37 -205 111 -279s166 -111 277 -111z" />
    <glyph glyph-name="otilde" unicode="&#xf5;" horiz-adv-x="1255" 
d="M772 1190c-41 0 -91 20 -151 60s-101 60 -124 60c-37 0 -56 -38 -57 -115h-118c0 161 55 242 165 242c41 0 92 -20 152 -61s101 -61 123 -61c37 0 55 38 55 115h121c0 -160 -55 -240 -166 -240zM628 -27h-1c-154 0 -283 52 -386 155s-154 231 -154 384s52 280 155 382
s232 153 386 153s282 -51 384 -153s153 -229 153 -382s-51 -281 -153 -384s-230 -155 -384 -155zM627 119l-1 -2c109 0 200 37 273 111s110 167 110 279s-36 206 -109 281s-164 113 -273 113c-111 0 -203 -37 -277 -112s-111 -168 -111 -280s37 -205 111 -279
s166 -111 277 -111z" />
    <glyph glyph-name="odieresis" unicode="&#xf6;" horiz-adv-x="1255" 
d="M440 1178v-1c-27 0 -50 9 -68 27s-27 41 -27 68s9 50 27 68s41 27 68 27s50 -9 69 -27s28 -40 28 -67s-9 -50 -28 -68s-42 -27 -69 -27zM819 1177v-1c-29 0 -52 9 -70 27s-27 41 -27 68s9 50 27 68s41 27 70 27c27 0 50 -9 68 -27s27 -40 27 -67s-9 -50 -27 -68
s-41 -27 -68 -27zM628 -29h-1c-154 0 -283 52 -386 155s-154 231 -154 384s52 280 155 382s232 153 386 153s282 -51 384 -153s153 -229 153 -382s-51 -281 -153 -384s-230 -155 -384 -155zM627 117l-1 -2c109 0 200 37 273 111s110 167 110 279s-36 206 -109 281
s-164 113 -273 113c-111 0 -203 -37 -277 -112s-111 -168 -111 -280s37 -205 111 -279s166 -111 277 -111z" />
    <glyph glyph-name="divide" unicode="&#xf7;" horiz-adv-x="1187" 
d="M594 965l-1 -1c-29 0 -54 11 -75 32s-31 45 -31 72s10 51 31 71s46 30 75 30s54 -10 74 -30s30 -44 30 -71s-10 -51 -30 -72s-44 -31 -73 -31zM142 650v133h901v-133h-901zM593 263h-1c-29 0 -54 11 -75 32s-31 45 -31 72s10 51 31 71s46 30 75 30s54 -10 74 -30
s30 -44 30 -71s-10 -51 -30 -72s-44 -32 -73 -32z" />
    <glyph glyph-name="oslash" unicode="&#xf8;" horiz-adv-x="1255" 
d="M983 922l-1 -1c123 -104 184 -241 184 -410c0 -153 -51 -281 -153 -384s-230 -155 -384 -155c-95 0 -183 21 -264 64l-46 -64h-126l86 123c-127 103 -191 242 -192 417c0 153 52 280 155 382s232 153 387 153c95 0 185 -22 270 -66l47 68h125zM241 509v-1
c0 -119 41 -216 123 -291l448 639c-57 30 -118 45 -183 45c-111 0 -203 -37 -277 -112s-111 -168 -111 -280zM628 117v1c109 0 200 37 273 111s110 167 110 279c0 117 -39 213 -117 287l-444 -637c52 -27 111 -41 178 -41z" />
    <glyph glyph-name="ugrave" unicode="&#xf9;" 
d="M713 1184h-146l-198 278h182zM932 1022l158 -2v-1022h-158v178c-83 -137 -209 -205 -377 -205c-129 0 -230 40 -303 119s-109 189 -109 330v600h158v-578c0 -101 25 -180 75 -236s121 -84 212 -84c104 0 187 36 250 107s94 164 94 279v514z" />
    <glyph glyph-name="uacute" unicode="&#xfa;" 
d="M877 1462l-199 -278h-146l164 278h181zM932 1022l158 -2v-1022h-158v178c-83 -137 -209 -205 -377 -205c-129 0 -230 40 -303 119s-109 189 -109 330v600h158v-578c0 -101 25 -180 75 -236s121 -84 212 -84c104 0 187 36 250 107s94 164 94 279v514z" />
    <glyph glyph-name="ucircumflex" unicode="&#xfb;" 
d="M623 1366l-144 -186h-162l222 270h166l223 -270h-160zM932 1022l158 -2v-1022h-158v178c-83 -137 -209 -205 -377 -205c-129 0 -230 40 -303 119s-109 189 -109 330v600h158v-578c0 -101 25 -180 75 -236s121 -84 212 -84c104 0 187 36 250 107s94 164 94 279v514z" />
    <glyph glyph-name="udieresis" unicode="&#xfc;" 
d="M432 1178v-1c-27 0 -50 9 -68 27s-27 41 -27 68s9 50 27 68s41 27 68 27s50 -9 68 -27s27 -40 27 -67s-9 -50 -27 -68s-41 -27 -68 -27zM811 1177v-1c-29 0 -52 9 -70 27s-27 41 -27 68s9 50 27 68s41 27 70 27c27 0 50 -9 68 -27s27 -40 27 -67s-9 -50 -27 -68
s-41 -27 -68 -27zM932 1020l158 -2v-1022h-158v178c-83 -137 -209 -205 -377 -205c-129 0 -230 40 -303 119s-109 189 -109 330v600h158v-578c0 -101 25 -180 75 -236s121 -84 212 -84c104 0 187 36 250 107s94 164 94 279v514z" />
    <glyph glyph-name="yacute" unicode="&#xfd;" horiz-adv-x="1118" 
d="M823 1462l-198 -278h-146l164 278h180zM928 1022h168l-629 -1452h-166l195 450l-473 1002h174l378 -825z" />
    <glyph glyph-name="thorn" unicode="&#xfe;" horiz-adv-x="1318" 
d="M715 1047l-1 -1c147 0 270 -51 368 -153s147 -229 147 -382c0 -154 -49 -282 -147 -385s-221 -154 -368 -154c-90 0 -169 19 -238 57s-124 90 -165 157v-616h-157v1925h157v-657c88 139 223 209 404 209zM691 116l-1 -2c112 0 204 37 276 111s108 168 108 281
c0 115 -36 209 -108 283s-164 111 -276 111c-107 0 -198 -37 -273 -112s-112 -168 -112 -280s38 -205 113 -280s166 -112 273 -112z" />
    <glyph glyph-name="ydieresis" unicode="&#xff;" horiz-adv-x="1118" 
d="M381 1178v-1c-27 0 -50 9 -68 27s-27 41 -27 68s9 50 27 68s41 27 68 27s50 -9 68 -27s27 -40 27 -67s-9 -50 -27 -68s-41 -27 -68 -27zM760 1177v-1c-29 0 -52 9 -70 27s-27 41 -27 68s9 50 27 68s41 27 70 27c27 0 50 -9 68 -27s27 -40 27 -67s-9 -50 -27 -68
s-41 -27 -68 -27zM928 1020h168l-629 -1452h-166l195 450l-473 1002h174l378 -825z" />
    <glyph glyph-name="Amacron" unicode="&#x100;" horiz-adv-x="1423" 
d="M981 1747v-123h-539v123h539zM1227 0l-156 385h-719l-155 -385h-174l587 1434h203l588 -1434h-174zM412 532h600l-299 738z" />
    <glyph glyph-name="amacron" unicode="&#x101;" horiz-adv-x="1318" 
d="M362 1212v123h539v-123h-539zM604 -27h-1c-147 0 -270 51 -368 154s-147 231 -147 385c0 153 49 280 147 382s221 153 368 153c179 0 314 -70 405 -209v184h157v-1022h-157v186c-89 -142 -224 -213 -404 -213zM626 117l-1 -2c107 0 198 38 273 113s113 169 113 281
s-38 206 -113 281s-166 113 -272 113c-112 0 -204 -37 -276 -111s-108 -168 -108 -283c0 -113 36 -207 108 -281s164 -111 276 -111z" />
    <glyph glyph-name="Abreve" unicode="&#x102;" horiz-adv-x="1423" 
d="M710 1569l2 -1c-97 0 -172 26 -224 78s-78 118 -78 197h133c1 -49 15 -89 42 -119s69 -45 126 -45s100 16 128 47s42 70 42 117h133c0 -79 -26 -144 -79 -196s-128 -78 -225 -78zM1228 -1l-156 385h-719l-155 -385h-174l587 1434h203l588 -1434h-174zM413 531h600
l-299 738z" />
    <glyph glyph-name="abreve" unicode="&#x103;" horiz-adv-x="1318" 
d="M630 1157h2c-97 0 -172 26 -224 78s-78 118 -78 197h133c1 -49 15 -89 42 -119s69 -45 126 -45s100 15 128 46s42 70 42 118h133c0 -79 -26 -145 -79 -197s-128 -78 -225 -78zM605 -27h-1c-147 0 -270 51 -368 154s-147 231 -147 385c0 153 49 280 147 382
s221 153 368 153c179 0 314 -70 405 -209v184h157v-1022h-157v186c-89 -142 -224 -213 -404 -213zM627 117l-1 -2c107 0 198 38 273 113s113 169 113 281s-38 206 -113 281s-166 113 -272 113c-112 0 -204 -37 -276 -111s-108 -168 -108 -283c0 -113 36 -207 108 -281
s164 -111 276 -111z" />
    <glyph glyph-name="Aogonek" unicode="&#x104;" horiz-adv-x="1423" 
d="M1446 -270l35 -112c-44 -51 -103 -76 -176 -76c-61 0 -110 17 -148 51s-57 80 -57 139c0 44 16 90 47 138s71 92 120 131h-41l-156 385h-719l-155 -385h-174l587 1434h203l588 -1434c-111 -93 -166 -176 -166 -249c0 -27 8 -48 23 -64s36 -24 63 -24c51 0 93 22 126 66z
M412 531h600l-299 738z" />
    <glyph glyph-name="aogonek" unicode="&#x105;" horiz-adv-x="1318" 
d="M1210 -270l35 -112c-44 -51 -103 -76 -176 -76c-61 0 -110 17 -148 51s-57 80 -57 139c0 44 16 90 47 138s71 92 120 131h-24v186c-89 -142 -224 -213 -405 -213c-147 0 -270 51 -368 154s-147 231 -147 385c0 153 49 280 147 382s221 153 368 153
c179 0 314 -70 405 -209v184h157v-1022c-111 -93 -166 -176 -166 -249c0 -27 8 -48 23 -64s36 -24 63 -24c51 0 93 22 126 66zM627 116l-1 -2c107 0 198 38 273 113s113 169 113 281s-38 206 -113 281s-166 113 -272 113c-112 0 -204 -37 -276 -111s-108 -168 -108 -283
c0 -113 36 -207 108 -281s164 -111 276 -111z" />
    <glyph glyph-name="Cacute" unicode="&#x106;" horiz-adv-x="1597" 
d="M737 1595l164 279h180l-198 -279h-146zM829 -27l1 -2c-211 0 -388 72 -530 215s-213 321 -213 533c0 209 71 384 213 526s318 213 528 213c164 0 306 -40 426 -121s203 -184 248 -310l-160 -39c-37 93 -101 169 -192 229s-199 90 -324 90c-169 0 -307 -57 -415 -170
s-162 -251 -162 -414c0 -167 54 -308 161 -423s246 -173 417 -173c124 0 232 29 323 88s155 135 192 229l156 -41c-47 -125 -130 -228 -249 -309s-259 -121 -420 -121z" />
    <glyph glyph-name="cacute" unicode="&#x107;" horiz-adv-x="1181" 
d="M530 1184l164 278h180l-198 -278h-146zM621 -27h5c-153 0 -280 52 -381 155s-152 232 -152 386c0 151 51 278 152 380s228 153 381 153c121 0 224 -32 309 -96s139 -135 162 -214l-148 -43c-18 56 -57 105 -117 147s-129 63 -208 63c-112 0 -203 -38 -273 -115
s-105 -170 -105 -279c0 -108 35 -200 105 -277s161 -115 272 -115c81 0 151 20 210 60s97 88 114 144l148 -39c-23 -81 -77 -153 -162 -216s-189 -94 -312 -94z" />
    <glyph glyph-name="Cdotaccent" unicode="&#x10a;" horiz-adv-x="1597" 
d="M827 1589h-1c-31 0 -57 10 -78 31s-31 47 -31 78c0 30 11 55 32 75s47 30 78 30s57 -10 78 -30s32 -45 32 -75c0 -31 -11 -57 -32 -78s-47 -31 -78 -31zM828 -27l1 -2c-211 0 -388 72 -530 215s-213 321 -213 533c0 209 71 384 213 526s318 213 528 213
c164 0 306 -40 426 -121s203 -184 248 -310l-160 -39c-37 93 -101 169 -192 229s-199 90 -324 90c-169 0 -307 -57 -415 -170s-162 -251 -162 -414c0 -167 54 -308 161 -423s246 -173 417 -173c124 0 232 29 323 88s155 135 192 229l156 -41c-47 -125 -130 -228 -249 -309
s-259 -121 -420 -121z" />
    <glyph glyph-name="cdotaccent" unicode="&#x10b;" horiz-adv-x="1181" 
d="M620 1178h-2c-32 0 -58 10 -79 30s-31 46 -31 77c0 30 11 55 32 76s47 31 79 31s58 -10 79 -31s32 -46 32 -76c0 -31 -10 -57 -31 -77s-47 -30 -79 -30zM618 -27h5c-153 0 -280 52 -381 155s-152 232 -152 386c0 151 51 278 152 380s228 153 381 153
c121 0 224 -32 309 -96s139 -135 162 -214l-148 -43c-18 56 -57 105 -117 147s-129 63 -208 63c-112 0 -203 -38 -273 -115s-105 -170 -105 -279c0 -108 35 -200 105 -277s161 -115 272 -115c81 0 151 20 210 60s97 88 114 144l148 -39c-23 -81 -77 -153 -162 -216
s-189 -94 -312 -94z" />
    <glyph glyph-name="Ccaron" unicode="&#x10c;" horiz-adv-x="1597" 
d="M743 1591l-221 271h162l143 -187l146 187h160l-224 -271h-166zM827 127l1 -2c124 0 232 29 323 88s155 135 192 229l156 -41c-47 -125 -130 -228 -249 -309s-259 -121 -420 -121c-211 0 -388 72 -530 215s-213 321 -213 533c0 209 71 384 213 526s318 213 528 213
c164 0 306 -40 426 -121s203 -184 248 -310l-160 -39c-37 93 -101 169 -192 229s-199 90 -324 90c-169 0 -307 -57 -415 -170s-162 -251 -162 -414c0 -167 54 -308 161 -423s246 -173 417 -173z" />
    <glyph glyph-name="ccaron" unicode="&#x10d;" horiz-adv-x="1181" 
d="M537 1180l-222 270h162l144 -186l145 186h160l-224 -270h-165zM621 117h5c81 0 151 20 210 60s97 88 114 144l148 -39c-23 -81 -77 -153 -162 -216s-189 -94 -312 -94c-153 0 -280 52 -381 155s-152 232 -152 386c0 151 51 278 152 380s228 153 381 153
c121 0 224 -32 309 -96s139 -135 162 -214l-148 -43c-18 56 -57 105 -117 147s-129 63 -208 63c-112 0 -203 -38 -273 -115s-105 -170 -105 -279c0 -108 35 -200 105 -277s161 -115 272 -115z" />
    <glyph glyph-name="Dcaron" unicode="&#x10e;" horiz-adv-x="1488" 
d="M614 1591l-221 271h162l143 -187l146 187h160l-224 -271h-166zM698 1434c217 0 389 -67 515 -201s189 -306 189 -516s-63 -382 -189 -516s-298 -201 -515 -201h-544v1434h544zM696 150l-2 2c171 0 304 53 400 159s144 243 144 411c0 164 -48 299 -144 405
s-229 159 -398 159h-381v-1136h381z" />
    <glyph glyph-name="dcaron" unicode="&#x10f;" horiz-adv-x="1476" 
d="M1008 1495h157v-1495h-157v186c-89 -142 -224 -213 -405 -213c-147 0 -270 51 -368 154s-147 231 -147 385c0 153 49 280 147 382s221 153 368 153c179 0 314 -70 405 -209v657zM1333 1495h156l-59 -373h-123zM627 117l-1 -2c107 0 198 38 273 113s113 169 113 281
s-38 206 -113 281s-166 113 -272 113c-112 0 -204 -37 -276 -111s-108 -168 -108 -283c0 -113 36 -207 108 -281s164 -111 276 -111z" />
    <glyph glyph-name="Dcroat" unicode="&#x110;" horiz-adv-x="1552" 
d="M762 1434h-1c217 0 389 -67 515 -201s189 -306 189 -516s-63 -382 -189 -516s-297 -201 -514 -201h-545v645h-145v141h145v648h545zM759 150v2c169 0 302 53 398 159s144 243 144 411c0 164 -48 299 -144 405s-229 159 -398 159h-381v-500h444v-141h-444v-495h381z" />
    <glyph glyph-name="dcroat" unicode="&#x111;" horiz-adv-x="1337" 
d="M1315 1323v-111h-150v-1212h-157v186c-89 -142 -224 -213 -405 -213c-147 0 -270 51 -368 154s-147 231 -147 385c0 153 49 280 147 382s221 153 368 153c179 0 314 -70 405 -209v374h-390v111h390v172h157v-172h150zM627 117l-1 -2c107 0 198 38 273 113
s113 169 113 281s-38 206 -113 281s-166 113 -272 113c-112 0 -204 -37 -276 -111s-108 -168 -108 -283c0 -113 36 -207 108 -281s164 -111 276 -111z" />
    <glyph glyph-name="Emacron" unicode="&#x112;" horiz-adv-x="1275" 
d="M922 1747v-123h-539v123h539zM1163 1284h-848v-483h744v-144h-744v-507h846v-150h-1007v1434h1009v-150z" />
    <glyph glyph-name="emacron" unicode="&#x113;" horiz-adv-x="1208" 
d="M344 1212v123h539v-123h-539zM627 -27c-159 0 -288 49 -388 147s-150 229 -150 392c0 153 49 280 146 382s222 153 375 153c159 0 284 -48 375 -145s137 -219 137 -366c0 -31 -1 -56 -4 -74h-872c7 -104 45 -188 113 -252s158 -96 270 -96c83 0 153 19 210 56
s99 84 126 141l145 -43c-38 -83 -98 -153 -180 -210s-183 -85 -303 -85zM244 578l720 2c-7 98 -42 177 -105 237s-147 90 -252 90c-101 0 -185 -32 -252 -96s-104 -142 -111 -233z" />
    <glyph glyph-name="Edotaccent" unicode="&#x116;" horiz-adv-x="1275" 
d="M651 1589h-1c-31 0 -57 10 -78 31s-31 47 -31 78c0 30 11 55 32 75s47 30 78 30s57 -10 78 -30s32 -45 32 -75c0 -31 -11 -57 -32 -78s-47 -31 -78 -31zM1162 1284h-848v-483h744v-144h-744v-507h846v-150h-1007v1434h1009v-150z" />
    <glyph glyph-name="edotaccent" unicode="&#x117;" horiz-adv-x="1208" 
d="M612 1178h-1c-31 0 -57 10 -78 30s-31 46 -31 77c0 30 11 55 32 76s47 31 78 31s57 -10 78 -31s32 -46 32 -76c0 -31 -11 -57 -32 -77s-47 -30 -78 -30zM626 -27c-159 0 -288 49 -388 147s-150 229 -150 392c0 153 49 280 146 382s222 153 375 153
c159 0 284 -48 375 -145s137 -219 137 -366c0 -31 -1 -56 -4 -74h-872c7 -104 45 -188 113 -252s158 -96 270 -96c83 0 153 19 210 56s99 84 126 141l145 -43c-38 -83 -98 -153 -180 -210s-183 -85 -303 -85zM243 578l720 2c-7 98 -42 177 -105 237s-147 90 -252 90
c-101 0 -185 -32 -252 -96s-104 -142 -111 -233z" />
    <glyph glyph-name="Eogonek" unicode="&#x118;" horiz-adv-x="1275" 
d="M1206 -270l35 -112c-44 -51 -103 -76 -176 -76c-61 0 -110 17 -148 51s-57 80 -57 139c0 44 16 90 47 138s71 92 120 131h-874v1434h1009v-150h-848v-483h744v-144h-744v-507h846v-150c-111 -93 -166 -176 -166 -249c0 -27 8 -48 23 -64s36 -24 63 -24c51 0 93 22 126 66
z" />
    <glyph glyph-name="eogonek" unicode="&#x119;" horiz-adv-x="1208" 
d="M1120 535h-1c0 -31 -1 -56 -4 -74h-872c7 -104 45 -188 113 -252s158 -96 270 -96c83 0 153 19 210 56s99 84 126 141l145 -43c-42 -90 -105 -162 -190 -217c-139 -111 -209 -211 -209 -300c0 -27 8 -48 23 -64s36 -24 63 -24c51 0 93 22 126 66l34 -111
c-44 -51 -103 -76 -176 -76c-61 0 -110 17 -148 51s-57 80 -57 139c0 79 47 162 140 248c-29 -4 -58 -6 -88 -7c-159 0 -288 49 -388 147s-150 229 -150 392c0 153 49 280 146 382s222 153 375 153c159 0 284 -48 375 -145s137 -219 137 -366zM243 578l720 2
c-7 98 -42 177 -105 237s-147 90 -252 90c-101 0 -185 -32 -252 -96s-104 -142 -111 -233z" />
    <glyph glyph-name="Ecaron" unicode="&#x11a;" horiz-adv-x="1275" 
d="M567 1591l-221 271h162l143 -187l146 187h159l-223 -271h-166zM1163 1284h-848v-483h744v-144h-744v-507h846v-150h-1007v1434h1009v-150z" />
    <glyph glyph-name="ecaron" unicode="&#x11b;" horiz-adv-x="1208" 
d="M528 1180l-221 270h162l143 -186l146 186h160l-224 -270h-166zM1120 535c0 -31 -1 -56 -4 -74h-872c7 -104 45 -188 113 -252s158 -96 270 -96c83 0 153 19 210 56s99 84 126 141l145 -43c-38 -83 -98 -153 -180 -210s-183 -85 -303 -85c-159 0 -288 49 -388 147
s-150 229 -150 392c0 153 49 280 146 382s222 153 375 153c159 0 284 -48 375 -145s137 -219 137 -366zM244 578l720 2c-7 98 -42 177 -105 237s-147 90 -252 90c-101 0 -185 -32 -252 -96s-104 -142 -111 -233z" />
    <glyph glyph-name="Gbreve" unicode="&#x11e;" horiz-adv-x="1636" 
d="M817 1569l2 -1c-97 0 -172 26 -225 78s-79 118 -79 197h133c1 -49 15 -89 42 -119s69 -45 126 -45s100 16 128 47s42 70 42 117h133c0 -79 -26 -144 -78 -196s-127 -78 -224 -78zM1551 759l2 -91c-1 -216 -68 -386 -202 -511s-304 -187 -511 -187
c-213 0 -391 71 -535 214s-216 321 -216 534c0 209 71 384 213 526s318 213 528 213c161 0 301 -39 420 -117s203 -180 252 -306l-153 -41c-41 94 -106 170 -196 227s-197 86 -322 86c-171 0 -310 -57 -418 -170s-162 -251 -162 -414c0 -167 54 -308 162 -424
s251 -174 429 -174c155 0 283 45 383 134s155 209 165 359h-564v142h725z" />
    <glyph glyph-name="gbreve" unicode="&#x11f;" horiz-adv-x="1314" 
d="M634 1157h2c-97 0 -172 26 -224 78s-78 118 -78 197h133c1 -49 15 -89 42 -119s69 -45 126 -45s100 15 128 46s42 70 42 118h133c0 -79 -26 -145 -79 -197s-128 -78 -225 -78zM1007 1022l156 -2v-987c0 -142 -47 -259 -141 -352s-216 -139 -365 -139
c-224 0 -386 90 -485 269l139 51c73 -121 189 -182 348 -182c107 0 191 33 252 100s93 152 96 255v174c-89 -131 -223 -197 -402 -197c-149 0 -272 50 -370 149s-147 222 -147 369c0 149 49 272 147 370s221 147 370 147c180 0 314 -65 402 -195v170zM629 154l-1 -3
c107 0 197 36 271 108s111 160 111 265c0 107 -37 196 -111 268s-164 108 -270 108c-112 0 -204 -35 -276 -105s-108 -160 -108 -269c0 -108 36 -197 108 -267s164 -105 276 -105z" />
    <glyph glyph-name="Gdotaccent" unicode="&#x120;" horiz-adv-x="1636" 
d="M817 1589h-1c-31 0 -57 10 -78 31s-31 47 -31 78c0 30 11 55 32 75s47 30 78 30s57 -10 78 -30s32 -45 32 -75c0 -31 -11 -57 -32 -78s-47 -31 -78 -31zM1549 760l2 -91c-1 -216 -68 -386 -202 -511s-304 -187 -511 -187c-213 0 -391 71 -535 214s-216 321 -216 534
c0 209 71 384 213 526s318 213 528 213c161 0 301 -39 420 -117s203 -180 252 -306l-153 -41c-41 94 -106 170 -196 227s-197 86 -322 86c-171 0 -310 -57 -418 -170s-162 -251 -162 -414c0 -167 54 -308 162 -424s251 -174 429 -174c155 0 283 45 383 134s155 209 165 359
h-564v142h725z" />
    <glyph glyph-name="gdotaccent" unicode="&#x121;" horiz-adv-x="1314" 
d="M635 1178h-1c-31 0 -57 10 -78 30s-32 46 -32 77c0 30 11 55 32 76s47 31 78 31s57 -10 78 -31s32 -46 32 -76c0 -31 -10 -57 -31 -77s-47 -30 -78 -30zM1005 1022l156 -2v-987c0 -142 -47 -259 -141 -352s-216 -139 -365 -139c-224 0 -386 90 -485 269l139 51
c73 -121 189 -182 348 -182c107 0 191 33 252 100s93 152 96 255v174c-89 -131 -223 -197 -402 -197c-149 0 -272 50 -370 149s-147 222 -147 369c0 149 49 272 147 370s221 147 370 147c180 0 314 -65 402 -195v170zM627 154l-1 -3c107 0 197 36 271 108s111 160 111 265
c0 107 -37 196 -111 268s-164 108 -270 108c-112 0 -204 -35 -276 -105s-108 -160 -108 -269c0 -108 36 -197 108 -267s164 -105 276 -105z" />
    <glyph glyph-name="uni0122" unicode="&#x122;" horiz-adv-x="1636" 
d="M1550 760l2 -91c-1 -216 -68 -386 -202 -511s-304 -187 -511 -187c-213 0 -391 71 -535 214s-216 321 -216 534c0 209 71 384 213 526s318 213 528 213c161 0 301 -39 420 -117s203 -180 252 -306l-153 -41c-41 94 -106 170 -196 227s-197 86 -322 86
c-171 0 -310 -57 -418 -170s-162 -251 -162 -414c0 -167 54 -308 162 -424s251 -174 429 -174c155 0 283 45 383 134s155 209 165 359h-564v142h725zM727 -515l27 367h153l-57 -367h-123z" />
    <glyph glyph-name="uni0123" unicode="&#x123;" horiz-adv-x="1314" 
d="M733 1556l-26 -366h-154l57 366h123zM1006 1022l156 -2v-987c0 -142 -47 -259 -141 -352s-216 -139 -365 -139c-224 0 -386 90 -485 269l139 51c73 -121 189 -182 348 -182c107 0 191 33 252 100s93 152 96 255v174c-89 -131 -223 -197 -402 -197
c-149 0 -272 50 -370 149s-147 222 -147 369c0 149 49 272 147 370s221 147 370 147c180 0 314 -65 402 -195v170zM628 154l-1 -3c107 0 197 36 271 108s111 160 111 265c0 107 -37 196 -111 268s-164 108 -270 108c-112 0 -204 -35 -276 -105s-108 -160 -108 -269
c0 -108 36 -197 108 -267s164 -105 276 -105z" />
    <glyph glyph-name="Hbar" unicode="&#x126;" horiz-adv-x="1525" 
d="M1491 1182v-119h-145v-1063h-164v657h-836v-657h-164v1063h-145v119h145v252h164v-252h836v252h164v-252h145zM1182 805v258h-836v-258h836z" />
    <glyph glyph-name="hbar" unicode="&#x127;" horiz-adv-x="1257" 
d="M705 1047l-2 -1c127 0 227 -40 300 -119s110 -188 110 -327v-600h-158v578c0 101 -25 180 -75 236s-120 84 -211 84c-103 0 -186 -35 -249 -106s-95 -164 -95 -279v-514h-158v1212h-145v111h145v172h158v-172h393v-111h-393v-370c38 61 90 111 155 149s140 57 225 57z
" />
    <glyph glyph-name="Imacron" unicode="&#x12a;" horiz-adv-x="471" 
d="M-33 1624v123h539v-123h-539zM154 0v1434h163v-1434h-163z" />
    <glyph glyph-name="imacron" unicode="&#x12b;" horiz-adv-x="466" 
d="M-37 1212v123h539v-123h-539zM154 0v1022h159v-1022h-159z" />
    <glyph glyph-name="Iogonek" unicode="&#x12e;" horiz-adv-x="471" 
d="M391 -270l32 -112c-41 -51 -100 -76 -178 -76c-60 0 -108 17 -145 51s-55 80 -55 137c0 86 46 176 137 270h-28v1434h163v-1434c-91 -94 -137 -176 -137 -246c0 -60 27 -90 82 -90c49 0 92 22 129 66z" />
    <glyph glyph-name="iogonek" unicode="&#x12f;" horiz-adv-x="466" 
d="M231 1178h-2c-32 0 -58 10 -79 30s-31 46 -31 77c0 30 11 55 32 76s47 31 79 31s58 -10 79 -31s32 -46 32 -76c0 -31 -10 -57 -31 -77s-47 -30 -79 -30zM384 -270l32 -112c-41 -51 -100 -76 -178 -76c-60 0 -108 17 -145 51s-55 80 -55 137c0 86 46 176 137 270h-24v1022
h159v-1022c-91 -94 -137 -176 -137 -246c0 -60 27 -90 82 -90c49 0 92 22 129 66z" />
    <glyph glyph-name="Idotaccent" unicode="&#x130;" horiz-adv-x="471" 
d="M237 1589h-2c-32 0 -58 10 -79 31s-31 47 -31 78c0 30 11 55 32 75s47 30 79 30s58 -10 79 -30s32 -45 32 -75c0 -31 -10 -57 -31 -78s-47 -31 -79 -31zM151 0v1434h163v-1434h-163z" />
    <glyph glyph-name="dotlessi" unicode="&#x131;" horiz-adv-x="466" 
d="M154 0v1022h159v-1022h-159z" />
    <glyph glyph-name="uni0136" unicode="&#x136;" horiz-adv-x="1388" 
d="M702 791l646 -791h-201l-553 676l-277 -301v-375h-163v1434h163v-840l768 840h209zM596 -512l27 367h153l-57 -367h-123z" />
    <glyph glyph-name="uni0137" unicode="&#x137;" horiz-adv-x="1077" 
d="M569 578l478 -578h-187l-393 471l-156 -162v-309h-157v1495h157v-983l488 510h194zM485 -512l27 367h154l-58 -367h-123z" />
    <glyph glyph-name="Lacute" unicode="&#x139;" horiz-adv-x="1169" 
d="M518 1874l-199 -279h-145l164 279h180zM317 150h795v-150h-958v1434h163v-1284z" />
    <glyph glyph-name="lacute" unicode="&#x13a;" horiz-adv-x="464" 
d="M143 1657l164 278h180l-198 -278h-146zM154 0v1495h157v-1495h-157z" />
    <glyph glyph-name="uni013B" unicode="&#x13b;" horiz-adv-x="1169" 
d="M317 150h795v-150h-958v1434h163v-1284zM532 -512l27 367h154l-58 -367h-123z" />
    <glyph glyph-name="uni013C" unicode="&#x13c;" horiz-adv-x="464" 
d="M154 0v1495h157v-1495h-157zM129 -512l27 367h153l-57 -367h-123z" />
    <glyph glyph-name="Lcaron" unicode="&#x13d;" horiz-adv-x="1183" 
d="M317 150h795v-150h-958v1434h163v-1284zM1098 1434l-60 -357h-123l23 357h160z" />
    <glyph glyph-name="lcaron" unicode="&#x13e;" horiz-adv-x="643" 
d="M154 0v1495h157v-1495h-157zM453 1122l24 373h156l-58 -373h-122z" />
    <glyph glyph-name="Lslash" unicode="&#x141;" horiz-adv-x="1234" 
d="M383 150h795v-150h-959v565l-158 -67v145l158 68v723h164v-652l430 185v-144l-430 -186v-487z" />
    <glyph glyph-name="lslash" unicode="&#x142;" horiz-adv-x="565" 
d="M545 1036v-143l-183 -84v-807h-157v733l-185 -86v142l185 86v620h157v-547z" />
    <glyph glyph-name="Nacute" unicode="&#x143;" horiz-adv-x="1480" 
d="M995 1874l-198 -279h-146l164 279h180zM1165 1434h162v-1434h-141l-869 1147v-1147h-163v1434h141l870 -1149v1149z" />
    <glyph glyph-name="nacute" unicode="&#x144;" 
d="M885 1462l-199 -278h-145l164 278h180zM690 1047v-1c127 0 227 -40 300 -119s110 -188 110 -327v-600h-158v578c0 101 -25 180 -75 236s-121 84 -213 84c-103 0 -186 -35 -249 -106s-95 -164 -95 -279v-514h-157v1022h157v-180c38 61 90 111 155 149s140 57 225 57z" />
    <glyph glyph-name="uni0145" unicode="&#x145;" horiz-adv-x="1480" 
d="M1165 1434h162v-1434h-141l-869 1147v-1147h-163v1434h141l870 -1149v1149zM647 -512l27 367h153l-57 -367h-123z" />
    <glyph glyph-name="uni0146" unicode="&#x146;" 
d="M690 1047v-1c127 0 227 -40 300 -119s110 -188 110 -327v-600h-158v578c0 101 -25 180 -75 236s-121 84 -213 84c-103 0 -186 -35 -249 -106s-95 -164 -95 -279v-514h-157v1022h157v-180c38 61 90 111 155 149s140 57 225 57zM535 -513l26 367h154l-58 -367h-122z" />
    <glyph glyph-name="Ncaron" unicode="&#x147;" horiz-adv-x="1480" 
d="M657 1591l-221 271h162l143 -187l146 187h160l-224 -271h-166zM1165 1434h162v-1434h-141l-869 1147v-1147h-163v1434h141l870 -1149v1149z" />
    <glyph glyph-name="ncaron" unicode="&#x148;" 
d="M549 1180l-221 270h161l144 -186l145 186h160l-223 -270h-166zM690 1047v-1c127 0 227 -40 300 -119s110 -188 110 -327v-600h-158v578c0 101 -25 180 -75 236s-121 84 -213 84c-103 0 -186 -35 -249 -106s-95 -164 -95 -279v-514h-157v1022h157v-180
c38 61 90 111 155 149s140 57 225 57z" />
    <glyph glyph-name="Eng" unicode="&#x14a;" horiz-adv-x="1480" 
d="M1165 1434h162v-1512c0 -112 -25 -199 -75 -261s-126 -93 -229 -93c-51 0 -106 14 -166 41l37 131c38 -22 78 -33 121 -33c101 0 151 69 150 207v113l-848 1120v-1147h-163v1434h141l870 -1149v1149z" />
    <glyph glyph-name="eng" unicode="&#x14b;" 
d="M690 1047v-1c127 0 227 -40 300 -119s110 -188 110 -327v-696c0 -113 -25 -201 -76 -265s-127 -96 -229 -96c-56 0 -111 14 -166 41l37 131c35 -22 74 -33 116 -32c107 0 160 71 160 213v682c0 101 -25 180 -75 236s-121 84 -213 84c-103 0 -186 -35 -249 -106
s-95 -164 -95 -279v-514h-157v1022h157v-180c38 61 90 111 155 149s140 57 225 57z" />
    <glyph glyph-name="Omacron" unicode="&#x14c;" horiz-adv-x="1650" 
d="M557 1624v123h539v-123h-539zM825 -27c-210 0 -386 72 -527 215s-212 321 -212 533c0 209 71 384 212 526s317 213 527 213s386 -71 527 -213s212 -317 212 -526c0 -211 -71 -388 -212 -532s-317 -216 -527 -216zM824 125h-1c169 0 307 57 414 172s161 256 161 424
c0 164 -54 303 -161 417s-245 171 -414 171s-307 -57 -414 -171s-160 -253 -160 -417c0 -168 54 -309 161 -424s245 -172 414 -172z" />
    <glyph glyph-name="omacron" unicode="&#x14d;" horiz-adv-x="1255" 
d="M360 1212v123h539v-123h-539zM628 -27h-1c-154 0 -283 52 -386 155s-154 231 -154 384s52 280 155 382s232 153 386 153s282 -51 384 -153s153 -229 153 -382s-51 -281 -153 -384s-230 -155 -384 -155zM627 119l-1 -2c109 0 200 37 273 111s110 167 110 279
s-36 206 -109 281s-164 113 -273 113c-111 0 -203 -37 -277 -112s-111 -168 -111 -280s37 -205 111 -279s166 -111 277 -111z" />
    <glyph glyph-name="Ohungarumlaut" unicode="&#x150;" horiz-adv-x="1650" 
d="M571 1595l158 279h160l-170 -279h-148zM885 1595l176 279h160l-189 -279h-147zM825 -27c-210 0 -386 72 -527 215s-212 321 -212 533c0 209 71 384 212 526s317 213 527 213s386 -71 527 -213s212 -317 212 -526c0 -211 -71 -388 -212 -532s-317 -216 -527 -216zM824 125
h-1c169 0 307 57 414 172s161 256 161 424c0 164 -54 303 -161 417s-245 171 -414 171s-307 -57 -414 -171s-160 -253 -160 -417c0 -168 54 -309 161 -424s245 -172 414 -172z" />
    <glyph glyph-name="ohungarumlaut" unicode="&#x151;" horiz-adv-x="1255" 
d="M375 1184l157 278h160l-170 -278h-147zM688 1184l176 278h160l-188 -278h-148zM628 -27h-1c-154 0 -283 52 -386 155s-154 231 -154 384s52 280 155 382s232 153 386 153s282 -51 384 -153s153 -229 153 -382s-51 -281 -153 -384s-230 -155 -384 -155zM627 119l-1 -2
c109 0 200 37 273 111s110 167 110 279s-36 206 -109 281s-164 113 -273 113c-111 0 -203 -37 -277 -112s-111 -168 -111 -280s37 -205 111 -279s166 -111 277 -111z" />
    <glyph glyph-name="OE" unicode="&#x152;" horiz-adv-x="2052" 
d="M1939 1284h-748v-483h643v-144h-643v-507h745v-150h-1142c-219 0 -392 67 -519 201s-190 306 -190 516s64 382 191 516s300 201 519 201h1144v-150zM794 150h232v1134h-233c-169 0 -302 -53 -399 -159s-145 -241 -145 -405c0 -168 48 -305 144 -411s230 -159 401 -159z
" />
    <glyph glyph-name="oe" unicode="&#x153;" horiz-adv-x="2131" 
d="M2044 528h-3c0 -31 -1 -56 -4 -75h-871c11 -103 51 -185 120 -247s154 -93 256 -93c75 0 140 16 195 47s95 71 121 119l145 -43c-37 -75 -95 -138 -174 -188s-174 -75 -286 -75c-107 0 -200 24 -279 73s-139 114 -180 196c-45 -82 -108 -147 -188 -195s-170 -72 -269 -72
c-154 0 -283 51 -386 154s-155 231 -155 385c0 153 52 280 155 382s232 153 387 153c101 0 192 -24 272 -72s142 -113 185 -195c44 82 105 147 182 194s166 71 266 71c159 0 284 -49 375 -147s136 -222 136 -372zM1164 571l724 2c-8 101 -43 182 -106 243s-147 92 -252 92
c-101 0 -186 -33 -254 -99s-105 -145 -112 -238zM625 121l-1 -1c109 0 200 38 273 113s110 168 110 279s-36 204 -109 280s-164 114 -273 114c-111 0 -203 -38 -277 -114s-111 -169 -111 -280s37 -204 111 -279s166 -112 277 -112z" />
    <glyph glyph-name="Racute" unicode="&#x154;" horiz-adv-x="1384" 
d="M922 1874l-199 -279h-145l163 279h181zM1110 0l-374 562h-420v-563h-161v1434h663c139 0 250 -44 332 -133s123 -190 123 -303c0 -101 -32 -192 -96 -273s-152 -132 -264 -153l385 -571h-188zM316 1285l1 -578h496c91 0 164 28 219 85s83 125 83 204
c0 78 -28 146 -83 203s-128 86 -218 86h-498z" />
    <glyph glyph-name="racute" unicode="&#x155;" horiz-adv-x="724" 
d="M662 1462l-199 -278h-146l164 278h181zM311 846h1c31 69 78 121 141 155s138 45 225 32v-147c-115 15 -205 -10 -270 -76s-97 -177 -97 -333v-477h-157v1022h157v-176z" />
    <glyph glyph-name="uni0156" unicode="&#x156;" horiz-adv-x="1384" 
d="M913 571l386 -572h-188l-375 563h-420v-563h-161v1434h663c139 0 250 -44 332 -133s123 -190 123 -303c0 -101 -32 -192 -96 -273s-152 -132 -264 -153zM316 1285l1 -578h496c91 0 164 28 219 85s83 125 83 204c0 78 -28 146 -83 203s-128 86 -218 86h-498zM604 -514
l27 367h153l-57 -367h-123z" />
    <glyph glyph-name="uni0157" unicode="&#x157;" horiz-adv-x="724" 
d="M311 846h1c31 69 78 121 141 155s138 45 225 32v-147c-115 15 -205 -10 -270 -76s-97 -177 -97 -333v-477h-157v1022h157v-176zM132 -512l27 367h153l-57 -367h-123z" />
    <glyph glyph-name="Rcaron" unicode="&#x158;" horiz-adv-x="1384" 
d="M584 1591l-222 271h162l144 -187l145 187h160l-223 -271h-166zM1110 0l-374 562h-420v-563h-161v1434h663c139 0 250 -44 332 -133s123 -190 123 -303c0 -101 -32 -192 -96 -273s-152 -132 -264 -153l385 -571h-188zM316 1285l1 -578h496c91 0 164 28 219 85
s83 125 83 204c0 78 -28 146 -83 203s-128 86 -218 86h-498z" />
    <glyph glyph-name="rcaron" unicode="&#x159;" horiz-adv-x="724" 
d="M324 1180l-222 270h162l144 -186l145 186h160l-224 -270h-165zM311 846h1c31 69 78 121 141 155s138 45 225 32v-147c-115 15 -205 -10 -270 -76s-97 -177 -97 -333v-477h-157v1022h157v-176z" />
    <glyph glyph-name="Sacute" unicode="&#x15a;" horiz-adv-x="1353" 
d="M569 1595l164 279h180l-198 -279h-146zM705 -27l-5 -4c-155 0 -289 42 -403 125s-190 185 -229 305l155 48c33 -95 93 -174 180 -236s189 -93 306 -93c111 0 201 27 270 81s104 116 104 187c0 56 -20 103 -59 141s-107 72 -203 102l-358 114c-211 68 -317 180 -317 336
c0 104 46 193 137 267s205 111 342 111c142 0 264 -33 366 -98s175 -148 218 -249l-151 -47c-35 77 -90 138 -165 182s-164 66 -267 66c-91 0 -166 -22 -225 -67s-88 -98 -88 -160c0 -48 17 -87 51 -118s92 -59 173 -85l348 -111c123 -39 214 -86 274 -141s90 -132 90 -232
c0 -117 -51 -217 -153 -300s-232 -124 -391 -124z" />
    <glyph glyph-name="sacute" unicode="&#x15b;" horiz-adv-x="1044" 
d="M399 1184l164 278h180l-198 -278h-146zM528 -27l-2 -5c-113 0 -213 30 -300 90s-143 134 -169 221l148 41c19 -61 58 -112 117 -152s128 -60 207 -60c75 0 137 16 185 49s72 73 72 120c0 39 -11 69 -34 90s-61 40 -114 57l-291 86c-159 47 -238 130 -237 249
c0 78 36 145 108 202s161 85 266 85s195 -24 271 -72s130 -109 162 -182l-144 -43c-19 47 -54 86 -106 117s-113 47 -184 47c-64 0 -116 -16 -156 -47s-60 -66 -60 -104c0 -55 46 -96 137 -123l291 -86c78 -23 139 -55 183 -95s66 -97 66 -170c0 -90 -39 -165 -118 -225
s-178 -90 -298 -90z" />
    <glyph glyph-name="Scedilla" unicode="&#x15e;" horiz-adv-x="1353" 
d="M1249 397l-7 -1c0 -111 -46 -207 -139 -288s-212 -126 -358 -135l-29 -94c55 -4 99 -21 132 -51s49 -67 49 -111c0 -55 -21 -98 -63 -129s-94 -46 -157 -46c-79 0 -148 22 -207 66l27 90c63 -44 125 -62 186 -54s92 34 92 78c0 35 -23 59 -69 72s-93 14 -142 3l56 176
c-135 13 -252 60 -351 141s-166 176 -201 285l155 48c33 -95 93 -174 180 -236s189 -93 306 -93c111 0 201 27 270 81s104 116 104 187c0 56 -20 103 -59 141s-107 72 -203 102l-358 114c-211 68 -317 180 -317 336c0 104 46 193 137 267s205 111 342 111
c142 0 264 -33 366 -98s175 -148 218 -249l-151 -47c-35 77 -90 138 -165 182s-164 66 -267 66c-91 0 -166 -22 -225 -67s-88 -98 -88 -160c0 -48 17 -87 51 -118s92 -59 173 -85l348 -111c123 -39 214 -86 274 -141s90 -132 90 -232z" />
    <glyph glyph-name="scedilla" unicode="&#x15f;" horiz-adv-x="1044" 
d="M944 287l-6 -3c0 -86 -36 -158 -108 -217s-165 -91 -278 -97l-29 -92c55 -4 99 -21 132 -51s50 -67 50 -111c0 -55 -21 -98 -63 -129s-95 -46 -158 -46c-79 0 -148 22 -206 66l26 90c63 -44 125 -62 187 -54s93 34 93 78c0 35 -23 59 -69 72s-93 14 -142 3l57 181
c-91 17 -170 53 -238 108s-113 120 -135 194l148 41c19 -61 58 -112 117 -152s128 -60 207 -60c75 0 137 16 185 49s72 73 72 120c0 39 -11 69 -34 90s-61 40 -114 57l-291 86c-159 47 -238 130 -237 249c0 78 36 145 108 202s161 85 266 85s195 -24 271 -72
s130 -109 162 -182l-144 -43c-19 47 -54 86 -106 117s-113 47 -184 47c-64 0 -116 -16 -156 -47s-60 -66 -60 -104c0 -55 46 -96 137 -123l291 -86c78 -23 139 -55 183 -95s66 -97 66 -171z" />
    <glyph glyph-name="Scaron" unicode="&#x160;" horiz-adv-x="1353" 
d="M575 1591l-221 271h162l143 -187l146 187h160l-224 -271h-166zM885 770l-6 -4c123 -39 214 -86 274 -141s90 -132 90 -232c0 -117 -51 -217 -153 -300s-232 -124 -390 -124c-155 0 -289 42 -403 125s-190 185 -229 305l155 48c33 -95 93 -174 180 -236s189 -93 306 -93
c111 0 201 27 270 81s104 116 104 187c0 56 -20 103 -59 141s-107 72 -203 102l-358 114c-211 68 -317 180 -317 336c0 104 46 193 137 267s205 111 342 111c142 0 264 -33 366 -98s175 -148 218 -249l-151 -47c-35 77 -90 138 -165 182s-164 66 -267 66
c-91 0 -166 -22 -225 -67s-88 -98 -88 -160c0 -48 17 -87 51 -118s92 -59 173 -85z" />
    <glyph glyph-name="scaron" unicode="&#x161;" horiz-adv-x="1044" 
d="M408 1180l-222 270h162l144 -186l145 186h160l-224 -270h-165zM694 553l-3 -5c78 -23 139 -55 183 -95s66 -97 66 -170c0 -90 -39 -165 -117 -225s-177 -90 -298 -90c-113 0 -213 30 -300 90s-143 134 -169 221l148 41c19 -61 58 -112 117 -152s128 -60 207 -60
c75 0 137 16 185 49s72 73 72 120c0 39 -11 69 -34 90s-61 40 -114 57l-291 86c-159 47 -238 130 -237 249c0 78 36 145 108 202s161 85 266 85s195 -24 271 -72s130 -109 162 -182l-144 -43c-19 47 -54 86 -106 117s-113 47 -184 47c-64 0 -116 -16 -156 -47
s-60 -66 -60 -104c0 -55 46 -96 137 -123z" />
    <glyph glyph-name="uni0162" unicode="&#x162;" horiz-adv-x="1284" 
d="M725 1284l-1 -1282l-37 -119c55 -4 99 -21 132 -51s49 -67 49 -111c0 -55 -21 -98 -63 -129s-94 -46 -157 -46c-79 0 -148 22 -207 66l27 90c63 -44 125 -62 186 -54s92 34 92 78c0 35 -23 59 -69 72s-93 14 -142 3l63 199h-37v1284h-530v150h1222v-150h-528z" />
    <glyph glyph-name="uni0163" unicode="&#x163;" horiz-adv-x="837" 
d="M555 -119l-3 2c55 -4 99 -21 132 -51s49 -67 49 -111c0 -55 -21 -98 -63 -129s-94 -46 -157 -46c-79 0 -148 22 -207 66l27 90c63 -44 125 -62 186 -54s92 34 92 78c0 35 -23 59 -69 72s-93 14 -142 3l62 193c-145 30 -217 136 -217 317v568h-203v143h203v352h157v-352
h351v-143h-351v-568c0 -120 55 -180 166 -180c51 0 100 12 147 35l43 -135c-57 -25 -114 -39 -170 -43z" />
    <glyph glyph-name="Tcaron" unicode="&#x164;" horiz-adv-x="1284" 
d="M559 1591l-221 271h162l143 -187l145 187h160l-223 -271h-166zM1253 1434v-150h-528v-1284h-164v1284h-530v150h1222z" />
    <glyph glyph-name="tcaron" unicode="&#x165;" horiz-adv-x="851" 
d="M707 1468l-54 -329h-121l21 329h154zM715 166l43 -135c-69 -30 -140 -45 -213 -45c-100 0 -175 29 -225 87s-75 137 -75 238v568h-203v143h203v352h157v-352h351v-143h-351v-568c0 -120 55 -180 166 -180c51 0 100 12 147 35z" />
    <glyph glyph-name="Tbar" unicode="&#x166;" horiz-adv-x="1284" 
d="M1253 1284h-528v-510h340v-133h-340v-641h-164v641h-366v133h366v510h-530v150h1222v-150z" />
    <glyph glyph-name="tbar" unicode="&#x167;" horiz-adv-x="839" 
d="M717 166l44 -135c-73 -30 -145 -45 -216 -45c-100 0 -175 29 -225 87s-75 137 -75 238v242h-187v117h187v225h-203v127h203v352h157v-352h353v-127h-353v-225h306v-117h-306v-242c0 -120 56 -180 168 -180c51 0 100 12 147 35z" />
    <glyph glyph-name="Umacron" unicode="&#x16a;" horiz-adv-x="1449" 
d="M995 1747v-123h-538v123h538zM1151 1434h162v-865c0 -180 -52 -324 -157 -433s-249 -163 -433 -163s-328 54 -433 163s-157 253 -157 433v865h166v-861c0 -137 37 -246 110 -327s178 -121 315 -121s242 41 316 122s111 190 111 326v861z" />
    <glyph glyph-name="umacron" unicode="&#x16b;" 
d="M893 1335v-123h-539v123h539zM932 1022l158 -2v-1022h-158v178c-83 -137 -209 -205 -377 -205c-129 0 -230 40 -303 119s-109 189 -109 330v600h158v-578c0 -101 25 -180 75 -236s121 -84 212 -84c104 0 187 36 250 107s94 164 94 279v514z" />
    <glyph glyph-name="Uring" unicode="&#x16e;" horiz-adv-x="1449" 
d="M725 1542h-1c-64 0 -118 21 -162 63s-66 95 -66 158s22 116 66 158s98 63 162 63c65 0 120 -21 164 -63s66 -95 66 -158s-22 -116 -66 -158s-98 -63 -163 -63zM724 1878v-2c-35 0 -63 -10 -84 -31s-32 -49 -32 -83s11 -62 32 -83s49 -31 84 -31c37 0 66 11 87 32
s32 49 32 83s-11 62 -32 83s-50 32 -87 32zM1150 1432h162v-865c0 -180 -52 -324 -157 -433s-249 -163 -433 -163s-328 54 -433 163s-157 253 -157 433v865h166v-861c0 -137 37 -246 110 -327s178 -121 315 -121s242 41 316 122s111 190 111 326v861z" />
    <glyph glyph-name="uring" unicode="&#x16f;" 
d="M623 1130h-2c-64 0 -118 21 -162 63s-66 95 -66 158s22 116 66 158s98 63 163 63s120 -21 164 -63s66 -95 66 -158s-22 -116 -66 -158s-98 -63 -163 -63zM621 1466l-3 -2c-35 0 -63 -10 -84 -31s-32 -49 -32 -83s11 -62 32 -83s50 -31 86 -31c37 0 66 11 87 32
s32 49 32 83s-10 62 -31 83s-50 32 -87 32zM927 1020l158 -2v-1022h-158v178c-83 -137 -209 -205 -377 -205c-129 0 -230 40 -303 119s-109 189 -109 330v600h158v-578c0 -101 25 -180 75 -236s121 -84 212 -84c104 0 187 36 250 107s94 164 94 279v514z" />
    <glyph glyph-name="Uhungarumlaut" unicode="&#x170;" horiz-adv-x="1449" 
d="M788 1874l-170 -279h-147l158 279h159zM932 1595h-148l177 279h159zM1151 1434h162v-865c0 -180 -52 -324 -157 -433s-249 -163 -433 -163s-328 54 -433 163s-157 253 -157 433v865h166v-861c0 -137 37 -246 110 -327s178 -121 315 -121s242 41 316 122s111 190 111 326
v861z" />
    <glyph glyph-name="uhungarumlaut" unicode="&#x171;" 
d="M686 1462l-170 -278h-147l157 278h160zM829 1184h-147l176 278h160zM932 1022l158 -2v-1022h-158v178c-83 -137 -209 -205 -377 -205c-129 0 -230 40 -303 119s-109 189 -109 330v600h158v-578c0 -101 25 -180 75 -236s121 -84 212 -84c104 0 187 36 250 107
s94 164 94 279v514z" />
    <glyph glyph-name="Uogonek" unicode="&#x172;" horiz-adv-x="1449" 
d="M1151 1434l161 -1v-865c0 -232 -83 -401 -248 -508c-68 -52 -122 -105 -163 -159s-61 -102 -61 -145c0 -27 8 -48 23 -64s36 -24 63 -24c47 0 89 22 126 66l32 -109c-41 -51 -100 -76 -177 -76c-61 0 -110 17 -147 51s-55 80 -55 139c0 79 45 160 135 243
c-33 -5 -72 -8 -117 -9c-184 0 -328 54 -433 163s-157 253 -157 433v865h166v-861c0 -137 37 -246 110 -327s178 -121 315 -121s242 41 316 122s111 190 111 326v861z" />
    <glyph glyph-name="uogonek" unicode="&#x173;" 
d="M1137 -270l34 -114c-41 -51 -100 -76 -177 -76c-60 0 -109 17 -146 51s-56 80 -56 139c0 42 16 87 47 136s70 93 117 132h-24v178c-83 -137 -209 -205 -377 -205c-129 0 -230 40 -303 119s-109 189 -109 330v600h158v-578c0 -101 25 -180 75 -236s121 -84 212 -84
c104 0 187 36 250 107s94 164 94 279v514h158v-1022c-49 -42 -89 -85 -119 -130s-45 -84 -45 -118c0 -27 8 -48 23 -64s36 -24 63 -24c48 0 90 22 125 66z" />
    <glyph glyph-name="Wcircumflex" unicode="&#x174;" horiz-adv-x="2019" 
d="M1010 1778l-144 -187h-161l221 271h166l223 -271h-160zM1819 1434h170l-451 -1434h-170l-358 1167l-359 -1167h-170l-450 1434h170l366 -1203l367 1203h149l367 -1203z" />
    <glyph glyph-name="wcircumflex" unicode="&#x175;" horiz-adv-x="1574" 
d="M786 1366l-143 -186h-162l221 270h166l224 -270h-160zM1386 1022h164l-350 -1022h-153l-259 786l-260 -786h-153l-352 1022h165l269 -821l262 821h137l262 -821z" />
    <glyph glyph-name="Ycircumflex" unicode="&#x176;" horiz-adv-x="1335" 
d="M670 1778l-144 -187h-161l221 271h166l223 -271h-160zM1128 1434h185l-563 -885v-549h-164v549l-563 885h186l459 -732z" />
    <glyph glyph-name="ycircumflex" unicode="&#x177;" horiz-adv-x="1118" 
d="M571 1366l-143 -186h-162l221 270h166l224 -270h-160zM928 1022h168l-629 -1452h-166l195 450l-473 1002h174l378 -825z" />
    <glyph glyph-name="Ydieresis" unicode="&#x178;" horiz-adv-x="1335" 
d="M479 1589v-1c-27 0 -50 9 -68 28s-27 42 -27 69s9 50 27 68s41 27 68 27s50 -9 68 -27s27 -40 27 -67s-9 -50 -27 -69s-41 -28 -68 -28zM858 1588v-1c-29 0 -52 9 -70 28s-27 42 -27 69s9 50 27 68s41 27 70 27c27 0 50 -9 68 -27s27 -40 27 -67s-9 -50 -27 -69
s-41 -28 -68 -28zM1128 1432h185l-563 -885v-549h-164v549l-563 885h186l459 -732z" />
    <glyph glyph-name="Zacute" unicode="&#x179;" horiz-adv-x="1280" 
d="M905 1874l-198 -279h-146l164 279h180zM311 147h893v-147h-1120v109l874 1177h-852v148h1076v-111z" />
    <glyph glyph-name="zacute" unicode="&#x17a;" horiz-adv-x="1056" 
d="M784 1462l-198 -278h-146l164 278h180zM307 137h660v-137h-875v104l643 781h-631v137h844v-109z" />
    <glyph glyph-name="Zdotaccent" unicode="&#x17b;" horiz-adv-x="1280" 
d="M651 1589h-1c-31 0 -57 10 -78 31s-31 47 -31 78c0 30 11 55 32 75s47 30 78 30s57 -10 78 -30s32 -45 32 -75c0 -31 -11 -57 -32 -78s-47 -31 -78 -31zM310 147h893v-147h-1120v109l874 1177h-852v148h1076v-111z" />
    <glyph glyph-name="zdotaccent" unicode="&#x17c;" horiz-adv-x="1056" 
d="M530 1178h-2c-32 0 -58 10 -79 30s-31 46 -31 77c0 30 11 55 32 76s47 31 79 31s58 -10 79 -31s32 -46 32 -76c0 -31 -10 -57 -31 -77s-47 -30 -79 -30zM304 137h660v-137h-875v104l643 781h-631v137h844v-109z" />
    <glyph glyph-name="Zcaron" unicode="&#x17d;" horiz-adv-x="1280" 
d="M567 1591l-221 271h162l143 -187l146 187h159l-223 -271h-166zM311 147h893v-147h-1120v109l874 1177h-852v148h1076v-111z" />
    <glyph glyph-name="zcaron" unicode="&#x17e;" horiz-adv-x="1056" 
d="M446 1180l-221 270h162l143 -186l146 186h160l-224 -270h-166zM307 137h660v-137h-875v104l643 781h-631v137h844v-109z" />
    <glyph glyph-name="florin" unicode="&#x192;" horiz-adv-x="1028" 
d="M776 1380h1c-98 0 -157 -80 -176 -239l-37 -275h295v-131h-311l-90 -669c-31 -257 -137 -385 -318 -385c-85 0 -152 26 -201 77l59 123c37 -39 83 -59 139 -59c94 0 151 81 172 244l88 669h-262v131h279l37 275c31 254 139 381 323 381c90 0 162 -25 217 -74l-61 -127
c-40 39 -91 59 -154 59z" />
    <glyph glyph-name="uni0218" unicode="&#x218;" horiz-adv-x="1353" 
d="M705 -27l-5 -4c-155 0 -289 42 -403 125s-190 185 -229 305l155 48c33 -95 93 -174 180 -236s189 -93 306 -93c111 0 201 27 270 81s104 116 104 187c0 56 -20 103 -59 141s-107 72 -203 102l-358 114c-211 68 -317 180 -317 336c0 104 46 193 137 267s205 111 342 111
c142 0 264 -33 366 -98s175 -148 218 -249l-151 -47c-35 77 -90 138 -165 182s-164 66 -267 66c-91 0 -166 -22 -225 -67s-88 -98 -88 -160c0 -48 17 -87 51 -118s92 -59 173 -85l348 -111c123 -39 214 -86 274 -141s90 -132 90 -232c0 -117 -51 -217 -153 -300
s-232 -124 -391 -124zM587 -516l26 367h154l-57 -367h-123z" />
    <glyph glyph-name="uni0219" unicode="&#x219;" horiz-adv-x="1044" 
d="M528 -27l-2 -5c-113 0 -213 30 -300 90s-143 134 -169 221l148 41c19 -61 58 -112 117 -152s128 -60 207 -60c75 0 137 16 185 49s72 73 72 120c0 39 -11 69 -34 90s-61 40 -114 57l-291 86c-159 47 -238 130 -237 249c0 78 36 145 108 202s161 85 266 85
s195 -24 271 -72s130 -109 162 -182l-144 -43c-19 47 -54 86 -106 117s-113 47 -184 47c-64 0 -116 -16 -156 -47s-60 -66 -60 -104c0 -55 46 -96 137 -123l291 -86c78 -23 139 -55 183 -95s66 -97 66 -170c0 -90 -39 -165 -118 -225s-178 -90 -298 -90zM395 -517l27 367
h154l-58 -367h-123z" />
    <glyph glyph-name="uni021A" unicode="&#x21a;" horiz-adv-x="1284" 
d="M1253 1434v-150h-528v-1284h-164v1284h-530v150h1222zM549 -512l26 367h152l-55 -367h-123z" />
    <glyph glyph-name="uni021B" unicode="&#x21b;" horiz-adv-x="837" 
d="M758 31c-69 -30 -140 -45 -213 -45c-100 0 -175 29 -225 87s-75 137 -75 238v568h-203v143h203v352h157v-352h351v-143h-351v-568c0 -120 55 -180 166 -180c51 0 100 12 147 35zM412 -512l26 367h154l-57 -367h-123z" />
    <glyph glyph-name="circumflex" unicode="&#x2c6;" horiz-adv-x="610" 
d="M610 1180h-159l-146 186l-143 -186h-162l221 270h166z" />
    <glyph glyph-name="caron" unicode="&#x2c7;" horiz-adv-x="610" 
d="M451 1450h159l-223 -270h-166l-221 270h162l143 -186z" />
    <glyph glyph-name="breve" unicode="&#x2d8;" horiz-adv-x="606" 
d="M303 1157h2c-97 0 -172 26 -225 78s-79 118 -79 197h133c1 -49 15 -89 42 -119s69 -45 126 -45s100 15 128 46s42 70 42 118h133c0 -79 -26 -145 -78 -197s-127 -78 -224 -78z" />
    <glyph glyph-name="dotaccent" unicode="&#x2d9;" horiz-adv-x="221" 
d="M110 1208h-2c-32 0 -58 10 -79 31s-31 47 -31 78s11 57 32 77s47 30 79 30s58 -10 79 -30s32 -46 32 -77s-10 -57 -31 -78s-47 -31 -79 -31z" />
    <glyph glyph-name="ring" unicode="&#x2da;" horiz-adv-x="456" 
d="M227 1130c-64 0 -118 21 -162 63s-66 95 -66 158s22 116 66 158s98 63 162 63c65 0 120 -21 164 -63s66 -95 66 -158s-22 -116 -66 -158s-99 -63 -164 -63zM227 1237l-2 -2c37 0 66 11 87 32s32 49 32 83s-10 62 -31 83s-50 32 -87 32c-35 0 -63 -10 -84 -31
s-31 -49 -31 -83s11 -62 32 -83s49 -31 84 -31z" />
    <glyph glyph-name="ogonek" unicode="&#x2db;" horiz-adv-x="378" 
d="M203 -457l2 -1c-60 0 -109 17 -147 51s-57 80 -57 139c0 42 16 87 47 136s71 93 119 132h133c-49 -42 -89 -85 -119 -130s-45 -84 -45 -118c0 -27 8 -48 23 -64s36 -24 63 -24c48 0 90 22 125 66l33 -111c-41 -51 -100 -76 -177 -76z" />
    <glyph glyph-name="tilde" unicode="&#x2dc;" horiz-adv-x="616" 
d="M451 1190h-2c-41 0 -91 20 -151 60s-102 60 -125 60c-37 0 -55 -38 -55 -115h-119c0 161 55 242 166 242c41 0 92 -20 152 -61s101 -61 122 -61c37 0 56 38 57 115h120c1 -160 -54 -240 -165 -240z" />
    <glyph glyph-name="hungarumlaut" unicode="&#x2dd;" horiz-adv-x="649" 
d="M0 1184l158 278h159l-170 -278h-147zM313 1184l176 278h160l-188 -278h-148z" />
    <glyph glyph-name="gravecomb" unicode="&#x300;" horiz-adv-x="0" 
d="M0 1184h-145l-199 278h182z" />
    <glyph glyph-name="acutecomb" unicode="&#x301;" horiz-adv-x="0" 
d="M-344 1184l164 278h180l-199 -278h-145z" />
    <glyph glyph-name="uni0302" unicode="&#x302;" horiz-adv-x="0" 
d="M0 1180h-160l-145 186l-144 -186h-161l221 270h166z" />
    <glyph glyph-name="tildecomb" unicode="&#x303;" horiz-adv-x="0" 
d="M-166 1190c-41 0 -91 20 -151 60s-101 60 -124 60c-37 0 -56 -38 -57 -115h-118c0 161 55 242 165 242c41 0 92 -20 152 -61s101 -61 123 -61c37 0 55 38 55 115h123c0 -160 -56 -240 -168 -240z" />
    <glyph glyph-name="uni0304" unicode="&#x304;" horiz-adv-x="0" 
d="M-539 1212v123h541v-123h-541z" />
    <glyph glyph-name="uni0306" unicode="&#x306;" horiz-adv-x="0" 
d="M-304 1157h2c-97 0 -172 26 -224 78s-78 118 -78 197h133c1 -49 15 -89 42 -119s69 -45 126 -45s100 15 128 46s42 70 42 118h133c0 -79 -26 -145 -79 -197s-128 -78 -225 -78z" />
    <glyph glyph-name="uni0307" unicode="&#x307;" horiz-adv-x="0" 
d="M-111 1178h-2c-32 0 -58 10 -79 30s-31 46 -31 77c0 30 11 55 32 76s47 31 79 31s58 -10 79 -31s32 -46 32 -76c0 -31 -10 -57 -31 -77s-47 -30 -79 -30z" />
    <glyph glyph-name="uni0308" unicode="&#x308;" horiz-adv-x="0" 
d="M-475 1178v-1c-27 0 -50 9 -68 27s-27 41 -27 68s9 50 27 68s41 27 68 27s50 -9 68 -27s27 -40 27 -67s-9 -50 -27 -68s-41 -27 -68 -27zM-96 1177v-1c-29 0 -52 9 -70 27s-27 41 -27 68s9 50 27 68s41 27 70 27c27 0 50 -9 68 -27s27 -40 27 -67s-9 -50 -27 -68
s-41 -27 -68 -27z" />
    <glyph glyph-name="uni030A" unicode="&#x30a;" horiz-adv-x="0" 
d="M-229 1130h-1c-64 0 -118 21 -162 63s-66 95 -66 158s22 116 66 158s98 63 163 63s120 -21 164 -63s66 -95 66 -158s-22 -116 -66 -158s-99 -63 -164 -63zM-230 1237l-1 -2c37 0 66 11 87 32s32 49 32 83s-10 62 -31 83s-50 32 -87 32c-35 0 -63 -10 -84 -31
s-32 -49 -32 -83s11 -62 32 -83s49 -31 84 -31z" />
    <glyph glyph-name="uni030B" unicode="&#x30b;" horiz-adv-x="0" 
d="M-649 1184l157 278h160l-170 -278h-147zM-336 1184l176 278h162l-190 -278h-148z" />
    <glyph glyph-name="uni030C" unicode="&#x30c;" horiz-adv-x="0" 
d="M-160 1450h160l-223 -270h-166l-221 270h161l144 -186z" />
    <glyph glyph-name="uni0312" unicode="&#x312;" horiz-adv-x="0" 
d="M0 1556l-27 -366h-153l57 366h123z" />
    <glyph glyph-name="uni0326" unicode="&#x326;" horiz-adv-x="0" 
d="M-180 -512l26 367h154l-57 -367h-123z" />
    <glyph glyph-name="uni0327" unicode="&#x327;" horiz-adv-x="0" 
d="M-221 -455l-2 2c-79 0 -148 22 -207 66l27 90c63 -44 125 -62 186 -54s92 34 92 78c0 35 -23 59 -69 72s-93 14 -142 3l64 199h127l-37 -119c55 -4 99 -21 132 -51s49 -67 49 -111c0 -55 -21 -98 -63 -129s-94 -46 -157 -46z" />
    <glyph glyph-name="uni0328" unicode="&#x328;" horiz-adv-x="0" 
d="M-176 -457l2 -1c-60 0 -109 17 -147 51s-57 80 -57 139c0 42 16 87 47 136s71 93 119 132h133c-49 -42 -89 -85 -119 -130s-45 -84 -45 -118c0 -27 8 -48 23 -64s36 -24 63 -24c48 0 90 22 125 66l33 -111c-41 -51 -100 -76 -177 -76z" />
    <glyph glyph-name="uni0394" unicode="&#x394;" horiz-adv-x="1419" 
d="M811 1434l586 -1434h-1374l585 1434h203zM256 147h907l-452 1125z" />
    <glyph glyph-name="uni03A9" unicode="&#x3a9;" horiz-adv-x="1685" 
d="M1593 743l-1 1c0 -130 -30 -246 -90 -347s-143 -184 -248 -249h324v-147h-582v147c129 44 234 119 315 225s121 226 121 360c0 161 -55 297 -166 408s-252 167 -423 167s-312 -56 -423 -168s-167 -248 -167 -408c0 -134 40 -254 121 -360s185 -181 313 -225v-147h-579
v147h319c-104 64 -186 147 -246 249s-90 218 -90 347c0 201 71 371 214 510s322 208 538 208s395 -69 537 -208s213 -309 213 -510z" />
    <glyph glyph-name="uni03BC" unicode="&#x3bc;" horiz-adv-x="1323" 
d="M1270 129l36 -131c-42 -17 -83 -25 -123 -25c-129 0 -206 60 -231 179c-86 -119 -208 -179 -366 -180c-109 0 -201 36 -275 107v-510h-157v1452h157v-578c0 -98 26 -176 78 -234s122 -87 209 -87c104 0 187 36 250 107s94 164 94 279v514h158v-770c0 -91 31 -137 92 -137
c23 0 49 5 78 14z" />
    <glyph glyph-name="pi" unicode="&#x3c0;" horiz-adv-x="1329" 
d="M1266 899h-224v-647c0 -87 30 -131 91 -131c29 0 54 5 75 16l37 -129c-39 -18 -81 -27 -125 -26c-154 0 -231 90 -231 270v647h-461v-899h-154v899h-213v143h1205v-143z" />
    <glyph glyph-name="Wgrave" unicode="&#x1e80;" horiz-adv-x="2019" 
d="M1100 1595h-146l-198 279h182zM1819 1434h170l-451 -1434h-170l-358 1167l-359 -1167h-170l-450 1434h170l366 -1203l367 1203h149l367 -1203z" />
    <glyph glyph-name="wgrave" unicode="&#x1e81;" horiz-adv-x="1574" 
d="M877 1184h-146l-199 278h183zM1386 1022h164l-350 -1022h-153l-259 786l-260 -786h-153l-352 1022h165l269 -821l262 821h137l262 -821z" />
    <glyph glyph-name="Wacute" unicode="&#x1e82;" horiz-adv-x="2019" 
d="M1264 1874l-199 -279h-145l163 279h181zM1819 1434h170l-451 -1434h-170l-358 1167l-359 -1167h-170l-450 1434h170l366 -1203l367 1203h149l367 -1203z" />
    <glyph glyph-name="wacute" unicode="&#x1e83;" horiz-adv-x="1574" 
d="M1040 1462l-198 -278h-146l164 278h180zM1386 1022h164l-350 -1022h-153l-259 786l-260 -786h-153l-352 1022h165l269 -821l262 821h137l262 -821z" />
    <glyph glyph-name="Wdieresis" unicode="&#x1e84;" horiz-adv-x="2019" 
d="M821 1589v-1c-27 0 -50 9 -68 28s-27 42 -27 69s9 50 27 68s41 27 68 27s50 -9 69 -27s28 -40 28 -67s-9 -50 -28 -69s-42 -28 -69 -28zM1200 1588v-1c-29 0 -52 9 -70 28s-27 42 -27 69s9 50 27 68s41 27 70 27c27 0 50 -9 68 -27s27 -40 27 -67s-9 -50 -27 -69
s-41 -28 -68 -28zM1819 1432h170l-451 -1434h-170l-358 1167l-359 -1167h-170l-450 1434h170l366 -1203l367 1203h149l367 -1203z" />
    <glyph glyph-name="wdieresis" unicode="&#x1e85;" horiz-adv-x="1574" 
d="M598 1178v-1c-27 0 -50 9 -68 27s-27 41 -27 68s9 50 27 68s41 27 68 27s50 -9 68 -27s27 -40 27 -67s-9 -50 -27 -68s-41 -27 -68 -27zM977 1177v-1c-29 0 -52 9 -70 27s-27 41 -27 68s9 50 27 68s41 27 70 27c27 0 50 -9 68 -27s27 -40 27 -67s-9 -50 -27 -68
s-41 -27 -68 -27zM1386 1020h164l-350 -1022h-153l-259 786l-260 -786h-153l-352 1022h165l269 -821l262 821h137l262 -821z" />
    <glyph glyph-name="Ygrave" unicode="&#x1ef2;" horiz-adv-x="1335" 
d="M760 1595h-146l-198 279h182zM1128 1434h185l-563 -885v-549h-164v549l-563 885h186l459 -732z" />
    <glyph glyph-name="ygrave" unicode="&#x1ef3;" horiz-adv-x="1118" 
d="M659 1184h-145l-199 278h183zM928 1022h168l-629 -1452h-166l195 450l-473 1002h174l378 -825z" />
    <glyph glyph-name="endash" unicode="&#x2013;" horiz-adv-x="1280" 
d="M143 567v135h994v-135h-994z" />
    <glyph glyph-name="emdash" unicode="&#x2014;" horiz-adv-x="1894" 
d="M143 567v135h1608v-135h-1608z" />
    <glyph glyph-name="quoteleft" unicode="&#x2018;" horiz-adv-x="493" 
d="M381 1434l-88 -492h-180l135 492h133z" />
    <glyph glyph-name="quoteright" unicode="&#x2019;" horiz-adv-x="493" 
d="M113 942l88 492h180l-133 -492h-135z" />
    <glyph glyph-name="quotesinglbase" unicode="&#x201a;" horiz-adv-x="493" 
d="M113 -281l88 492h180l-133 -492h-135z" />
    <glyph glyph-name="quotedblleft" unicode="&#x201c;" horiz-adv-x="804" 
d="M381 1434l-88 -492h-180l135 492h133zM692 1434l-88 -492h-180l135 492h133z" />
    <glyph glyph-name="quotedblright" unicode="&#x201d;" horiz-adv-x="804" 
d="M113 942l88 492h180l-133 -492h-135zM424 942l90 492h178l-133 -492h-135z" />
    <glyph glyph-name="quotedblbase" unicode="&#x201e;" horiz-adv-x="804" 
d="M113 -281l88 492h180l-133 -492h-135zM424 -281l90 492h178l-133 -492h-135z" />
    <glyph glyph-name="dagger" unicode="&#x2020;" horiz-adv-x="1030" 
d="M436 0v977h-344v145h344v373h158v-373h344v-145h-344v-977h-158z" />
    <glyph glyph-name="daggerdbl" unicode="&#x2021;" horiz-adv-x="1030" 
d="M436 0v373h-344v145h344v459h-344v145h344v373h158v-373h344v-145h-344v-459h344v-145h-344v-373h-158z" />
    <glyph glyph-name="bullet" unicode="&#x2022;" horiz-adv-x="618" 
d="M311 401v2c-56 1 -103 20 -141 57s-57 83 -57 138c0 53 19 97 57 132s85 53 141 54c55 1 101 -17 139 -54s57 -82 57 -135c0 -55 -19 -101 -57 -139s-84 -56 -139 -55z" />
    <glyph glyph-name="ellipsis" unicode="&#x2026;" horiz-adv-x="1275" 
d="M227 -14c-33 0 -60 11 -82 33s-33 49 -33 82c0 31 11 57 33 78s49 32 82 32s60 -11 82 -32s33 -47 33 -78c0 -33 -11 -60 -33 -82s-49 -33 -82 -33zM639 -14c-33 0 -60 11 -82 33s-33 49 -33 82c0 31 11 57 33 78s49 32 82 32c31 0 58 -11 80 -32s33 -47 33 -78
c0 -33 -11 -60 -33 -82s-49 -33 -80 -33zM1048 -14c-33 0 -60 11 -82 33s-33 49 -33 82c0 31 11 57 33 78s49 32 82 32s60 -11 82 -32s33 -47 33 -78c0 -33 -11 -60 -33 -82s-49 -33 -82 -33z" />
    <glyph glyph-name="perthousand" unicode="&#x2030;" horiz-adv-x="2930" 
d="M494 682c-109 0 -202 37 -278 111s-114 165 -114 273s38 199 114 273s169 111 278 111c111 0 204 -37 280 -111s114 -165 114 -273s-38 -199 -114 -273s-169 -111 -280 -111zM483 0l930 1434h148l-928 -1434h-150zM494 811h-3c74 0 136 25 185 75s74 110 74 179
c0 71 -25 131 -74 180s-110 74 -184 74s-135 -25 -183 -74s-72 -109 -72 -180c0 -69 25 -129 74 -179s110 -75 183 -75zM1549 -16v-2c-109 0 -201 37 -277 111s-114 165 -114 272c0 108 38 199 114 273s168 111 277 111c111 0 204 -37 279 -111s113 -165 113 -272
s-38 -197 -113 -271s-168 -111 -279 -111zM2434 -18l-2 -2c-109 0 -201 37 -277 111s-114 165 -114 272c0 108 38 199 114 273s169 111 278 111c111 0 204 -37 279 -111s113 -165 113 -272s-37 -197 -112 -271s-168 -111 -279 -111zM1547 109v-1c73 0 134 25 183 75
s74 110 74 180c0 71 -24 131 -72 180s-109 74 -183 74s-135 -25 -184 -74s-73 -109 -73 -180c0 -69 24 -129 72 -179s109 -75 183 -75zM2432 108v-1c73 0 134 25 183 75s74 110 74 180c0 71 -24 131 -72 180s-109 74 -183 74s-135 -25 -184 -74s-73 -109 -73 -180
c0 -69 24 -129 72 -179s109 -75 183 -75z" />
    <glyph glyph-name="guilsinglleft" unicode="&#x2039;" horiz-adv-x="653" 
d="M510 1014l-205 -359l205 -358h-160l-207 358l207 359h160z" />
    <glyph glyph-name="guilsinglright" unicode="&#x203a;" horiz-adv-x="653" 
d="M303 1014l207 -359l-207 -358h-160l205 358l-205 359h160z" />
    <glyph glyph-name="fraction" unicode="&#x2044;" horiz-adv-x="385" 
d="M-324 0l897 1434h134l-895 -1434h-136z" />
    <glyph glyph-name="uni2070" unicode="&#x2070;" horiz-adv-x="790" 
d="M395 903l-2 -1c-105 0 -188 39 -248 118s-90 182 -90 310c0 130 30 234 90 312s143 117 249 117c104 0 186 -39 247 -117s91 -182 91 -312c0 -129 -30 -232 -90 -310s-142 -117 -247 -117zM393 1025l-1 -1c67 0 118 27 153 82s52 130 52 224s-17 169 -52 224
s-86 83 -153 83s-117 -27 -151 -82s-51 -130 -51 -225s17 -170 51 -224s85 -81 152 -81z" />
    <glyph glyph-name="uni2074" unicode="&#x2074;" horiz-adv-x="708" 
d="M672 1208v-114h-107v-172h-123v172h-415v100l295 547h137l-285 -533h268v183h123v-183h107z" />
    <glyph glyph-name="uni2075" unicode="&#x2075;" horiz-adv-x="702" 
d="M375 1440l1 -2c81 0 147 -25 197 -74s75 -114 75 -195c0 -78 -27 -142 -81 -192s-124 -75 -210 -75c-83 0 -151 22 -204 65s-88 95 -105 156l113 31c34 -93 98 -139 192 -139c53 0 95 15 125 45s45 68 45 113c0 48 -15 87 -45 116s-72 44 -125 44
c-71 0 -132 -18 -183 -55l-92 31l37 432h495v-113h-387l-20 -225c52 25 109 37 172 37z" />
    <glyph glyph-name="uni2076" unicode="&#x2076;" horiz-adv-x="677" 
d="M360 1464v-1c82 -1 149 -28 202 -81s79 -118 79 -196c0 -81 -28 -148 -84 -202s-128 -81 -217 -81s-162 27 -219 81s-85 121 -84 202c0 59 21 121 63 186l244 369h137l-184 -283c13 4 34 6 63 6zM340 1015l-1 -1c53 0 96 16 129 48s49 73 49 122c0 48 -17 88 -50 120
s-76 48 -129 48c-52 0 -94 -16 -127 -48s-49 -72 -49 -119c0 -49 16 -90 49 -122s76 -48 129 -48z" />
    <glyph glyph-name="uni2077" unicode="&#x2077;" horiz-adv-x="624" 
d="M23 1741h577v-94l-317 -725h-138l310 706h-432v113z" />
    <glyph glyph-name="uni2078" unicode="&#x2078;" horiz-adv-x="716" 
d="M522 1366v-1c98 -42 147 -114 148 -215c0 -71 -28 -130 -85 -177s-132 -71 -225 -71c-94 0 -170 24 -227 71s-86 106 -86 177c0 101 50 173 150 215c-77 39 -115 98 -115 177c0 61 26 113 77 155s118 63 201 63c81 0 147 -21 198 -63s77 -93 77 -154
c0 -79 -38 -138 -113 -177zM360 1652l-1 -1c-49 0 -87 -12 -114 -35s-40 -52 -40 -87s14 -64 41 -87s65 -35 114 -35c45 0 82 12 111 35s43 52 43 87c0 34 -14 63 -43 87s-66 36 -111 36zM359 1010l-1 1c55 0 99 14 132 43s50 65 50 107s-16 77 -49 105s-77 42 -132 42
c-56 0 -101 -14 -134 -42s-50 -63 -50 -106c0 -44 17 -80 50 -108s78 -42 134 -42z" />
    <glyph glyph-name="uni2079" unicode="&#x2079;" horiz-adv-x="751" 
d="M375 1761l-1 1c89 0 162 -27 219 -82s86 -122 86 -202c-1 -60 -23 -122 -66 -187l-243 -368h-138l185 282c-19 -4 -40 -6 -62 -6c-82 1 -149 28 -202 81s-79 119 -79 197c0 81 28 149 85 203s129 81 216 81zM376 1310h1c52 0 94 16 127 48s49 72 49 120
c0 49 -16 90 -49 123s-76 49 -129 49c-52 0 -95 -16 -128 -49s-50 -74 -50 -123c0 -48 17 -88 50 -120s76 -48 129 -48z" />
    <glyph glyph-name="uni2080" unicode="&#x2080;" horiz-adv-x="790" 
d="M395 -328h-2c-105 0 -188 40 -248 119s-90 183 -90 311c0 130 30 234 90 312s143 117 249 117c104 0 186 -39 247 -117s91 -182 91 -312c0 -129 -30 -233 -90 -312s-142 -118 -247 -118zM393 -205l-1 1c67 0 118 28 153 83s52 130 52 224s-17 169 -52 224s-86 83 -153 83
s-117 -28 -151 -83s-51 -130 -51 -225s17 -170 51 -225s85 -82 152 -82z" />
    <glyph glyph-name="uni2081" unicode="&#x2081;" horiz-adv-x="497" 
d="M268 512h111v-819h-127v672l-205 -99l-31 113z" />
    <glyph glyph-name="uni2082" unicode="&#x2082;" horiz-adv-x="694" 
d="M244 -193l393 -2v-114h-592v88l328 313c41 39 70 72 88 98s27 54 27 84c0 42 -13 76 -39 102s-63 39 -111 39c-91 0 -148 -51 -170 -154l-121 33c9 65 40 121 93 167s118 69 196 69c86 0 155 -22 208 -67s79 -106 79 -183c0 -48 -12 -90 -36 -126s-61 -77 -110 -123z" />
    <glyph glyph-name="uni2083" unicode="&#x2083;" horiz-adv-x="716" 
d="M434 197l-1 -1c68 -8 123 -35 165 -81s63 -102 63 -169c0 -78 -28 -143 -83 -196s-126 -79 -212 -79c-93 0 -166 24 -220 72s-87 107 -100 176l117 33c8 -49 30 -89 66 -120s80 -47 131 -47c53 0 96 16 128 47s48 69 48 114s-15 83 -46 113s-75 45 -132 45
c-11 0 -30 -1 -57 -4l-20 78l194 221h-403v113h561v-94z" />
    <glyph glyph-name="uni2084" unicode="&#x2084;" horiz-adv-x="708" 
d="M672 -20v-115h-107v-172h-123v172h-415v98l295 549h137l-285 -532h268v182h123v-182h107z" />
    <glyph glyph-name="uni2085" unicode="&#x2085;" horiz-adv-x="702" 
d="M375 211h2c81 0 147 -25 197 -74s75 -114 75 -194c0 -78 -27 -143 -82 -194s-125 -77 -210 -77c-83 0 -151 22 -205 65s-88 96 -103 159l113 30c15 -41 39 -75 72 -102s73 -40 119 -40c53 0 95 15 125 45s45 68 45 115c0 48 -15 87 -45 116s-72 44 -125 44
c-71 0 -132 -18 -183 -55l-92 31l37 432h495v-113h-387l-20 -225c52 25 109 37 172 37z" />
    <glyph glyph-name="uni2086" unicode="&#x2086;" horiz-adv-x="677" 
d="M360 236v-1c82 -1 149 -28 202 -81s79 -119 79 -197c0 -81 -28 -149 -85 -204s-129 -82 -216 -82c-89 0 -162 27 -219 82s-85 123 -84 204c0 59 21 121 63 186l244 369h137l-184 -283c13 5 34 7 63 7zM340 -216h-1c52 0 95 16 128 49s50 74 50 123c0 48 -17 88 -50 120
s-76 48 -129 48c-52 0 -94 -16 -127 -48s-49 -72 -49 -120c0 -49 16 -90 49 -123s76 -49 129 -49z" />
    <glyph glyph-name="uni2087" unicode="&#x2087;" horiz-adv-x="624" 
d="M23 512h577v-94l-317 -725h-138l310 706h-432v113z" />
    <glyph glyph-name="uni2088" unicode="&#x2088;" horiz-adv-x="716" 
d="M522 137v-1c98 -42 147 -114 148 -215c0 -73 -28 -133 -85 -180s-132 -70 -225 -70c-94 0 -170 24 -227 71s-86 107 -86 179c0 101 50 173 150 215c-77 39 -115 98 -115 177c0 61 26 113 77 155s118 63 201 63c81 0 147 -21 198 -62s77 -93 77 -155
c0 -79 -38 -138 -113 -177zM360 423l-1 -1c-49 0 -87 -12 -114 -35s-40 -52 -40 -87s14 -64 41 -87s65 -35 114 -35c45 0 82 12 111 35s43 52 43 87c0 34 -14 63 -43 87s-66 36 -111 36zM359 -219l-1 1c55 0 99 14 132 43s50 65 50 107s-16 77 -49 105s-77 42 -132 42
c-56 0 -101 -14 -134 -42s-50 -63 -50 -106c0 -44 17 -80 50 -108s78 -42 134 -42z" />
    <glyph glyph-name="uni2089" unicode="&#x2089;" horiz-adv-x="677" 
d="M338 532h-2c89 0 162 -27 219 -81s85 -121 84 -202c0 -56 -21 -118 -63 -187l-244 -368h-137l184 282c-13 -4 -34 -6 -63 -6c-82 1 -149 28 -201 81s-78 119 -78 197c0 81 28 149 85 203s129 81 216 81zM338 80h1c52 0 94 16 127 48s49 72 49 120c0 49 -16 90 -49 123
s-76 49 -129 49c-52 0 -95 -16 -128 -49s-50 -74 -50 -123c0 -48 17 -88 50 -120s76 -48 129 -48z" />
    <glyph glyph-name="franc" unicode="&#x20a3;" horiz-adv-x="1255" 
d="M1141 1284h-774v-477h714v-145h-714v-259h389v-108h-389v-295h-164v295h-119v108h119v1031h938v-150z" />
    <glyph glyph-name="lira" unicode="&#x20a4;" horiz-adv-x="1323" 
d="M453 152h790v-152h-1147v152h195v331h-158v109h158v137h-158v109h158v219c0 130 38 230 113 301s175 106 300 106c119 0 217 -33 294 -100s125 -149 144 -246l-144 -41c-45 160 -144 240 -297 240c-79 0 -140 -23 -183 -70s-65 -113 -65 -198v-211h522v-109h-522v-137
h522v-109h-522v-331z" />
    <glyph glyph-name="Euro" unicode="&#x20ac;" horiz-adv-x="1548" 
d="M1360 252l92 -122c-130 -104 -286 -156 -467 -156c-177 0 -331 52 -462 155s-217 237 -258 402h-205v109h187c-3 35 -4 62 -4 81s1 45 4 78h-187v108h205c41 164 127 297 258 399s285 153 461 153c179 0 335 -50 468 -151l-98 -125c-103 82 -226 123 -369 123
c-135 0 -251 -37 -348 -111s-164 -170 -201 -289h658v-108h-680c-3 -33 -4 -58 -4 -76c0 -29 2 -57 6 -84h678v-109h-656c37 -120 104 -217 202 -291s214 -111 348 -111c147 0 271 42 372 125z" />
    <glyph glyph-name="uni20BF" unicode="&#x20bf;" horiz-adv-x="1370" 
d="M1014 750h1c81 -27 144 -72 189 -134s68 -135 68 -218c0 -115 -41 -210 -123 -285s-193 -112 -334 -112h-82v-266h-129v266h-162v-266h-127v266h-266v145h164v1143h-164v146h266v266h127v-266h162v266h129v-266h37c129 0 235 -35 317 -105s124 -159 125 -268
c1 -73 -16 -136 -51 -189s-84 -94 -147 -123zM763 1288l-389 -2v-485h407c82 0 147 24 196 71s73 105 73 174s-26 127 -79 173s-122 69 -208 69zM808 143c91 0 164 26 219 77s82 114 82 188c0 69 -27 130 -80 182s-125 78 -215 78h-440v-525h434z" />
    <glyph glyph-name="uni2116" unicode="&#x2116;" horiz-adv-x="2197" 
d="M1810 819h-1c-92 0 -169 31 -232 93s-95 138 -95 228s32 166 95 227s141 92 233 92s169 -31 232 -92s94 -137 94 -227s-31 -166 -94 -228s-140 -93 -232 -93zM1163 285v1149h162v-1434h-141l-869 1147v-1147h-163v1434h141zM1808 1335l-1 -1c-57 0 -104 -19 -141 -56
s-56 -83 -56 -138s19 -101 56 -139s84 -57 141 -57c56 0 103 19 140 57s56 85 57 140s-17 101 -55 138s-85 56 -141 56zM1517 560v125h581v-125h-581z" />
    <glyph glyph-name="trademark" unicode="&#x2122;" horiz-adv-x="1460" 
d="M289 778v555h-228v101h564v-101h-228v-555h-108zM702 778v656h107l227 -324l224 324h108v-656h-106v482l-224 -318l-231 318v-482h-105z" />
    <glyph glyph-name="estimated" unicode="&#x212e;" horiz-adv-x="1738" 
d="M889 -23l-1 -1c-229 0 -420 72 -573 215s-229 320 -229 530c0 203 77 377 230 521s338 216 555 216s402 -72 554 -216s228 -318 228 -521v-33h-1260v-432c123 -145 288 -217 496 -217c191 0 347 64 468 192h162c-173 -169 -383 -254 -630 -254zM392 749h954v430
c-123 145 -282 217 -477 217s-354 -72 -477 -217v-430z" />
    <glyph glyph-name="oneeighth" unicode="&#x215b;" horiz-adv-x="1597" 
d="M252 614v672l-205 -98l-31 112l252 134h111v-820h-127zM1071 1434h133l-895 -1434h-133zM1405 444l1 -1c98 -42 147 -114 147 -215c0 -71 -28 -130 -85 -178s-132 -72 -225 -72c-94 0 -170 24 -227 72s-86 107 -86 178c0 101 50 173 149 215c-77 39 -115 99 -114 179
c0 61 26 113 77 155s118 63 201 63c81 0 147 -21 198 -63s77 -93 77 -154c0 -80 -38 -140 -113 -179zM1244 730c-49 0 -87 -11 -114 -34s-41 -52 -41 -88s14 -65 41 -88s65 -35 114 -35c45 0 82 12 111 35s43 52 43 87c0 34 -14 63 -43 87s-66 36 -111 36zM1244 89
c55 0 99 14 132 43s49 65 49 107s-16 77 -49 105s-77 42 -132 42c-56 0 -101 -14 -134 -42s-50 -63 -50 -105c0 -44 17 -80 50 -108s78 -42 134 -42z" />
    <glyph glyph-name="threeeighths" unicode="&#x215c;" horiz-adv-x="1816" 
d="M662 868l-1 -4c0 -77 -28 -141 -83 -193s-126 -78 -212 -78c-93 0 -166 24 -220 72s-87 106 -100 175l117 32c8 -48 30 -87 66 -118s80 -46 131 -46c53 0 96 15 128 46s48 69 48 114s-15 83 -46 113s-75 45 -132 45c-11 0 -30 -1 -57 -4l-20 78l194 221h-403v113h561v-95
l-199 -221c68 -8 123 -35 165 -81s63 -102 63 -169zM1289 1430h133l-895 -1434h-133zM1623 440v-1c98 -42 147 -114 148 -215c0 -71 -28 -130 -85 -178s-132 -72 -225 -72c-94 0 -170 24 -227 72s-86 107 -86 178c0 101 50 173 149 215c-77 39 -115 99 -114 179
c0 61 26 113 77 155s118 63 201 63c81 0 147 -21 198 -63s77 -93 77 -154c0 -80 -38 -140 -113 -179zM1461 726h-1c-49 0 -87 -11 -114 -34s-40 -52 -40 -88s14 -65 41 -88s65 -35 114 -35c45 0 82 12 111 35s43 52 43 87c0 34 -14 63 -43 87s-66 36 -111 36zM1460 85
c55 0 99 14 132 43s49 65 49 107s-16 77 -49 105s-77 42 -132 42c-56 0 -101 -14 -134 -42s-50 -63 -50 -105c0 -44 17 -80 50 -108s78 -42 134 -42z" />
    <glyph glyph-name="fiveeighths" unicode="&#x215d;" horiz-adv-x="1802" 
d="M647 864l1 -1c0 -78 -27 -142 -81 -192s-124 -75 -210 -75c-83 0 -151 22 -204 65s-88 95 -105 156l113 31c34 -93 98 -139 192 -139c53 0 95 15 125 45s45 67 45 112c0 48 -15 87 -45 116s-72 44 -125 44c-71 0 -132 -18 -183 -55l-92 30l37 433h495v-113h-387l-20 -225
c52 25 109 37 172 37c81 0 147 -25 197 -74s75 -114 75 -195zM1277 1433h133l-895 -1434h-133zM1611 443v-1c98 -42 147 -114 147 -215c0 -71 -28 -130 -85 -178s-132 -72 -225 -72c-94 0 -170 24 -227 72s-86 107 -86 178c0 101 50 173 149 215c-77 39 -115 99 -115 179
c0 61 26 113 77 155s118 63 201 63c81 0 147 -21 198 -63s77 -93 77 -154c1 -80 -36 -140 -111 -179zM1449 729c-49 0 -87 -11 -114 -34s-41 -52 -41 -88s14 -65 41 -88s65 -35 114 -35c45 0 82 12 111 35s43 52 43 87c0 34 -14 63 -43 87s-66 36 -111 36zM1449 88
c55 0 99 14 132 43s49 65 49 107s-16 77 -49 105s-77 42 -132 42c-56 0 -101 -14 -134 -42s-50 -63 -50 -105c0 -44 17 -80 50 -108s78 -42 134 -42z" />
    <glyph glyph-name="seveneighths" unicode="&#x215e;" horiz-adv-x="1724" 
d="M600 1434v-95l-317 -725h-138l310 707h-432v113h577zM1198 1434h133l-895 -1434h-133zM1532 444l1 -1c98 -42 147 -114 147 -215c0 -71 -28 -130 -85 -178s-132 -72 -225 -72c-94 0 -170 24 -227 72s-86 107 -86 178c0 101 50 173 149 215c-77 39 -115 99 -114 179
c0 61 26 113 77 155s118 63 201 63c81 0 147 -21 198 -63s77 -93 77 -154c0 -80 -38 -140 -113 -179zM1371 730c-49 0 -87 -11 -114 -34s-41 -52 -41 -88s14 -65 41 -88s65 -35 114 -35c45 0 82 12 111 35s43 52 43 87c0 34 -14 63 -43 87s-66 36 -111 36zM1371 89
c55 0 99 14 132 43s49 65 49 107s-16 77 -49 105s-77 42 -132 42c-56 0 -101 -14 -134 -42s-50 -63 -50 -105c0 -44 17 -80 50 -108s78 -42 134 -42z" />
    <glyph glyph-name="arrowleft" unicode="&#x2190;" horiz-adv-x="1746" 
d="M1604 772v-139l-1188 -2l483 -481l-102 -101l-654 653l654 654l102 -101l-485 -481z" />
    <glyph glyph-name="arrowup" unicode="&#x2191;" horiz-adv-x="1595" 
d="M1452 807l-102 -100l-476 477l-2 -1184h-149v1186l-477 -479l-103 100l654 653z" />
    <glyph glyph-name="arrowright" unicode="&#x2192;" horiz-adv-x="1746" 
d="M950 1358l654 -653l-654 -654l-102 101l485 481l-1190 2v139l1188 2l-483 481z" />
    <glyph glyph-name="arrowdown" unicode="&#x2193;" horiz-adv-x="1595" 
d="M1350 727l102 -100l-655 -654l-654 654l103 100l477 -479v1186h149l2 -1184z" />
    <glyph glyph-name="arrowboth" unicode="&#x2194;" horiz-adv-x="2308" 
d="M1511 1358l654 -653l-654 -654l-102 101l485 481h-1480l485 -481l-102 -101l-654 654l654 653l102 -101l-483 -481h1476l-483 481z" />
    <glyph glyph-name="arrowupdn" unicode="&#x2195;" horiz-adv-x="1595" 
d="M874 -39l476 477l102 -102l-655 -651l-654 651l103 102l477 -479v1438l-477 -479l-103 102l654 651l655 -651l-102 -102l-476 477l-2 -717z" />
    <glyph glyph-name="uni2196" unicode="&#x2196;" horiz-adv-x="1370" 
d="M1227 266l-103 -104l-837 837v-675l-144 -2v925h924l2 -143l-682 2z" />
    <glyph glyph-name="uni2197" unicode="&#x2197;" horiz-adv-x="1372" 
d="M305 1255h924v-923h-144l2 680l-839 -840l-105 104l840 838l-678 -2v143z" />
    <glyph glyph-name="uni2198" unicode="&#x2198;" horiz-adv-x="1370" 
d="M1083 1108h144v-924h-924v144l678 -2l-838 837l105 107l837 -840z" />
    <glyph glyph-name="uni2199" unicode="&#x2199;" horiz-adv-x="1372" 
d="M389 303l678 2l2 -143h-926v923h144l-2 -679l839 839l105 -104z" />
    <glyph glyph-name="partialdiff" unicode="&#x2202;" horiz-adv-x="1310" 
d="M629 -31h1c-145 0 -267 49 -367 147s-150 220 -150 365c0 138 47 254 142 347s216 140 363 140c177 0 317 -56 420 -168c-11 147 -56 271 -135 372s-181 152 -306 152c-135 0 -254 -49 -356 -147l-39 143c115 97 250 145 405 145c180 0 324 -71 431 -212
s161 -327 161 -558c0 -220 -52 -396 -156 -528s-242 -198 -414 -198zM634 115l-1 2c117 0 213 49 287 147s113 219 116 362c-44 57 -101 105 -172 143s-150 57 -237 57c-101 0 -186 -34 -255 -101s-103 -148 -103 -243c0 -103 35 -190 104 -261s156 -106 261 -106z" />
    <glyph glyph-name="emptyset" unicode="&#x2205;" horiz-adv-x="1081" 
d="M1040 1085l-127 -124c69 -87 104 -189 105 -306c0 -135 -46 -249 -138 -342s-205 -139 -340 -139c-117 0 -219 36 -305 107l-123 -123l-72 69l125 125c-68 89 -102 190 -103 303c0 135 46 249 138 342s206 140 341 140c117 0 219 -36 305 -107l125 125zM191 655l-1 -1
c0 -79 22 -149 67 -209l494 492c-63 45 -134 68 -213 68c-98 0 -180 -33 -247 -100s-100 -150 -100 -250zM890 654v-1c0 78 -23 149 -70 213l-493 -493c63 -45 133 -68 211 -68c100 0 184 34 251 101s101 150 101 248z" />
    <glyph glyph-name="product" unicode="&#x220f;" horiz-adv-x="1312" 
d="M1169 1495v-1925h-157v1780h-711v-1780h-158v1925h1026z" />
    <glyph glyph-name="summation" unicode="&#x2211;" horiz-adv-x="1337" 
d="M313 -266h912v-144h-1112v127l635 842l-601 809v127h1039v-143h-838l584 -795z" />
    <glyph glyph-name="minus" unicode="&#x2212;" horiz-adv-x="1132" 
d="M143 651v133h846v-133h-846z" />
    <glyph glyph-name="radical" unicode="&#x221a;" horiz-adv-x="1392" 
d="M1223 1618h159l-546 -1804h-168l-322 850h-233v137h346l286 -789z" />
    <glyph glyph-name="infinity" unicode="&#x221e;" horiz-adv-x="1824" 
d="M1329 1102l-2 -2c105 0 195 -38 270 -114s113 -166 113 -271c0 -107 -37 -197 -112 -271s-165 -111 -270 -111c-157 0 -296 87 -416 260c-120 -173 -259 -260 -417 -260c-105 0 -195 37 -270 111s-112 165 -112 272c0 105 38 196 113 272s165 114 270 114
c159 0 298 -89 417 -266c120 177 259 266 416 266zM502 465c113 0 226 83 338 248c-112 165 -225 248 -338 248c-68 0 -127 -24 -176 -72s-74 -107 -74 -176c0 -68 25 -126 74 -175s108 -73 176 -73zM1321 465v1c68 0 126 24 175 72s73 106 73 174s-25 127 -74 176
s-107 73 -174 73c-115 0 -228 -83 -340 -248c112 -165 225 -248 340 -248z" />
    <glyph glyph-name="integral" unicode="&#x222b;" horiz-adv-x="1122" 
d="M225 -319l3 -1c-95 0 -170 24 -225 73l61 131c44 -41 97 -61 160 -61c97 0 157 81 180 242l164 1171c35 253 146 379 333 379c95 0 169 -25 222 -74l-61 -131c-38 41 -91 62 -160 63c-101 0 -163 -79 -186 -238l-164 -1172c-35 -255 -144 -382 -327 -382z" />
    <glyph glyph-name="approxequal" unicode="&#x2248;" horiz-adv-x="1247" 
d="M285 760l-140 42c0 71 20 130 60 178s102 72 185 72c53 0 108 -14 165 -42s110 -56 159 -83s92 -41 128 -41c82 0 123 50 123 151l141 -41c0 -71 -20 -131 -60 -180s-101 -73 -183 -73c-55 0 -111 14 -168 42s-110 56 -159 83s-91 41 -126 41c-83 1 -125 -49 -125 -149z
M287 409l-140 41c0 71 20 130 60 177s102 71 185 71c53 0 108 -14 165 -41s110 -55 159 -83s92 -42 128 -42c82 0 123 51 123 152l141 -41c0 -71 -20 -130 -60 -178s-101 -72 -183 -72c-55 0 -111 14 -168 41s-110 54 -159 81s-91 41 -126 41c-83 0 -125 -49 -125 -147z" />
    <glyph glyph-name="notequal" unicode="&#x2260;" horiz-adv-x="1134" 
d="M991 592v-133h-477l-129 -295h-121l129 295h-246v133h306l110 252h-420v133h478l129 293h120l-129 -293h248v-133h-305l-111 -252h418z" />
    <glyph glyph-name="lessequal" unicode="&#x2264;" horiz-adv-x="1142" 
d="M989 1276v-148l-680 -262l680 -264v-147l-846 336v149zM143 199v133h846v-133h-846z" />
    <glyph glyph-name="greaterequal" unicode="&#x2265;" horiz-adv-x="1142" 
d="M154 1276l845 -336v-149l-845 -336v147l680 264l-680 262v148zM154 199v133h845v-133h-845z" />
    <glyph glyph-name="lozenge" unicode="&#x25ca;" horiz-adv-x="1198" 
d="M686 1434l399 -717l-399 -717h-172l-401 717l401 717h172zM600 147l315 570l-315 569l-317 -569z" />
    <glyph glyph-name="glyph1" horiz-adv-x="0" 
 />
    <glyph glyph-name="glyph2" horiz-adv-x="681" 
 />
    <glyph glyph-name="i.aalt" horiz-adv-x="466" 
d="M231 1178h-2c-32 0 -58 10 -79 30s-31 46 -31 77c0 30 11 55 32 76s47 31 79 31s58 -10 79 -31s32 -46 32 -76c0 -31 -10 -57 -31 -77s-47 -30 -79 -30zM151 0v1022h159v-1022h-159z" />
    <glyph glyph-name="f_f_j.dlig" horiz-adv-x="1822" 
d="M1692 1022l-1 -1119c0 -113 -26 -201 -77 -265s-127 -96 -228 -96c-55 0 -111 14 -168 41l38 131c35 -22 74 -33 117 -32c107 0 160 71 160 213v983h-475v-879h-158v879h-477v-879h-156v879h-215v143h215v135c0 116 29 206 86 270s142 96 255 96c81 0 150 -14 207 -43
l-41 -133c-45 23 -95 34 -150 33c-65 0 -115 -19 -149 -58s-51 -95 -51 -169v-131h477v135c0 116 31 206 93 270s153 96 274 96c125 0 233 -36 324 -107l-41 -133c-87 65 -178 98 -273 98c-146 0 -219 -76 -219 -227v-131h633z" />
    <glyph glyph-name="f_j.dlig" horiz-adv-x="1189" 
d="M1059 1022l-2 -1118c0 -113 -26 -201 -77 -265s-127 -96 -228 -96c-55 0 -111 14 -168 41l39 131c33 -22 72 -33 117 -32c53 0 93 19 120 56s40 89 40 156v983h-477v-879h-156v879h-215v143h215v135c0 116 31 206 93 270s153 96 273 96c127 0 235 -36 325 -107l-38 -133
c-87 65 -179 98 -275 98c-73 0 -128 -19 -165 -58s-56 -95 -56 -169v-131h635z" />
    <glyph glyph-name="f_t.dlig" horiz-adv-x="1482" 
d="M1360 166l43 -136c-69 -30 -140 -45 -213 -45c-100 0 -175 29 -225 87s-75 137 -75 238v568h-467v-879h-156v879h-215v143h215v135c0 116 28 206 83 270s137 96 245 96c65 0 122 -10 170 -29l-39 -131c-37 12 -76 18 -117 18c-124 0 -186 -76 -186 -227v-131h467v352h158
v-352h350v-143h-350v-568c0 -120 55 -180 165 -180c51 0 100 12 147 35z" />
    <glyph glyph-name="t_t.dlig" horiz-adv-x="1482" 
d="M1362 166l42 -135c-73 -30 -144 -45 -213 -45c-100 0 -175 29 -225 87s-75 137 -75 238v568h-488v-568c0 -120 55 -180 166 -180c51 0 100 12 147 35l43 -135c-69 -30 -140 -45 -213 -45c-100 0 -175 29 -225 87s-75 137 -75 238v568h-203v143h203v352h157v-352h488v352
h158v-352h352v-143h-352v-568c0 -120 56 -180 168 -180c50 0 98 12 145 35z" />
    <glyph glyph-name="zero.tnum" horiz-adv-x="1189" 
d="M604 -27l-1 -1c-177 0 -315 69 -413 207s-147 317 -147 537c0 221 49 400 147 537s236 206 413 206s315 -68 413 -205s147 -316 147 -537c0 -220 -49 -399 -147 -537s-235 -207 -412 -207zM603 124h-2c127 0 225 53 293 159s102 250 102 432s-34 326 -102 433
s-165 160 -292 160s-225 -53 -294 -160s-103 -251 -103 -433s35 -326 104 -432s167 -159 294 -159z" />
    <glyph glyph-name="one.tnum" horiz-adv-x="1189" 
d="M717 150h346v-150h-911v150h399v1095l-358 -174l-41 141l428 222h137v-1284z" />
    <glyph glyph-name="two.tnum" horiz-adv-x="1189" 
d="M360 150l738 -2v-150h-981v121l571 551c78 75 135 138 170 188s53 105 53 164c0 89 -28 159 -83 210s-131 77 -228 77c-85 0 -157 -25 -216 -76s-98 -119 -117 -205l-147 41c17 107 69 199 156 275s194 114 321 114c141 0 255 -38 342 -115s131 -182 131 -316
c0 -83 -22 -158 -66 -225s-112 -144 -203 -231z" />
    <glyph glyph-name="three.tnum" horiz-adv-x="1189" 
d="M668 870l1 1c134 0 241 -40 321 -120s120 -185 120 -315c0 -131 -47 -242 -142 -332s-214 -135 -357 -135c-151 0 -272 40 -363 119s-149 175 -174 287l147 41c18 -86 61 -157 129 -214s153 -85 254 -85c108 0 193 31 255 93s93 137 93 226s-28 162 -84 219
s-130 86 -223 86c-69 0 -131 -18 -186 -55l-31 109l414 491h-727v148h940v-121z" />
    <glyph glyph-name="four.tnum" horiz-adv-x="1189" 
d="M1141 465v-148h-197v-317h-164v317h-741v123l534 994h177l-521 -969h551v362h164v-362h197z" />
    <glyph glyph-name="five.tnum" horiz-adv-x="1189" 
d="M633 913l1 -1c143 0 260 -43 351 -129s137 -199 137 -338c0 -134 -47 -246 -142 -337s-215 -136 -360 -136c-141 0 -255 37 -343 110s-147 164 -177 273l148 39c26 -82 70 -148 132 -198s140 -75 234 -75c105 0 190 31 254 94s96 141 96 234c0 95 -31 173 -93 234
s-147 91 -256 91c-127 0 -239 -40 -336 -119l-123 39l61 740h832v-148h-687l-38 -457c87 56 190 84 309 84z" />
    <glyph glyph-name="six.tnum" horiz-adv-x="1189" 
d="M623 946h1c146 -3 265 -50 357 -142s138 -206 138 -343c0 -138 -48 -254 -144 -348s-219 -141 -369 -141s-273 47 -369 141s-144 210 -144 348c0 101 39 211 117 330l430 643h184l-342 -512c41 16 88 24 141 24zM607 123v-2c104 0 189 32 254 96s98 145 98 242
s-33 178 -98 243s-150 98 -255 98c-104 0 -189 -32 -254 -97s-98 -146 -98 -243s33 -177 98 -241s150 -96 255 -96z" />
    <glyph glyph-name="seven.tnum" horiz-adv-x="1189" 
d="M106 1434h986v-123l-584 -1311h-174l573 1284h-801v150z" />
    <glyph glyph-name="eight.tnum" horiz-adv-x="1189" 
d="M872 776h-1c83 -34 148 -83 195 -147s71 -139 71 -225c0 -124 -48 -227 -145 -308s-223 -122 -379 -122c-157 0 -284 41 -381 122s-145 184 -145 308c0 86 24 161 71 225s112 113 195 147c-64 31 -114 73 -150 126s-54 114 -54 182c0 105 43 194 128 266s197 108 336 108
c138 0 250 -36 335 -108s128 -161 128 -266c0 -68 -18 -129 -54 -182s-86 -95 -150 -126zM613 1321h-1c-94 0 -168 -23 -223 -69s-82 -104 -82 -175s27 -129 82 -175s129 -69 223 -69c93 0 167 23 222 69s83 104 83 175s-27 129 -82 175s-129 69 -222 69zM612 117l-2 -1
c108 0 196 28 263 84s101 126 101 209c0 85 -33 155 -99 209s-154 81 -263 81c-111 0 -199 -27 -264 -81s-98 -123 -98 -208s33 -155 98 -210s153 -83 264 -83z" />
    <glyph glyph-name="nine.tnum" horiz-adv-x="1189" 
d="M610 1460l-1 1c150 0 273 -47 369 -140s144 -209 144 -347c0 -101 -39 -211 -116 -330l-430 -643h-185l342 512c-42 -17 -89 -25 -141 -24c-146 1 -265 48 -357 140s-138 207 -138 344c0 138 48 254 144 347s219 140 369 140zM610 636v-1c104 0 189 32 255 97
s99 145 99 241c0 97 -33 178 -99 242s-151 96 -256 96c-104 0 -189 -32 -254 -96s-98 -145 -98 -242s33 -177 98 -241s150 -96 255 -96z" />
    <glyph glyph-name="zero.dnom" horiz-adv-x="790" 
d="M395 -20h-2c-105 0 -188 40 -248 119s-90 183 -90 312c0 130 30 234 90 312s143 117 249 117c104 0 186 -39 247 -118s91 -183 91 -312s-30 -233 -90 -312s-142 -118 -247 -118zM393 104l-1 -1c67 0 118 27 153 82s52 130 52 224s-17 169 -52 224s-86 83 -153 83
s-117 -28 -151 -83s-51 -130 -51 -224c0 -95 17 -170 51 -224s85 -81 152 -81z" />
    <glyph glyph-name="one.dnom" horiz-adv-x="497" 
d="M268 819h111v-819h-127v672l-205 -99l-31 113z" />
    <glyph glyph-name="two.dnom" horiz-adv-x="694" 
d="M244 115h393v-115h-592v88l328 313c41 39 70 72 88 98s27 54 27 84c0 42 -13 76 -39 101s-63 38 -111 38c-91 0 -148 -51 -170 -154l-121 33c9 65 40 121 93 168s118 70 196 70c86 0 155 -22 208 -67s79 -106 79 -184c0 -48 -12 -90 -36 -126s-61 -77 -110 -124z" />
    <glyph glyph-name="three.dnom" horiz-adv-x="716" 
d="M434 504l-1 1c68 -8 123 -35 165 -81s63 -102 63 -169c0 -77 -28 -142 -83 -195s-126 -79 -212 -79c-93 0 -166 24 -220 72s-87 106 -100 174l117 33c8 -48 30 -88 66 -119s80 -47 131 -47c53 0 96 15 128 46s48 69 48 114s-15 83 -46 113s-75 45 -132 45
c-11 0 -30 -1 -57 -4l-20 77l194 222h-403v112h561v-94z" />
    <glyph glyph-name="four.dnom" horiz-adv-x="708" 
d="M672 287v-115h-107v-172h-123v172h-415v100l295 547h137l-285 -532h268v182h123v-182h107z" />
    <glyph glyph-name="five.dnom" horiz-adv-x="702" 
d="M375 518l2 -2c81 0 147 -24 197 -73s75 -114 75 -195c0 -78 -27 -142 -82 -193s-125 -76 -210 -76c-83 0 -151 22 -204 66s-88 97 -105 158l113 30c34 -93 98 -139 192 -139c53 0 95 15 125 45s45 68 45 113c0 48 -15 87 -45 116s-72 44 -125 44c-71 0 -132 -19 -183 -56
l-92 31l37 432h495v-112h-387l-20 -226c52 25 109 37 172 37z" />
    <glyph glyph-name="six.dnom" horiz-adv-x="677" 
d="M360 543v-2c82 -1 149 -28 202 -81s79 -119 79 -197c0 -81 -28 -148 -85 -202s-129 -81 -216 -81c-89 0 -162 27 -219 81s-85 122 -84 203c0 59 21 121 63 187l244 368h137l-184 -282c13 4 34 6 63 6zM340 92h-1c53 0 96 16 129 48s49 73 49 122c0 48 -17 88 -50 120
s-76 48 -129 48c-52 0 -94 -16 -127 -48s-49 -72 -49 -120c0 -49 16 -90 49 -122s76 -48 129 -48z" />
    <glyph glyph-name="seven.dnom" horiz-adv-x="624" 
d="M23 819h577v-94l-317 -725h-138l310 707h-432v112z" />
    <glyph glyph-name="eight.dnom" horiz-adv-x="716" 
d="M522 444v-1c98 -42 147 -114 148 -215c0 -71 -28 -130 -85 -178s-132 -72 -225 -72c-94 0 -170 24 -227 72s-86 107 -86 178c0 101 50 173 150 215c-77 39 -115 99 -115 179c0 61 26 113 77 155s118 63 201 63c81 0 147 -21 198 -63s77 -93 77 -154
c0 -80 -38 -140 -113 -179zM360 730h-1c-49 0 -87 -11 -114 -34s-40 -52 -40 -88s14 -65 41 -88s65 -35 114 -35c45 0 82 12 111 35s43 52 43 87c0 34 -14 63 -43 87s-66 36 -111 36zM359 89h-1c55 0 99 14 132 43s50 65 50 107s-16 77 -49 105s-77 42 -132 42
c-56 0 -101 -14 -134 -42s-50 -63 -50 -105c0 -44 17 -80 50 -108s78 -42 134 -42z" />
    <glyph glyph-name="nine.dnom" horiz-adv-x="751" 
d="M375 840l-1 1c89 0 162 -27 219 -82s86 -123 86 -204c-1 -60 -23 -122 -66 -186l-243 -369h-138l185 283c-19 -4 -40 -6 -62 -7c-82 1 -149 28 -202 81s-79 119 -79 197c0 81 28 149 85 204s129 82 216 82zM376 388h1c52 0 94 16 127 48s49 72 49 120
c0 49 -16 90 -49 123s-76 49 -129 49c-52 0 -95 -16 -128 -49s-50 -74 -50 -123c0 -48 17 -88 50 -120s76 -48 129 -48z" />
    <glyph glyph-name="zero.numr" horiz-adv-x="790" 
d="M395 596l-2 -1c-105 0 -188 39 -248 117s-90 182 -90 311c0 130 30 234 90 312s143 117 249 117c104 0 186 -39 247 -117s91 -182 91 -312c0 -129 -30 -232 -90 -310s-142 -117 -247 -117zM393 718h-1c67 0 118 27 153 82s52 129 52 223s-17 169 -52 224s-86 83 -153 83
s-117 -28 -151 -83s-51 -130 -51 -224c0 -95 17 -170 51 -224s85 -81 152 -81z" />
    <glyph glyph-name="one.numr" horiz-adv-x="497" 
d="M268 1434h111v-820h-127v672l-205 -98l-31 112z" />
    <glyph glyph-name="two.numr" horiz-adv-x="694" 
d="M244 729h393v-115h-592v88l328 314c41 39 70 72 88 98s27 54 27 84c0 42 -13 76 -39 101s-63 38 -111 38c-91 0 -148 -51 -170 -153l-121 33c9 65 40 121 93 167s118 69 196 69c86 0 155 -22 208 -67s79 -106 79 -184c0 -48 -12 -90 -36 -126s-61 -77 -110 -124z" />
    <glyph glyph-name="three.numr" horiz-adv-x="716" 
d="M434 1118l-1 -4c68 -8 123 -35 165 -81s63 -102 63 -169c0 -77 -28 -141 -83 -193s-126 -78 -212 -78c-93 0 -166 24 -220 72s-87 106 -100 175l117 32c8 -48 30 -87 66 -118s80 -46 131 -46c53 0 96 15 128 46s48 69 48 114s-15 83 -46 113s-75 45 -132 45
c-11 0 -30 -1 -57 -4l-20 78l194 221h-403v113h561v-95z" />
    <glyph glyph-name="four.numr" horiz-adv-x="708" 
d="M672 901v-115h-107v-172h-123v172h-415v101l295 547h137l-285 -533h268v182h123v-182h107z" />
    <glyph glyph-name="five.numr" horiz-adv-x="702" 
d="M375 1133l1 -1c81 0 147 -25 197 -74s75 -114 75 -195c0 -78 -27 -142 -81 -192s-124 -75 -210 -75c-83 0 -151 22 -204 65s-88 95 -105 156l113 31c34 -93 98 -139 192 -139c53 0 95 15 125 45s45 67 45 112c0 48 -15 87 -45 116s-72 44 -125 44
c-71 0 -132 -18 -183 -55l-92 30l37 433h495v-113h-387l-20 -225c52 25 109 37 172 37z" />
    <glyph glyph-name="six.numr" horiz-adv-x="677" 
d="M360 1157v-2c82 -1 149 -28 202 -81s79 -118 79 -195c0 -81 -28 -148 -84 -202s-128 -81 -217 -81s-162 27 -219 81s-85 121 -84 202c0 59 21 121 63 186l244 369h137l-184 -283c13 4 34 6 63 6zM340 707l-1 -1c53 0 96 16 129 48s49 73 49 122c0 48 -17 88 -50 120
s-76 48 -129 48c-52 0 -94 -16 -127 -48s-49 -72 -49 -119c0 -49 16 -90 49 -122s76 -48 129 -48z" />
    <glyph glyph-name="seven.numr" horiz-adv-x="624" 
d="M23 1434h577v-95l-317 -725h-138l310 707h-432v113z" />
    <glyph glyph-name="eight.numr" horiz-adv-x="716" 
d="M522 1059v-1c98 -42 147 -114 148 -215c0 -71 -28 -130 -85 -177s-132 -71 -225 -71c-94 0 -170 24 -227 71s-86 106 -86 177c0 101 50 173 150 215c-77 39 -115 98 -115 177c0 61 26 113 77 155s118 63 201 63c81 0 147 -21 198 -63s77 -93 77 -154
c0 -79 -38 -138 -113 -177zM360 1345l-1 -2c-49 0 -87 -12 -114 -35s-40 -52 -40 -88s14 -65 41 -88s65 -34 114 -34c45 0 82 12 111 35s43 53 43 89c0 34 -14 63 -43 87s-66 36 -111 36zM359 702l-1 1c55 0 99 14 132 43s50 65 50 107s-16 77 -49 105s-77 42 -132 42
c-56 0 -101 -14 -134 -42s-50 -63 -50 -106c0 -44 17 -80 50 -108s78 -42 134 -42z" />
    <glyph glyph-name="nine.numr" horiz-adv-x="751" 
d="M375 1454l-1 2c89 0 162 -27 219 -82s86 -123 86 -204c-1 -60 -23 -122 -66 -186l-243 -369h-138l185 283c-19 -4 -40 -6 -62 -6c-82 1 -149 28 -202 81s-79 118 -79 195c0 81 28 149 85 204s129 82 216 82zM376 1003l1 1c52 0 94 16 127 48s49 72 49 119
c0 49 -16 90 -49 123s-76 49 -129 49c-52 0 -95 -16 -128 -49s-50 -74 -50 -123c0 -48 17 -88 50 -120s76 -48 129 -48z" />
    </font>
</defs>
</svg>
