<svg width="191" height="48" viewBox="0 0 191 48" fill="none" xmlns="http://www.w3.org/2000/svg">
<g clip-path="url(#clip0_122_5384)">
<path d="M69.8242 35.8827C66.4312 36.6504 59.5603 37.7592 60.3237 32.7268C60.9175 28.9738 66.8553 28.9738 70.6724 29.4855L69.8242 35.8827ZM57.3548 21.9795C62.2747 20.8707 71.2662 17.8854 71.1814 25.3914C66.8553 25.4767 63.6319 24.8796 59.5603 26.3296C49.1267 30.1679 52.2653 44.924 70.6724 40.4886C76.3558 39.1239 75.3379 38.7827 76.1861 33.1532C77.204 26.5855 79.4943 18.3118 70.418 16.0942C67.8732 15.4971 61.4264 15.8383 58.9665 16.6912L57.3548 21.9795ZM142.435 26.0737L131.323 26.159C132.086 19.2501 143.538 17.1177 142.435 26.0737ZM144.725 35.115C141.502 35.7121 138.957 36.9915 135.31 36.3945C132.086 35.7974 130.22 34.0915 130.475 30.3385H147.779C148.288 25.1355 149.221 17.3736 140.569 16.0089C124.876 13.6206 118.938 33.665 128.948 39.6357C132.935 42.024 142.265 41.3416 143.283 39.721C143.623 39.2945 144.556 35.8827 144.725 35.115ZM169.919 34.8592L168.561 39.5504C174.414 42.9622 191.464 41.3416 187.817 31.1914C187.138 29.3149 185.696 28.2061 184 27.1826C182.897 26.5002 179.758 25.0502 179.08 24.2825C177.044 21.8089 180.522 18.4824 188.75 21.8089C189.259 21.1266 189.344 20.5295 189.683 19.5913C190.022 18.653 190.192 18.1412 190.446 17.203C186.035 16.1794 181.794 14.9853 177.044 16.7765C173.481 18.1412 167.374 24.5384 177.383 29.9973C178.91 30.8503 181.54 31.7885 181.455 33.7503C181.37 35.968 178.571 36.3945 176.28 36.3092C173.312 36.3092 172.379 35.5415 169.919 34.8592ZM169.24 17.1177C164.829 16.2647 160.248 14.8147 155.583 16.8618C153.632 17.7148 152.36 18.653 151.511 20.6148C147.779 29.4002 160.927 29.912 160.333 33.9209C159.994 35.968 157.28 36.3945 154.989 36.3092C152.36 36.2239 151.172 35.6268 148.967 34.8592C148.288 35.7121 147.609 38.1857 147.525 39.5504C150.578 41.3416 157.788 41.5975 161.351 40.4034C164.829 39.2092 168.816 35.5415 166.526 30.6797C164.829 27.1826 158.637 25.8178 157.704 23.856C156.431 21.2972 159.485 20.4442 161.436 20.3589C164.15 20.2736 165.592 21.0413 167.798 21.8089L169.24 17.1177ZM102.482 17.203C97.647 15.9236 92.8968 15.0706 87.9769 17.1177C79.3247 20.6148 76.7799 33.4091 83.8204 38.868C87.2983 41.5122 92.7271 41.5122 97.8167 40.6592L99.598 35.2856C96.205 36.0533 93.0664 36.9915 89.8431 35.0297C84.7535 31.8738 85.9411 23.6002 91.8789 21.3825C95.7809 19.9324 97.647 21.1266 100.955 21.8942L102.482 17.203ZM121.822 35.3709C118.26 36.0533 115.545 36.9915 112.237 35.2003C107.402 32.5562 107.826 24.0266 114.103 21.4678C118.005 19.8472 119.871 21.3825 123.18 21.8942L124.791 17.2883C119.702 15.9236 113.934 14.9853 109.183 17.6295C99.0042 23.259 97.647 43.3034 117.92 41.0004C120.126 40.7445 120.041 41.0004 120.635 39.1239C121.059 37.8445 121.568 36.6504 121.822 35.3709Z" fill="#8A8989"/>
<path d="M19.6914 4.75556L40.7282 25.8235L22.5755 44.0768L4.42276 25.8235L13.1598 16.7822H9.59713L0.69043 25.8235L22.5755 47.8298L44.3757 25.8235L19.7762 1.00256L19.6914 4.75556Z" fill="#8A8989"/>
<path d="M19.7759 16.8663L15.9587 16.781L7.22168 25.8223L22.5751 41.2608L37.9286 25.8223L19.7759 7.48376L19.6911 11.0662L34.3659 25.8223L22.5751 37.6784L10.8692 25.8223L19.7759 16.8663Z" fill="#8A8989"/>
<path d="M22.4906 20.536L27.8346 25.8243L22.4906 31.1126L17.1465 25.8243L22.4906 20.536ZM31.4821 25.8243L22.4906 16.783L13.499 25.8243L22.4906 34.8656L31.4821 25.8243Z" fill="#8A8989"/>
</g>
<defs>
<clipPath id="clip0_122_5384">
<rect width="189.84" height="46.8272" fill="white" transform="translate(0.69043 0.993408)"/>
</clipPath>
</defs>
</svg>
