<svg width="65" height="64" viewBox="0 0 65 64" fill="none" xmlns="http://www.w3.org/2000/svg">
<rect x="0.5" width="64" height="64" rx="32" fill="#AE2BFF"/>
<path fill-rule="evenodd" clip-rule="evenodd" d="M45.833 17H19.1663C17.333 17 15.833 18.5 15.833 20.3333V43.6667C15.833 45.5 17.333 47 19.1663 47H45.833C47.6663 47 49.1663 45.5 49.1663 43.6667V20.3333C49.1663 18.5 47.6663 17 45.833 17ZM29.1663 40.3333H20.833V37H29.1663V40.3333ZM29.1663 33.6667H20.833V30.3333H29.1663V33.6667ZM29.1663 27H20.833V23.6667H29.1663V27ZM37.1997 37L32.4997 32.2667L34.8497 29.9167L37.1997 32.2833L42.483 27L44.8497 29.3667L37.1997 37Z" fill="#FDFDFD"/>
</svg>
