<svg width="41" height="40" viewBox="0 0 41 40" fill="none" xmlns="http://www.w3.org/2000/svg">
<circle cx="20.5" cy="20" r="20" fill="#AE2BFF" fill-opacity="0.1"/>
<path d="M27.5 11H13.5C12.4 11 11.5 11.9 11.5 13V27C11.5 28.1 12.4 29 13.5 29H27.5C28.6 29 29.5 28.1 29.5 27V13C29.5 11.9 28.6 11 27.5 11ZM27.5 27H13.5V13H27.5V27Z" fill="#AE2BFF"/>
<path d="M19.75 15.7202H14.75V17.2202H19.75V15.7202Z" fill="#AE2BFF"/>
<path d="M26.5 23.75H21.5V25.25H26.5V23.75Z" fill="#AE2BFF"/>
<path d="M26.5 21.25H21.5V22.75H26.5V21.25Z" fill="#AE2BFF"/>
<path d="M16.5 26H18V24H20V22.5H18V20.5H16.5V22.5H14.5V24H16.5V26Z" fill="#AE2BFF"/>
<path d="M22.59 18.95L24 17.54L25.41 18.95L26.47 17.89L25.06 16.47L26.47 15.06L25.41 14L24 15.41L22.59 14L21.53 15.06L22.94 16.47L21.53 17.89L22.59 18.95Z" fill="#AE2BFF"/>
</svg>
