<svg width="76" height="60" viewBox="0 0 76 60" fill="none" xmlns="http://www.w3.org/2000/svg">
<path d="M35.9211 0H75.5264L72.3027 13.8158H33.158L35.9211 0Z" fill="#F2F2F2"/>
<path d="M24.8686 46.0527H64.4739L61.2502 59.8685H22.1055L24.8686 46.0527Z" fill="#F2F2F2"/>
<path d="M30.3947 22.1055H70L66.7763 35.9213H27.6316L30.3947 22.1055Z" fill="#F2F2F2"/>
<path d="M32.4546 0H46.0527L36.2058 59.8684H20.2632L32.4546 0Z" fill="#F2F2F2"/>
<path d="M12.8948 3.22368C12.8948 1.44329 14.3381 0 16.1185 0H35V6.44737H16.1185C14.3381 6.44737 12.8948 5.00408 12.8948 3.22368Z" fill="#F2F2F2"/>
<path d="M19.3423 16.1182C19.3423 14.3378 20.7856 12.8945 22.566 12.8945H35.0002V19.3419H22.566C20.7856 19.3419 19.3423 17.8986 19.3423 16.1182Z" fill="#F2F2F2"/>
<rect x="9.21069" y="12.8945" width="6.44737" height="6.44737" rx="3.22368" fill="#F2F2F2"/>
<rect y="40.5264" width="12.8947" height="6.44737" rx="3.22368" fill="#F2F2F2"/>
<path d="M12.8948 30.8555C12.8948 29.0751 14.3381 27.6318 16.1185 27.6318H42.3685V34.0792H16.1185C14.3381 34.0792 12.8948 32.6359 12.8948 30.8555Z" fill="#F2F2F2"/>
<path d="M12.8948 37.3028C12.8948 35.5224 14.3381 34.0791 16.1185 34.0791H27.1711C28.9515 34.0791 30.3948 35.5224 30.3948 37.3028C30.3948 39.0832 28.9515 40.5265 27.1711 40.5265H16.1185C14.3381 40.5265 12.8948 39.0832 12.8948 37.3028Z" fill="#AE2BFF"/>
<path d="M15.658 9.67095C15.658 7.89056 17.1013 6.44727 18.8816 6.44727H29.9343C31.7147 6.44727 33.158 7.89056 33.158 9.67095C33.158 11.4513 31.7147 12.8946 29.9343 12.8946H18.8816C17.1013 12.8946 15.658 11.4513 15.658 9.67095Z" fill="#AE2BFF"/>
<path d="M17.5 43.7501C17.5 41.9697 18.9433 40.5264 20.7237 40.5264H33.1579V46.9737H20.7237C18.9433 46.9737 17.5 45.5304 17.5 43.7501Z" fill="#F2F2F2"/>
<path d="M23.9473 49.2764C23.9473 47.496 25.3906 46.0527 27.1709 46.0527H53.4209V52.5001H27.1709C25.3906 52.5001 23.9473 51.0568 23.9473 49.2764Z" fill="#F2F2F2"/>
<path d="M5.52637 56.6446C5.52637 54.8642 6.96966 53.4209 8.75005 53.4209H35.0001V59.8683H8.75005C6.96966 59.8683 5.52637 58.425 5.52637 56.6446Z" fill="#F2F2F2"/>
<path d="M10.1316 50.1973C10.1316 48.4169 11.5749 46.9736 13.3553 46.9736H24.4079C26.1883 46.9736 27.6316 48.4169 27.6316 50.1973C27.6316 51.9777 26.1883 53.421 24.4079 53.421H13.3553C11.5749 53.421 10.1316 51.9777 10.1316 50.1973Z" fill="#AE2BFF"/>
<path d="M14.7366 23.487C14.7366 21.1979 16.5922 19.3423 18.8813 19.3423H28.0918C30.3809 19.3423 32.2366 21.1979 32.2366 23.487C32.2366 25.7761 30.3809 27.6318 28.0918 27.6318H18.8813C16.5922 27.6318 14.7366 25.7761 14.7366 23.487Z" fill="#AE2BFF"/>
</svg>
