<svg width="101" height="24" viewBox="0 0 101 24" fill="none" xmlns="http://www.w3.org/2000/svg">
<path d="M12.5 17.27L18.68 21L17.04 13.97L22.5 9.24L15.31 8.63L12.5 2L9.69 8.63L2.5 9.24L7.96 13.97L6.32 21L12.5 17.27Z" fill="#8A8989"/>
<path d="M31.5 17.27L37.68 21L36.04 13.97L41.5 9.24L34.31 8.63L31.5 2L28.69 8.63L21.5 9.24L26.96 13.97L25.32 21L31.5 17.27Z" fill="#8A8989"/>
<path d="M50.5 17.27L56.68 21L55.04 13.97L60.5 9.24L53.31 8.63L50.5 2L47.69 8.63L40.5 9.24L45.96 13.97L44.32 21L50.5 17.27Z" fill="#8A8989"/>
<path d="M69.5 17.27L75.68 21L74.04 13.97L79.5 9.24L72.31 8.63L69.5 2L66.69 8.63L59.5 9.24L64.96 13.97L63.32 21L69.5 17.27Z" fill="#8A8989"/>
<path d="M98.5 9.24L91.31 8.62L88.5 2L85.69 8.63L78.5 9.24L83.96 13.97L82.32 21L88.5 17.27L94.68 21L93.05 13.97L98.5 9.24ZM88.5 15.4V6.1L90.21 10.14L94.59 10.52L91.27 13.4L92.27 17.68L88.5 15.4Z" fill="#8A8989"/>
</svg>
