<svg width="65" height="64" viewBox="0 0 65 64" fill="none" xmlns="http://www.w3.org/2000/svg">
<rect x="0.5" width="64" height="64" rx="32" fill="#AE2BFF"/>
<path d="M19.167 38.6666V48.6666H45.8337V38.6666C45.8337 36.8333 44.3337 35.3333 42.5003 35.3333H22.5003C20.667 35.3333 19.167 36.8333 19.167 38.6666ZM42.5003 42H22.5003V38.6666H42.5003V42ZM32.5003 15.3333C27.9003 15.3333 24.167 19.0666 24.167 23.6666L32.5003 35.3333L40.8337 23.6666C40.8337 19.0666 37.1003 15.3333 32.5003 15.3333ZM32.5003 30.3333L27.5003 23.6666C27.5003 20.9 29.7337 18.6666 32.5003 18.6666C35.267 18.6666 37.5003 20.9 37.5003 23.6666L32.5003 30.3333Z" fill="#FDFDFD"/>
</svg>
