<svg width="19" height="18" viewBox="0 0 19 18" fill="none" xmlns="http://www.w3.org/2000/svg">
<path d="M16.5 0H2.5C1.4 0 0.5 0.9 0.5 2V16C0.5 17.1 1.4 18 2.5 18H16.5C17.6 18 18.5 17.1 18.5 16V2C18.5 0.9 17.6 0 16.5 0ZM16.5 16H2.5V2H16.5V16Z" fill="#AE2BFF"/>
<path d="M8.75 4.72021H3.75V6.22022H8.75V4.72021Z" fill="#AE2BFF"/>
<path d="M15.5 12.75H10.5V14.25H15.5V12.75Z" fill="#AE2BFF"/>
<path d="M15.5 10.25H10.5V11.75H15.5V10.25Z" fill="#AE2BFF"/>
<path d="M5.5 15H7V13H9V11.5H7V9.5H5.5V11.5H3.5V13H5.5V15Z" fill="#AE2BFF"/>
<path d="M11.59 7.95L13 6.54L14.41 7.95L15.47 6.89L14.06 5.47L15.47 4.06L14.41 3L13 4.41L11.59 3L10.53 4.06L11.94 5.47L10.53 6.89L11.59 7.95Z" fill="#AE2BFF"/>
</svg>
