<svg width="40" height="35" viewBox="0 0 40 35" fill="none" xmlns="http://www.w3.org/2000/svg">
<path d="M19.0183 0H39.9969L38.2893 8.07685H17.5547L19.0183 0Z" fill="#FDFDFD"/>
<path d="M13.1628 26.9233H34.1414L32.4339 35.0002H11.6992L13.1628 26.9233Z" fill="#FDFDFD"/>
<path d="M16.0925 12.9233H37.0711L35.3636 21.0002H14.6289L16.0925 12.9233Z" fill="#FDFDFD"/>
<path d="M17.1842 0H24.387L19.1712 34.9997H10.7266L17.1842 0Z" fill="#FDFDFD"/>
<path d="M6.82812 1.8846C6.82812 0.843764 7.67189 0 8.71272 0H18.5371V3.7692H8.71272C7.67189 3.7692 6.82812 2.92543 6.82812 1.8846Z" fill="#FDFDFD"/>
<path d="M10.2461 9.42268C10.2461 8.38185 11.0899 7.53809 12.1307 7.53809H18.54V11.3073H12.1307C11.0899 11.3073 10.2461 10.4635 10.2461 9.42268Z" fill="#FDFDFD"/>
<rect x="4.87891" y="7.53809" width="3.41512" height="3.7692" rx="1.70756" fill="#FDFDFD"/>
<rect y="23.6919" width="6.83024" height="3.7692" rx="1.8846" fill="#FDFDFD"/>
<path d="M6.82812 18.0384C6.82812 16.9976 7.67189 16.1538 8.71272 16.1538H22.4401V19.923H8.71272C7.67189 19.923 6.82812 19.0792 6.82812 18.0384Z" fill="#FDFDFD"/>
<path d="M6.82812 21.8079C6.82812 20.7671 7.67189 19.9233 8.71272 19.9233H14.2131C15.254 19.9233 16.0977 20.7671 16.0977 21.8079C16.0977 22.8488 15.254 23.6925 14.2131 23.6925H8.71272C7.67189 23.6925 6.82812 22.8488 6.82812 21.8079Z" fill="#D795FF"/>
<path d="M8.29688 5.65364C8.29688 4.61281 9.14064 3.76904 10.1815 3.76904H15.6819C16.7227 3.76904 17.5665 4.61281 17.5665 5.65364C17.5665 6.69448 16.7227 7.53824 15.6819 7.53824H10.1815C9.14064 7.53824 8.29688 6.69448 8.29688 5.65364Z" fill="#D795FF"/>
<path d="M9.26953 25.5765C9.26953 24.5357 10.1133 23.6919 11.1541 23.6919H17.5634V27.4611H11.1541C10.1133 27.4611 9.26953 26.6173 9.26953 25.5765Z" fill="#FDFDFD"/>
<path d="M12.6875 28.8079C12.6875 27.7671 13.5313 26.9233 14.5721 26.9233H28.2995V30.6925H14.5721C13.5313 30.6925 12.6875 29.8488 12.6875 28.8079Z" fill="#FDFDFD"/>
<path d="M2.92969 33.1151C2.92969 32.0742 3.77345 31.2305 4.81429 31.2305H18.5417V34.9997H4.81429C3.77345 34.9997 2.92969 34.1559 2.92969 33.1151Z" fill="#FDFDFD"/>
<path d="M5.37109 29.346C5.37109 28.3052 6.21486 27.4614 7.25569 27.4614H12.7561C13.7969 27.4614 14.6407 28.3052 14.6407 29.346C14.6407 30.3869 13.7969 31.2306 12.7561 31.2306H7.25569C6.21486 31.2306 5.37109 30.3869 5.37109 29.346Z" fill="#D795FF"/>
<path d="M7.80859 13.7312C7.80859 12.3929 8.89343 11.3081 10.2316 11.3081H14.6552C15.9934 11.3081 17.0782 12.3929 17.0782 13.7312C17.0782 15.0694 15.9934 16.1542 14.6551 16.1542H10.2316C8.89343 16.1542 7.80859 15.0694 7.80859 13.7312Z" fill="#D795FF"/>
</svg>
