<svg width="439" height="467" viewBox="0 0 439 467" fill="none" xmlns="http://www.w3.org/2000/svg">
<g clip-path="url(#clip0_412_5630)">
<path d="M219.5 398.892C313.304 398.892 389.348 394.169 389.348 388.343C389.348 382.517 313.304 377.793 219.5 377.793C125.696 377.793 49.6523 382.517 49.6523 388.343C49.6523 394.169 125.696 398.892 219.5 398.892Z" fill="#F5F5F5"/>
<path d="M438.605 356.397H0.605225V356.63H438.605V356.397Z" fill="#E0E0E0"/>
<path d="M96.4571 367.57H45.8506V367.803H96.4571V367.57Z" fill="#E0E0E0"/>
<path d="M207.043 362.51H183.987V362.743H207.043V362.51Z" fill="#E0E0E0"/>
<path d="M260.392 362.389H215.47V362.622H260.392V362.389Z" fill="#E0E0E0"/>
<path d="M345.898 365.185H334.957V365.418H345.898V365.185Z" fill="#E0E0E0"/>
<path d="M297.175 365.185H253.533V365.418H297.175V365.185Z" fill="#E0E0E0"/>
<path d="M113.609 367.57H104.937V367.803H113.609V367.57Z" fill="#E0E0E0"/>
<path d="M390.933 365.185H353.046V365.418H390.933V365.185Z" fill="#E0E0E0"/>
<path d="M208.217 51.286H39.044C37.9791 51.2871 36.9423 51.649 36.0838 52.3192C35.2254 52.9895 34.59 53.9333 34.2698 55.0137C34.1255 55.4991 34.0516 56.005 34.0508 56.5141V309.512C34.0508 310.921 34.5766 312.273 35.5127 313.271C36.4489 314.269 37.7189 314.831 39.044 314.833H208.217C209.544 314.833 210.816 314.272 211.754 313.274C212.692 312.277 213.219 310.923 213.219 309.512V56.6073C213.219 55.196 212.692 53.8425 211.754 52.8446C210.816 51.8466 209.544 51.286 208.217 51.286ZM213 309.512C212.998 310.86 212.493 312.153 211.597 313.107C210.7 314.061 209.485 314.598 208.217 314.6H39.044C37.777 314.598 36.5627 314.06 35.6676 313.106C34.7725 312.152 34.2698 310.86 34.2698 309.512V56.5607C34.2698 55.2128 34.7725 53.92 35.6676 52.966C36.5627 52.012 37.777 51.4749 39.044 51.4724H208.217C209.484 51.4773 210.698 52.015 211.594 52.9681C212.49 53.9213 212.995 55.2127 213 56.5607V309.512Z" fill="#E0E0E0"/>
<path d="M397.705 51.286H228.549C227.231 51.2884 225.966 51.8434 225.03 52.8308C224.094 53.8181 223.561 55.1582 223.547 56.5607V309.512C223.547 310.923 224.074 312.277 225.012 313.274C225.95 314.272 227.222 314.833 228.549 314.833H397.705C399.028 314.828 400.296 314.265 401.23 313.268C402.165 312.27 402.689 310.92 402.689 309.512V56.5607C402.678 55.1607 402.148 53.822 401.215 52.8346C400.282 51.8473 399.021 51.2909 397.705 51.286ZM402.488 309.512C402.485 310.86 401.981 312.153 401.084 313.107C400.188 314.061 398.972 314.598 397.705 314.6H228.549C227.281 314.6 226.064 314.064 225.167 313.11C224.27 312.155 223.766 310.861 223.766 309.512V56.5607C223.768 55.2119 224.273 53.9191 225.17 52.9654C226.066 52.0117 227.281 51.4749 228.549 51.4724H397.705C398.972 51.4773 400.186 52.015 401.082 52.9681C401.978 53.9213 402.483 55.2127 402.488 56.5607V309.512Z" fill="#E0E0E0"/>
<path d="M325.627 97.0712H418.352C418.352 97.0712 412.754 86.2796 401.209 89.6159C401.209 89.6159 402.61 71.5832 393.509 68.6942C384.407 65.8053 379.493 76.9604 379.493 76.9604C379.493 76.9604 373.194 56.1133 361.298 58.7227C349.402 61.3321 344.505 82.9526 344.505 82.9526C344.505 82.9526 327.029 76.2242 325.627 97.0712Z" fill="#F5F5F5"/>
<path d="M191.564 132.363H284.324C284.324 132.363 278.718 121.562 267.172 124.908C267.172 124.908 268.574 106.875 259.472 103.977C250.37 101.078 245.456 112.252 245.456 112.252C245.456 112.252 239.158 91.4052 227.261 94.0052C215.365 96.6053 210.46 118.235 210.46 118.235C210.46 118.235 192.966 111.516 191.564 132.363Z" fill="#F5F5F5"/>
<path d="M189.882 65.8612H34.3662V356.397H189.882V65.8612Z" fill="#F5F5F5"/>
<path d="M163.971 158.643H65.3855V356.63H163.971V158.643Z" fill="#FAFAFA"/>
<path d="M157.742 164.934H72.4897V356.63H157.742V164.934Z" fill="#E6E6E6"/>
<path d="M195.515 67.9767H34.3313V55.0603C34.737 53.9367 35.4605 52.9747 36.4019 52.307C37.3433 51.6393 38.4563 51.2989 39.5873 51.3326H190.005L190.075 51.519L194.026 63.5128L195.515 67.9767Z" fill="#EBEBEB"/>
<path d="M42.1451 75.7769C46.6009 75.7769 50.2131 72.2846 50.2131 67.9767C50.2131 63.6688 46.6009 60.1765 42.1451 60.1765C37.6893 60.1765 34.0771 63.6688 34.0771 67.9767C34.0771 72.2846 37.6893 75.7769 42.1451 75.7769Z" fill="#EBEBEB"/>
<path d="M58.2899 75.7769C62.7457 75.7769 66.3578 72.2846 66.3578 67.9767C66.3578 63.6688 62.7457 60.1765 58.2899 60.1765C53.8341 60.1765 50.2219 63.6688 50.2219 67.9767C50.2219 72.2846 53.8341 75.7769 58.2899 75.7769Z" fill="#EBEBEB"/>
<path d="M74.4344 75.7769C78.8902 75.7769 82.5024 72.2846 82.5024 67.9767C82.5024 63.6688 78.8902 60.1765 74.4344 60.1765C69.9786 60.1765 66.3665 63.6688 66.3665 67.9767C66.3665 72.2846 69.9786 75.7769 74.4344 75.7769Z" fill="#EBEBEB"/>
<path d="M90.5792 75.7769C95.035 75.7769 98.6471 72.2846 98.6471 67.9767C98.6471 63.6688 95.035 60.1765 90.5792 60.1765C86.1234 60.1765 82.5112 63.6688 82.5112 67.9767C82.5112 72.2846 86.1234 75.7769 90.5792 75.7769Z" fill="#EBEBEB"/>
<path d="M106.724 75.7769C111.18 75.7769 114.792 72.2846 114.792 67.9767C114.792 63.6688 111.18 60.1765 106.724 60.1765C102.268 60.1765 98.656 63.6688 98.656 67.9767C98.656 72.2846 102.268 75.7769 106.724 75.7769Z" fill="#EBEBEB"/>
<path d="M122.869 75.7769C127.324 75.7769 130.936 72.2846 130.936 67.9767C130.936 63.6688 127.324 60.1765 122.869 60.1765C118.413 60.1765 114.801 63.6688 114.801 67.9767C114.801 72.2846 118.413 75.7769 122.869 75.7769Z" fill="#EBEBEB"/>
<path d="M139.004 75.7769C143.46 75.7769 147.072 72.2846 147.072 67.9767C147.072 63.6688 143.46 60.1765 139.004 60.1765C134.549 60.1765 130.937 63.6688 130.937 67.9767C130.937 72.2846 134.549 75.7769 139.004 75.7769Z" fill="#EBEBEB"/>
<path d="M155.149 75.7769C159.605 75.7769 163.217 72.2846 163.217 67.9767C163.217 63.6688 159.605 60.1765 155.149 60.1765C150.693 60.1765 147.081 63.6688 147.081 67.9767C147.081 72.2846 150.693 75.7769 155.149 75.7769Z" fill="#EBEBEB"/>
<path d="M171.294 75.7769C175.75 75.7769 179.362 72.2846 179.362 67.9767C179.362 63.6688 175.75 60.1765 171.294 60.1765C166.838 60.1765 163.226 63.6688 163.226 67.9767C163.226 72.2846 166.838 75.7769 171.294 75.7769Z" fill="#EBEBEB"/>
<path d="M195.515 67.9767C195.515 72.2822 191.897 75.7769 187.439 75.7769C182.98 75.7769 179.362 72.2822 179.362 67.9767C179.362 63.6712 182.98 60.1765 187.439 60.1765C188.699 60.1576 189.947 60.4439 191.089 61.0138C192.23 61.5838 193.234 62.4224 194.026 63.4662L195.515 67.9767Z" fill="#EBEBEB"/>
<path d="M189.882 91.079H34.3662V93.8002H189.882V91.079Z" fill="#FAFAFA"/>
<path d="M310.517 294.815H189.891V300.584H310.517V294.815Z" fill="#E0E0E0"/>
<path d="M215.26 356.387H197.048V266.466L206.15 258.191L215.26 266.466V356.387Z" fill="#E6E6E6"/>
<path d="M241.348 356.387H223.135V266.466L232.246 258.191L241.348 266.466V356.387Z" fill="#E6E6E6"/>
<path d="M267.443 356.387H249.231V266.466L258.333 258.191L267.443 266.466V356.387Z" fill="#E6E6E6"/>
<path d="M293.531 356.387H275.319V266.466L284.429 258.191L293.531 266.466V356.387Z" fill="#E6E6E6"/>
<path d="M319.618 356.387H301.415V266.466L310.516 258.191L319.618 266.466V356.387Z" fill="#E6E6E6"/>
<path d="M131.436 83.9218C131.436 83.9218 129.745 79.5231 119.329 80.8278C108.914 82.1325 107.836 96.8009 102.633 107.229C97.4294 117.657 91.9018 122.718 91.9018 122.718C91.9018 122.718 91.1397 129.073 102.475 132.661C113.811 136.249 136.026 130.257 136.026 130.257C136.026 130.257 138.899 102.495 134.633 94.0238C130.367 85.5526 131.436 83.9218 131.436 83.9218Z" fill="#263238"/>
<path d="M161.885 361.233L147.773 362.165C147.773 362.165 141.79 304.312 135.202 262.189C135.202 262.049 135.202 261.891 135.141 261.732C132.443 244.538 129.649 230.047 127.126 223.253C127.126 223.253 123.885 277.183 122.921 301.124C121.957 325.065 117.463 366.955 117.463 366.955L104.42 369.015C104.42 369.015 102.265 285.627 103.544 269.877C104.823 254.128 98.9974 195.789 109.036 181.345H145.347C145.347 181.345 159.406 263.298 160.422 286.018C161.439 308.738 161.885 361.233 161.885 361.233Z" fill="#263238"/>
<path d="M114.397 367.142L114.187 371.615L113.697 381.968L106.391 383.124L106.224 371.95L106.163 367.654L114.397 367.142Z" fill="#FF8B7B"/>
<path d="M158.749 378.483L150.576 380.906C150.576 380.906 150.384 375.678 150.191 370.655C150.068 367.421 149.946 364.271 149.867 362.659C149.867 362.035 149.814 361.653 149.797 361.569L158.609 360.637V363.582L158.671 370.235L158.749 378.483Z" fill="#FF8B7B"/>
<path d="M116.64 379.676C116.64 379.676 117.998 373.889 120.144 374.178C122.29 374.466 116.64 379.676 116.64 379.676Z" stroke="#AE2BFF" stroke-miterlimit="10"/>
<path d="M117.253 379.676C117.253 379.676 122.36 375.846 123.306 377.812C124.252 379.778 117.253 379.676 117.253 379.676Z" stroke="#AE2BFF" stroke-miterlimit="10"/>
<path d="M161.885 380.263C161.885 380.263 163.024 374.14 164.312 374.14C165.6 374.14 161.885 380.263 161.885 380.263Z" stroke="#AE2BFF" stroke-miterlimit="10"/>
<path d="M161.614 382.164C161.614 382.164 164.61 375.892 166.178 377.244C167.746 378.595 161.614 382.164 161.614 382.164Z" stroke="#AE2BFF" stroke-miterlimit="10"/>
<path d="M123.017 387.187C123.017 387.187 107.442 387.616 106.312 387.467C105.182 387.318 103.929 387.252 103.842 385.948C103.842 385.314 104.376 381.465 104.464 380.123C104.551 378.781 104.236 378.082 105.822 377.654C107.407 377.225 115.107 376.274 116.036 377.29C116.964 378.306 120.135 382.173 122.483 382.621C124.831 383.068 126.802 382.891 126.968 384.307C127.135 385.724 127.187 387.085 123.017 387.187Z" fill="#263238"/>
<path d="M167.86 387.187C167.86 387.187 152.293 387.616 151.154 387.467C150.016 387.318 148.894 386.954 148.71 386.348C148.526 385.743 149.227 381.465 149.306 380.123C149.385 378.781 149.078 378.082 150.664 377.654C152.249 377.225 159.949 376.274 160.878 377.29C161.807 378.306 164.978 382.173 167.334 382.621C169.691 383.068 171.644 382.891 171.81 384.307C171.977 385.724 172.029 387.085 167.86 387.187Z" fill="#263238"/>
<path opacity="0.3" d="M135.141 261.723C132.443 244.529 129.649 230.038 127.126 223.244L128.799 213.477C128.799 213.477 133.135 248.331 135.141 261.723Z" fill="black"/>
<path opacity="0.2" d="M114.38 367.142L114.17 371.615C112.12 371.699 108.038 371.857 106.207 371.95L106.146 367.654L114.38 367.142Z" fill="black"/>
<path opacity="0.2" d="M158.688 370.226L150.191 370.655C150.068 367.421 149.946 364.271 149.867 362.659L158.627 363.591L158.688 370.226Z" fill="black"/>
<path d="M164.294 360.627L162.989 367.719L147.431 369.005L145.39 360.627H164.294Z" fill="#AE2BFF"/>
<path d="M119.557 362.939L118.191 369.947L101.949 370.767L101.958 362.939H119.557Z" fill="#AE2BFF"/>
<path d="M167.728 159.696C164.224 161.476 154.588 163.424 154.588 163.424C154.588 163.424 148.281 146.081 146.617 136.221C146.095 132.696 144.512 129.447 142.106 126.96C139.701 124.473 136.602 122.883 133.275 122.429C129.018 121.842 111.042 122.037 104.735 123.417C98.428 124.796 97.333 134.646 96.7724 140.564C96.2117 146.482 92.699 168.522 95.6599 175.045C98.6207 181.568 109.001 178.978 109.001 178.978V181.345H145.32L144.444 163.265C144.444 163.265 147.878 172.864 153.204 173.256C158.53 173.647 170.619 164.197 170.619 164.197L167.728 159.696ZM103.78 169.808C103.78 169.808 104.183 158.55 104.902 155.307L105.997 161.318L107.538 169.808H103.78Z" fill="#AE2BFF"/>
<path d="M126.881 167.254L132.592 159.901L140.607 158.597L141.834 166.173L135.702 168.559C135.702 168.559 132.75 172.342 126.854 171.69L126.881 167.254Z" fill="#FF8B7B"/>
<path d="M167.728 159.696L170.698 153.9L177.942 150.657L180.684 158.55L174.684 161.038C174.684 161.038 173.116 164.71 170.698 164.235L167.728 159.696Z" fill="#FF8B7B"/>
<path d="M127.003 115.365C126.964 116.035 126.964 116.707 127.003 117.378C127.091 118.654 126.863 120.994 129.219 122.224C128.002 125.019 125.067 132.027 123.289 134.404C120.582 132.046 114.222 122.531 114.222 122.531C114.222 122.531 118.69 117.378 115.484 107.667C115.484 107.667 110.981 104.163 111.883 102.234C112.917 99.9881 115.852 101.2 116.474 102.15C115.817 101.125 112.759 89.8768 116.474 85.739C118.786 83.1576 121.099 83.1296 125.409 82.9433H125.768C128.527 82.8408 130.577 82.9433 130.577 82.9433C131.514 84.0169 132.339 85.1948 133.039 86.4566C134.993 89.8511 136.192 93.6764 136.543 97.6396C137.358 106.875 135.649 114.358 127.003 115.365Z" fill="#FF8B7B"/>
<path d="M129.386 103.883C129.386 103.883 125.461 105.3 124.033 102.131" stroke="#263238" stroke-width="0.5" stroke-linecap="round" stroke-linejoin="round"/>
<path d="M124.647 90.557C123.99 90.5365 123.342 90.7125 122.775 91.0651C122.208 91.4177 121.745 91.9327 121.44 92.5513" stroke="#263238" stroke-linecap="round" stroke-linejoin="round"/>
<path d="M134.633 89.5972C134.315 89.227 133.93 88.9288 133.501 88.7207C133.072 88.5125 132.608 88.3986 132.136 88.3857" stroke="#263238" stroke-linecap="round" stroke-linejoin="round"/>
<path d="M131.024 102.169L130.253 95.1887L134.116 100.463C134.116 100.463 133.74 102.281 131.024 102.169Z" fill="#FF5652"/>
<path d="M124.682 95.2447C124.726 95.9529 125.12 96.5028 125.558 96.4748C125.996 96.4468 126.302 95.8411 126.25 95.1235C126.197 94.4059 125.821 93.8654 125.374 93.9027C124.927 93.94 124.629 94.5644 124.682 95.2447Z" fill="#263238"/>
<path d="M132.32 94.0797C132.373 94.7973 132.758 95.3472 133.196 95.3099C133.634 95.2726 133.941 94.6762 133.888 93.9586C133.836 93.241 133.45 92.7005 133.012 92.7378C132.574 92.7751 132.277 93.3715 132.32 94.0797Z" fill="#263238"/>
<path d="M113.811 96.9874C113.811 96.9874 109.334 90.6037 113.031 86.466C115.344 83.8846 121.563 82.1978 125.864 82.0021C125.768 83.0831 125.864 92.5514 113.811 96.9874Z" fill="#263238"/>
<path d="M133.109 86.4845C130.359 86.189 127.778 84.934 125.768 82.9153L125.426 82.5332C127.152 82.4573 128.879 82.5886 130.577 82.9246C131.514 83.9982 132.339 85.1761 133.039 86.4379L133.109 86.4845Z" fill="#263238"/>
<path opacity="0.2" d="M127.029 117.378C125.126 116.762 123.436 115.559 122.176 113.92C123.685 114.721 125.323 115.211 127.003 115.365C126.973 116.036 126.981 116.708 127.029 117.378Z" fill="black"/>
<path opacity="0.2" d="M106.005 161.318L104.91 155.307V146.677C104.91 146.677 106.172 155.782 106.005 161.318Z" fill="black"/>
<path d="M266.996 133.399L203.141 137.245L205.923 189.526L269.778 185.68L266.996 133.399Z" fill="#AE2BFF"/>
<path opacity="0.3" d="M266.996 133.399L203.141 137.245L205.923 189.526L269.778 185.68L266.996 133.399Z" fill="black"/>
<path d="M243.788 134.802L179.933 138.647L182.715 190.928L246.57 187.082L243.788 134.802Z" fill="#AE2BFF"/>
<path opacity="0.3" d="M243.788 134.802L179.933 138.647L182.715 190.928L246.57 187.082L243.788 134.802Z" fill="white"/>
<path opacity="0.3" d="M251.687 139.32L238.056 140.19L238.332 145.082L251.963 144.212L251.687 139.32Z" fill="black"/>
<path opacity="0.5" d="M197.529 144.13L183.92 144.949L184.341 152.858L197.95 152.039L197.529 144.13Z" fill="white"/>
<path opacity="0.3" d="M202.282 164.753L181.396 166.011L181.725 172.18L202.61 170.922L202.282 164.753Z" fill="black"/>
<path d="M285.445 90.3054L281.941 95.0582C282.912 95.7791 284.028 96.2483 285.2 96.4281L285.445 90.3054Z" fill="#A02724"/>
<path d="M345.924 381.791L335.745 381.176L333.678 371.941L332.548 366.881L332.127 365.017L339.959 364.448L340.52 364.402L342.184 369.76L345.924 381.791Z" fill="#B55B52"/>
<path d="M287.39 383.31C287.583 384.047 277.938 382.733 277.938 382.733L277.596 374.112L277.333 367.458V367.095H277.412L287.206 368.129C287.206 368.129 287.206 370.925 287.206 374.103C287.224 378.185 287.276 382.91 287.39 383.31Z" fill="#B55B52"/>
<path d="M307.818 115.299C307.818 115.299 294.065 119.26 295.081 116.39C295.593 114.653 295.798 112.829 295.686 111.013C295.686 109.82 295.546 108.972 295.546 108.972C290.57 109.279 287.224 105.449 285.734 100.734C283.816 94.6854 284.517 87.929 286.847 82.1884C287.031 81.7224 287.556 79.7467 288.021 79.5044L293.417 76.8578C293.417 76.8578 298.673 80.5202 301.406 82.7941C304.139 85.068 306.338 95.636 306.338 103.856C306.338 112.075 307.818 115.299 307.818 115.299Z" fill="#B55B52"/>
<path d="M285.034 88.5627C284.791 88.6334 284.575 88.7843 284.417 88.9936C284.26 89.2029 284.169 89.4599 284.158 89.7276C284.122 89.9764 284.158 90.2308 284.261 90.4572C284.364 90.6836 284.53 90.8712 284.736 90.9951L285.034 88.5627Z" fill="#263238"/>
<path d="M285.033 83.8285C285.606 83.8149 286.169 83.9801 286.654 84.3038" stroke="#263238" stroke-linecap="round" stroke-linejoin="round"/>
<path d="M289.817 98.9537C289.817 98.9537 293.811 105.589 300.171 107.108C306.531 108.627 308.537 106.279 309.386 102.448C310.123 98.837 311.753 95.5005 314.108 92.7843C316.307 90.3707 314.984 83.8193 312.19 78.4328C312.19 78.4328 315.186 75.7582 310.359 73.1861C305.532 70.614 303.754 74.8915 299.566 72.3939C295.379 69.8964 300.968 69.067 297.017 76.8578C293.067 84.6487 290.885 78.9826 290.298 82.4494C289.711 85.9161 286.654 91.9363 289.817 98.9537Z" fill="#263238"/>
<path d="M290.298 84.0616C289.904 83.9218 277.237 79.0479 277.114 76.8392C276.992 74.6306 286.934 78.6472 287.311 78.8056L289.878 83.1204L290.298 84.0616Z" fill="#AE2BFF"/>
<path d="M315.86 89.4015C315.737 89.8022 314.984 92.4582 314.66 92.4582L313.6 92.3929C312.613 92.3059 311.632 92.1848 310.657 92.0295C309.579 91.8524 308.519 91.6288 307.477 91.3678H307.433C306.373 91.0976 305.331 90.7993 304.314 90.4359C301.82 89.6347 299.372 88.6794 296.982 87.5749C295.633 86.9505 294.442 86.3448 293.478 85.8229C291.507 84.7791 290.333 84.0429 290.333 84.0429L290.158 83.7354L289.44 82.5332L287.907 79.9518L287.381 79.0851V79.0199C287.357 78.9413 287.357 78.8562 287.381 78.7776C287.434 77.7897 289.335 75.0499 289.676 74.5839C291.084 72.5834 292.875 70.925 294.932 69.7193C297.753 68.0605 300.933 68.7874 303.929 69.3466C304.92 69.5655 305.886 69.8966 306.811 70.3344L307.398 70.6046L307.512 70.6606C307.617 70.7258 307.731 70.7724 307.836 70.8283L308.029 70.9308C310.255 72.0399 312.28 73.5572 314.012 75.4133C317.954 80.1195 316.351 87.8824 315.86 89.4015Z" fill="#AE2BFF"/>
<path d="M311.576 120.304C311.576 120.304 310.946 115.644 309.57 114.712C308.195 113.78 294.529 113.92 292.401 115.514C290.272 117.107 290.649 122.317 290.649 122.317L311.576 120.304Z" fill="#AE2BFF"/>
<path d="M287.32 91.5915C287.32 91.5915 289.65 88.3857 292.147 90.3707C294.643 92.3557 292.664 97.0619 289.729 98.3852C289.729 98.3852 285.936 99.6992 285.445 95.5895C284.955 91.4797 287.32 91.5915 287.32 91.5915Z" fill="#B55B52"/>
<path d="M277.973 203.161C277.973 203.161 272.761 256.215 271.307 280.613C269.853 305.01 275.196 367.402 275.196 367.402H287.872C287.872 367.402 289.326 305.42 291.516 286.829C293.706 268.237 300.977 243.028 300.977 243.028C300.977 243.028 305.357 282.924 309.737 299.195C314.117 315.467 328.343 365.175 328.343 365.175L342.937 362.193C342.937 362.193 325.417 298.422 325.417 278.665C325.417 258.908 325.584 219.022 321.221 203.18L277.973 203.161Z" fill="#AE2BFF"/>
<path opacity="0.3" d="M342.911 362.212L328.326 365.203C328.326 365.203 314.108 315.494 309.728 299.223C307.319 290.277 304.919 274.164 303.246 261.48C301.844 251.127 300.968 243.056 300.968 243.056C300.968 243.056 293.689 268.218 291.499 286.857C289.309 305.495 287.863 367.43 287.863 367.43H275.196C275.196 367.43 269.853 305.048 271.307 280.65C272.761 256.252 277.973 203.189 277.973 203.189H321.177C325.557 219.031 325.382 258.964 325.382 278.674C325.382 298.384 342.911 362.212 342.911 362.212Z" fill="black"/>
<path opacity="0.3" d="M303.237 261.481C301.844 251.127 300.968 243.056 300.968 243.056L301.844 228.574L303.237 261.481Z" fill="black"/>
<path d="M273.821 364.812H289.011L288.266 371.466H274.416L273.821 364.812Z" fill="#263238"/>
<path d="M326.495 363.843L342.92 357.347L344.996 366.797L328.965 371.466L326.495 363.843Z" fill="#263238"/>
<path opacity="0.2" d="M339.959 364.448L332.548 366.881L333.678 371.941L342.184 369.76L339.959 364.448Z" fill="black"/>
<path opacity="0.2" d="M287.206 374.14H277.57L277.307 367.486L277.368 367.132L287.162 368.167C287.162 368.167 287.188 370.925 287.206 374.14Z" fill="black"/>
<path d="M272.936 386.619C272.997 386.796 266.874 383.003 268.556 381.232C270.238 379.462 272.936 386.619 272.936 386.619Z" stroke="#AE2BFF" stroke-miterlimit="10"/>
<path d="M273.812 386.349C273.768 386.535 270.396 379.909 272.691 379.322C274.986 378.735 273.812 386.349 273.812 386.349Z" stroke="#AE2BFF" stroke-miterlimit="10"/>
<path d="M334.335 382.593C334.335 382.593 332.329 375.724 330.384 376.852C328.439 377.98 334.335 382.593 334.335 382.593Z" stroke="#AE2BFF" stroke-miterlimit="10"/>
<path d="M333.792 383.189C333.792 383.189 329.263 377.868 327.94 379.732C326.617 381.596 333.792 383.189 333.792 383.189Z" stroke="#AE2BFF" stroke-miterlimit="10"/>
<path d="M346.301 381.158H335.421C335.421 381.158 329.131 385.184 326.372 385.556C323.613 385.929 321.992 386.106 322.071 388.212C322.15 390.318 323.823 390.505 329.473 390.412C335.123 390.318 346.336 391.055 347.554 389.862C348.771 388.669 348 386.423 346.301 381.158Z" fill="#263238"/>
<path d="M287.39 382.593L276.878 382.677C276.878 382.677 270.588 386.703 267.838 387.075C265.087 387.448 263.458 387.625 263.528 389.731C263.598 391.837 265.28 392.024 270.939 391.931C276.598 391.837 286.575 392.704 287.793 391.511C289.011 390.318 288.336 388.361 287.39 382.593Z" fill="#263238"/>
<path opacity="0.3" d="M287.311 78.8055C287.583 80.2873 287.863 81.4242 290.167 84.0057C287.241 82.8501 277.22 78.731 277.115 76.8392C277.009 74.9474 284.788 77.7898 287.311 78.8055Z" fill="black"/>
<path opacity="0.3" d="M287.311 79.0386C287.287 78.9599 287.287 78.8749 287.311 78.7963C287.311 78.7963 287.311 78.8988 287.311 79.0945V79.0386Z" fill="black"/>
<path opacity="0.3" d="M290.298 84.0616L290.027 83.9497C290.041 83.9107 290.058 83.8732 290.079 83.8379L290.298 84.0616Z" fill="black"/>
<path d="M315.86 89.4015C315.737 89.8022 314.984 92.4582 314.66 92.4582L313.6 92.3929C312.613 92.3059 311.632 92.1848 310.657 92.0295C309.579 91.8524 308.519 91.6288 307.477 91.3678H307.433C306.373 91.0976 305.331 90.7993 304.314 90.4359C301.82 89.6347 299.372 88.6794 296.982 87.5749C295.633 86.9505 294.442 86.3448 293.478 85.8229C291.507 84.7791 290.333 84.0429 290.333 84.0429L290.158 83.7354L289.44 82.5332L287.907 79.9518L287.381 79.0851V79.0199C287.357 78.9413 287.357 78.8562 287.381 78.7776C287.434 77.7897 289.335 75.0499 289.676 74.5839C291.084 72.5834 292.875 70.925 294.932 69.7193C297.753 68.0605 300.933 68.7874 303.929 69.3466C304.92 69.5655 305.886 69.8966 306.811 70.3344L307.398 70.6046L307.512 70.6606C307.617 70.7258 307.731 70.7724 307.836 70.8283L308.029 70.9308C310.255 72.0399 312.28 73.5572 314.012 75.4133C317.954 80.1195 316.351 87.8824 315.86 89.4015Z" fill="#AE2BFF"/>
<path opacity="0.2" d="M298.629 108.077C297.697 109.109 296.714 110.089 295.686 111.013C295.686 109.82 295.546 108.972 295.546 108.972C296.602 108.801 297.637 108.5 298.629 108.077Z" fill="black"/>
<path d="M277.973 203.683V155.95L269.782 152.399C269.782 152.399 271.351 126.93 283.01 122.913C294.67 118.897 315.422 117.21 321.134 122.913C324.743 126.539 325.225 132.354 325.356 137.339C325.636 147.497 323.14 157.432 322.588 167.534C322.15 175.753 321.887 183.973 321.712 192.202C321.712 192.835 321.484 203.683 321.466 203.683H277.973Z" fill="#263238"/>
<path d="M282.458 157.581C282.458 157.581 276.396 178.884 270.404 180.217C264.413 181.55 243.949 169.668 243.949 169.668H234.813L233.516 161.122C233.516 161.122 242.022 157.767 247.69 161.784C247.69 161.784 260.926 167.925 265.332 169.714L271.718 153.275L282.458 157.581Z" fill="#B55B52"/>
</g>
<defs>
<clipPath id="clip0_412_5630">
<rect width="438" height="465.96" fill="white" transform="translate(0.5 0.44043)"/>
</clipPath>
</defs>
</svg>
