<svg width="439" height="467" viewBox="0 0 439 467" fill="none" xmlns="http://www.w3.org/2000/svg">
<path d="M64.6423 421.758C150.165 481.39 288.835 481.39 374.358 421.758C459.881 362.126 459.881 265.44 374.358 205.795C288.835 146.15 150.204 146.163 64.6423 205.795C-20.9199 265.427 -20.8416 362.126 64.6423 421.758Z" fill="#F5F5F5"/>
<path d="M40.8023 323.954L13.002 302.537V222.949L40.8023 244.38V323.954Z" fill="#E0E0E0"/>
<path d="M40.8025 244.383L80.5229 213.777V293.352L40.8025 323.958V244.383Z" fill="#EBEBEB"/>
<path d="M80.5227 213.77L40.8023 244.376L13.002 222.945L52.7223 192.34L80.5227 213.77Z" fill="#F5F5F5"/>
<path d="M44.7832 247.434L76.5537 222.949L77.2871 223.51V252.994L45.5068 277.478L44.7734 276.917L44.7832 247.434Z" fill="#E0E0E0"/>
<path d="M45.5059 248.001L77.2861 223.504V252.987L45.5059 277.472V248.001Z" fill="#F5F5F5"/>
<path d="M57.9646 243.396L63.3721 239.233C64.0664 238.685 64.6335 238.933 64.6335 239.781C64.5831 240.301 64.443 240.798 64.224 241.232C64.0051 241.667 63.7135 242.028 63.3721 242.287L57.9646 246.45C57.2605 246.999 56.6934 246.751 56.6934 245.902C56.7441 245.381 56.8854 244.883 57.1062 244.448C57.3269 244.013 57.6209 243.653 57.9646 243.396Z" fill="#E0E0E0"/>
<path d="M44.0488 284.73L75.8193 260.246V289.729L76.5527 290.29L44.7724 314.775L44.0488 314.214V284.73Z" fill="#E0E0E0"/>
<path d="M44.7734 285.293L76.5537 260.808V290.292L44.7734 314.776V285.293Z" fill="#F5F5F5"/>
<path d="M57.2301 280.696L62.6866 276.545C63.3906 275.997 63.9578 276.245 63.9578 277.094C63.9071 277.615 63.7657 278.113 63.545 278.548C63.3242 278.983 63.0302 279.343 62.6866 279.599L57.279 283.763C56.575 284.311 56.0078 284.063 56.0078 283.215C56.0518 282.697 56.185 282.2 56.3971 281.763C56.6092 281.326 56.8943 280.961 57.2301 280.696Z" fill="#E0E0E0"/>
<path d="M40.8023 239.782L13.002 218.352V138.777L40.8023 160.195V239.782Z" fill="#E0E0E0"/>
<path d="M40.8025 160.188L80.5229 129.582V209.17L40.8025 239.775V160.188Z" fill="#EBEBEB"/>
<path d="M80.5227 129.585L40.8023 160.191L13.002 138.774L52.7223 108.168L80.5227 129.585Z" fill="#F5F5F5"/>
<path d="M44.7734 163.262L76.5537 138.777L77.2871 139.338V168.822L45.5068 193.306L44.7734 192.732V163.262Z" fill="#E0E0E0"/>
<path d="M57.9646 159.207L63.3623 155.044C64.0664 154.508 64.6335 154.756 64.6335 155.605C64.5814 156.125 64.4394 156.623 64.2188 157.057C63.9982 157.492 63.705 157.853 63.3623 158.111L57.9646 162.274C57.2605 162.809 56.6934 162.574 56.6934 161.726C56.7448 161.203 56.8864 160.704 57.107 160.267C57.3276 159.83 57.6211 159.467 57.9646 159.207Z" fill="#E0E0E0"/>
<path d="M44.0488 200.551L75.8193 176.066V205.536L76.5527 206.098L44.7724 230.582L44.0488 230.021V200.551Z" fill="#E0E0E0"/>
<path d="M44.7734 201.121L76.5537 176.637V206.107L44.7734 230.591V201.121Z" fill="#F5F5F5"/>
<path d="M57.2304 196.512L62.6869 192.348C63.3811 191.813 63.9581 192.061 63.9581 192.909C63.903 193.429 63.7599 193.924 63.5396 194.359C63.3193 194.793 63.0277 195.154 62.6869 195.415L57.2304 199.54C56.5264 200.075 55.9592 199.827 55.9592 198.991C56.015 198.476 56.1585 197.984 56.3789 197.554C56.5993 197.125 56.8906 196.768 57.2304 196.512Z" fill="#E0E0E0"/>
<path d="M44.7734 163.262L76.5537 138.777V168.247L44.7734 192.732V163.262Z" fill="#E0E0E0"/>
<path d="M92.4429 153.345L75.0469 139.941V165.914L92.4429 179.305V153.345Z" fill="#E0E0E0"/>
<path d="M56.6934 196.935V160.195L63.509 154.923L64.6335 157.141L84.4937 141.832V175.505L56.6934 196.935Z" fill="#EBEBEB"/>
<path d="M56.6934 196.934L58.6784 164.788L86.4788 143.371L84.4937 175.504L56.6934 196.934Z" fill="#F5F5F5"/>
<path d="M60.6626 177.818L45.5059 166.137V192.109L60.6626 203.777V177.818Z" fill="#EBEBEB"/>
<path d="M60.6621 175.496L92.4423 151.012V180.482L60.6621 204.966V175.496Z" fill="#F5F5F5"/>
<path d="M73.1208 170.895L78.5186 166.731C79.2226 166.196 79.7898 166.444 79.7898 167.292C79.7369 167.812 79.5946 168.309 79.3741 168.744C79.1536 169.179 78.8608 169.539 78.5186 169.798L73.1208 173.962C72.4168 174.497 71.8496 174.249 71.8496 173.413C71.9011 172.891 72.0427 172.392 72.2632 171.954C72.4838 171.517 72.7774 171.155 73.1208 170.895Z" fill="#E0E0E0"/>
<path d="M60.6616 175.493L59.6055 174.683V204.154L60.6616 204.963V175.493Z" fill="#E0E0E0"/>
<path d="M59.6055 174.697L91.3759 150.199L92.4418 151.021L60.6616 175.506L59.6055 174.697Z" fill="#EBEBEB"/>
<path d="M369.244 275.736L341.434 254.305V174.73L369.244 196.148V275.736Z" fill="#E0E0E0"/>
<path d="M369.244 196.149L408.964 165.543V245.131L369.244 275.736V196.149Z" fill="#EBEBEB"/>
<path d="M408.964 165.536L369.244 196.142L341.434 174.724L381.164 144.105L408.964 165.536Z" fill="#F5F5F5"/>
<path d="M373.215 199.215L404.995 174.73L405.728 175.292L405.719 204.762L373.948 229.246L373.215 228.685V199.215Z" fill="#E0E0E0"/>
<path d="M373.947 199.77L405.727 175.285L405.718 204.755L373.947 229.24V199.77Z" fill="#F5F5F5"/>
<path d="M386.404 195.169L391.802 191.005C392.506 190.47 393.073 190.718 393.073 191.553C393.022 192.076 392.88 192.575 392.659 193.012C392.439 193.449 392.145 193.812 391.802 194.072L386.404 198.236C385.7 198.771 385.133 198.523 385.133 197.687C385.184 197.165 385.326 196.666 385.546 196.228C385.767 195.791 386.061 195.429 386.404 195.169Z" fill="#E0E0E0"/>
<path d="M372.48 236.517L404.261 212.019V241.503L404.994 242.064L373.214 266.548L372.48 265.987V236.517Z" fill="#E0E0E0"/>
<path d="M373.215 237.074L404.995 212.59V242.06L373.215 266.544V237.074Z" fill="#F5F5F5"/>
<path d="M385.672 232.473L391.079 228.31C391.773 227.775 392.341 228.023 392.341 228.858C392.289 229.379 392.148 229.877 391.929 230.313C391.711 230.75 391.42 231.114 391.079 231.377L385.672 235.54C384.968 236.075 384.4 235.827 384.4 234.979C384.453 234.459 384.596 233.962 384.816 233.527C385.037 233.093 385.329 232.732 385.672 232.473Z" fill="#E0E0E0"/>
<path d="M104.734 358.914C104.734 358.914 104.842 338.215 95.0633 322.697C86.4093 308.953 81.8036 300.235 84.5318 296.215C87.26 292.195 93.1271 291.23 101.038 302.349C108.949 313.469 109.565 344.271 108.47 351.24L104.734 358.914Z" fill="#AE2BFF"/>
<path opacity="0.2" d="M104.734 358.914C104.734 358.914 104.842 338.215 95.0633 322.697C86.4093 308.953 81.8036 300.235 84.5318 296.215C87.26 292.195 93.1271 291.23 101.038 302.349C108.949 313.469 109.565 344.271 108.47 351.24L104.734 358.914Z" fill="black"/>
<path d="M106.377 336.671C106.265 336.672 106.157 336.622 106.07 336.529C105.983 336.437 105.922 336.307 105.898 336.162C102.475 314.797 93.694 302.985 88.7558 297.843C88.6536 297.737 88.5869 297.582 88.5704 297.411C88.5539 297.239 88.5889 297.066 88.6678 296.929C88.7488 296.792 88.867 296.703 88.9969 296.681C89.1268 296.659 89.2579 296.706 89.3621 296.812C94.398 302.033 103.365 314.118 106.856 335.888C106.87 335.971 106.872 336.058 106.861 336.142C106.85 336.226 106.826 336.306 106.792 336.378C106.757 336.45 106.712 336.511 106.659 336.559C106.606 336.608 106.547 336.641 106.484 336.658L106.377 336.671Z" fill="white"/>
<path d="M104.363 366.602L100.384 369.669C99.959 368.121 99.243 366.745 98.3045 365.673C97.366 364.601 96.2366 363.869 95.0249 363.548C90.6734 362.243 86.1557 362.465 83.1048 357.427C80.0539 352.389 83.7698 346.908 83.1048 343.201C82.4399 339.494 82.0096 338.424 76.5532 334.718C71.0968 331.011 68.9455 324.864 73.0525 320.7C77.1595 316.537 83.8089 319.591 87.8376 323.311C91.4166 326.573 94.8195 327.435 98.8189 328.101C102.818 328.766 109.331 331.729 108.333 344.128C107.68 351.802 106.348 359.347 104.363 366.602Z" fill="#AE2BFF"/>
<path d="M89.0877 350.318C88.9835 350.317 88.8822 350.272 88.7981 350.19C88.7139 350.108 88.651 349.993 88.6183 349.861C88.5813 349.695 88.5943 349.516 88.6546 349.363C88.7149 349.209 88.8176 349.093 88.941 349.039C89.2931 348.895 97.7417 345.319 101.33 349.156C101.42 349.269 101.474 349.421 101.483 349.584C101.491 349.747 101.454 349.909 101.378 350.037C101.301 350.165 101.192 350.25 101.071 350.276C100.95 350.301 100.826 350.265 100.724 350.174C97.5559 346.781 89.3224 350.253 89.2344 350.292L89.0877 350.318Z" fill="white"/>
<path d="M104.803 365.614C104.684 365.615 104.569 365.557 104.48 365.451C104.392 365.344 104.336 365.198 104.324 365.04C102.143 337.554 77.335 324.515 77.0905 324.385C77.0299 324.354 76.9744 324.308 76.9273 324.249C76.8801 324.19 76.8422 324.119 76.8159 324.04C76.7895 323.961 76.7751 323.876 76.7736 323.789C76.772 323.703 76.7834 323.617 76.8069 323.536C76.855 323.378 76.9468 323.251 77.0632 323.18C77.1797 323.11 77.312 323.102 77.4328 323.158C77.6968 323.301 103.053 336.614 105.292 364.923C105.306 365.094 105.268 365.265 105.187 365.4C105.107 365.534 104.99 365.621 104.862 365.64L104.803 365.614Z" fill="white"/>
<path d="M348.026 348.558C348.134 348.101 352.329 319.284 348.026 298.845C344.115 280.103 339.01 273.186 331.735 271.659C324.46 270.132 321.301 277.127 325.164 286.603C329.026 296.078 338.326 308.647 340.604 329.816C341.582 338.535 342.325 346.104 342.325 346.104L348.026 348.558Z" fill="#AE2BFF"/>
<path opacity="0.2" d="M348.026 348.558C348.134 348.101 352.329 319.284 348.026 298.845C344.115 280.103 339.01 273.186 331.735 271.659C324.46 270.132 321.301 277.127 325.164 286.603C329.026 296.078 338.326 308.647 340.604 329.816C341.582 338.535 342.325 346.104 342.325 346.104L348.026 348.558Z" fill="black"/>
<path d="M345.569 332.008C345.505 332.003 345.442 331.982 345.384 331.944C345.327 331.907 345.275 331.854 345.232 331.79C345.189 331.726 345.157 331.651 345.136 331.57C345.115 331.488 345.106 331.402 345.11 331.317C346.088 307.981 340.377 287.151 330.139 276.931C330.035 276.827 329.967 276.673 329.948 276.501C329.93 276.33 329.963 276.156 330.041 276.018C330.12 275.882 330.236 275.793 330.364 275.768C330.491 275.744 330.621 275.787 330.726 275.887C341.218 286.328 347.105 307.628 346.078 331.395C346.07 331.566 346.013 331.726 345.918 331.84C345.823 331.955 345.698 332.016 345.569 332.008Z" fill="white"/>
<path d="M359.28 363.568C358.722 358.204 361.03 350.164 366.516 348.259C372.002 346.353 374.446 342.151 372.471 337.557C370.496 332.963 370.955 328.747 375.933 326.841C380.91 324.936 385.271 321.621 382.406 314.599C380.323 309.522 379.864 306.233 384.968 296.236C389.202 287.935 385.741 283.067 380.441 283.98C375.141 284.894 371.865 293.325 368.55 294.735C365.235 296.144 364.472 288.627 360.101 291.994C355.73 295.361 355.994 303.988 355.857 310.005C355.72 316.022 355.427 317.379 351.476 316.648C347.526 315.917 343.654 316.779 343.742 329.53C343.81 340.467 348.181 354.015 348.181 354.015L359.28 363.568Z" fill="#AE2BFF"/>
<path d="M352.347 355.418H352.298C352.167 355.398 352.048 355.31 351.965 355.173C351.883 355.036 351.844 354.862 351.858 354.687C354.615 321.81 375.757 294.076 381.272 288.451C381.375 288.345 381.506 288.299 381.636 288.322C381.765 288.345 381.882 288.436 381.961 288.575C382.04 288.713 382.075 288.888 382.057 289.06C382.04 289.233 381.972 289.389 381.868 289.495C376.422 295.042 355.554 322.411 352.836 354.831C352.822 354.991 352.764 355.139 352.674 355.247C352.584 355.355 352.468 355.416 352.347 355.418Z" fill="white"/>
<path d="M361.988 320.26C361.889 320.259 361.793 320.219 361.711 320.144C361.629 320.07 361.566 319.965 361.529 319.842C361.487 319.677 361.494 319.498 361.549 319.34C361.603 319.182 361.701 319.058 361.822 318.994C369.704 315.078 378.641 316.932 379.023 317.01C379.149 317.039 379.262 317.133 379.337 317.272C379.412 317.411 379.443 317.584 379.424 317.754C379.4 317.922 379.329 318.072 379.226 318.174C379.122 318.276 378.994 318.321 378.866 318.302C378.778 318.302 369.802 316.423 362.164 320.221C362.108 320.246 362.048 320.259 361.988 320.26Z" fill="white"/>
<path d="M354.968 340.022C354.899 340.021 354.831 340 354.769 339.962C354.707 339.924 354.651 339.868 354.606 339.8C351.328 334.705 349.107 328.554 348.162 321.958C348.152 321.873 348.155 321.787 348.17 321.704C348.186 321.62 348.213 321.542 348.252 321.473C348.29 321.404 348.338 321.345 348.393 321.301C348.448 321.257 348.509 321.227 348.573 321.214C348.636 321.201 348.701 321.205 348.763 321.226C348.826 321.246 348.885 321.283 348.936 321.334C348.988 321.385 349.032 321.449 349.065 321.523C349.098 321.596 349.12 321.678 349.13 321.763C350.065 328.099 352.203 334.008 355.339 338.925C355.4 339.021 355.44 339.139 355.453 339.263C355.466 339.388 355.452 339.516 355.414 339.63C355.375 339.745 355.312 339.843 355.233 339.912C355.154 339.981 355.062 340.019 354.968 340.022Z" fill="white"/>
<path d="M104.363 164.611V366.621L259.275 247.253L259.265 63.6053L144.084 152.368L140.104 137.059L104.363 164.611Z" fill="#AE2BFF"/>
<path opacity="0.7" d="M104.363 164.611V366.621L259.275 247.253L259.265 63.6053L144.084 152.368L140.104 137.059L104.363 164.611Z" fill="black"/>
<path d="M104.363 366.621L112.303 182.974L267.215 63.6053L259.275 247.253L104.363 366.621Z" fill="#E0E0E0"/>
<path d="M104.363 366.622L116.273 186.042L271.185 66.66L259.275 247.253L104.363 366.622Z" fill="#AE2BFF"/>
<path opacity="0.7" d="M104.363 366.622L116.273 186.042L271.185 66.66L259.275 247.253L104.363 366.622Z" fill="black"/>
<path d="M128.193 182.986V385.009L283.105 265.627V81.9803L167.914 170.743L163.944 155.434L128.193 182.986Z" fill="#AE2BFF"/>
<path opacity="0.5" d="M128.193 182.986V385.009L283.105 265.627V81.9803L167.914 170.743L163.944 155.434L128.193 182.986Z" fill="black"/>
<path d="M128.193 385.009L136.134 201.349L291.045 81.9803L283.105 265.627L128.193 385.009Z" fill="#E0E0E0"/>
<path d="M128.193 385.01L140.104 204.417L295.015 85.035L283.105 265.628L128.193 385.01Z" fill="#AE2BFF"/>
<path opacity="0.5" d="M128.193 385.01L140.104 204.417L295.015 85.035L283.105 265.628L128.193 385.01Z" fill="black"/>
<path d="M259.235 449.279C231.425 427.849 205.629 404.552 193.855 377.222L229.645 349.644L259.235 449.279Z" fill="#E0E0E0"/>
<path d="M155.994 204.408V406.418L310.906 287.049V103.402L195.715 192.165L191.745 176.856L155.994 204.408Z" fill="#AE2BFF"/>
<path opacity="0.2" d="M155.994 204.408V406.418L310.906 287.049V103.402L195.715 192.165L191.745 176.856L155.994 204.408Z" fill="black"/>
<path d="M200.624 264.136C200.232 264.136 200.174 263.536 200.174 263.184V90.9044C200.205 90.2361 200.352 89.5866 200.603 89.0069C200.854 88.4271 201.203 87.933 201.621 87.5632L313.429 1.42353C313.582 1.29607 313.757 1.22408 313.937 1.21471C314.328 1.21471 314.387 1.81508 314.387 2.16747V174.447C314.356 175.117 314.21 175.769 313.959 176.351C313.708 176.933 313.359 177.429 312.94 177.801L201.132 263.941C200.978 264.062 200.803 264.129 200.624 264.136Z" fill="white"/>
<path d="M313.879 1.81169C313.887 1.90711 313.887 2.00341 313.879 2.09883V174.378C313.847 174.934 313.722 175.473 313.514 175.956C313.306 176.439 313.02 176.854 312.676 177.171L200.869 263.311L200.673 263.428C200.66 263.333 200.66 263.236 200.673 263.141V90.8618C200.707 90.3085 200.832 89.772 201.04 89.2912C201.248 88.8104 201.534 88.3973 201.876 88.0819L313.684 1.94221C313.745 1.88463 313.815 1.84465 313.889 1.82475M313.948 0.519602C313.681 0.530183 313.422 0.633683 313.195 0.81979L201.387 86.9594C200.895 87.3904 200.486 87.969 200.193 88.649C199.899 89.3289 199.729 90.0912 199.695 90.8749V263.154C199.695 264.172 200.077 264.76 200.673 264.76C200.94 264.75 201.199 264.647 201.426 264.459L313.234 178.32C313.728 177.892 314.138 177.314 314.432 176.633C314.726 175.953 314.895 175.189 314.926 174.404V2.12494C314.926 1.10692 314.544 0.506551 313.948 0.519602Z" fill="#AE2BFF"/>
<path opacity="0.7" d="M313.879 1.81169C313.887 1.90711 313.887 2.00341 313.879 2.09883V174.378C313.847 174.934 313.722 175.473 313.514 175.956C313.306 176.439 313.02 176.854 312.676 177.171L200.869 263.311L200.673 263.428C200.66 263.333 200.66 263.236 200.673 263.141V90.8618C200.707 90.3085 200.832 89.772 201.04 89.2912C201.248 88.8104 201.534 88.3973 201.876 88.0819L313.684 1.94221C313.745 1.88463 313.815 1.84465 313.889 1.82475M313.948 0.519602C313.681 0.530183 313.422 0.633683 313.195 0.81979L201.387 86.9594C200.895 87.3904 200.486 87.969 200.193 88.649C199.899 89.3289 199.729 90.0912 199.695 90.8749V263.154C199.695 264.172 200.077 264.76 200.673 264.76C200.94 264.75 201.199 264.647 201.426 264.459L313.234 178.32C313.728 177.892 314.138 177.314 314.432 176.633C314.726 175.953 314.895 175.189 314.926 174.404V2.12494C314.926 1.10692 314.544 0.506551 313.948 0.519602Z" fill="white"/>
<path d="M211.605 97.4454L251.326 66.8397V128.051L211.605 158.657V97.4454Z" fill="#AE2BFF"/>
<path opacity="0.8" d="M211.605 97.4454L251.326 66.8397V128.051L211.605 158.657V97.4454Z" fill="white"/>
<path d="M245.369 82.0897V100.492L244.117 101.419V95.7937C244.117 92.6875 242.23 91.6303 239.883 93.4314L223.054 106.418C220.717 108.219 218.82 112.199 218.82 115.306V120.931L217.578 121.923V103.559L245.369 82.0897Z" fill="white"/>
<path d="M237.723 128.944C235.689 130.51 234.036 128.865 234.036 125.25V95.7928L228.922 99.4994V129.192C228.922 132.794 227.269 137.022 225.235 138.549L221.539 141.395V143.352L241.399 128.043V126.098L237.723 128.944Z" fill="white"/>
<path d="M259.236 63.8186C259.236 65.5153 260.38 65.9982 261.779 64.928L300.424 35.1054C301.109 34.5866 301.696 33.863 302.137 32.9913C302.578 32.1195 302.862 31.1232 302.966 30.0805C302.966 28.3969 301.822 27.9009 300.424 28.9842L261.808 58.7416C261.111 59.2593 260.515 59.9886 260.068 60.8706C259.622 61.7525 259.337 62.7624 259.236 63.8186Z" fill="#455A64"/>
<path d="M259.236 82.0971C259.236 83.7938 260.38 84.2897 261.779 83.2065L300.394 53.4491C301.08 52.9304 301.666 52.2068 302.107 51.335C302.548 50.4632 302.832 49.467 302.937 48.4243C302.937 46.7407 301.792 46.2447 300.394 47.328L261.779 77.0853C261.094 77.6027 260.509 78.3243 260.068 79.1937C259.627 80.063 259.342 81.0567 259.236 82.0971Z" fill="#455A64"/>
<path d="M259.236 100.495C259.236 102.192 260.38 102.688 261.779 101.604L300.394 71.8469C301.079 71.3295 301.664 70.608 302.105 69.7386C302.546 68.8692 302.831 67.8755 302.937 66.8352C302.937 65.1385 301.792 64.6425 300.394 65.7258L261.779 95.4831C261.094 96.0006 260.509 96.7221 260.068 97.5915C259.627 98.4609 259.342 99.4546 259.236 100.495Z" fill="#455A64"/>
<path d="M259.236 118.854C259.236 120.551 260.38 121.047 261.779 119.964L300.394 90.2063C301.079 89.6889 301.664 88.9673 302.105 88.098C302.546 87.2286 302.831 86.2349 302.937 85.1946C302.937 83.4979 301.792 83.0019 300.394 84.0852L261.779 113.843C261.094 114.36 260.509 115.082 260.068 115.951C259.627 116.82 259.342 117.814 259.236 118.854Z" fill="#455A64"/>
<path d="M211.605 173.966C211.605 175.663 212.74 176.159 214.148 175.076L300.424 108.513C301.109 107.997 301.696 107.276 302.137 106.406C302.578 105.537 302.862 104.542 302.966 103.501C302.966 101.805 301.822 101.322 300.424 102.392L214.148 168.954C213.462 169.469 212.875 170.19 212.434 171.06C211.993 171.93 211.709 172.925 211.605 173.966Z" fill="#455A64"/>
<path d="M211.605 192.316C211.605 194.013 212.74 194.509 214.148 193.425L300.424 126.941C301.11 126.423 301.696 125.699 302.137 124.827C302.578 123.955 302.862 122.959 302.966 121.916C302.966 120.233 301.822 119.737 300.424 120.82L214.148 187.304C213.462 187.819 212.875 188.54 212.434 189.41C211.993 190.28 211.709 191.275 211.605 192.316Z" fill="#455A64"/>
<path d="M211.605 210.696C211.605 212.38 212.74 212.876 214.148 211.793L300.424 145.308C301.11 144.79 301.696 144.066 302.137 143.194C302.578 142.323 302.862 141.326 302.966 140.284C302.966 138.6 301.822 138.104 300.424 139.187L214.148 205.672C213.461 206.188 212.873 206.911 212.432 207.783C211.991 208.655 211.708 209.653 211.605 210.696Z" fill="#455A64"/>
<path d="M155.994 406.422L183.795 244.206L338.706 124.824L310.906 287.054L155.994 406.422Z" fill="#AE2BFF"/>
<path d="M193.896 256.902V377.223L229.647 349.672V229.363L193.896 256.902Z" fill="#AE2BFF"/>
<path opacity="0.2" d="M193.896 256.902V377.223L229.647 349.672V229.363L193.896 256.902Z" fill="black"/>
<path d="M259.304 448.494C256.263 445.466 226.947 415.565 212.044 372.796C196.184 327.324 196.203 274.283 196.203 254.328V253.701L302.476 171.816C302.476 191.955 302.476 245.074 318.405 290.702C332.966 332.467 361.157 361.989 365.626 366.505L259.304 448.494Z" fill="white"/>
<path d="M301.988 172.991C301.988 193.978 302.291 246.079 317.966 291.028C332.038 331.357 358.792 360.358 364.747 366.479L259.334 447.711C255.218 443.574 227.007 414.169 212.495 372.574C196.654 327.233 196.654 274.296 196.654 254.367V254.119L301.949 172.978M302.927 170.72L195.676 253.375C195.676 272.156 195.383 326.724 211.566 373.122C227.495 418.659 259.237 449.277 259.237 449.277L366.517 366.609C366.517 366.609 334.737 335.991 318.856 290.454C302.663 244.056 302.966 189.488 302.966 170.707L302.927 170.72Z" fill="#AE2BFF"/>
<path opacity="0.7" d="M301.988 172.991C301.988 193.978 302.291 246.079 317.966 291.028C332.038 331.357 358.792 360.358 364.747 366.479L259.334 447.711C255.218 443.574 227.007 414.169 212.495 372.574C196.654 327.233 196.654 274.296 196.654 254.367V254.119L301.949 172.978M302.927 170.72L195.676 253.375C195.676 272.156 195.383 326.724 211.566 373.122C227.495 418.659 259.237 449.277 259.237 449.277L366.517 366.609C366.517 366.609 334.737 335.991 318.856 290.454C302.663 244.056 302.966 189.488 302.966 170.707L302.927 170.72Z" fill="white"/>
<path d="M290.831 198.443L256.919 224.546C256.24 225.045 255.662 225.755 255.233 226.616C254.804 227.477 254.537 228.464 254.455 229.493C254.504 231.15 255.687 231.62 257.086 230.537L291.007 204.434C291.678 203.94 292.251 203.239 292.678 202.39C293.104 201.541 293.373 200.568 293.462 199.553C293.403 197.83 292.239 197.36 290.831 198.443Z" fill="#455A64"/>
<path d="M291.554 216.263L257.642 242.366C256.971 242.848 256.402 243.548 255.989 244.401C255.575 245.255 255.33 246.234 255.275 247.248C255.383 248.853 256.615 249.284 258.013 248.2L291.935 222.097C292.603 221.618 293.167 220.919 293.576 220.068C293.985 219.216 294.225 218.239 294.272 217.229C294.174 215.611 292.962 215.219 291.554 216.263Z" fill="#455A64"/>
<path d="M292.913 233.577L258.991 259.68C257.593 260.764 256.576 262.917 256.742 264.47C256.909 266.023 258.19 266.428 259.598 265.345L293.519 239.242C294.918 238.158 295.915 236.018 295.739 234.465C295.563 232.912 294.312 232.494 292.913 233.577Z" fill="#455A64"/>
<path d="M294.948 250.375L261.026 276.478C259.628 277.561 258.66 279.675 258.894 281.189C259.129 282.703 260.459 283.042 261.828 281.959L295.74 255.856C297.148 254.773 298.087 252.672 297.852 251.158C297.617 249.644 296.395 249.291 294.948 250.375Z" fill="#455A64"/>
<path d="M297.705 266.61L263.784 292.713C262.385 293.796 261.476 295.859 261.828 297.307C262.18 298.756 263.52 299.082 264.918 297.999L298.84 271.896C300.248 270.813 301.128 268.764 300.795 267.302C300.463 265.84 299.104 265.527 297.705 266.61Z" fill="#455A64"/>
<path d="M301.283 282.263L218.615 345.967C217.217 347.05 216.366 349.06 216.747 350.457C217.129 351.853 218.586 352.114 219.984 351.031L302.652 287.327C304.06 286.243 304.872 284.247 304.49 282.837C304.109 281.427 302.632 281.179 301.283 282.263Z" fill="#455A64"/>
<path d="M305.636 297.2L222.978 360.905C221.569 361.988 220.797 363.946 221.266 365.277C221.736 366.608 223.222 366.817 224.65 365.734L307.317 302.029C308.726 300.946 309.478 298.988 309.009 297.657C308.54 296.326 307.044 296.13 305.636 297.2Z" fill="#455A64"/>
<path d="M311.062 311.444L228.394 375.148C226.986 376.231 226.291 378.137 226.849 379.403C227.406 380.669 229 380.799 230.408 379.716L313.017 316.012C314.416 314.941 315.09 313.049 314.533 311.783C313.976 310.517 312.431 310.36 311.062 311.444Z" fill="#455A64"/>
<path d="M317.389 324.916L234.731 388.607C233.323 389.69 232.697 391.557 233.332 392.744C233.968 393.932 235.64 394.049 237.048 392.953L319.706 329.249C321.114 328.166 321.721 326.325 321.085 325.125C320.449 323.924 318.797 323.833 317.389 324.916Z" fill="#455A64"/>
<path d="M324.607 337.712L241.939 401.403C240.541 402.487 239.983 404.301 240.687 405.436C241.391 406.572 243.122 406.624 244.53 405.541L327.198 341.81C328.596 340.727 329.154 338.939 328.43 337.804C327.707 336.668 326.015 336.59 324.607 337.712Z" fill="#455A64"/>
<path d="M332.575 349.912L249.937 413.603C248.529 414.686 247.981 416.461 248.803 417.518C249.624 418.575 251.365 418.602 252.763 417.518L335.431 353.814C336.839 352.731 337.328 350.982 336.545 349.899C335.763 348.815 334.003 348.841 332.575 349.912Z" fill="#455A64"/>
<path d="M341.376 361.568L258.708 425.259C257.31 426.342 256.85 428.078 257.73 429.109C258.61 430.14 260.41 430.101 261.818 429.018L344.417 365.314C345.815 364.23 346.255 362.534 345.395 361.49C344.534 360.445 342.745 360.485 341.376 361.568Z" fill="#455A64"/>
<path d="M244.626 234.066L205.629 264.085C206.059 282.944 207.673 310.143 213.579 337.538L252.585 307.52C246.669 280.125 245.056 252.913 244.626 234.066Z" fill="#AE2BFF"/>
<path opacity="0.8" d="M244.626 234.066L205.629 264.085C206.059 282.944 207.673 310.143 213.579 337.538L252.585 307.52C246.669 280.125 245.056 252.913 244.626 234.066Z" fill="white"/>
<path d="M221.529 259.936C221.581 258.719 221.439 257.5 221.112 256.362C220.785 255.223 220.281 254.19 219.632 253.332L205.629 264.112C205.746 269.098 205.942 274.671 206.284 280.675C208.106 280.954 209.948 280.5 211.574 279.37C217.08 276.002 221.529 267.271 221.529 259.936Z" fill="#AE2BFF"/>
<path opacity="0.6" d="M221.529 259.936C221.581 258.719 221.439 257.5 221.112 256.362C220.785 255.223 220.281 254.19 219.632 253.332L205.629 264.112C205.746 269.098 205.942 274.671 206.284 280.675C208.106 280.954 209.948 280.5 211.574 279.37C217.08 276.002 221.529 267.271 221.529 259.936Z" fill="white"/>
<path d="M249.272 289.507C246.671 285.135 241.381 271.626 239.122 265.74C239.033 265.507 238.894 265.316 238.723 265.19C238.552 265.063 238.356 265.009 238.161 265.033C237.966 265.057 237.781 265.158 237.63 265.324C237.479 265.489 237.369 265.712 237.313 265.962C234.869 277.111 233.451 288.616 233.089 300.222C229.832 296.771 227.032 292.615 224.806 287.928C224.711 287.746 224.58 287.604 224.426 287.519C224.273 287.434 224.105 287.41 223.942 287.448C223.778 287.487 223.626 287.586 223.504 287.736C223.382 287.886 223.294 288.079 223.252 288.293C218.988 310.206 221.13 331.767 221.13 331.767L252.587 307.518C251.277 301.462 250.191 295.432 249.272 289.507Z" fill="#AE2BFF"/>
<path opacity="0.6" d="M249.272 289.507C246.671 285.135 241.381 271.626 239.122 265.74C239.033 265.507 238.894 265.316 238.723 265.19C238.552 265.063 238.356 265.009 238.161 265.033C237.966 265.057 237.781 265.158 237.63 265.324C237.479 265.489 237.369 265.712 237.313 265.962C234.869 277.111 233.451 288.616 233.089 300.222C229.832 296.771 227.032 292.615 224.806 287.928C224.711 287.746 224.58 287.604 224.426 287.519C224.273 287.434 224.105 287.41 223.942 287.448C223.778 287.487 223.626 287.586 223.504 287.736C223.382 287.886 223.294 288.079 223.252 288.293C218.988 310.206 221.13 331.767 221.13 331.767L252.587 307.518C251.277 301.462 250.191 295.432 249.272 289.507Z" fill="white"/>
</svg>
