<svg width="439" height="467" viewBox="0 0 439 467" fill="none" xmlns="http://www.w3.org/2000/svg">
<path d="M373.8 234.433C288.004 181.405 149.356 181.405 64.1127 234.433C-21.131 287.461 -20.6361 373.564 65.1996 426.634C151.035 479.704 289.644 479.714 374.887 426.634C460.131 373.554 459.636 287.513 373.8 234.433Z" fill="#FAFAFA"/>
<path d="M403.69 376.929C406.446 378.634 406.456 381.4 403.69 383.105L392.433 390.061C390.894 390.902 389.191 391.34 387.464 391.34C385.737 391.34 384.034 390.902 382.495 390.061L259.104 313.711C256.348 312.016 256.328 309.251 259.104 307.545L270.351 300.589C271.891 299.748 273.596 299.31 275.325 299.31C277.053 299.31 278.758 299.748 280.298 300.589L403.69 376.929Z" fill="#F0F0F0"/>
<path d="M369.065 387.892C371.831 389.608 371.841 392.363 369.065 394.068L357.808 401.024C356.267 401.865 354.563 402.304 352.834 402.304C351.106 402.304 349.401 401.865 347.861 401.024L242.471 335.8C239.715 334.094 239.695 331.329 242.471 329.623L253.728 322.667C255.268 321.827 256.973 321.388 258.701 321.388C260.43 321.388 262.135 321.827 263.675 322.667L369.065 387.892Z" fill="#F0F0F0"/>
<path d="M64.4434 382.772C56.8837 378.093 44.6561 378.093 37.1351 382.772C29.6142 387.451 29.6627 395.042 37.2225 399.721C44.7822 404.4 57.0195 404.4 64.5307 399.721C72.042 395.042 71.9934 387.451 64.4434 382.772Z" fill="#F0F0F0"/>
<path d="M102.358 371.79C125.716 357.337 163.495 357.337 186.689 371.79C209.883 386.243 209.776 409.679 186.408 424.132C163.039 438.585 125.27 438.585 102.076 424.132C78.8826 409.679 78.9893 386.243 102.358 371.79Z" fill="#F0F0F0"/>
<path d="M74.5743 325.408L124.766 294.36C125.111 294.154 125.399 293.852 125.599 293.487C125.8 293.121 125.906 292.705 125.906 292.281C125.906 291.857 125.8 291.441 125.599 291.075C125.399 290.709 125.111 290.408 124.766 290.201L80.5329 262.699C80.195 262.49 79.8118 262.38 79.4217 262.38C79.0316 262.38 78.6484 262.49 78.3105 262.699L27.0129 294.433C26.6673 294.64 26.3795 294.941 26.1791 295.307C25.9787 295.672 25.873 296.089 25.873 296.513C25.873 296.937 25.9787 297.353 26.1791 297.718C26.3795 298.084 26.6673 298.386 27.0129 298.592L70.1297 325.439C70.8083 325.851 71.5759 326.065 72.3559 326.06C73.1359 326.054 73.9009 325.83 74.5743 325.408Z" fill="#F0F0F0"/>
<path d="M230.805 221.792C218.966 214.514 199.829 214.514 188.106 221.792C176.383 229.071 176.402 240.997 188.242 248.317C200.081 255.637 219.218 255.647 230.941 248.317C242.664 240.986 242.645 229.133 230.805 221.792Z" fill="#F0F0F0"/>
<path d="M132.285 59.5401L128.481 57.1694L88.2949 81.9367V86.6469L132.285 59.5401Z" fill="#F5F5F5"/>
<path d="M132.285 59.5444L88.2949 86.6512V92.0372L132.295 64.9512L132.285 59.5444Z" fill="#E0E0E0"/>
<path d="M65.3163 100.821L61.5121 98.4507L21.3164 123.218V127.939L65.3163 100.821Z" fill="#F5F5F5"/>
<path d="M65.3163 100.826L21.3164 127.943V133.318L65.326 106.232L65.3163 100.826Z" fill="#E0E0E0"/>
<path d="M132.072 14.2823L128.268 11.9116L128.491 133.845L132.295 136.216L132.072 14.2823Z" fill="#F0F0F0"/>
<path d="M132.296 136.212L128.492 133.841L84.7148 160.771L88.519 163.142L132.296 136.212Z" fill="#F5F5F5"/>
<path d="M136.683 138.893L84.1527 171.23L83.9004 38.5245L136.43 6.17725L136.683 138.893ZM88.4906 163.141L132.267 136.211L132.044 14.277L88.2965 41.1967L88.4906 163.141Z" fill="#E0E0E0"/>
<path d="M136.43 6.17815L132.635 3.81787L80.0957 36.1547L83.8998 38.5254L136.43 6.17815Z" fill="#F5F5F5"/>
<path d="M83.8998 38.5245L80.0957 36.1538L80.348 168.86L84.1522 171.23L83.8998 38.5245Z" fill="#F0F0F0"/>
<path d="M65.101 55.5635L61.2969 53.1929L61.5201 175.137L65.3242 177.508L65.101 55.5635Z" fill="#F0F0F0"/>
<path d="M65.325 177.501L61.5208 175.13L17.7441 202.05L21.5386 204.421L65.325 177.501Z" fill="#F5F5F5"/>
<path d="M69.7121 180.175L17.182 212.501L16.9297 79.7953L69.4598 47.4585L69.7121 180.175ZM21.5296 204.422L65.316 177.502L65.1025 55.5583L21.3161 82.5299L21.5296 204.422Z" fill="#E0E0E0"/>
<path d="M69.4592 47.4698L65.6551 45.0991L13.125 77.4359L16.9291 79.8066L69.4592 47.4698Z" fill="#F5F5F5"/>
<path d="M16.9291 79.8057L13.125 77.4351L13.3773 210.151L17.1815 212.511L16.9291 79.8057Z" fill="#F0F0F0"/>
<path d="M113.596 290.467L117.875 293.139L117.866 287.826L113.596 290.467Z" fill="#E6E6E6"/>
<path d="M117.69 236.255L75.9805 262.062L117.69 236.255Z" fill="#CFCFCF"/>
<path d="M117.866 287.813V293.126L122.33 290.36L122.165 227.974L71.459 259.292L71.624 321.73L76.088 318.964V313.651L113.596 290.485L117.866 287.813ZM75.9813 262.058L117.71 236.251L117.769 256.505L76.0395 282.312L75.9813 262.058ZM76.0492 287.854L117.778 262.047V262.11L117.836 282.292L76.1074 308.099L76.0492 287.854Z" fill="#E6E6E6"/>
<path d="M117.817 282.304L117.758 262.112V262.06L76.0488 287.867L76.0974 308.111L117.817 282.304Z" fill="#E0E0E0"/>
<path d="M117.748 256.51L117.69 236.255L75.9805 262.062L76.029 282.317L117.748 256.51Z" fill="#E0E0E0"/>
<path d="M71.459 259.307L27.1777 231.732L27.3427 294.17L71.624 321.745L71.459 259.307Z" fill="#E0E0E0"/>
<path d="M71.459 259.309L122.174 227.929L77.9028 200.365L27.1777 231.735L71.459 259.309Z" fill="#E0E0E0"/>
<path d="M113.596 290.467L117.875 293.139L117.866 287.826L113.596 290.467Z" fill="#E6E6E6"/>
<path d="M117.69 236.255L75.9805 262.062L117.69 236.255Z" fill="#CFCFCF"/>
<path opacity="0.8" d="M117.817 282.304L117.758 262.112V262.06L76.0488 287.867L76.0974 308.111L117.817 282.304Z" fill="white"/>
<path opacity="0.8" d="M117.748 256.51L117.69 236.255L75.9805 262.062L76.029 282.317L117.748 256.51Z" fill="white"/>
<path d="M104.094 252.209L104.075 249.412L89.625 258.343L89.6444 261.14L104.094 252.209Z" fill="#E0E0E0"/>
<path d="M104.094 277.638L104.075 274.841L89.625 283.773L89.6444 286.57L104.094 277.638Z" fill="#E0E0E0"/>
<path d="M71.459 259.307L27.1777 231.732L27.3427 294.17L71.624 321.745L71.459 259.307Z" fill="#EBEBEB"/>
<path d="M71.459 259.309L122.174 227.929L77.9028 200.365L27.1777 231.735L71.459 259.309Z" fill="#F0F0F0"/>
<path opacity="0.1" d="M221.1 60.9513C220.379 59.5954 219.312 58.4881 218.024 57.7592C213.288 54.8374 205.631 54.8374 200.925 57.7592C199.647 58.4883 198.592 59.5965 197.887 60.9513C196.703 63.4987 197.732 66.3685 200.983 68.3752C205.719 71.3074 213.375 71.3074 218.082 68.3752C221.314 66.3685 222.313 63.4987 221.1 60.9513Z" fill="black"/>
<path d="M221.586 233.802C221.508 235.643 220.344 237.473 218.083 238.876C213.376 241.808 205.719 241.808 200.983 238.876C198.703 237.473 197.529 235.643 197.422 233.802V237.889C197.422 239.812 198.616 241.736 200.983 243.202C205.719 246.124 213.376 246.124 218.083 243.202C220.441 241.736 221.605 239.812 221.586 237.889V233.802Z" fill="#E0E0E0"/>
<path d="M200.984 238.875C205.72 241.807 213.377 241.807 218.083 238.875C220.345 237.472 221.509 235.642 221.587 233.801C221.619 232.986 221.452 232.176 221.102 231.451C220.38 230.095 219.313 228.988 218.025 228.259C213.289 225.337 205.633 225.337 200.926 228.259C199.647 228.982 198.592 230.087 197.889 231.441C197.548 232.169 197.388 232.978 197.423 233.791C197.529 235.642 198.704 237.461 200.984 238.875Z" fill="#F0F0F0"/>
<path d="M200.383 98.7085H200.023V132.865H200.383V98.7085Z" fill="#E0E0E0"/>
<path d="M201.059 133.233C201.059 133.42 201.007 133.603 200.91 133.758C200.813 133.914 200.675 134.035 200.514 134.107C200.353 134.179 200.175 134.197 200.004 134.161C199.832 134.124 199.675 134.034 199.552 133.902C199.428 133.77 199.344 133.601 199.31 133.417C199.276 133.234 199.293 133.044 199.36 132.871C199.427 132.698 199.54 132.55 199.685 132.446C199.831 132.342 200.001 132.287 200.176 132.287C200.41 132.287 200.635 132.386 200.801 132.564C200.966 132.741 201.059 132.982 201.059 133.233Z" fill="#F0F0F0"/>
<path d="M211.676 86.3882H207.328V232.445C207.344 232.65 207.411 232.847 207.522 233.015C207.633 233.183 207.784 233.316 207.959 233.401C208.435 233.662 208.962 233.798 209.497 233.798C210.032 233.798 210.559 233.662 211.035 233.401C211.211 233.318 211.361 233.185 211.471 233.016C211.58 232.847 211.644 232.65 211.656 232.445L211.676 86.3882Z" fill="#E0E0E0"/>
<path d="M234.473 92.6897C231.688 82.292 221.081 60.9663 221.081 60.9663C222.294 63.5137 221.295 66.3835 218.063 68.3903C213.356 71.3224 205.7 71.3224 200.964 68.3903C197.713 66.3835 196.684 63.5137 197.868 60.9663C197.868 60.9663 187.261 82.344 184.486 92.6897C182.603 97.8885 184.913 103.503 191.415 107.527C201.459 113.766 217.694 113.766 227.68 107.527C234.153 103.493 236.404 97.8469 234.473 92.6897Z" fill="#F0F0F0"/>
<path d="M221.1 60.9513C220.379 59.5954 219.312 58.4881 218.024 57.7592C213.288 54.8374 205.631 54.8374 200.925 57.7592C199.647 58.4883 198.592 59.5965 197.887 60.9513C196.703 63.4987 197.732 66.3685 200.983 68.3752C205.719 71.3074 213.375 71.3074 218.082 68.3752C221.314 66.3685 222.313 63.4987 221.1 60.9513Z" fill="#E0E0E0"/>
<path opacity="0.05" d="M65.5676 220.008C71.2058 216.525 80.2989 216.525 85.9469 220.008C91.5948 223.492 91.5075 229.138 85.8789 232.621C80.2504 236.104 71.1476 236.104 65.4996 232.621C59.8516 229.138 59.939 223.492 65.5676 220.008Z" fill="black"/>
<path d="M60.6888 198.076L76.1382 198.564L91.5877 198.076C92.2573 209.264 90.2193 220.649 87.405 226.212C86.7421 227.643 85.6716 228.812 84.3482 229.549C79.7871 232.367 72.4214 232.367 67.8506 229.549C66.5119 228.799 65.441 227.597 64.8034 226.129C62.0377 220.535 60.0289 209.201 60.6888 198.076Z" fill="white"/>
<path d="M65.2487 191.293C59.1931 195.047 59.164 201.109 65.1807 204.81C71.1975 208.512 80.9698 208.564 87.0254 204.81C93.081 201.057 93.1101 194.995 87.0933 191.293C81.0766 187.592 71.3042 187.54 65.2487 191.293Z" fill="#EBEBEB"/>
<path d="M67.6448 192.79C62.9188 195.712 62.8897 200.443 67.5866 203.365C72.2836 206.287 79.9112 206.287 84.6276 203.365C89.3439 200.443 89.3828 195.712 84.6858 192.79C79.9889 189.869 72.3612 189.869 67.6448 192.79Z" fill="#E0E0E0"/>
<g opacity="0.15">
<path d="M67.6448 192.79C62.9188 195.712 62.8897 200.443 67.5866 203.365C72.2836 206.287 79.9112 206.287 84.6276 203.365C89.3439 200.443 89.3828 195.712 84.6858 192.79C79.9889 189.869 72.3612 189.869 67.6448 192.79Z" fill="black"/>
</g>
<path d="M77.4272 198.545C76.189 199.658 74.7211 200.44 73.145 200.825C71.5688 201.211 69.9297 201.188 68.3633 200.759C66.855 200.267 65.4849 199.38 64.3768 198.178C63.2688 196.977 62.4576 195.498 62.0166 193.876C63.8462 192.943 65.5213 191.697 66.9755 190.185C64.6561 189.568 62.2216 189.662 59.9495 190.455C59.3214 189.396 58.9452 188.189 58.8539 186.938C58.7625 185.687 58.9588 184.432 59.4255 183.281C62.0617 182.024 65.0272 181.803 67.8004 182.657C66.6532 181.589 65.3139 180.784 63.8651 180.293C62.4163 179.801 60.8888 179.632 59.3769 179.798C59.158 175.053 59.8517 170.31 61.4149 165.865C67.1696 166.177 72.7594 168.838 74.642 170.752C74.7302 172.96 74.5144 175.171 74.0015 177.313C74.7449 176.904 75.38 176.301 75.8482 175.559C76.3163 174.818 76.6024 173.962 76.6799 173.07C80.2803 174.037 81.8233 175.961 82.3861 177.437C81.8665 180.181 80.6893 182.732 78.9702 184.841C82.357 183.749 83.7351 179.704 83.7351 179.704C87.0152 188.157 86.3747 197.723 77.4272 198.545Z" fill="#AE2BFF"/>
<path opacity="0.2" d="M77.4272 198.545C76.189 199.658 74.7211 200.44 73.145 200.825C71.5688 201.211 69.9297 201.188 68.3633 200.759C66.855 200.267 65.4849 199.38 64.3768 198.178C63.2688 196.977 62.4576 195.498 62.0166 193.876C63.8462 192.943 65.5213 191.697 66.9755 190.185C64.6561 189.568 62.2216 189.662 59.9495 190.455C59.3214 189.396 58.9452 188.189 58.8539 186.938C58.7625 185.687 58.9588 184.432 59.4255 183.281C62.0617 182.024 65.0272 181.803 67.8004 182.657C66.6532 181.589 65.3139 180.784 63.8651 180.293C62.4163 179.801 60.8888 179.632 59.3769 179.798C59.158 175.053 59.8517 170.31 61.4149 165.865C67.1696 166.177 72.7594 168.838 74.642 170.752C74.7302 172.96 74.5144 175.171 74.0015 177.313C74.7449 176.904 75.38 176.301 75.8482 175.559C76.3163 174.818 76.6024 173.962 76.6799 173.07C80.2803 174.037 81.8233 175.961 82.3861 177.437C81.8665 180.181 80.6893 182.732 78.9702 184.841C82.357 183.749 83.7351 179.704 83.7351 179.704C87.0152 188.157 86.3747 197.723 77.4272 198.545Z" fill="black"/>
<path opacity="0.3" d="M77.4272 198.545C76.189 199.658 74.7211 200.44 73.145 200.825C71.5688 201.211 69.9297 201.188 68.3633 200.759C66.855 200.267 65.4849 199.38 64.3768 198.178C63.2688 196.977 62.4576 195.498 62.0166 193.876C63.8462 192.943 65.5213 191.697 66.9755 190.185C64.6561 189.568 62.2216 189.662 59.9495 190.455C59.3214 189.396 58.9452 188.189 58.8539 186.938C58.7625 185.687 58.9588 184.432 59.4255 183.281C62.0617 182.024 65.0272 181.803 67.8004 182.657C66.6532 181.589 65.3139 180.784 63.8651 180.293C62.4163 179.801 60.8888 179.632 59.3769 179.798C59.158 175.053 59.8517 170.31 61.4149 165.865C67.1696 166.177 72.7594 168.838 74.642 170.752C74.7302 172.96 74.5144 175.171 74.0015 177.313C74.7449 176.904 75.38 176.301 75.8482 175.559C76.3163 174.818 76.6024 173.962 76.6799 173.07C80.2803 174.037 81.8233 175.961 82.3861 177.437C81.8665 180.181 80.6893 182.732 78.9702 184.841C82.357 183.749 83.7351 179.704 83.7351 179.704C87.0152 188.157 86.3747 197.723 77.4272 198.545Z" fill="white"/>
<path d="M77.6304 199.466C77.6738 199.463 77.7162 199.451 77.7553 199.431C77.7944 199.411 77.8294 199.382 77.8582 199.347C77.8871 199.313 77.9092 199.272 77.9234 199.228C77.9376 199.184 77.9436 199.138 77.941 199.091C77.3878 191.293 73.2246 178.431 63.3067 167.815C63.2775 167.773 63.2403 167.739 63.1975 167.714C63.1548 167.689 63.1076 167.674 63.059 167.67C63.0105 167.667 62.9618 167.674 62.9162 167.692C62.8706 167.711 62.8292 167.739 62.7948 167.776C62.7604 167.813 62.7338 167.857 62.7168 167.906C62.6997 167.955 62.6927 168.007 62.6962 168.059C62.6996 168.111 62.7135 168.162 62.7367 168.208C62.76 168.253 62.7922 168.293 62.8312 168.324C72.6326 178.795 76.7376 191.47 77.2714 199.143C77.2812 199.236 77.3239 199.321 77.3907 199.381C77.4576 199.441 77.5434 199.472 77.6304 199.466Z" fill="#F5F5F5"/>
<path d="M74.9043 202.726C76.0594 203.735 77.4207 204.437 78.8772 204.776C80.3337 205.115 81.8444 205.08 83.286 204.674C84.7276 204.269 86.0594 203.504 87.173 202.443C88.2865 201.382 89.1503 200.053 89.6939 198.566C88.0394 197.76 86.5262 196.656 85.2202 195.302C87.411 194.741 89.7015 194.812 91.858 195.51C92.5156 194.621 92.9501 193.567 93.1199 192.448C93.2898 191.328 93.1894 190.181 92.8284 189.115C90.3179 188.009 87.5354 187.83 84.9193 188.605C87.2461 186.656 90.1774 185.727 93.1196 186.006C93.6231 181.811 93.2451 177.548 92.0133 173.529C86.5205 173.882 81.0861 176.315 79.2034 178.041C78.9897 179.983 79.065 181.948 79.4266 183.864C78.761 183.527 78.1957 182.998 77.7931 182.337C77.3906 181.677 77.1666 180.91 77.1461 180.121C73.7107 181.015 72.158 182.741 71.5466 184.041C71.8768 186.458 72.8391 188.726 74.3221 190.581C71.2167 189.635 70.1589 186.068 70.1589 186.068C66.5488 193.576 66.5974 202.008 74.9043 202.726Z" fill="#AE2BFF"/>
<path opacity="0.3" d="M74.9043 202.726C76.0594 203.735 77.4207 204.437 78.8772 204.776C80.3337 205.115 81.8444 205.08 83.286 204.674C84.7276 204.269 86.0594 203.504 87.173 202.443C88.2865 201.382 89.1503 200.053 89.6939 198.566C88.0394 197.76 86.5262 196.656 85.2202 195.302C87.411 194.741 89.7015 194.812 91.858 195.51C92.5156 194.621 92.9501 193.567 93.1199 192.448C93.2898 191.328 93.1894 190.181 92.8284 189.115C90.3179 188.009 87.5354 187.83 84.9193 188.605C87.2461 186.656 90.1774 185.727 93.1196 186.006C93.6231 181.811 93.2451 177.548 92.0133 173.529C86.5205 173.882 81.0861 176.315 79.2034 178.041C78.9897 179.983 79.065 181.948 79.4266 183.864C78.761 183.527 78.1957 182.998 77.7931 182.337C77.3906 181.677 77.1666 180.91 77.1461 180.121C73.7107 181.015 72.158 182.741 71.5466 184.041C71.8768 186.458 72.8391 188.726 74.3221 190.581C71.2167 189.635 70.1589 186.068 70.1589 186.068C66.5488 193.576 66.5974 202.008 74.9043 202.726Z" fill="white"/>
<path d="M74.6818 203.568C74.7615 203.569 74.8388 203.539 74.8995 203.484C74.9601 203.428 75 203.351 75.0117 203.267C75.9822 196.477 80.5626 185.216 90.4223 175.806C90.4824 175.737 90.5157 175.646 90.5157 175.552C90.5157 175.457 90.4824 175.366 90.4223 175.297C90.3589 175.23 90.2735 175.193 90.1846 175.193C90.0957 175.193 90.0103 175.23 89.9468 175.297C79.961 184.832 75.2931 196.279 74.3324 203.184C74.3184 203.276 74.3391 203.37 74.39 203.446C74.441 203.522 74.518 203.574 74.6041 203.589L74.6818 203.568Z" fill="white"/>
<path d="M69.1487 355.849L50.8364 356.421L32.5145 355.849C31.7284 369.106 34.1448 382.602 37.4734 389.205C38.2637 390.899 39.5342 392.282 41.1029 393.156C46.5083 396.504 55.2422 396.504 60.6088 393.156C62.2011 392.268 63.4765 390.843 64.2383 389.101C67.5475 382.467 69.9348 369.033 69.1487 355.849Z" fill="white"/>
<path d="M63.7438 347.812C70.9154 352.252 70.9542 359.447 63.8311 363.887C56.7081 368.326 45.1016 368.326 37.9203 363.887C30.739 359.447 30.7099 352.252 37.8427 347.812C44.9754 343.372 56.5722 343.372 63.7438 347.812Z" fill="#EBEBEB"/>
<path d="M60.911 349.579C66.5104 353.041 66.5395 358.656 60.9692 362.118C55.3988 365.581 46.4125 365.581 40.7646 362.118C35.1166 358.656 35.136 353.041 40.6966 349.579C46.2573 346.116 55.3115 346.116 60.911 349.579Z" fill="#E0E0E0"/>
<g opacity="0.15">
<path d="M60.911 349.571C66.5104 353.033 66.5395 358.648 60.9692 362.111C55.3988 365.573 46.4125 365.573 40.7646 362.111C35.1166 358.648 35.136 353.033 40.6966 349.571C46.2573 346.109 55.3115 346.109 60.911 349.571Z" fill="black"/>
</g>
<path d="M80.9495 272.107C39.6766 286.591 39.2981 316.172 48.6046 337.28C50.9531 341.553 58.0568 343.841 64.2385 317.638L53.3889 319.084L66.0047 312.221L69.2945 301.709L58.7555 302.551L72.1282 296.521C74.599 288.197 77.545 280.044 80.9495 272.107Z" fill="#AE2BFF"/>
<path opacity="0.2" d="M80.9495 272.107C39.6766 286.591 39.2981 316.172 48.6046 337.28C50.9531 341.553 58.0568 343.841 64.2385 317.638L53.3889 319.084L66.0047 312.221L69.2945 301.709L58.7555 302.551L72.1282 296.521C74.599 288.197 77.545 280.044 80.9495 272.107Z" fill="black"/>
<path opacity="0.2" d="M80.9495 272.107C39.6766 286.591 39.2981 316.172 48.6046 337.28C50.9531 341.553 58.0568 343.841 64.2385 317.638L53.3889 319.084L66.0047 312.221L69.2945 301.709L58.7555 302.551L72.1282 296.521C74.599 288.197 77.545 280.044 80.9495 272.107Z" fill="white"/>
<path d="M69.275 279.513C47.508 297.189 45.538 317.506 51.6906 338.686C49.5168 320.033 47.1683 301.172 69.275 279.513Z" fill="white"/>
<path d="M11.0391 302.154C51.72 308.299 56.6499 335.78 51.2639 357.064C49.7403 361.452 43.5004 364.852 33.6601 341.551L43.9856 341L31.1563 336.84L26.4691 327.639L36.4064 326.547L23.024 323.313C19.4386 316.003 15.4361 308.936 11.0391 302.154Z" fill="#AE2BFF"/>
<path opacity="0.2" d="M11.0391 302.154C51.72 308.299 56.6499 335.78 51.2639 357.064C49.7403 361.452 43.5004 364.852 33.6601 341.551L43.9856 341L31.1563 336.84L26.4691 327.639L36.4064 326.547L23.024 323.313C19.4386 316.003 15.4361 308.936 11.0391 302.154Z" fill="white"/>
<path d="M23.0527 306.974C46.0716 319.587 51.05 338.167 48.6045 358.963C47.7311 341.203 47.0033 323.215 23.0527 306.974Z" fill="white"/>
<path opacity="0.1" d="M11.0391 302.154C51.72 308.299 56.6499 335.78 51.2639 357.064C49.7403 361.452 43.5004 364.852 33.6601 341.551L43.9856 341L31.1563 336.84L26.4691 327.639L36.4064 326.547L23.024 323.313C19.4386 316.003 15.4361 308.936 11.0391 302.154Z" fill="black"/>
<path d="M92.8582 312.458C55.5447 313.114 48.2179 337.299 50.8672 357.169C51.7794 361.328 57.0683 365.112 68.3351 345.294L59.1062 343.516L71.1009 341.322L76.2831 333.597L67.4423 331.413L79.8446 330.103C83.8413 323.942 88.1874 318.049 92.8582 312.458Z" fill="#AE2BFF"/>
<path d="M81.5217 315.365C59.4539 323.964 53.0392 340.09 53.0586 359.118C55.6982 343.251 58.2408 327.125 81.5217 315.365Z" fill="white"/>
<path opacity="0.2" d="M92.8582 312.458C55.5447 313.114 48.2179 337.299 50.8672 357.169C51.7794 361.328 57.0683 365.112 68.3351 345.294L59.1062 343.516L71.1009 341.322L76.2831 333.597L67.4423 331.413L79.8446 330.103C83.8413 323.942 88.1874 318.049 92.8582 312.458Z" fill="white"/>
<path d="M405.573 78.3706C404.575 76.1856 402.986 74.3738 401.012 73.1718L282.375 0.855852C281.82 0.628909 281.232 0.505814 280.638 0.491932C274.524 0.356762 268.391 6.52259 267.527 9.75627C267.331 10.1648 267.228 10.6173 267.227 11.0768V285.929C267.226 288.075 267.755 290.183 268.761 292.038C269.766 293.893 271.212 295.431 272.952 296.493L391.599 368.934C391.746 369.011 391.899 369.077 392.055 369.132C399.129 372.345 406.669 365.659 406.669 358.661V83.7358C406.69 81.8812 406.315 80.0461 405.573 78.3706Z" fill="#37474F"/>
<path d="M267.566 9.74733C268.43 6.51365 274.563 0.389415 280.677 0.482994C281.262 0.500405 281.839 0.623442 282.385 0.846913L400.973 73.1732C402.719 74.2373 404.175 75.7721 405.196 77.6252C406.218 79.4783 406.769 81.5854 406.796 83.7373V358.694C406.796 365.691 399.256 372.377 392.181 369.164C392.025 369.109 391.873 369.043 391.725 368.967L272.991 296.495C271.252 295.432 269.805 293.895 268.8 292.039C267.794 290.184 267.265 288.076 267.266 285.931V11.0886C267.264 10.6222 267.367 10.1622 267.566 9.74733Z" fill="#455A64"/>
<path d="M390.2 112.797C390.209 111.725 389.953 110.669 389.459 109.736C388.965 108.803 388.25 108.026 387.386 107.484L277.182 40.3671C276.75 40.1023 276.261 39.9641 275.763 39.9663C275.265 39.9686 274.777 40.1113 274.347 40.3801C273.917 40.6489 273.561 41.0343 273.314 41.4974C273.067 41.9606 272.939 42.4852 272.941 43.0185V264.718C272.939 265.789 273.2 266.842 273.699 267.769C274.199 268.697 274.918 269.466 275.785 270L385.959 337.273C386.391 337.538 386.879 337.676 387.376 337.674C387.873 337.672 388.361 337.53 388.79 337.263C389.22 336.995 389.576 336.611 389.824 336.15C390.071 335.688 390.201 335.165 390.2 334.632V112.797Z" fill="#AE2BFF"/>
<path opacity="0.2" d="M390.2 112.797C390.209 111.725 389.953 110.669 389.459 109.736C388.965 108.803 388.25 108.026 387.386 107.484L277.182 40.3671C276.75 40.1023 276.261 39.9641 275.763 39.9663C275.265 39.9686 274.777 40.1113 274.347 40.3801C273.917 40.6489 273.561 41.0343 273.314 41.4974C273.067 41.9606 272.939 42.4852 272.941 43.0185V264.718C272.939 265.789 273.2 266.842 273.699 267.769C274.199 268.697 274.918 269.466 275.785 270L385.959 337.273C386.391 337.538 386.879 337.676 387.376 337.674C387.873 337.672 388.361 337.53 388.79 337.263C389.22 336.995 389.576 336.611 389.824 336.15C390.071 335.688 390.201 335.165 390.2 334.632V112.797Z" fill="black"/>
<path opacity="0.3" d="M406.795 83.7352V358.692C406.795 365.689 399.254 372.375 392.18 369.162C392.606 369.327 393.062 369.38 393.512 369.316C393.961 369.253 394.389 369.074 394.76 368.796C395.131 368.517 395.434 368.147 395.644 367.717C395.853 367.287 395.963 366.809 395.964 366.324V91.3359C395.952 88.9405 395.277 86.6028 394.024 84.619L405.669 78.3804C406.42 80.0501 406.805 81.8817 406.795 83.7352Z" fill="black"/>
<path opacity="0.1" d="M280.638 0.491051C281.223 0.508462 281.8 0.631499 282.346 0.854971L400.973 73.1709C402.947 74.3729 404.537 76.1847 405.534 78.3698L393.889 84.6084C392.92 83.0207 391.613 81.7022 390.075 80.7612L271.506 8.44528C271.171 8.24126 270.799 8.11289 270.416 8.06806C270.032 8.02323 269.644 8.06289 269.275 8.1846C268.906 8.3063 268.564 8.50748 268.27 8.77581C267.976 9.04413 267.737 9.37394 267.566 9.745C268.42 6.52171 274.554 0.387074 280.638 0.491051Z" fill="white"/>
<path d="M316.951 53.8566C316.117 53.3367 315.428 53.7422 315.418 54.7716C315.449 55.3346 315.604 55.8818 315.868 56.3693C316.133 56.8569 316.5 57.2712 316.942 57.579L340.232 71.9798C341.067 72.4997 341.736 72.063 341.746 71.0336C341.718 70.4765 341.566 69.9345 341.305 69.452C341.044 68.9695 340.679 68.5602 340.242 68.2574L316.951 53.8566Z" fill="#263238"/>
<path d="M346.199 71.9436C345.365 71.4341 344.695 71.8397 344.695 72.869C344.719 73.4304 344.867 73.9777 345.127 74.4658C345.386 74.9539 345.751 75.3688 346.19 75.6764C347.024 76.1859 347.713 75.77 347.713 74.7406C347.685 74.1794 347.533 73.6333 347.27 73.1471C347.007 72.6609 346.64 72.2485 346.199 71.9436Z" fill="#263238"/>
<path d="M331.303 51.7682C329.634 50.7284 328.295 51.5498 328.285 53.6086C328.339 54.728 328.638 55.8181 329.159 56.7901C329.681 57.7622 330.408 58.5887 331.284 59.2025C332.943 60.2423 334.331 59.3897 334.331 57.3413C334.271 56.2227 333.966 55.135 333.44 54.1666C332.913 53.1982 332.181 52.3765 331.303 51.7682Z" fill="#263238"/>
<path d="M331.293 310.606C327.907 308.526 325.17 310.179 325.16 314.349C325.26 316.636 325.864 318.865 326.924 320.853C327.983 322.841 329.467 324.532 331.255 325.786C334.641 327.866 337.456 326.161 337.465 321.991C337.344 319.707 336.722 317.486 335.649 315.508C334.577 313.53 333.085 311.85 331.293 310.606Z" fill="#263238"/>
<path d="M371.579 120.389C371.443 120.004 371.287 119.62 371.122 119.245C370.446 117.766 369.476 116.464 368.279 115.429C367.867 115.084 367.433 114.772 366.979 114.494L259.289 48.8529C259.112 48.7676 258.926 48.7048 258.735 48.6658C258.416 48.5941 258.091 48.5489 257.765 48.5306C254.301 48.4578 250.826 50.6101 248.517 52.9496C247.349 54.0354 246.441 55.4043 245.867 56.9423C245.788 57.127 245.724 57.3183 245.673 57.5142C245.622 57.7212 245.596 57.9344 245.596 58.1485V307.62C245.595 309.568 246.077 311.48 246.993 313.162C247.219 313.577 247.468 313.977 247.74 314.358C248.574 315.514 249.613 316.482 250.797 317.207L358.516 382.952C358.649 383.023 358.785 383.085 358.924 383.139C358.924 383.139 358.924 383.139 358.973 383.139C365.397 386.05 372.238 380.019 372.238 373.625V124.132C372.223 122.853 371.999 121.586 371.579 120.389Z" fill="#AE2BFF"/>
<path d="M245.848 56.9426C246.634 54 252.205 48.4061 257.746 48.5309C258.28 48.5419 258.808 48.6509 259.308 48.8532L367.027 114.494C368.601 115.468 369.91 116.867 370.824 118.55C371.738 120.233 372.226 122.143 372.239 124.091V373.677C372.239 380.04 365.446 386.102 358.973 383.191C358.973 383.191 358.973 383.191 358.924 383.191C358.785 383.137 358.649 383.075 358.517 383.004L250.797 317.259C249.219 316.294 247.907 314.899 246.993 313.215C246.08 311.532 245.598 309.62 245.596 307.672V58.1487C245.592 57.7312 245.679 57.3185 245.848 56.9426Z" fill="#AE2BFF"/>
<path opacity="0.2" d="M372.189 124.137V373.682C372.189 380.045 365.396 386.107 358.924 383.196C358.924 383.196 358.924 383.196 358.875 383.196C359.262 383.346 359.678 383.394 360.086 383.336C360.494 383.278 360.884 383.116 361.221 382.863C361.559 382.61 361.835 382.274 362.026 381.883C362.217 381.493 362.318 381.058 362.32 380.617V131.072C362.312 128.901 361.704 126.781 360.573 124.979L371.122 119.333C371.813 120.827 372.178 122.47 372.189 124.137Z" fill="white"/>
<path opacity="0.4" d="M257.736 48.5309C258.27 48.5419 258.798 48.6509 259.298 48.8532L367.017 114.494C368.812 115.596 370.256 117.252 371.161 119.246L360.612 124.891C359.732 123.449 358.545 122.252 357.148 121.398L249.429 55.7469C249.122 55.5629 248.784 55.4477 248.435 55.4085C248.086 55.3692 247.733 55.4067 247.398 55.5186C247.063 55.6306 246.752 55.8146 246.486 56.0594C246.219 56.3042 246.002 56.6048 245.848 56.9426C246.673 54 252.194 48.4061 257.736 48.5309Z" fill="white"/>
<path opacity="0.3" d="M245.848 56.9426C246.634 54 252.205 48.4061 257.746 48.5309C258.28 48.5419 258.808 48.6509 259.308 48.8532L367.027 114.494C368.601 115.468 369.91 116.867 370.824 118.55C371.738 120.233 372.226 122.143 372.239 124.091V373.677C372.239 380.04 365.446 386.102 358.973 383.191C358.973 383.191 358.973 383.191 358.924 383.191C358.785 383.137 358.649 383.075 358.517 383.004L250.797 317.259C249.219 316.294 247.907 314.899 246.993 313.215C246.08 311.532 245.598 309.62 245.596 307.672V58.1487C245.592 57.7312 245.679 57.3185 245.848 56.9426Z" fill="white"/>
<path opacity="0.3" d="M255.039 124.137C255.036 122.873 254.825 121.621 254.418 120.435C254.825 121.621 255.036 122.873 255.039 124.137Z" fill="white"/>
<path d="M351.266 176.242L255.289 116.861C254.367 116.289 253.62 116.746 253.62 117.9L253.465 233.804C253.493 234.428 253.659 235.036 253.949 235.578C254.239 236.121 254.645 236.581 255.134 236.923L351.101 296.294C352.023 296.855 352.77 296.408 352.78 295.254L352.916 179.34C352.889 178.721 352.726 178.117 352.439 177.578C352.152 177.04 351.75 176.582 351.266 176.242Z" fill="#AE2BFF"/>
<path d="M259.688 78.3421L260.833 79.0492L260.842 73.7983L259.707 73.0913L259.688 78.3421Z" fill="white"/>
<path d="M257.727 77.1226L258.862 77.8297L258.881 73.577L257.736 72.8804L257.727 77.1226Z" fill="white"/>
<path d="M255.766 75.9059L256.901 76.6129L256.911 73.4624L255.775 72.7554L255.766 75.9059Z" fill="white"/>
<path d="M253.805 74.7072L254.94 75.4038L254.95 73.2827L253.805 72.5757V74.7072Z" fill="white"/>
<path d="M263.938 80.9609L270.915 85.2863L270.925 80.8777L263.947 76.5522L263.938 80.9609Z" fill="white"/>
<path d="M274.389 87.427L277.882 89.5897L277.892 85.1811L274.398 83.0288L274.389 87.427Z" fill="white"/>
<path d="M346.453 131.46L346.463 127.904L350.209 130.222L346.463 127.904L346.453 131.46Z" fill="white"/>
<path d="M346.453 131.46L350.209 133.778V130.222L346.463 127.904L346.453 131.46Z" fill="#AE2BFF"/>
<path d="M352.85 132.448V131.055L345.775 126.677V131.876L352.85 136.254V134.871L353.752 135.432V132.957L352.85 132.448ZM350.21 133.831L346.455 131.512V127.956L350.21 130.275V133.831Z" fill="white"/>
<path d="M335.633 125.234L342.61 129.549L342.63 125.141L335.642 120.826L335.633 125.234Z" fill="white"/>
<path d="M302.309 104.359L309.286 108.685L309.306 104.276L302.318 99.9507L302.309 104.359Z" fill="white"/>
<path d="M285.975 291.779L285.965 296.177L303.86 307.251L303.879 302.852L285.975 291.779Z" fill="#AE2BFF"/>
<path d="M312.081 293.568L293.662 282.162L293.643 286.56L312.071 297.956L312.081 293.568Z" fill="#AE2BFF"/>
<path d="M255.154 269.596L277.775 283.685L277.785 279.297L255.164 265.208L255.154 269.596Z" fill="#AE2BFF"/>
<path d="M288.703 279.1L255.184 258.263L255.174 262.651L288.693 283.488L288.703 279.1Z" fill="#AE2BFF"/>
<path d="M282.715 286.737L323.532 311.983L323.541 307.595L282.734 282.349L282.715 286.737Z" fill="#AE2BFF"/>
<path d="M281.628 289.095L255.184 272.74L255.174 277.128L281.618 293.483L281.628 289.095Z" fill="#AE2BFF"/>
<path d="M316.826 300.896L349.443 321.078L349.462 316.679L316.836 296.498L316.826 300.896Z" fill="#AE2BFF"/>
<path d="M328.287 314.932L349.433 328.013L349.443 323.625L328.307 310.544L328.287 314.932Z" fill="#AE2BFF"/>
<path d="M255.174 292.232L295.991 317.477L296 313.089L255.184 287.833L255.174 292.232Z" fill="#AE2BFF"/>
<path d="M255.184 298.208L255.174 302.607L281.628 318.962V314.564L255.184 298.208Z" fill="#AE2BFF"/>
<path d="M302.047 327.188L285.918 317.216V321.615L302.037 331.586L302.047 327.188Z" fill="#AE2BFF"/>
<path d="M257.619 244.417C257.372 244.222 257.08 244.102 256.775 244.069C256.469 244.036 256.161 244.092 255.882 244.23C254.912 244.812 254.912 246.715 255.882 248.482L256.435 249.522L259.89 255.927L263.364 253.848L263.927 253.505C264.898 252.922 264.898 251.009 263.927 249.242C263.519 248.43 262.924 247.743 262.2 247.245C261.95 247.055 261.659 246.938 261.354 246.906C261.05 246.873 260.742 246.925 260.463 247.058L259.9 247.401L259.347 246.361C258.936 245.565 258.341 244.896 257.619 244.417Z" fill="white"/>
<path d="M272.022 253.53C273.263 254.395 274.296 255.561 275.036 256.935C275.776 258.308 276.203 259.849 276.282 261.433C276.31 262.234 276.106 263.026 275.7 263.699L276.263 266.684L274.128 264.666C273.375 264.695 272.631 264.481 271.993 264.053C270.754 263.187 269.723 262.02 268.984 260.647C268.245 259.274 267.82 257.733 267.742 256.151C267.752 253.239 269.664 252.075 272.022 253.53Z" fill="white"/>
<path d="M308.577 160.272L313.536 169.984L320.746 172.677L323.793 182.783L331.081 188.357L331.926 197.86L338.583 205.773L337.117 213.748L342.494 223.21L338.884 228.876L342.455 238.983L337.05 241.78L338.457 251.533L331.78 251.19L330.897 259.633L323.599 256.181L320.513 262.492L313.313 256.264L308.315 259.83L301.919 251.45L295.505 251.907L290.536 242.185L283.336 239.503L280.288 229.386L273 223.823L272.166 214.309L265.508 206.407L266.964 198.422L261.588 188.96L265.198 183.293L261.627 173.186L267.042 170.389L265.625 160.636L272.302 160.99L273.185 152.547L280.482 155.989L283.578 149.677L290.769 155.905L295.767 152.349L302.162 160.73L308.577 160.272Z" fill="#AE2BFF"/>
<g opacity="0.4">
<path d="M308.577 160.272L313.536 169.984L320.746 172.677L323.793 182.783L331.081 188.357L331.926 197.86L338.583 205.773L337.117 213.748L342.494 223.21L338.884 228.876L342.455 238.983L337.05 241.78L338.457 251.533L331.78 251.19L330.897 259.633L323.599 256.181L320.513 262.492L313.313 256.264L308.315 259.83L301.919 251.45L295.505 251.907L290.536 242.185L283.336 239.503L280.288 229.386L273 223.823L272.166 214.309L265.508 206.407L266.964 198.422L261.588 188.96L265.198 183.293L261.627 173.186L267.042 170.389L265.625 160.636L272.302 160.99L273.185 152.547L280.482 155.989L283.578 149.677L290.769 155.905L295.767 152.349L302.162 160.73L308.577 160.272Z" fill="white"/>
</g>
<path d="M302.143 168.126C319.165 178.659 332.916 204.185 332.858 225.147C332.8 246.109 318.961 254.552 301.988 244.029C285.015 233.507 271.215 207.97 271.264 187.008C271.312 166.047 285.112 157.604 302.143 168.126Z" fill="#AE2BFF"/>
<g opacity="0.2">
<path d="M302.143 168.126C319.165 178.659 332.916 204.185 332.858 225.147C332.8 246.109 318.961 254.552 301.988 244.029C285.015 233.507 271.215 207.97 271.264 187.008C271.312 166.047 285.112 157.604 302.143 168.126Z" fill="white"/>
</g>
<path d="M323.104 201.08C323.852 201.538 324.298 203.045 323.628 203.305C317.505 205.697 304.53 211.426 296.611 219.661C296.333 219.89 295.992 220.014 295.641 220.014C295.29 220.014 294.949 219.89 294.67 219.661C293.827 219.111 293.152 218.308 292.73 217.352C289.093 209.51 285.02 201.91 280.531 194.592C279.716 193.261 280.24 192.003 281.21 192.606C281.29 192.653 281.365 192.709 281.434 192.772C286.326 197.179 290.609 202.308 294.156 208.005C306.151 199.749 317.039 199.967 322.784 200.955C322.897 200.976 323.005 201.019 323.104 201.08Z" fill="white"/>
<path d="M261.675 100.402C263.48 101.66 264.982 103.358 266.058 105.356C267.134 107.355 267.753 109.598 267.867 111.902C267.867 116.123 265.062 117.828 261.637 115.707C259.825 114.453 258.315 112.758 257.233 110.759C256.15 108.76 255.524 106.515 255.406 104.207C255.455 99.9858 258.24 98.2806 261.675 100.402Z" fill="white"/>
<path d="M307.054 133.405L273.535 112.568L273.525 116.966L307.044 137.803L307.054 133.405Z" fill="white"/>
<path d="M157.498 140.81H158.468C164.776 140.893 172.744 145.489 176.645 157.28L191.793 188.702L174.471 196.905L165.009 167.241L157.498 140.81Z" fill="#FFA8A7"/>
<path d="M169.639 161.681C170.842 165.393 170.92 169.396 171.114 173.316C171.308 177.236 171.725 181.988 173.404 185.481C175.252 184.111 177.464 183.418 179.71 183.506C181.956 183.595 184.115 184.459 185.865 185.97C187.121 187.097 188.086 188.551 188.669 190.191L174.472 196.908L165.01 167.244L160.361 150.888C162.5 151.935 164.423 153.429 166.016 155.282C167.609 157.135 168.841 159.311 169.639 161.681Z" fill="#F28F8F"/>
<path d="M174.317 191.259C174.973 189.509 176.037 187.967 177.406 186.781C178.774 185.594 180.404 184.802 182.138 184.48C185.593 183.887 189.523 185.821 191.765 188.711C193.648 191.155 193.357 194.461 192.163 197.362C191.168 199.617 189.475 201.433 187.371 202.501C185.267 203.568 182.883 203.821 180.624 203.216C176.16 201.885 172.628 195.865 174.317 191.259Z" fill="#FFA8A7"/>
<path d="M119.263 393.879C118.877 394.711 118.277 395.406 117.534 395.883C116.791 396.361 115.936 396.6 115.07 396.572C114.302 396.415 113.585 396.044 112.992 395.497C112.4 394.949 111.952 394.245 111.693 393.453C111.182 391.881 110.948 390.22 111.004 388.556C110.901 383.01 111.024 377.486 111.373 371.982C114.925 372.784 118.544 373.188 122.174 373.188L120.515 388.525C120.427 390.38 120.001 392.199 119.263 393.879Z" fill="#FFA8A7"/>
<path d="M107.986 385.925C109.325 381.319 110.791 376.567 110.48 371.795L111.373 372.023C111.024 377.534 110.901 383.059 111.004 388.597C110.948 390.261 111.182 391.922 111.693 393.495C111.952 394.286 112.399 394.991 112.992 395.538C113.585 396.086 114.302 396.457 115.07 396.614C115.936 396.641 116.791 396.402 117.534 395.925C118.277 395.448 118.877 394.752 119.263 393.921C120.001 392.24 120.427 390.421 120.514 388.566L122.174 373.271H123.319C122.349 378.99 123.038 384.865 123.377 390.677C123.717 396.489 123.659 402.541 121.33 407.791C120.791 409.21 119.873 410.426 118.69 411.285C118.039 411.663 117.323 411.894 116.585 411.966C115.848 412.037 115.105 411.947 114.401 411.701C112.997 411.196 111.721 410.349 110.674 409.226C108.3 406.789 106.718 403.6 106.162 400.128C105.405 395.356 106.647 390.521 107.986 385.925Z" fill="#455A64"/>
<path d="M164.263 381.518L163.38 387.216C159.158 385.054 157.799 382.631 157.799 382.631C157.693 378.264 157.741 373.762 157.799 371.568C158.925 374.23 161.38 376.028 162.914 378.482C163.478 379.431 163.931 380.451 164.263 381.518Z" fill="#455A64"/>
<path d="M165.621 386.587L163.379 387.211L164.262 381.513C164.815 383.146 165.155 384.892 165.621 386.587Z" fill="#455A64"/>
<path opacity="0.2" d="M164.263 381.518L163.38 387.216C159.158 385.054 157.799 382.631 157.799 382.631C157.693 378.264 157.741 373.762 157.799 371.568C158.925 374.23 161.38 376.028 162.914 378.482C163.478 379.431 163.931 380.451 164.263 381.518Z" fill="black"/>
<path opacity="0.3" d="M165.621 386.587L163.379 387.211L164.262 381.513C164.815 383.146 165.155 384.892 165.621 386.587Z" fill="black"/>
<path d="M157.565 365.25C158.012 363.743 158.597 362.287 159.312 360.904C159.374 363.245 160.046 365.522 161.253 367.475C162.767 370.095 164.795 372.352 166.261 375.024C168.037 378.268 168.958 382.084 171.288 384.891C172.437 386.251 173.865 387.305 175.46 387.971C177.055 388.637 178.773 388.896 180.478 388.728C181.757 388.678 182.968 388.096 183.855 387.106C184.209 386.614 184.404 386.012 184.408 385.39C185.556 386.711 186.828 387.903 188.202 388.946C189.736 390.09 191.579 391.296 191.832 393.282C191.872 394.113 191.685 394.938 191.293 395.657C190.902 396.375 190.324 396.956 189.629 397.327C188.222 398.026 186.687 398.381 185.136 398.367C181.815 398.677 178.47 398.371 175.247 397.462C172.009 396.517 169.206 394.335 167.367 391.327C166.577 389.831 165.983 388.225 165.601 386.555C165.164 384.86 164.795 383.113 164.242 381.481C163.902 380.412 163.439 379.392 162.864 378.445C161.331 375.991 158.876 374.192 157.75 371.53C157.692 371.385 157.624 371.25 157.565 371.104C156.991 369.201 156.991 367.153 157.565 365.25Z" fill="#455A64"/>
<path d="M180.497 388.729C178.793 388.897 177.075 388.638 175.48 387.972C173.885 387.306 172.456 386.251 171.307 384.892C168.978 382.084 168.056 378.269 166.28 375.024C164.815 372.352 162.787 370.096 161.273 367.476C160.066 365.523 159.393 363.246 159.332 360.904L159.885 359.802C164.475 360.676 169.502 360.988 173.918 362.589C175.279 367.562 177.012 372.409 179.1 377.083C180.515 380.107 182.315 382.907 184.447 385.401C184.443 386.023 184.249 386.625 183.894 387.117C183.001 388.108 181.782 388.686 180.497 388.729Z" fill="#FFA8A7"/>
<path d="M168.066 183.492C168.318 187.651 168.567 191.81 168.813 195.969C177.596 234.763 174.975 292.719 174.975 292.719L174.704 363.424C173.459 364.298 172.065 364.898 170.602 365.189C169.139 365.48 167.636 365.456 166.182 365.118C164.727 364.781 163.35 364.136 162.131 363.222C160.912 362.308 159.874 361.143 159.08 359.795C157.585 342.42 150.045 315.085 152.286 293.78C149.249 276.967 146.988 253.052 146.988 253.052L139.603 294.414L124.221 374.237C117.428 377.357 111.402 375.215 109.441 372.386C111.014 328.352 110.344 307.183 116.681 286.824C114.74 232.205 114.119 207.521 126.541 188.753L126.385 181.662L168.066 183.492Z" fill="#AE2BFF"/>
<path opacity="0.3" d="M168.066 183.492C168.318 187.651 168.567 191.81 168.813 195.969C177.596 234.763 174.975 292.719 174.975 292.719L174.704 363.424C173.459 364.298 172.065 364.898 170.602 365.189C169.139 365.48 167.636 365.456 166.182 365.118C164.727 364.781 163.35 364.136 162.131 363.222C160.912 362.308 159.874 361.143 159.08 359.795C157.585 342.42 150.045 315.085 152.286 293.78C149.249 276.967 146.988 253.052 146.988 253.052L139.603 294.414L124.221 374.237C117.428 377.357 111.402 375.215 109.441 372.386C111.014 328.352 110.344 307.183 116.681 286.824C114.74 232.205 114.119 207.521 126.541 188.753L126.385 181.662L168.066 183.492Z" fill="black"/>
<path opacity="0.2" d="M148.658 243.828C153.256 242.935 157.585 240.862 161.273 237.787C160.567 239.974 159.35 241.932 157.738 243.474C156.126 245.015 154.173 246.089 152.064 246.593L148.182 263.833L147.018 253.165L148.658 243.828Z" fill="black"/>
<path d="M152.732 140.083L157.187 140.437C158.043 140.505 158.873 140.78 159.616 141.241C160.359 141.702 160.995 142.337 161.476 143.099L171.763 159.423C173.276 161.811 174.019 164.663 173.877 167.545C173.735 170.427 172.716 173.18 170.977 175.384C170.326 176.205 169.843 177.163 169.559 178.196C169.275 179.23 169.196 180.315 169.327 181.383L172.84 218.638C152.616 234.723 125.036 225.074 115.836 219.823C116.185 211.744 119.378 201.212 123.202 194.016C124.426 191.729 125.214 189.203 125.519 186.586C125.824 183.969 125.64 181.313 124.978 178.773L122.066 167.575L126.278 140.915L152.732 140.083Z" fill="#455A64"/>
<path d="M169.57 102.287C169.92 104.293 171.395 110.334 169.92 113.724C169.211 115.336 168.415 116.313 168.949 118.008C169.483 119.703 171.705 120.68 172.006 122.552C172.258 124.059 171.152 125.369 170.473 126.711C169.995 127.666 169.721 128.723 169.669 129.805C169.618 130.887 169.79 131.968 170.174 132.971C170.558 133.973 171.144 134.873 171.89 135.604C172.636 136.336 173.524 136.881 174.49 137.202C173.195 137.114 171.933 136.722 170.794 136.054C169.655 135.385 168.668 134.457 167.901 133.334C167.214 132.208 166.776 130.928 166.622 129.593C166.467 128.257 166.599 126.902 167.008 125.629C167.309 124.908 167.528 124.151 167.658 123.373C167.775 121.834 166.814 120.472 166.057 119.152C164.353 116.29 163.636 112.881 164.029 109.513C164.466 106.134 166.785 103.805 169.57 102.287Z" fill="#263238"/>
<path d="M169.92 106.081C169.907 102.841 169.147 99.6547 167.707 96.8058C163.825 88.7476 155.887 82.8833 147.435 82.7481C143.443 82.6228 139.525 83.909 136.284 86.4081C132.752 89.2363 130.461 93.5721 129.19 98.0951C127.83 102.384 127.661 107.004 128.705 111.394C129.879 115.709 132.829 119.608 136.808 121.043C139.424 121.832 142.169 122.005 144.853 121.552C150.622 120.894 156.289 119.455 161.719 117.268C163.757 116.447 165.824 115.813 167.212 113.952C168.902 111.721 169.855 108.953 169.92 106.081Z" fill="#263238"/>
<path d="M152.732 130.357V140.942C152.732 140.942 160.797 146.463 157.4 149.385C150.995 154.906 137.254 140.879 137.254 140.879V123.224L152.732 130.357Z" fill="#FFA8A7"/>
<path d="M137.254 123.224C139.146 132.499 148.288 138.207 152.732 139.361V130.357L137.254 123.224Z" fill="#F28F8F"/>
<path d="M126.89 112.941C127.469 111.774 128.442 110.886 129.61 110.46C130.778 110.034 132.054 110.1 133.177 110.646C134.301 111.192 135.189 112.176 135.66 113.398C136.13 114.62 136.149 115.989 135.711 117.225C136.133 117.41 136.591 117.481 137.044 117.432C137.498 117.383 137.933 117.215 138.312 116.944C139.091 116.366 139.676 115.535 139.981 114.573C140.271 113.28 140.475 111.967 140.593 110.643C143.058 110.227 144.474 105.881 144.474 105.444C145.076 105.569 156.508 106.13 160.196 99.0288C165.174 99.9334 166.863 106.182 166.989 106.151C167.365 108.352 167.524 110.59 167.464 112.827C167.281 117.421 166.52 121.967 165.203 126.344C164.233 129.806 163.379 133.341 160.099 135.14C158.187 136.112 156.054 136.473 153.956 136.18C146.26 135.338 139.001 128.985 135.517 121.758C134.906 122.551 134.055 123.089 133.111 123.279C132.168 123.469 131.193 123.299 130.355 122.798C128.931 121.649 127.78 120.156 126.997 118.441C126.605 117.588 126.393 116.654 126.374 115.704C126.356 114.754 126.532 113.81 126.89 112.941Z" fill="#FFA8A7"/>
<path d="M156.838 113.56L160.817 121.452L155.684 122.253L156.838 113.56Z" fill="#F28F8F"/>
<path d="M150.677 124.693L154.471 126.876C154.122 127.333 153.643 127.656 153.107 127.795C152.571 127.934 152.007 127.881 151.501 127.646C151.068 127.33 150.75 126.864 150.6 126.326C150.449 125.789 150.477 125.212 150.677 124.693Z" fill="#F28F8F"/>
<path opacity="0.3" d="M150.677 124.693L154.471 126.876C154.122 127.333 153.643 127.656 153.107 127.795C152.571 127.934 152.007 127.881 151.501 127.646C151.068 127.33 150.75 126.864 150.6 126.326C150.449 125.789 150.477 125.212 150.677 124.693Z" fill="black"/>
<path d="M152.841 127.842C152.386 127.916 151.921 127.847 151.501 127.645C151.151 127.42 150.871 127.088 150.698 126.691C150.525 126.295 150.467 125.852 150.531 125.419C151.13 125.43 151.703 125.688 152.13 126.139C152.556 126.59 152.804 127.2 152.821 127.842H152.841Z" fill="#F28F8F"/>
<path d="M149.443 113.532C149.401 113.839 149.446 114.153 149.571 114.433C149.696 114.713 149.896 114.947 150.145 115.105C150.395 115.264 150.682 115.34 150.972 115.323C151.261 115.306 151.539 115.198 151.771 115.012C152.003 114.826 152.179 114.57 152.275 114.278C152.371 113.985 152.385 113.668 152.313 113.367C152.241 113.066 152.088 112.795 151.873 112.587C151.657 112.38 151.389 112.245 151.102 112.201C150.912 112.172 150.717 112.183 150.531 112.234C150.344 112.285 150.169 112.375 150.015 112.498C149.861 112.622 149.731 112.777 149.633 112.954C149.535 113.131 149.47 113.328 149.443 113.532Z" fill="#263238"/>
<path d="M161.68 114.894C161.64 115.201 161.687 115.514 161.813 115.793C161.94 116.072 162.141 116.304 162.39 116.461C162.64 116.618 162.927 116.692 163.216 116.674C163.505 116.656 163.783 116.547 164.014 116.36C164.245 116.173 164.419 115.917 164.515 115.625C164.61 115.332 164.623 115.015 164.55 114.715C164.478 114.415 164.325 114.144 164.109 113.937C163.893 113.73 163.626 113.596 163.339 113.552C163.148 113.523 162.953 113.535 162.766 113.586C162.579 113.638 162.403 113.729 162.249 113.853C162.095 113.978 161.965 114.134 161.867 114.313C161.77 114.491 161.706 114.689 161.68 114.894Z" fill="#263238"/>
<path d="M163.912 108.915L166.823 111.785C167.021 111.381 167.097 110.921 167.041 110.469C166.986 110.017 166.801 109.594 166.513 109.258C166.152 108.947 165.718 108.75 165.258 108.689C164.799 108.629 164.332 108.707 163.912 108.915Z" fill="#263238"/>
<path d="M151.569 106.843L148.037 108.745C147.957 108.295 148.008 107.828 148.181 107.409C148.354 106.989 148.642 106.636 149.007 106.396C149.431 106.212 149.895 106.157 150.346 106.236C150.798 106.314 151.221 106.524 151.569 106.843Z" fill="#263238"/>
<path d="M140.438 109.793C141.001 111.997 141.554 114.441 140.593 116.489C140.011 117.726 138.924 118.641 138.342 119.879C137.768 121.318 137.619 122.911 137.915 124.443C138.209 125.965 138.394 127.508 138.468 129.06C138.448 130.215 138.209 131.355 137.767 132.409C137.324 133.464 136.687 134.411 135.894 135.194C135.1 135.977 134.167 136.58 133.15 136.966C132.133 137.352 131.053 137.513 129.977 137.44C131.626 137.69 133.625 136.078 134.479 134.539C135.272 132.947 135.574 131.128 135.343 129.34C135.188 127.562 134.732 125.826 134.441 124.069C134.057 122.322 134.057 120.503 134.441 118.756C134.916 116.978 136.032 115.272 135.692 113.463C135.508 112.475 134.906 111.612 134.809 110.614C134.764 109.961 134.933 109.312 135.288 108.778C135.642 108.244 136.159 107.86 136.75 107.692C137.983 107.401 140.108 108.524 140.438 109.793Z" fill="#263238"/>
<path opacity="0.3" d="M153.664 88.566C152.776 89.6732 151.703 90.5935 150.501 91.2798C146.203 93.9035 141.303 95.1756 136.361 94.9502C135.364 94.9623 134.374 94.7608 133.45 94.3575C132.82 94.019 132.276 93.5212 131.865 92.9071C131.454 92.293 131.189 91.5811 131.092 90.8327C132.36 88.3335 134.166 86.1947 136.361 84.5941C139.552 82.4439 143.268 81.3582 147.036 81.4748C149.271 81.5178 151.488 81.9137 153.616 82.6497C154.127 83.2312 154.482 83.9496 154.644 84.7293C154.746 85.4067 154.712 86.0996 154.542 86.7615C154.373 87.4233 154.074 88.0386 153.664 88.566Z" fill="black"/>
<path d="M156.614 78.2268C156.138 73.9949 152.858 70.5637 149.102 69.1184C145.334 67.7516 141.234 67.877 137.544 69.472C133.88 71.0892 130.701 73.7545 128.354 77.1766C126.646 79.5993 125.278 82.5522 125.608 85.578C125.977 89.0924 128.684 91.9933 131.838 93.0747C135.071 94.0505 138.497 94.0072 141.708 92.9499C143.823 92.2845 150.587 89.3731 152.285 87.4392C154.479 84.9229 156.992 81.5957 156.614 78.2268Z" fill="#263238"/>
<path opacity="0.2" d="M134.605 170.458C136.725 173.715 139.818 176.1 143.373 177.219C146.928 178.338 150.733 178.125 154.16 176.614C152.708 178.124 150.925 179.22 148.976 179.801C147.026 180.383 144.971 180.431 143 179.941C139.108 178.87 135.77 174.576 134.605 170.458Z" fill="black"/>
<path d="M161.351 217.561C161.345 217.585 161.345 217.61 161.351 217.634C161.341 217.664 161.341 217.697 161.351 217.727L162.904 219.63C162.898 219.589 162.898 219.547 162.904 219.505C162.962 219.796 163.37 219.786 164.039 219.38L177.053 211.541C178.06 210.918 178.915 210.049 179.547 209.004L190.862 186.43C191.047 186.056 191.037 185.837 190.862 185.734H190.911L189.416 183.831C189.36 183.778 189.288 183.749 189.213 183.748H189.125H189.048H188.97H188.902H188.834H188.766H188.698H188.63H188.553H188.485H188.417H188.339L175.326 191.587H175.258H175.18L175.112 191.639H175.054H174.996H174.947L174.782 191.795V191.847V191.899L174.734 191.962L174.685 192.024V192.097L174.637 192.17V192.242L174.588 192.315L174.539 192.388V192.461V192.523V192.586L163.224 215.159V215.221C163.22 215.242 163.22 215.263 163.224 215.284V215.346C163.22 215.367 163.22 215.388 163.224 215.409C163.221 215.429 163.221 215.45 163.224 215.471C162.965 215.205 162.619 215.06 162.26 215.067C161.902 215.075 161.561 215.235 161.312 215.513C161.064 215.79 160.929 216.161 160.936 216.545C160.943 216.929 161.093 217.295 161.351 217.561ZM190.562 185.692C190.562 185.692 190.61 185.692 190.649 185.692C190.62 185.69 190.591 185.69 190.562 185.692ZM175.423 195.05C175.529 194.935 175.656 194.831 175.782 194.717C175.656 194.831 175.529 194.904 175.423 195.019V195.05ZM174.802 195.747L174.966 195.57L174.802 195.747ZM162.914 219.412C162.91 219.388 162.91 219.363 162.914 219.339C162.909 219.377 162.909 219.415 162.914 219.453C162.914 219.453 162.914 219.391 162.914 219.38V219.412Z" fill="#E0E0E0"/>
<path opacity="0.2" d="M161.351 217.561C161.345 217.585 161.345 217.61 161.351 217.634C161.341 217.664 161.341 217.697 161.351 217.727L162.904 219.63C162.898 219.589 162.898 219.547 162.904 219.505C162.962 219.796 163.37 219.786 164.039 219.38L177.053 211.541C178.06 210.918 178.915 210.049 179.547 209.004L190.862 186.43C191.047 186.056 191.037 185.837 190.862 185.734H190.911L189.416 183.831C189.36 183.778 189.288 183.749 189.213 183.748H189.125H189.048H188.97H188.902H188.834H188.766H188.698H188.63H188.553H188.485H188.417H188.339L175.326 191.587H175.258H175.18L175.112 191.639H175.054H174.996H174.947L174.782 191.795V191.847V191.899L174.734 191.962L174.685 192.024V192.097L174.637 192.17V192.242L174.588 192.315L174.539 192.388V192.461V192.523V192.586L163.224 215.159V215.221C163.22 215.242 163.22 215.263 163.224 215.284V215.346C163.22 215.367 163.22 215.388 163.224 215.409C163.221 215.429 163.221 215.45 163.224 215.471C162.965 215.205 162.619 215.06 162.26 215.067C161.902 215.075 161.561 215.235 161.312 215.513C161.064 215.79 160.929 216.161 160.936 216.545C160.943 216.929 161.093 217.295 161.351 217.561ZM190.562 185.692C190.562 185.692 190.61 185.692 190.649 185.692C190.62 185.69 190.591 185.69 190.562 185.692ZM175.423 195.05C175.529 194.935 175.656 194.831 175.782 194.717C175.656 194.831 175.529 194.904 175.423 195.019V195.05ZM174.802 195.747L174.966 195.57L174.802 195.747ZM162.914 219.412C162.91 219.388 162.91 219.363 162.914 219.339C162.909 219.377 162.909 219.415 162.914 219.453C162.914 219.453 162.914 219.391 162.914 219.38V219.412Z" fill="black"/>
<path opacity="0.2" d="M172.851 194.406V194.344V194.271L172.9 194.198L172.948 194.125V194.052L172.997 193.98V193.907L173.046 193.845L173.094 193.782V193.73V193.678L173.259 193.522H173.308H173.366H173.424L173.492 193.47H173.57H173.638L186.651 185.63H186.729H186.797H186.865H186.942H187.01H187.078H187.146H187.214H187.282H187.36H187.437H187.525C187.599 185.632 187.672 185.661 187.728 185.714L189.271 187.616C189.207 187.533 189.08 187.512 188.893 187.554C188.643 187.621 188.404 187.73 188.184 187.876L176.879 193.782C176.62 193.937 176.373 194.114 176.141 194.312C175.894 194.517 175.657 194.735 175.433 194.967C175.213 195.187 175.006 195.419 174.812 195.664C174.653 195.874 174.511 196.096 174.385 196.33L172.832 194.427L172.851 194.406Z" fill="white"/>
<path d="M116.119 151.255C117.196 142.937 122.572 141.221 126.231 140.919C126.231 140.919 130.821 144.299 130.821 159.355L130.433 197.025L133.014 198.18C140.274 201.503 147.858 203.945 155.625 205.458C159.679 202.014 164.718 200.177 169.891 200.259L167.95 204.096C171.589 206.591 179.809 202.089 179.809 202.089C180.41 207.579 177.091 213.277 172.686 216.168C168.28 219.058 126.25 214.816 117.37 208.629C111.49 204.616 113.848 168.931 116.119 151.255Z" fill="#FFA8A7"/>
<path d="M188.697 190.771C188.979 192.254 189.139 193.76 189.172 195.273C188.85 198.872 187.427 202.257 185.125 204.901C184.646 205.48 184.048 205.933 183.379 206.222C183.042 206.36 182.678 206.401 182.322 206.341C181.966 206.281 181.631 206.121 181.35 205.879C180.858 205.245 180.608 204.435 180.652 203.612C180.543 202.393 180.605 201.162 180.836 199.963C181.064 198.745 181.699 197.658 182.622 196.906C183.339 196.468 184.101 196.119 184.893 195.866C185.673 195.512 186.369 194.976 186.93 194.296L188.697 190.771Z" fill="#FFA8A7"/>
<path d="M191.532 103.419L218.006 87.1358C220.325 85.7113 225.77 87.6453 225.77 91.638C225.768 91.3148 225.688 90.9975 225.537 90.7178C225.386 90.4382 225.169 90.2058 224.908 90.0438C224.647 89.8819 224.351 89.796 224.049 89.7948C223.747 89.7935 223.451 89.877 223.188 90.0368L196.705 106.32C195.836 106.863 195.137 107.669 194.696 108.638L189.553 105.519C190.018 104.636 190.704 103.908 191.532 103.419Z" fill="#AE2BFF"/>
<path d="M194.743 108.635C194.369 109.403 194.169 110.254 194.161 111.12V132.186C194.16 132.509 194.238 132.826 194.389 133.106C194.539 133.386 194.755 133.619 195.015 133.781C195.276 133.944 195.572 134.03 195.873 134.031C196.174 134.032 196.471 133.948 196.732 133.787C195.97 134.286 195.098 134.562 194.205 134.587C193.311 134.612 192.427 134.386 191.641 133.93C190.855 133.474 190.195 132.805 189.726 131.99C189.257 131.175 188.996 130.242 188.969 129.285V108.219C188.97 107.268 189.2 106.333 189.638 105.505L194.743 108.635Z" fill="#AE2BFF"/>
<path opacity="0.4" d="M191.532 103.419L218.006 87.1358C220.325 85.7113 225.77 87.6453 225.77 91.638C225.768 91.3148 225.688 90.9975 225.537 90.7178C225.386 90.4382 225.169 90.2058 224.908 90.0438C224.647 89.8819 224.351 89.796 224.049 89.7948C223.747 89.7935 223.451 89.877 223.188 90.0368L196.705 106.32C195.836 106.863 195.137 107.669 194.696 108.638L189.553 105.519C190.018 104.636 190.704 103.908 191.532 103.419Z" fill="white"/>
<path opacity="0.2" d="M194.743 108.635C194.369 109.403 194.169 110.254 194.161 111.12V132.186C194.16 132.509 194.238 132.826 194.389 133.106C194.539 133.386 194.755 133.619 195.015 133.781C195.276 133.944 195.572 134.03 195.873 134.031C196.174 134.032 196.471 133.948 196.732 133.787C195.97 134.286 195.098 134.562 194.205 134.587C193.311 134.612 192.427 134.386 191.641 133.93C190.855 133.474 190.195 132.805 189.726 131.99C189.257 131.175 188.996 130.242 188.969 129.285V108.219C188.97 107.268 189.2 106.333 189.638 105.505L194.743 108.635Z" fill="white"/>
<path d="M223.237 90.0364L196.753 106.319C195.965 106.805 195.311 107.505 194.856 108.349C194.401 109.192 194.162 110.149 194.162 111.123V132.189C194.161 132.512 194.24 132.829 194.39 133.109C194.54 133.389 194.756 133.622 195.017 133.784C195.277 133.947 195.573 134.033 195.875 134.033C196.176 134.034 196.472 133.95 196.734 133.79L223.217 117.58C224.006 117.094 224.662 116.395 225.118 115.551C225.575 114.708 225.816 113.751 225.818 112.776V91.6377C225.817 91.3145 225.737 90.9972 225.585 90.7175C225.434 90.4378 225.217 90.2055 224.956 90.0435C224.695 89.8816 224.399 89.7957 224.097 89.7944C223.796 89.7932 223.499 89.8766 223.237 90.0364Z" fill="#AE2BFF"/>
<path d="M187.786 121.862L194.152 123.14V114.396L187.562 121.061C187.504 121.12 187.462 121.196 187.441 121.28C187.42 121.364 187.421 121.452 187.444 121.535C187.467 121.618 187.511 121.692 187.572 121.75C187.632 121.808 187.706 121.846 187.786 121.862Z" fill="#AE2BFF"/>
<path d="M194.152 114.395L188.931 111.193L182.352 117.931C182.302 117.981 182.264 118.043 182.241 118.113C182.217 118.182 182.21 118.256 182.218 118.329C182.227 118.401 182.251 118.471 182.289 118.532C182.328 118.593 182.379 118.643 182.439 118.679L187.64 121.799L194.152 114.395Z" fill="#AE2BFF"/>
<path opacity="0.2" d="M194.152 114.395L188.931 111.193L182.352 117.931C182.302 117.981 182.264 118.043 182.241 118.113C182.217 118.182 182.21 118.256 182.218 118.329C182.227 118.401 182.251 118.471 182.289 118.532C182.328 118.593 182.379 118.643 182.439 118.679L187.64 121.799L194.152 114.395Z" fill="white"/>
<path d="M219.208 96.8395C219.858 96.434 220.314 97.2346 219.722 98.2432C215.463 105.447 211.738 112.998 208.581 120.827C208.258 121.71 207.68 122.461 206.932 122.969C206.702 123.163 206.418 123.268 206.126 123.268C205.834 123.268 205.55 123.163 205.321 122.969C203.75 121.368 202.033 119.94 200.197 118.706C199.692 118.363 200.109 117.105 200.76 116.699C200.838 116.649 200.923 116.614 201.012 116.595C202.93 116.187 204.898 116.128 206.835 116.418C210.063 109.506 214.082 103.051 218.8 97.2034C218.915 97.057 219.053 96.9338 219.208 96.8395Z" fill="white"/>
</svg>
