<svg width="77" height="60" viewBox="0 0 77 60" fill="none" xmlns="http://www.w3.org/2000/svg">
<path d="M36.4211 0H76.0264L72.8027 13.8158H33.658L36.4211 0Z" fill="#AE2BFF"/>
<path d="M25.3686 46.0526H64.9739L61.7502 59.8684H22.6055L25.3686 46.0526Z" fill="#AE2BFF"/>
<path d="M30.8947 22.1053H70.5L67.2763 35.9211H28.1316L30.8947 22.1053Z" fill="#AE2BFF"/>
<path d="M32.9546 0H46.5527L36.7058 59.8684H20.7632L32.9546 0Z" fill="#AE2BFF"/>
<path d="M13.3948 3.22368C13.3948 1.44329 14.8381 0 16.6185 0H35.5V6.44737H16.6185C14.8381 6.44737 13.3948 5.00408 13.3948 3.22368Z" fill="#AE2BFF"/>
<path d="M19.8423 16.1185C19.8423 14.3381 21.2856 12.8948 23.066 12.8948H35.5002V19.3421H23.066C21.2856 19.3421 19.8423 17.8989 19.8423 16.1185Z" fill="#AE2BFF"/>
<rect x="9.71069" y="12.8948" width="6.44737" height="6.44737" rx="3.22368" fill="#AE2BFF"/>
<rect x="0.5" y="40.5264" width="12.8947" height="6.44737" rx="3.22368" fill="#AE2BFF"/>
<path d="M13.3948 30.8553C13.3948 29.0749 14.8381 27.6316 16.6185 27.6316H42.8685V34.079H16.6185C14.8381 34.079 13.3948 32.6357 13.3948 30.8553Z" fill="#AE2BFF"/>
<path d="M13.3948 37.3027C13.3948 35.5223 14.8381 34.079 16.6185 34.079H27.6711C29.4515 34.079 30.8948 35.5223 30.8948 37.3027C30.8948 39.0831 29.4515 40.5263 27.6711 40.5263H16.6185C14.8381 40.5263 13.3948 39.0831 13.3948 37.3027Z" fill="white"/>
<path d="M16.158 9.67107C16.158 7.89068 17.6013 6.44739 19.3816 6.44739H30.4343C32.2147 6.44739 33.658 7.89068 33.658 9.67107C33.658 11.4515 32.2147 12.8948 30.4343 12.8948H19.3816C17.6013 12.8948 16.158 11.4515 16.158 9.67107Z" fill="white"/>
<path d="M18 43.7501C18 41.9697 19.4433 40.5264 21.2237 40.5264H33.6579V46.9737H21.2237C19.4433 46.9737 18 45.5304 18 43.7501Z" fill="#AE2BFF"/>
<path d="M24.4473 49.2763C24.4473 47.4959 25.8906 46.0526 27.6709 46.0526H53.9209V52.5H27.6709C25.8906 52.5 24.4473 51.0567 24.4473 49.2763Z" fill="#AE2BFF"/>
<path d="M6.02637 56.6447C6.02637 54.8643 7.46966 53.421 9.25005 53.421H35.5001V59.8684H9.25005C7.46966 59.8684 6.02637 58.4251 6.02637 56.6447Z" fill="#AE2BFF"/>
<path d="M10.6316 50.1974C10.6316 48.417 12.0749 46.9738 13.8553 46.9738H24.9079C26.6883 46.9738 28.1316 48.417 28.1316 50.1974C28.1316 51.9778 26.6883 53.4211 24.9079 53.4211H13.8553C12.0749 53.4211 10.6316 51.9778 10.6316 50.1974Z" fill="white"/>
<path d="M15.2366 23.4869C15.2366 21.1978 17.0922 19.3422 19.3813 19.3422H28.5918C30.8809 19.3422 32.7366 21.1978 32.7366 23.4869C32.7366 25.776 30.8809 27.6316 28.5918 27.6316H19.3813C17.0922 27.6316 15.2366 25.776 15.2366 23.4869Z" fill="white"/>
</svg>
