<svg width="191" height="79" viewBox="0 0 191 79" fill="none" xmlns="http://www.w3.org/2000/svg">
<g clip-path="url(#clip0_122_5379)">
<path d="M130.746 17.6224H117.673V46.4097H120.435V35.3315H130.746C137.558 35.3315 141.885 31.9352 141.885 26.5173C141.885 21.0995 137.558 17.6224 130.746 17.6224ZM130.653 33.2291H120.435V19.8057H130.653C136.269 19.8057 139.031 22.2316 139.031 26.5173C139.123 30.7223 136.269 33.2291 130.653 33.2291ZM187.363 26.0322L179.446 43.337L171.621 26.0322H168.583L178.065 46.4097L176.132 50.6146C175.395 52.151 174.475 52.7979 173.094 52.7979C172.357 52.7979 171.989 52.6361 171.437 52.4744L170.976 54.6577C171.713 54.9004 172.357 55.062 173.186 55.062C175.763 55.062 177.329 53.93 178.433 51.3424L190.309 26.0322H187.363ZM161.77 29.671C159.837 27.4877 156.983 26.113 153.669 26.113C147.501 26.113 142.437 30.8839 142.437 36.706C142.437 42.5282 147.501 47.2993 153.669 47.2993C156.983 47.2993 159.837 45.9245 161.77 43.7412V46.7331H164.44V26.5981H161.77V29.671ZM153.669 44.9541C148.974 44.9541 145.107 41.2345 145.107 36.6252C145.107 32.016 148.974 28.2963 153.669 28.2963C158.364 28.2963 162.231 32.016 162.231 36.6252C162.231 41.2345 158.456 44.9541 153.669 44.9541ZM95.762 15.9243C86.2798 15.9243 78.6387 23.0403 78.6387 31.6927C78.6387 40.4259 86.2798 47.4609 95.762 47.4609C105.152 47.4609 112.886 40.3449 112.886 31.6927C112.886 23.0403 105.152 15.9243 95.762 15.9243ZM95.762 45.116C87.8448 45.116 81.3085 39.132 81.3085 31.6927C81.3085 24.334 87.7528 18.2693 95.762 18.2693C103.679 18.2693 110.216 24.2532 110.216 31.6927C110.216 39.0512 103.679 45.116 95.762 45.116Z" fill="#8A8989"/>
<path fill-rule="evenodd" clip-rule="evenodd" d="M40.09 45.4524C37.4711 47.412 34.2903 48.5615 30.8593 48.5615C24.1289 48.5615 18.3581 44.1413 15.913 37.8499H15.9129C15.2608 35.6011 14.9089 33.2166 14.9089 30.746C14.9089 29.2128 15.0452 27.7131 15.3035 26.2577C17.2599 18.9956 23.4835 13.6865 30.8593 13.6865C35.3981 13.6865 39.4997 15.6975 42.4404 18.9361C45.2947 22.0798 47.0551 26.3804 47.0551 31.1241C47.0551 37.0607 44.2991 42.3034 40.09 45.4524ZM61.9303 29.3862C61.8736 28.2982 61.7447 27.2303 61.5562 26.1843C59.9312 18.2872 54.3128 11.5914 46.5796 7.72885C46.5539 7.71895 46.5287 7.7078 46.5028 7.69798V7.69154C42.0072 5.46081 36.802 4.18542 31.2535 4.18542C31.21 4.18542 31.1666 4.18676 31.1231 4.18683C31.0932 4.18683 31.0637 4.18568 31.0337 4.18568C28.5897 4.18568 26.2125 4.43561 23.9337 4.90767C23.9114 4.91247 23.8888 4.91708 23.8663 4.92204C23.7669 4.94276 23.6684 4.96497 23.5695 4.98651C20.9048 5.58971 18.3826 6.49987 16.0517 7.66833C15.9868 7.70087 15.921 7.73232 15.8564 7.76527C15.846 7.77048 15.8358 7.77592 15.8254 7.78112C6.6444 12.4078 0.469727 21.0362 0.469727 30.9175C0.469727 32.3982 0.469727 34.831 0.469727 34.831V72.6764H4.58356C10.8319 72.6764 15.8972 68.2538 15.8972 62.798V54.0864C19.7079 55.9944 24.0324 57.2155 28.6473 57.5514C28.6683 57.553 28.6893 57.5542 28.7103 57.5558C28.8906 57.5687 29.0712 57.5812 29.2526 57.5912C29.4677 57.6035 29.6834 57.6141 29.8998 57.6225C29.9595 57.6246 30.0191 57.6264 30.0787 57.6283C30.2416 57.6338 30.4046 57.6387 30.5681 57.642C30.7398 57.6454 30.9122 57.6469 31.0847 57.6477C31.1454 57.6481 31.2062 57.6495 31.2669 57.6495C31.4905 57.6493 31.7131 57.6464 31.9354 57.642C32.1478 57.6375 32.3595 57.6311 32.571 57.6235C32.5808 57.6233 32.5902 57.6229 32.6 57.6227C39.2569 57.3738 45.3664 55.2905 50.273 51.9383C54.9592 48.7365 58.5471 44.3779 60.4692 39.3591C61.2677 37.1423 61.7684 34.7739 61.9176 32.3057C61.9252 32.0634 61.9303 31.8209 61.9303 31.5773C61.9303 31.1488 61.9176 30.7229 61.8944 30.2993C61.9176 30.0868 61.9303 29.8715 61.9303 29.6535V29.3862Z" fill="#8A8989"/>
<path fill-rule="evenodd" clip-rule="evenodd" d="M38.4469 55.2595C27.827 55.2595 18.8527 47.9216 15.931 37.8444C15.279 35.5956 14.9271 33.2111 14.9271 30.7406C14.9271 29.2075 15.0633 27.7076 15.3216 26.2522C17.3444 14.8545 26.9278 6.22152 38.4469 6.22152C40.8784 6.22152 43.2237 6.60631 45.4299 7.32047C45.7915 7.48874 46.5028 7.69798 46.5028 7.69798V7.69154C42.0072 5.46081 36.802 4.18542 31.2535 4.18542C31.21 4.18542 31.1666 4.18676 31.1231 4.18683C31.0932 4.18683 31.0637 4.18568 31.0337 4.18568C28.5897 4.18568 26.2125 4.43561 23.9337 4.90767C23.9114 4.91247 23.8888 4.91708 23.8663 4.92204C23.7669 4.94276 23.6684 4.96497 23.5695 4.98651C20.9048 5.58971 18.3826 6.49987 16.0517 7.66833C15.9868 7.70087 15.921 7.73232 15.8564 7.76527C15.846 7.77048 15.8358 7.77592 15.8254 7.78112C6.64437 12.4078 0.469727 21.0362 0.469727 30.9175C0.469727 32.3982 0.469727 34.831 0.469727 34.831V72.6764H4.58356C10.8319 72.6764 15.8972 68.2538 15.8972 62.798V54.0864C19.7079 55.9944 24.0324 57.2155 28.6473 57.5514C28.6683 57.553 28.6893 57.5542 28.7103 57.5558C28.8906 57.5687 29.0712 57.5812 29.2526 57.5912C29.4677 57.6035 29.6834 57.6141 29.8998 57.6225C29.9595 57.6246 30.0191 57.6264 30.0787 57.6283C30.2416 57.6338 30.4046 57.6387 30.5681 57.642C30.7398 57.6454 30.9122 57.6469 31.0847 57.6477C31.1454 57.6481 31.2062 57.6495 31.2669 57.6495C31.4905 57.6493 31.7131 57.6464 31.9354 57.642C32.1478 57.6375 32.3595 57.6311 32.571 57.6235C32.5808 57.6233 32.5902 57.6229 32.6 57.6227C39.2569 57.3738 45.3664 55.2905 50.273 51.9383C46.7987 54.0496 42.7585 55.2595 38.4469 55.2595Z" fill="#8A8989"/>
<path fill-rule="evenodd" clip-rule="evenodd" d="M60.4766 39.3621C61.275 37.1455 61.7758 34.7771 61.9249 32.3087C61.9325 32.0667 61.9379 31.8242 61.9379 31.5806C61.9379 31.152 61.9252 30.726 61.9017 30.3025C61.9249 30.09 61.9379 29.8747 61.9379 29.6567V29.3894C61.881 28.3012 61.7521 27.2335 61.5636 26.1876C59.9388 18.2904 54.3202 11.5946 46.5872 7.73204C46.5613 7.72214 46.5363 7.71101 46.5104 7.70116C46.5104 7.70116 45.799 7.49193 45.4372 7.32366C43.2311 6.60951 40.886 6.22473 38.4545 6.22473C26.9354 6.22473 17.3518 14.8577 15.3291 26.2555C17.2855 18.9933 23.5092 13.6843 30.885 13.6843C35.4237 13.6843 39.5254 15.6953 42.4659 18.9338C45.3204 22.0775 47.0806 26.3782 47.0806 31.1219C47.0806 37.0585 44.3245 42.3012 40.1157 45.4502C37.4968 47.4098 34.3157 48.5593 30.885 48.5593C24.1546 48.5593 18.3836 44.1389 15.9385 37.8477C18.8601 47.9249 27.8346 55.2628 38.4545 55.2628C42.7659 55.2628 46.8063 54.0528 50.2804 51.9414C54.9665 48.7395 58.5545 44.3811 60.4766 39.3621Z" fill="#8A8989"/>
</g>
<defs>
<clipPath id="clip0_122_5379">
<rect width="189.84" height="78.2754" fill="white" transform="translate(0.469727 0.269287)"/>
</clipPath>
</defs>
</svg>
