<svg width="191" height="46" viewBox="0 0 191 46" fill="none" xmlns="http://www.w3.org/2000/svg">
<g clip-path="url(#clip0_122_5391)">
<path d="M71.6579 10.0629H61.1876C60.841 10.0627 60.5057 10.1731 60.2421 10.3744C59.9785 10.5756 59.804 10.8544 59.75 11.1605L55.5153 35.1614C55.4959 35.2727 55.5036 35.3866 55.5381 35.495C55.5726 35.6034 55.6329 35.7039 55.715 35.7895C55.797 35.8751 55.8989 35.9437 56.0135 35.9908C56.1281 36.0378 56.2527 36.0621 56.3788 36.0619H61.3774C61.7243 36.062 62.0598 35.9514 62.3234 35.7499C62.587 35.5483 62.7613 35.2693 62.815 34.9629L63.9571 28.4895C64.0107 28.1834 64.1849 27.9045 64.4482 27.703C64.7114 27.5015 65.0466 27.3907 65.3931 27.3905H68.7077C75.6047 27.3905 79.5852 24.407 80.6247 18.4947C81.0932 15.9081 80.6446 13.8757 79.2897 12.4524C77.8016 10.8895 75.1623 10.0629 71.6579 10.0629ZM72.8658 18.8287C72.2932 22.1872 69.4227 22.1872 66.647 22.1872H65.067L66.1755 15.9149C66.2079 15.7314 66.3126 15.5643 66.4706 15.4436C66.6286 15.323 66.8296 15.2567 67.0374 15.2567H67.7616C69.6523 15.2567 71.4359 15.2567 72.3575 16.2201C72.9071 16.7949 73.0755 17.6489 72.8658 18.8287ZM102.955 18.7205H97.9415C97.7337 18.7205 97.5327 18.7869 97.3747 18.9075C97.2167 19.0282 97.112 19.1953 97.0796 19.3788L96.8576 20.6325L96.507 20.1781C95.4216 18.7698 93.0011 18.299 90.5852 18.299C85.0447 18.299 80.3124 22.0503 79.3908 27.3125C78.9116 29.9375 79.5929 32.4475 81.2586 34.1979C82.7865 35.8073 84.9727 36.478 87.5738 36.478C92.0381 36.478 94.5137 33.9119 94.5137 33.9119L94.2902 35.1573C94.2702 35.2686 94.2776 35.3825 94.3116 35.4911C94.3457 35.5997 94.4057 35.7003 94.4875 35.7862C94.5692 35.872 94.6709 35.941 94.7853 35.9884C94.8998 36.0358 95.0244 36.0604 95.1506 36.0605H99.6669C100.014 36.0607 100.349 35.95 100.613 35.7485C100.876 35.547 101.051 35.2679 101.104 34.9616L103.814 19.6211C103.834 19.51 103.827 19.3963 103.793 19.288C103.759 19.1796 103.699 19.0792 103.617 18.9936C103.536 18.9079 103.434 18.8392 103.32 18.792C103.206 18.7449 103.081 18.7205 102.955 18.7205ZM95.9666 27.4439C95.4828 30.0045 93.2093 31.7235 90.3096 31.7235C88.8537 31.7235 87.6902 31.3061 86.943 30.515C86.2021 29.7295 85.9204 28.6113 86.1561 27.3659C86.6078 24.8272 88.9195 23.0521 91.7748 23.0521C93.1986 23.0521 94.356 23.475 95.1184 24.2729C95.8824 25.079 96.1855 26.204 95.9666 27.4439ZM129.659 18.7205H124.62C124.383 18.7209 124.149 18.773 123.939 18.8725C123.729 18.9719 123.549 19.1157 123.415 19.2912L116.466 28.4416L113.521 19.6484C113.43 19.3803 113.246 19.1452 112.994 18.9781C112.743 18.811 112.438 18.7207 112.124 18.7205H107.173C107.034 18.7202 106.897 18.7496 106.773 18.8061C106.65 18.8627 106.543 18.9449 106.462 19.0459C106.381 19.1468 106.328 19.2636 106.308 19.3865C106.287 19.5094 106.3 19.6349 106.345 19.7525L111.895 34.3115L106.677 40.8957C106.584 41.0125 106.529 41.1498 106.518 41.2926C106.507 41.4354 106.54 41.5783 106.613 41.7055C106.687 41.8327 106.798 41.9393 106.935 42.0138C107.072 42.0882 107.229 42.1275 107.389 42.1275H112.421C112.656 42.1278 112.888 42.0771 113.096 41.9799C113.304 41.8826 113.483 41.7417 113.617 41.5691L130.375 19.9454C130.466 19.8284 130.519 19.6915 130.529 19.5493C130.539 19.4072 130.505 19.2654 130.431 19.1392C130.358 19.013 130.247 18.9072 130.11 18.8335C129.974 18.7597 129.818 18.7206 129.659 18.7205Z" fill="#8A8989"/>
<path d="M146.339 10.0568H135.867C135.521 10.0569 135.186 10.1675 134.922 10.3688C134.659 10.57 134.485 10.8486 134.431 11.1544L130.196 35.1553C130.177 35.2665 130.184 35.3802 130.218 35.4885C130.252 35.5968 130.312 35.6973 130.394 35.7829C130.476 35.8684 130.578 35.9372 130.692 35.9843C130.806 36.0314 130.931 36.0558 131.057 36.0558H136.43C136.673 36.0555 136.907 35.9779 137.091 35.8369C137.275 35.6959 137.397 35.5008 137.435 35.2867L138.636 28.4834C138.69 28.1773 138.864 27.8984 139.128 27.6969C139.391 27.4955 139.726 27.3846 140.073 27.3845H143.386C150.284 27.3845 154.263 24.4009 155.304 18.4886C155.774 15.902 155.323 13.8697 153.968 12.4463C152.481 10.8834 149.843 10.0568 146.339 10.0568ZM147.547 18.8226C146.976 22.1811 144.105 22.1811 141.328 22.1811H139.75L140.859 15.9089C140.891 15.7254 140.996 15.5581 141.153 15.4373C141.311 15.3166 141.512 15.2503 141.72 15.2506H142.444C144.333 15.2506 146.118 15.2506 147.04 16.2141C147.59 16.7889 147.756 17.6429 147.547 18.8226ZM177.635 18.7145H172.624C172.416 18.714 172.215 18.7801 172.057 18.9009C171.899 19.0217 171.795 19.1891 171.764 19.3728L171.542 20.6264L171.189 20.172C170.104 18.7637 167.685 18.2929 165.269 18.2929C159.729 18.2929 154.998 22.0442 154.076 27.3065C153.599 29.9314 154.277 32.4414 155.943 34.1918C157.474 35.8013 159.657 36.4719 162.258 36.4719C166.722 36.4719 169.198 33.9058 169.198 33.9058L168.974 35.1512C168.954 35.2628 168.962 35.3769 168.996 35.4857C169.03 35.5944 169.09 35.6953 169.172 35.7812C169.255 35.8671 169.357 35.936 169.471 35.9832C169.586 36.0304 169.711 36.0547 169.838 36.0545H174.352C174.699 36.0543 175.034 35.9435 175.297 35.742C175.561 35.5405 175.735 35.2616 175.788 34.9555L178.5 19.615C178.519 19.5035 178.511 19.3897 178.476 19.2813C178.442 19.1728 178.381 19.0724 178.299 18.9868C178.217 18.9013 178.115 18.8326 178 18.7856C177.886 18.7386 177.761 18.7143 177.635 18.7145ZM170.646 27.4378C170.165 29.9985 167.889 31.7174 164.989 31.7174C163.536 31.7174 162.37 31.3 161.622 30.5089C160.881 29.7234 160.603 28.6052 160.836 27.3598C161.29 24.8211 163.599 23.046 166.454 23.046C167.878 23.046 169.035 23.4689 169.798 24.2668C170.565 25.0729 170.868 26.1979 170.646 27.4378ZM183.546 10.7151L179.248 35.1553C179.229 35.2665 179.236 35.3802 179.27 35.4885C179.305 35.5968 179.365 35.6973 179.446 35.7829C179.528 35.8684 179.63 35.9372 179.744 35.9843C179.859 36.0314 179.983 36.0558 180.109 36.0558H184.429C185.147 36.0558 185.757 35.5905 185.867 34.9569L190.105 10.9573C190.124 10.8461 190.117 10.7323 190.083 10.6239C190.048 10.5155 189.988 10.415 189.907 10.3293C189.825 10.2436 189.723 10.1748 189.609 10.1275C189.495 10.0802 189.37 10.0556 189.244 10.0554H184.406C184.199 10.0561 183.998 10.1228 183.84 10.2437C183.683 10.3646 183.578 10.5317 183.546 10.7151Z" fill="#8A8989"/>
<path d="M12.0338 40.7228L12.8345 36.1764L11.051 36.1394H2.53418L8.4529 2.59127C8.47052 2.48877 8.52876 2.39534 8.617 2.32801C8.70524 2.26068 8.81761 2.22395 8.93362 2.22449H23.2941C28.0615 2.22449 31.3516 3.11134 33.0693 4.86176C33.8746 5.68291 34.3875 6.54102 34.6355 7.48534C34.8958 8.4762 34.9004 9.66002 34.6462 11.1039L34.6278 11.2093V12.1344L35.4331 12.5423C36.0479 12.8207 36.6005 13.1973 37.0636 13.6536C37.7526 14.3556 38.1981 15.248 38.3864 16.3059C38.5808 17.3939 38.5165 18.6886 38.1981 20.1543C37.8306 21.8404 37.2366 23.3089 36.4344 24.5106C35.7266 25.587 34.7749 26.5193 33.6404 27.2477C32.5748 27.9238 31.3087 28.437 29.8773 28.7655C28.4902 29.0885 26.9087 29.2513 25.1741 29.2513H24.0565C23.2574 29.2513 22.4812 29.5086 21.8718 29.9698C21.2634 30.436 20.8597 31.08 20.7328 31.7873L20.6486 32.1965L19.234 40.2096L19.1697 40.5039C19.1528 40.5969 19.1237 40.6435 19.0809 40.6749C19.0394 40.7053 18.9875 40.7222 18.9339 40.7228H12.0338Z" fill="#8A8989"/>
<path d="M36.1954 11.316C36.1525 11.561 36.1035 11.8115 36.0484 12.0688C34.1546 20.7607 27.6755 23.7633 19.4006 23.7633H15.1874C14.1755 23.7633 13.3227 24.4203 13.165 25.3126L11.0079 37.5423L10.397 41.0089C10.3727 41.1464 10.382 41.287 10.4243 41.421C10.4665 41.555 10.5408 41.6792 10.6419 41.7851C10.743 41.8909 10.8686 41.976 11.01 42.0343C11.1514 42.0926 11.3053 42.1229 11.4611 42.1229H18.9337C19.8186 42.1229 20.5703 41.5481 20.7096 40.768L20.7831 40.4286L22.1901 32.447L22.2804 32.0091C22.4182 31.2262 23.1714 30.6514 24.0563 30.6514H25.1739C32.4139 30.6514 38.0815 28.0237 39.738 20.4199C40.43 17.2434 40.0718 14.5911 38.2407 12.7257C37.6604 12.1486 36.9673 11.671 36.1954 11.316Z" fill="#8A8989"/>
<path d="M34.2153 10.6117C33.6106 10.4553 32.9955 10.3333 32.3735 10.2463C31.1447 10.0774 29.9027 9.99644 28.6594 10.004H17.4037C16.9754 10.0037 16.561 10.1404 16.2356 10.3894C15.9102 10.6384 15.6951 10.9833 15.6293 11.3617L13.2349 24.9189L13.166 25.3144C13.2406 24.8828 13.4855 24.4894 13.8565 24.2052C14.2274 23.921 14.6999 23.7649 15.1884 23.7652H19.4016C27.6765 23.7652 34.1556 20.7611 36.0494 12.0706C36.106 11.8133 36.1535 11.5628 36.1964 11.3179C35.6966 11.0836 35.1758 10.8872 34.6394 10.7307C34.4987 10.689 34.3574 10.6493 34.2153 10.6117Z" fill="#8A8989"/>
<path d="M15.6287 11.3597C15.694 10.9813 15.9089 10.6362 16.2345 10.3874C16.5601 10.1385 16.9747 10.0023 17.4031 10.0035H28.6588C29.9923 10.0035 31.237 10.0815 32.3729 10.2457C33.1416 10.3537 33.8997 10.5152 34.6403 10.7288C35.1991 10.8944 35.7181 11.0901 36.1973 11.316C36.7607 8.10388 36.1927 5.91688 34.2499 3.93653C32.1081 1.75637 28.2424 0.822998 23.2958 0.822998H8.93535C7.92491 0.822998 7.06298 1.47992 6.90682 2.37361L0.925328 36.2667C0.897467 36.424 0.908067 36.5849 0.956399 36.7382C1.00473 36.8916 1.08965 37.0338 1.20531 37.155C1.32097 37.2762 1.46463 37.3736 1.6264 37.4404C1.78818 37.5072 1.96423 37.542 2.14245 37.5422H11.0083L13.2343 24.917L15.6287 11.3597Z" fill="#8A8989"/>
</g>
<defs>
<clipPath id="clip0_122_5391">
<rect width="189.84" height="45.1634" fill="white" transform="translate(0.910156 0.825317)"/>
</clipPath>
</defs>
</svg>
