<svg width="65" height="64" viewBox="0 0 65 64" fill="none" xmlns="http://www.w3.org/2000/svg">
<rect x="0.5" width="64" height="64" rx="32" fill="#AE2BFF"/>
<path d="M35.8337 18.6667H29.167V25.3333H35.8337V18.6667Z" fill="#FDFDFD"/>
<path d="M25.8337 38.6666H19.167V45.3333H25.8337V38.6666Z" fill="#FDFDFD"/>
<path d="M25.8337 28.6666H19.167V35.3333H25.8337V28.6666Z" fill="#FDFDFD"/>
<path d="M25.8337 18.6667H19.167V25.3333H25.8337V18.6667Z" fill="#FDFDFD"/>
<path d="M35.8337 32.7V28.6666H29.167V35.3333H33.2003L35.8337 32.7Z" fill="#FDFDFD"/>
<path d="M47.3003 30.8166L45.3503 28.8666C45.0837 28.6 44.6503 28.6 44.3837 28.8666L42.917 30.3333L45.8337 33.25L47.3003 31.7833C47.567 31.5166 47.567 31.0833 47.3003 30.8166Z" fill="#FDFDFD"/>
<path d="M30.834 42.4167V45.3333H33.7507L44.8673 34.2167L41.9507 31.3L30.834 42.4167Z" fill="#FDFDFD"/>
<path d="M45.8337 18.6667H39.167V25.3333H45.8337V18.6667Z" fill="#FDFDFD"/>
</svg>
