<svg width="220" height="203" viewBox="0 0 220 203" fill="none" xmlns="http://www.w3.org/2000/svg">
<path d="M52.7765 184.836C24.3974 168.451 24.3974 141.883 52.7765 125.511C81.1556 109.138 127.169 109.125 155.558 125.511C183.946 141.896 183.937 168.464 155.558 184.836C127.179 201.209 81.1587 201.225 52.7765 184.836Z" fill="#F5F5F5"/>
<path d="M56.37 203C76.8957 203 93.535 193.395 93.535 181.546C93.535 169.697 76.8957 160.091 56.37 160.091C35.8444 160.091 19.2051 169.697 19.2051 181.546C19.2051 193.395 35.8444 203 56.37 203Z" fill="#D0D0D0"/>
<path d="M142.269 171.518C168.04 157.619 183.324 135.955 176.407 123.13C169.49 110.306 142.992 111.177 117.221 125.077C91.45 138.976 76.1658 160.64 83.0825 173.465C89.9993 186.289 116.498 185.418 142.269 171.518Z" fill="#D0D0D0"/>
<path d="M167.912 141.053C173.065 134.911 181.137 130.909 190.214 128.545C199.181 126.217 200.787 120.697 194.844 118.913C188.111 116.883 179.709 120.608 174.289 125.793C164.852 134.828 163.664 141.728 163.664 141.728L167.912 141.053Z" fill="#BA68C8"/>
<path opacity="0.15" d="M167.912 141.053C173.065 134.911 181.137 130.909 190.214 128.545C199.181 126.217 200.787 120.697 194.844 118.913C188.111 116.883 179.709 120.608 174.289 125.793C164.852 134.828 163.664 141.728 163.664 141.728L167.912 141.053Z" fill="#37474F"/>
<path d="M165.259 140.682C165.221 140.69 165.182 140.69 165.144 140.682C165.113 140.667 165.086 140.646 165.063 140.62C165.04 140.594 165.022 140.564 165.011 140.532C165 140.499 164.995 140.465 164.998 140.43C165 140.396 165.009 140.362 165.024 140.331C172.672 124.637 189.612 120.776 193.714 121.069C193.782 121.074 193.846 121.106 193.891 121.158C193.936 121.21 193.959 121.277 193.954 121.346C193.948 121.415 193.915 121.479 193.862 121.524C193.809 121.568 193.741 121.591 193.672 121.587C189.654 121.283 173.023 125.108 165.495 140.562C165.469 140.6 165.434 140.631 165.393 140.652C165.351 140.673 165.306 140.683 165.259 140.682Z" fill="white"/>
<path d="M163.664 142.686C163.664 142.938 163.732 143.186 163.859 143.404C163.986 143.622 164.169 143.802 164.388 143.926C164.608 144.051 164.856 144.115 165.109 144.112C165.361 144.109 165.608 144.039 165.825 143.91C170.617 141.121 177.606 139.578 188.917 142.801C194.933 144.511 197.894 143.366 199.16 140.917C200.573 138.197 197.591 135.565 194.19 134.326C182.613 130.093 172.165 132.981 163.664 141.425V142.686Z" fill="#BA68C8"/>
<path d="M164.329 142.91C164.292 142.911 164.255 142.904 164.221 142.89C164.186 142.875 164.155 142.854 164.13 142.827C164.082 142.777 164.055 142.71 164.055 142.641C164.055 142.572 164.082 142.505 164.13 142.455C174.127 133.52 189.613 135.262 195.472 138.746C195.532 138.781 195.575 138.838 195.592 138.905C195.61 138.971 195.601 139.042 195.566 139.102C195.53 139.162 195.473 139.205 195.405 139.223C195.338 139.24 195.266 139.231 195.205 139.196C189.451 135.78 174.279 134.08 164.48 142.858C164.436 142.89 164.383 142.908 164.329 142.91Z" fill="white"/>
<path d="M51.8082 163.517C47.4137 156.81 39.8698 151.882 31.1331 148.466C22.5115 145.097 21.5646 139.431 27.6751 138.353C34.6017 137.134 42.5065 141.827 47.2777 147.613C55.5854 157.7 55.9464 164.705 55.9464 164.705L51.8082 163.517Z" fill="#BA68C8"/>
<path opacity="0.15" d="M51.8082 163.517C47.4137 156.81 39.8698 151.882 31.1331 148.466C22.5115 145.097 21.5646 139.431 27.6751 138.353C34.6017 137.134 42.5065 141.827 47.2777 147.613C55.5854 157.7 55.9464 164.705 55.9464 164.705L51.8082 163.517Z" fill="#37474F"/>
<path d="M54.4654 163.475C54.5034 163.483 54.5425 163.483 54.5805 163.475C54.6458 163.452 54.6993 163.403 54.7295 163.341C54.7598 163.278 54.7645 163.206 54.7427 163.141C48.9879 146.656 32.6446 140.823 28.5221 140.645C28.4536 140.642 28.3867 140.666 28.3358 140.712C28.2849 140.758 28.2541 140.822 28.2501 140.891C28.2485 140.96 28.2737 141.028 28.3204 141.079C28.3671 141.131 28.4318 141.163 28.5012 141.168C32.5295 141.335 48.5903 147.095 54.2457 163.329C54.266 163.371 54.2971 163.406 54.3357 163.432C54.3743 163.458 54.4191 163.473 54.4654 163.475Z" fill="white"/>
<path d="M55.9827 164.386C55.9417 164.757 55.8055 165.112 55.5874 165.416C55.3692 165.72 55.0765 165.963 54.7373 166.12C54.3982 166.278 54.0241 166.346 53.6512 166.317C53.2783 166.288 52.9191 166.163 52.6083 165.955C48.172 162.984 41.5645 161.053 30.7404 162.816C24.5672 163.805 21.7631 162.293 20.8005 159.735C19.7228 156.868 22.9977 154.613 26.5186 153.781C38.5145 150.946 48.5486 155.047 55.9931 164.428L55.9827 164.386Z" fill="#BA68C8"/>
<path d="M55.1561 165.793C55.1926 165.798 55.2299 165.795 55.2651 165.784C55.3004 165.773 55.3328 165.755 55.3601 165.73C55.4084 165.68 55.4354 165.614 55.4354 165.544C55.4354 165.475 55.4084 165.408 55.3601 165.359C46.4665 155.309 30.9026 155.209 24.6718 157.977C24.608 158.005 24.5581 158.058 24.5331 158.123C24.5081 158.189 24.51 158.261 24.5384 158.325C24.5669 158.389 24.6195 158.439 24.6848 158.464C24.75 158.489 24.8225 158.487 24.8863 158.458C30.9916 155.743 46.2677 155.842 54.9678 165.704C54.9905 165.732 55.0192 165.754 55.0518 165.77C55.0844 165.785 55.1201 165.793 55.1561 165.793Z" fill="white"/>
<path d="M148.307 44.2323L148.223 44.1904L128.28 32.7124L128.16 32.6549C118.843 27.9465 106.412 29.3642 93.0406 38.0067C66.1818 55.3755 45.7159 95.355 47.3273 127.304C48.1277 143.224 54.2695 154.142 63.5451 158.945L63.6235 158.986L83.5715 170.47L83.6656 170.522C92.983 175.23 105.424 173.834 118.806 165.181C145.665 147.812 166.131 107.832 164.519 75.8832C163.729 59.9531 157.587 49.0348 148.307 44.2323Z" fill="#37474F"/>
<path d="M82.8859 170.098L63.6495 158.976L63.5553 158.919C54.2797 154.106 48.1431 143.187 47.3375 127.289C46.6207 113.038 50.2985 97.2019 56.9635 82.496L57.0943 82.1716L76.9114 93.974C70.236 108.68 66.5687 124.516 67.2854 138.767C68.044 154.351 73.9399 165.139 82.8859 170.098Z" fill="#263238"/>
<path d="M118.817 165.17C145.676 147.801 166.141 107.822 164.53 75.8729C162.919 43.9238 139.837 32.1109 112.978 49.4797C86.1196 66.8484 65.6485 106.828 67.2599 138.772C68.8712 170.716 91.958 182.539 118.817 165.17Z" fill="#455A64"/>
<path d="M141.564 41.7526L107.899 111.107L100.653 103.26C98.4926 101.011 95.5361 99.6982 92.4186 99.6047C89.3011 99.5113 86.2713 100.644 83.98 102.76C81.6887 104.876 80.3186 107.806 80.1641 110.921C80.0095 114.036 81.0828 117.088 83.1535 119.42L102.243 140.101C104.343 142.381 107.252 143.748 110.347 143.909C110.567 143.909 110.787 143.909 111.006 143.909C111.584 143.909 112.161 143.867 112.733 143.784C114.654 143.504 116.478 142.758 118.045 141.61C119.612 140.463 120.874 138.95 121.72 137.202L160.329 57.6826C156.369 48.8518 149.777 43.3796 141.564 41.7526Z" fill="#37474F"/>
<path d="M168.904 18.9116C168.694 18.7913 168.475 18.6762 168.255 18.5715C165.788 17.3759 162.947 17.2078 160.355 18.1042C157.764 19.0007 155.634 20.8884 154.433 23.3532L111.597 111.589L109.159 108.973C108.456 108.204 107.637 107.549 106.732 107.032C105.455 106.299 100.025 103.155 99.1462 102.648C97.0039 101.408 94.4882 100.978 92.0559 101.436C89.6236 101.893 87.4359 103.207 85.8899 105.14C84.344 107.073 83.5424 109.496 83.6306 111.969C83.7188 114.442 84.691 116.802 86.3707 118.62L105.461 139.295C106.176 140.071 107.007 140.733 107.925 141.257C109.17 141.963 114.579 145.102 115.469 145.615C116.699 146.327 118.063 146.778 119.475 146.94C120.887 147.102 122.318 146.97 123.677 146.555C125.036 146.139 126.295 145.447 127.375 144.523C128.456 143.599 129.334 142.462 129.955 141.183L180.633 36.7983C181.772 34.4456 181.98 31.7492 181.214 29.2498C180.449 26.7503 178.767 24.6328 176.505 23.3218L168.904 18.9116Z" fill="#AE2BFF"/>
<path opacity="0.15" d="M168.904 18.9116C168.694 18.7913 168.475 18.6762 168.255 18.5715C165.788 17.3759 162.947 17.2078 160.355 18.1042C157.764 19.0007 155.634 20.8884 154.433 23.3532L111.597 111.589L109.159 108.973C108.456 108.204 107.637 107.549 106.732 107.032C105.455 106.299 100.025 103.155 99.1462 102.648C97.0039 101.408 94.4882 100.978 92.0559 101.436C89.6236 101.893 87.4359 103.207 85.8899 105.14C84.344 107.073 83.5424 109.496 83.6306 111.969C83.7188 114.442 84.691 116.802 86.3707 118.62L105.461 139.295C106.176 140.071 107.007 140.733 107.925 141.257C109.17 141.963 114.579 145.102 115.469 145.615C116.699 146.327 118.063 146.778 119.475 146.94C120.887 147.102 122.318 146.97 123.677 146.555C125.036 146.139 126.295 145.447 127.375 144.523C128.456 143.599 129.334 142.462 129.955 141.183L180.633 36.7983C181.772 34.4456 181.98 31.7492 181.214 29.2498C180.449 26.7503 178.767 24.6328 176.505 23.3218L168.904 18.9116Z" fill="#37474F"/>
<path opacity="0.15" d="M115.442 145.594C114.563 145.071 109.164 141.932 107.903 141.236C106.986 140.712 106.155 140.05 105.439 139.274L86.3493 118.599C85.5075 117.68 84.8393 116.617 84.377 115.46L91.9679 119.839C92.4282 120.999 93.1006 122.064 93.9507 122.978L113.035 143.653C113.738 144.415 114.549 145.069 115.442 145.594Z" fill="#37474F"/>
<path opacity="0.15" d="M164.425 24.5565C163.428 25.4515 162.614 26.5318 162.029 27.7373L117.969 118.494L111.597 111.589L154.433 23.3533C155.016 22.1456 155.832 21.0648 156.834 20.1725L164.425 24.5565Z" fill="#37474F"/>
<path d="M175.851 22.9556C173.383 21.7628 170.543 21.5962 167.953 22.4924C165.362 23.3885 163.233 25.2744 162.029 27.7372L117.969 118.494L109.164 108.952C107.28 107.038 104.725 105.932 102.04 105.869C99.3547 105.806 96.7505 106.791 94.7786 108.615C92.8067 110.438 91.622 112.958 91.4754 115.64C91.3288 118.321 92.2317 120.955 93.993 122.983L113.078 143.663C114.22 144.899 115.647 145.838 117.234 146.397C118.822 146.957 120.522 147.12 122.187 146.874C123.852 146.628 125.432 145.979 126.789 144.983C128.146 143.988 129.24 142.676 129.976 141.163L180.654 36.7774C181.848 34.3073 182.013 31.4643 181.112 28.8727C180.212 26.2812 178.32 24.153 175.851 22.9556Z" fill="#AE2BFF"/>
<path d="M112.327 27.5307L106.741 29.3174L102.708 15.0138L108.274 13.2378L112.327 27.5307Z" fill="#AE2BFF" fill-opacity="0.2"/>
<path d="M129.762 14.834C129.809 15.4142 129.68 15.9951 129.396 16.4929C129.111 16.9907 128.685 17.3797 128.179 17.6038C128.542 18.041 128.81 18.5569 128.966 19.1155C129.284 20.1727 128.438 21.7056 126.755 22.287L113.98 26.3677L110.226 13.0791C110.226 13.0791 112.386 7.21178 112.496 6.32376C112.605 5.43574 111.331 2.17965 111.152 1.56649C110.972 0.953336 113.044 0.149886 114.677 0.847618C115.056 1.02691 115.396 1.28998 115.672 1.61935C116.26 2.28345 116.753 3.03489 117.136 3.84998C117.678 5.01168 117.945 6.29637 117.913 7.59236L125.65 5.08687C126.184 4.88176 126.769 4.88176 127.303 5.08687C127.652 5.2335 127.96 5.47359 128.197 5.78383C128.433 6.09406 128.59 6.4639 128.652 6.85748C128.714 7.25106 128.68 7.65501 128.551 8.03012C128.423 8.40523 128.206 8.73878 127.92 8.9984C128.381 8.96296 128.839 9.09269 129.222 9.36681C129.605 9.64093 129.89 10.0436 130.031 10.5102C130.149 11.0526 130.087 11.6217 129.854 12.1209C129.622 12.62 129.234 13.0183 128.757 13.2482C129.273 13.6182 129.634 14.1868 129.762 14.834Z" fill="#AE2BFF" fill-opacity="0.2"/>
<path d="M193.445 96.6585L188.225 95.325L191.267 81.9596L196.487 83.2931L193.445 96.6585Z" fill="#AE2BFF" fill-opacity="0.2"/>
<path d="M212.88 95.1561C212.663 95.6403 212.308 96.0391 211.864 96.2952C211.421 96.5514 210.912 96.6518 210.411 96.582C210.505 97.1081 210.493 97.6493 210.375 98.1699C210.143 99.2104 208.814 99.9735 207.246 99.565L195.296 96.4819L198.113 84.0645C198.113 84.0645 202.404 80.4649 202.875 79.8098C203.347 79.1546 203.754 75.9559 203.885 75.3623C204.015 74.7688 206.012 75.1697 207.006 76.5339C207.248 76.8654 207.417 77.2498 207.5 77.6593C207.676 78.4751 207.74 79.3137 207.689 80.1489C207.61 81.3421 207.261 82.4976 206.672 83.5172L213.889 85.3671C214.401 85.4824 214.858 85.7853 215.181 86.2227C215.36 86.4724 215.487 86.7595 215.553 87.0652C215.62 87.3708 215.624 87.6879 215.566 87.9955C215.469 88.4007 215.268 88.7691 214.984 89.0592C214.701 89.3493 214.347 89.5495 213.962 89.6373C214.343 89.8358 214.651 90.165 214.836 90.5719C215.02 90.9787 215.07 91.4395 214.978 91.8803C214.831 92.3675 214.531 92.7863 214.128 93.0669C213.725 93.3474 213.243 93.4727 212.764 93.4218C213.013 93.9619 213.055 94.584 212.88 95.1561Z" fill="#AE2BFF" fill-opacity="0.2"/>
<path d="M18.2422 92.5639L23.8149 94.3426L27.8472 80.0678L22.2815 78.2891L18.2422 92.5639Z" fill="#AE2BFF" fill-opacity="0.2"/>
<path d="M0.8285 79.8792C0.782025 80.4588 0.910337 81.0392 1.1949 81.5364C1.47947 82.0336 1.90555 82.4219 2.41158 82.6452C2.05381 83.0834 1.78765 83.5971 1.63069 84.1526C1.31123 85.2605 2.16312 86.7452 3.83139 87.2728L16.6096 91.3503L20.3437 78.0628C20.3437 78.0628 18.1785 72.1991 18.072 71.2796C17.9656 70.3601 19.2434 67.1494 19.4138 66.5314C19.5557 66.0339 17.5254 65.122 15.8642 65.8229C15.4693 65.9872 15.1148 66.245 14.8278 66.5766C14.2379 67.2495 13.7451 68.0115 13.3654 68.8376C12.8214 70.0081 12.5534 71.3013 12.5845 72.6061L4.91754 70.1491C4.37689 69.9602 3.79064 69.9816 3.26347 70.2094C2.91407 70.3553 2.60628 70.595 2.37012 70.9049C2.13396 71.2148 1.9775 71.5844 1.91601 71.9777C1.85451 72.371 1.89008 72.7744 2.01923 73.1487C2.14839 73.523 2.36673 73.8554 2.65295 74.1134C2.1896 74.0712 1.72648 74.1974 1.33953 74.4713C0.952583 74.7452 0.664757 75.1505 0.523242 75.6208C0.405239 76.1635 0.467222 76.7328 0.698727 77.2326C0.930232 77.7324 1.31708 78.1321 1.79397 78.3642C1.30757 78.7259 0.963835 79.2653 0.8285 79.8792Z" fill="#AE2BFF" fill-opacity="0.2"/>
</svg>
