<svg width="40" height="34" viewBox="0 0 40 34" fill="none" xmlns="http://www.w3.org/2000/svg">
<path d="M12.5792 33.2512C27.6736 33.2512 35.9296 20.7456 35.9296 9.90077C35.9296 9.54557 35.9296 9.19197 35.9056 8.83997C37.5117 7.67822 38.8982 6.23977 40 4.59197C38.5023 5.25597 36.9134 5.69122 35.2864 5.88316C36.9997 4.85765 38.2819 3.24447 38.8944 1.34396C37.2835 2.29998 35.5211 2.97368 33.6832 3.33597C32.4459 2.02026 30.8094 1.14903 29.027 0.857106C27.2446 0.565178 25.4157 0.868823 23.8233 1.72105C22.2309 2.57328 20.9637 3.92659 20.2179 5.57155C19.4721 7.2165 19.2892 9.06141 19.6976 10.8208C16.4348 10.6571 13.2429 9.80915 10.3291 8.33197C7.41525 6.8548 4.84461 4.7814 2.784 2.24636C1.73455 4.05302 1.41312 6.19174 1.88517 8.22707C2.35721 10.2624 3.58724 12.0413 5.3248 13.2016C4.01872 13.1633 2.74108 12.811 1.6 12.1744V12.2784C1.60052 14.1731 2.25642 16.0094 3.45645 17.4756C4.65648 18.9419 6.32677 19.948 8.184 20.3232C6.9758 20.6527 5.70812 20.7009 4.4784 20.464C5.00302 22.0945 6.02405 23.5204 7.39873 24.5422C8.77342 25.564 10.433 26.1308 12.1456 26.1632C10.4441 27.5006 8.49552 28.4895 6.41146 29.0732C4.32739 29.6568 2.14869 29.8239 0 29.5648C3.75306 31.9731 8.11987 33.2506 12.5792 33.2448" fill="#FDFDFD"/>
</svg>
