<svg width="191" height="89" viewBox="0 0 191 89" fill="none" xmlns="http://www.w3.org/2000/svg">
<g clip-path="url(#clip0_122_5376)">
<path fill-rule="evenodd" clip-rule="evenodd" d="M175.323 84.0437L175.39 83.9765V86.3296C174.516 87.1364 174.045 87.4053 173.239 87.4053C172.297 87.4053 171.625 87.0692 171.625 85.9934C171.625 84.3799 173.373 83.9765 174.314 83.9765C174.449 83.9765 174.987 84.0437 175.323 84.0437ZM76.7602 84.0437C76.8275 84.1109 76.8947 84.1109 76.9619 83.9765V86.2624C76.2224 87.1364 75.4156 87.4053 74.7433 87.4053C73.8693 87.4053 73.1969 87.1364 73.1969 86.0607C73.1969 84.4471 74.8105 83.9765 75.819 83.9765C75.9535 83.9765 76.4241 83.9765 76.7602 84.0437ZM68.1545 84.6488C68.1545 86.8675 66.4737 87.1364 64.9946 87.1364C64.8601 87.1364 64.1878 87.1364 63.8516 87.0692V82.2956C64.255 82.3629 64.9273 82.2956 65.129 82.2956C66.8099 82.2956 68.1545 82.6318 68.1545 84.6488ZM52.4893 81.4889V86.5985C52.0187 87.1364 51.2119 87.3381 50.8085 87.3381C48.5225 87.3381 47.9174 85.7244 47.9174 84.0437C47.9174 82.4973 48.7242 80.6148 50.7412 80.6148C51.2791 80.6148 52.0187 80.7493 52.4893 81.4889ZM41.5976 80.682C42.1355 80.7493 43.2112 81.8922 43.2112 82.4973V82.8335H38.236V82.6318C38.6394 81.2199 39.5807 80.6148 40.7909 80.6148C40.9253 80.6148 41.3287 80.6148 41.5976 80.682ZM117.839 83.9092C117.839 85.2539 117.436 87.3381 115.351 87.3381C113.2 87.3381 112.998 85.1866 112.998 83.9765C112.998 82.7662 113.334 80.5476 115.419 80.5476C117.503 80.5476 117.839 82.6318 117.839 83.9092ZM158.985 79.3374V88.6155H157.372V80.6821H156.094V79.3374H158.985ZM27.3447 79.3374V88.6155H25.6639V80.6821H24.3864V79.3374H27.3447ZM138.48 84.5815H134.916L136.799 79.2702L138.48 84.5815ZM175.659 79.6064C176.533 79.9425 177.138 81.6233 177.138 82.3629V86.7329C177.206 87.1364 177.34 87.607 177.878 87.9431V88.7499H177.071C176.533 88.6155 175.726 88.1448 175.592 87.607C175.121 88.4138 173.373 88.8172 172.634 88.8172C170.953 88.8172 169.945 87.4053 169.945 85.9934C169.945 83.5058 172.634 82.6318 174.247 82.6318C174.382 82.6318 174.987 82.7662 175.39 82.8335C175.458 82.7662 175.457 82.6318 175.457 82.4973C175.457 81.0183 174.315 80.6148 173.373 80.6148C172.701 80.6148 171.693 80.8166 171.155 81.4216C170.886 81.0183 170.415 80.2786 170.415 80.0769C170.415 79.9425 171.02 79.6064 171.289 79.5391C171.558 79.4047 171.961 79.2702 172.432 79.203C172.634 79.1357 173.172 79.1357 173.306 79.1357C174.046 79.1357 174.987 79.3374 175.659 79.6064ZM168.6 80.0769C168.398 80.4132 168.129 80.8166 167.86 81.22C166.919 80.6821 166.448 80.5476 165.642 80.5476C163.288 80.5476 162.751 82.5646 162.751 84.0437C162.751 85.9934 163.692 87.4053 165.709 87.4053C166.381 87.4053 167.39 87.0019 167.995 86.5313L168.667 87.876C168.129 88.3465 166.247 88.8172 165.373 88.8172C163.625 88.8172 161.675 87.7414 161.07 85.2539C161.07 85.1194 161.003 84.8505 161.003 84.716V83.4386C161.271 80.2786 163.557 79.1357 165.709 79.1357C166.583 79.1357 167.793 79.5391 168.6 80.0769ZM155.355 79.2702L154.75 80.8837C154.414 80.7493 153.741 80.5476 153.607 80.5476C152.531 80.5476 151.456 81.7578 151.456 82.699V88.6155H149.775V79.3374H151.456C151.456 79.7408 151.456 80.2115 151.523 80.6148C152.061 79.4719 153.271 79.1357 154.078 79.1357C154.279 79.1357 154.952 79.203 155.355 79.2702ZM127.05 79.4047C126.848 79.9425 126.647 80.4132 126.445 80.8837C126.109 80.7493 125.437 80.5476 125.302 80.5476C124.226 80.5476 123.151 81.7578 123.151 82.699V88.6155H121.47V79.3374H123.151C123.151 79.7408 123.151 80.2115 123.218 80.6148C123.756 79.4719 124.966 79.1357 125.773 79.1357C126.176 79.1357 127.05 79.4047 127.05 79.4047ZM119.587 83.9092C119.587 86.2624 118.579 88.8172 115.419 88.8172C112.326 88.8172 111.183 86.2624 111.183 83.9092C111.183 81.4216 112.595 79.1357 115.419 79.1357C118.646 79.1357 119.587 81.6233 119.587 83.9092ZM86.3747 79.203C87.5176 79.203 88.5934 80.8837 88.5934 81.8922V88.6155H86.9798V82.4973C86.9126 81.0854 86.1057 80.5476 85.0973 80.5476C84.8956 80.5476 84.7611 80.4804 84.6939 80.5476C84.2905 80.6148 82.8786 81.22 82.8786 81.7578V88.6155H81.265V79.3374H82.4079C82.5425 79.6736 82.7442 80.077 82.8786 80.4132C83.551 79.4719 84.6266 79.1357 85.5679 79.1357C85.7024 79.1357 86.1057 79.203 86.3747 79.203ZM78.3068 80.951C78.374 81.2871 78.643 81.8251 78.643 82.0268V86.3968C78.7774 86.8002 78.7102 87.5397 79.3826 87.9431V88.7499H78.643C78.1723 88.6828 77.2983 88.2793 77.1638 87.607C76.7604 88.4138 74.8107 88.8172 74.1384 88.8172C72.5248 88.8172 71.4491 87.4053 71.4491 85.9934C71.4491 83.5058 74.1384 82.6318 75.7519 82.6318C75.8864 82.6318 76.5587 82.7663 76.9621 82.8335C77.0294 82.7663 77.0294 82.7663 77.0294 82.5646C77.0294 81.22 76.0881 80.6148 74.9451 80.6148C74.1384 80.6148 73.4661 80.7493 72.7265 81.4217C72.3903 81.22 72.0542 80.4132 71.9197 80.077C72.592 79.5392 73.9367 79.1357 74.8779 79.1357C75.8192 79.1357 77.8362 79.4047 78.3068 80.951ZM44.8923 83.1024C44.8923 83.237 44.8923 83.7747 44.8251 84.1109H38.1018V84.6488C38.2363 86.5313 39.6481 87.4053 41.06 87.4053C41.7996 87.4053 42.4719 87.2036 43.3459 86.5985C43.6149 86.9346 43.8166 87.3381 44.0855 87.7414C43.6149 88.3466 41.5306 88.8172 40.7239 88.8172C37.7657 88.8172 36.3538 86.3968 36.3538 84.0437C36.3538 81.5561 37.9001 79.1357 40.7239 79.1357C43.2115 79.1357 44.8923 80.5476 44.8923 83.1024ZM20.9576 79.4047C21.1593 79.4719 21.6971 80.0098 21.8988 80.2786C21.9661 80.2786 22.5039 81.6233 22.5039 81.8923V88.6155H20.8903V82.4973C20.6215 80.951 20.0835 80.5477 19.0079 80.5477C18.2683 80.5477 17.5287 80.8166 16.7892 81.7578V88.6155H15.1756V79.3374H16.3186C16.453 79.6736 16.6547 80.077 16.7892 80.4132C17.4615 79.4719 18.5372 79.1357 19.4785 79.1357C19.613 79.1357 20.487 79.203 20.9576 79.4047ZM67.4824 79.0013C67.4824 80.7493 66.0033 80.951 64.8603 80.951H63.8518V77.3205H64.9275C65.936 77.3205 67.4824 77.3205 67.4824 79.0013ZM32.1854 79.3374H34.7403V80.6149H32.1854V85.859C32.5216 87.0692 32.9922 87.4053 33.799 87.4053C34.0007 87.4053 34.7403 87.2036 35.1437 87.0692C35.2108 87.5398 35.3454 88.0777 35.4125 88.5483C34.673 88.6828 33.3284 88.8172 33.1267 88.8172C31.7148 88.8172 30.5046 87.4726 30.5046 86.1952V80.6149H29.4289V79.3374H30.5046V77.3878C31.0425 77.186 31.6476 76.9171 32.1854 76.7826L32.1854 79.3374ZM5.49414 75.9086V84.5143C5.76304 86.5313 6.83875 87.2709 8.1834 87.2709C9.32642 87.2709 10.4021 86.733 10.94 85.1867V75.9086H12.688V85.3884C12.2846 88.2121 9.93148 88.8172 8.1834 88.8172C6.77153 88.8172 4.88908 88.4138 4.08227 86.5985C3.94774 86.1952 3.81332 85.5228 3.81332 85.3884V75.9086H5.49414ZM159.254 76.7826C159.254 77.4549 158.851 77.8583 158.246 77.8583C157.573 77.8583 157.237 77.2532 157.237 76.8498C157.237 76.1775 157.573 75.8413 158.246 75.8413C158.851 75.8413 159.254 76.1775 159.254 76.7826ZM27.6137 76.7826C27.6137 77.4549 27.0086 77.8583 26.5379 77.8583C25.8657 77.8583 25.5295 77.2532 25.5295 76.8498C25.5295 76.1775 26.0674 75.8413 26.5379 75.8413C27.1431 75.8413 27.6137 76.1775 27.6137 76.7826ZM69.2978 78.8668C69.2978 79.8081 68.8272 80.7493 67.4825 81.4217L67.4153 81.5561C69.365 81.9595 70.1045 83.4386 70.1045 84.9177C70.1045 85.0522 69.9701 85.6573 69.9029 85.9934C69.7012 87.4726 67.348 88.6155 66.2051 88.6155H62.0367V75.7741H65.1966C67.0119 75.7741 69.2978 76.312 69.2978 78.8668ZM137.068 75.7069L141.909 88.6155H139.959C139.69 87.7414 139.354 86.8002 139.018 85.9261H134.446C134.043 86.8002 133.706 87.7414 133.437 88.6155H131.488C133.169 84.3126 134.916 80.0098 136.597 75.7069H137.068ZM148.565 75.7741C148.497 75.9085 148.094 76.9843 148.027 76.9843C147.825 76.9843 147.355 76.8498 147.153 76.8498C145.943 76.8498 145.405 77.9255 145.405 78.8668C145.405 79.0013 145.472 79.1357 145.472 79.3374H147.355V80.6821H145.472V88.6155H143.858V80.6821H142.514V79.3374H143.858C143.791 77.1187 144.934 75.5052 147.018 75.5052C147.153 75.5052 148.027 75.6396 148.565 75.7741ZM110.713 75.7741L110.309 76.9843C110.041 76.917 109.57 76.8498 109.368 76.8498C108.629 76.8498 107.62 77.5894 107.62 78.3962V79.3374H109.57V80.6821H107.62V88.6155H106.007V80.6821H104.662V79.3374H106.007C106.007 77.0515 107.15 75.5052 109.167 75.5052C109.368 75.5052 110.242 75.6396 110.713 75.7741ZM92.6274 75.5052V83.5058L96.1234 79.3374H98.0731L95.1821 82.8335L98.7455 88.6155H96.9302L94.0392 83.9765C93.6359 84.4471 93.098 84.9849 92.6274 85.4556V88.6155H90.9465V75.5052L92.6274 75.5052ZM54.1704 75.5052V88.6155H52.5568C52.5568 88.4138 52.5568 88.2121 52.4896 88.0104C51.6828 88.6155 50.8761 88.75 50.0693 88.75C47.111 88.75 46.1025 86.2624 46.1025 84.1782C46.1025 82.0939 47.5144 79.1357 50.4054 79.1357C50.8761 79.1357 52.019 79.3374 52.5568 79.7409V75.5052L54.1704 75.5052ZM62.5745 43.7715C66.5412 44.6455 68.2892 46.8641 68.2892 49.9569C68.2892 50.0913 68.222 51.3687 68.0203 52.041C67.8186 52.7134 67.4488 53.3073 66.8101 54.1252C64.824 56.6688 61.0281 58.697 58.675 58.697H51.9517C53.0275 53.7891 53.9687 48.7467 55.0444 43.906C55.0444 43.7715 55.1117 43.7044 55.2462 43.6371L60.3558 43.5027C60.4902 43.5027 61.8349 43.6371 62.5745 43.7715ZM107.149 49.419H94.9804L103.855 35.8381L107.149 49.419ZM69.4322 31.7369C69.4322 31.8714 69.1632 33.1489 69.096 33.8212C68.9615 35.2331 67.6841 37.3172 65.8016 38.4602C65.1293 38.8636 62.3728 40.4772 61.9694 40.4772H55.9856C56.1874 39.4014 56.3891 38.2585 56.5908 37.1828C56.7253 36.5104 56.927 35.7709 56.9941 35.0986C57.1287 34.4263 57.3303 33.6866 57.3976 33.0144C57.5321 32.3421 57.7338 31.6025 57.8009 30.9302C57.9355 30.2578 57.9914 29.8881 58.1371 28.8459C58.2828 27.647 58.1931 27.6022 58.8767 27.6358L63.9191 27.5013C66.0705 27.5013 69.4322 28.6443 69.4322 31.7369ZM109.368 22.1899L119.453 63.6723H110.377L108.763 55.5371H91.2155L85.8368 63.6723H78.3068L106.41 22.1899H109.368ZM69.2305 22.1899C75.2814 22.8623 78.1051 25.686 78.1051 30.3923C78.1051 35.4348 74.609 39.1997 68.4909 41.2167C68.5581 41.284 68.6926 41.284 68.7598 41.284C73.2644 41.9563 76.4915 44.5783 76.4915 48.6795C76.4915 55.201 72.4576 61.2519 63.7174 63.2016C63.314 63.2689 60.6247 63.8067 59.6834 63.8067H42.5391L51.2121 22.1899L69.2305 22.1899ZM14.5705 22.1899C13.8981 25.7533 13.1586 29.1149 12.4862 32.4765C11.9484 34.9641 11.4105 37.5862 10.9399 40.141C10.2676 43.906 9.19184 47.5365 9.19184 51.3015C9.19184 55.4027 10.5365 59.1005 15.8479 59.1005C20.9575 59.1005 26 55.7388 27.6135 48.8811C29.6978 40.0066 31.4458 31.0646 33.3283 22.1899H40.9928V22.3916C38.8413 32.1403 36.8243 41.889 34.6057 51.5704C33.4292 54.6295 32.9081 55.1169 31.9836 56.344C27.9497 61.9242 22.5711 63.7395 17.9321 64.2774C17.3943 64.3446 16.453 64.4791 16.2513 64.4791H12.1502C11.3434 64.4118 10.4693 64.2774 9.7298 64.1429C8.99021 64.0085 8.1834 63.8068 7.44386 63.605C2.26698 62.3276 0.25 57.3525 0.25 53.6547V52.041C0.317212 51.5705 0.317212 51.0326 0.384475 50.4948C2.33419 41.0823 4.28396 31.6025 6.23369 22.19L14.5705 22.1899ZM153.943 63.4033C152.867 63.5378 150.783 63.8068 150.581 63.8068H133.84L145.135 10.7604C151.052 22.3244 156.968 34.0229 162.818 45.7212C163.826 48.276 164.767 51.0325 164.767 53.6546C164.767 59.5038 160.666 62.3276 153.943 63.4033ZM178.012 53.0495C174.583 46.3935 171.154 39.6704 167.793 33.0144C165.91 29.3166 164.028 25.4844 162.145 21.8538C161.54 20.5764 160.868 19.4335 160.33 18.2232C159.725 16.8786 158.38 12.7775 158.38 10.8277V9.41581C158.447 8.74348 158.515 7.93668 158.716 7.33162C160.733 0.944569 168.196 0.339449 172.633 0.00323869L189.374 0.00317383L178.012 53.0495Z" fill="#8A8989"/>
</g>
<defs>
<clipPath id="clip0_122_5376">
<rect width="189.84" height="88.814" fill="white" transform="translate(0.25)"/>
</clipPath>
</defs>
</svg>
