<svg width="500" height="466" viewBox="0 0 500 466" fill="none" xmlns="http://www.w3.org/2000/svg">
<path d="M73.2206 430.279C170.855 476.808 329.145 476.822 426.779 430.279C524.414 383.735 524.4 308.303 426.779 261.774C329.159 215.245 170.855 215.245 73.2206 261.774C-24.414 308.303 -24.3998 383.75 73.2206 430.279Z" fill="#F5F5F5"/>
<path d="M426.44 395.892C444.422 395.892 458.999 388.946 458.999 380.378C458.999 371.809 444.422 364.863 426.44 364.863C408.458 364.863 393.881 371.809 393.881 380.378C393.881 388.946 408.458 395.892 426.44 395.892Z" fill="#EBEBEB"/>
<path d="M65.811 382.601L77.33 375.956C83.7613 370.708 88.6563 363.821 91.4984 356.021C95.0547 346.217 94.5588 338.764 92.0085 335.024C88.8772 330.419 80.7587 331.227 80.4329 340.918C79.7528 360.017 74.1846 373.264 65.811 382.601Z" fill="#AE2BFF"/>
<path opacity="0.2" d="M65.811 382.601L77.33 375.956C83.7613 370.708 88.6563 363.821 91.4984 356.021C95.0547 346.217 94.5588 338.764 92.0085 335.024C88.8772 330.419 80.7587 331.227 80.4329 340.918C79.7528 360.017 74.1846 373.264 65.811 382.601Z" fill="black"/>
<path d="M65.8111 383.31C65.6611 383.308 65.5155 383.258 65.3954 383.169C65.2753 383.079 65.1868 382.953 65.1427 382.81C65.0985 382.666 65.1011 382.513 65.1499 382.371C65.1987 382.229 65.2913 382.106 65.4144 382.02C92.051 363.601 86.8937 337.914 86.837 337.659C86.8175 337.566 86.8164 337.47 86.834 337.377C86.8515 337.283 86.8873 337.194 86.9393 337.114C86.9913 337.035 87.0584 336.966 87.1369 336.913C87.2154 336.859 87.3036 336.821 87.3967 336.802C87.4897 336.782 87.5857 336.781 87.6791 336.799C87.7725 336.816 87.8616 336.852 87.9412 336.904C88.0208 336.956 88.0893 337.023 88.143 337.102C88.1966 337.18 88.2343 337.268 88.2538 337.361C88.2538 337.631 93.6945 364.196 66.2645 383.182C66.1313 383.273 65.9721 383.318 65.8111 383.31V383.31Z" fill="white"/>
<path d="M42.7307 395.934C42.7307 395.934 38.721 392.675 39.6845 388.254C40.6479 383.834 43.2408 380.66 38.8061 374.965C34.3713 369.269 33.1387 361.675 38.4377 357.566C42.4757 354.378 48.7806 358.883 51.0476 350.482C52.7194 344.332 52.1527 330.717 59.9878 326.183C67.823 321.649 72.7394 328.478 71.5068 337.716C70.43 345.976 68.8998 353.924 70.0899 356.135C72.3852 360.385 76.3099 359.804 76.1257 367.569C75.9698 374.795 69.1265 380.774 69.1265 380.774L42.7307 395.934Z" fill="#AE2BFF"/>
<path d="M55.893 389.006C55.7198 389.004 55.553 388.94 55.423 388.825C55.293 388.711 55.2084 388.554 55.1846 388.382C53.1585 371.593 58.0183 342.604 61.9854 333.99C62.0188 333.894 62.0723 333.807 62.1423 333.734C62.2123 333.66 62.2971 333.603 62.3911 333.566C62.4851 333.528 62.586 333.511 62.6871 333.516C62.7882 333.52 62.8871 333.547 62.9772 333.593C63.0618 333.631 63.1379 333.686 63.201 333.754C63.2641 333.822 63.3129 333.901 63.3446 333.989C63.3763 334.076 63.3902 334.168 63.3855 334.261C63.3808 334.354 63.3576 334.444 63.3173 334.528C59.3926 343.029 54.7029 372.103 56.6439 388.155C56.6639 388.341 56.6095 388.527 56.4927 388.673C56.376 388.819 56.2062 388.913 56.0205 388.935L55.893 389.006Z" fill="white"/>
<path d="M55.5108 375.928C55.4024 375.933 55.2946 375.909 55.1991 375.857C50.2827 373.463 47.1656 364.919 47.0381 364.522C47.0034 364.434 46.9867 364.34 46.989 364.245C46.9913 364.151 47.0126 364.057 47.0516 363.971C47.0905 363.885 47.1464 363.807 47.216 363.743C47.2855 363.679 47.3672 363.629 47.4562 363.597C47.5453 363.564 47.6399 363.55 47.7345 363.555C47.8291 363.56 47.9217 363.584 48.0069 363.626C48.0921 363.667 48.1681 363.725 48.2305 363.796C48.2928 363.868 48.3402 363.951 48.3699 364.041C48.3699 364.126 51.4161 372.4 55.8225 374.54C55.9671 374.61 56.0835 374.727 56.1528 374.871C56.2221 375.016 56.2401 375.18 56.2039 375.337C56.1676 375.493 56.0793 375.633 55.9534 375.733C55.8275 375.832 55.6714 375.886 55.5108 375.886V375.928Z" fill="white"/>
<path d="M55.4258 381.595C55.2839 381.596 55.1453 381.552 55.0288 381.471C54.9122 381.39 54.8233 381.275 54.7741 381.142C54.7036 380.969 54.7042 380.775 54.7759 380.603C54.8475 380.43 54.9844 380.293 55.1566 380.221C63.431 376.906 68.5883 367.059 68.645 366.945C68.7314 366.778 68.8807 366.652 69.0601 366.595C69.2394 366.538 69.4341 366.554 69.6014 366.641C69.7686 366.727 69.8946 366.876 69.9517 367.056C70.0089 367.235 69.9924 367.43 69.906 367.597C69.6793 368.022 64.4511 378.025 55.7375 381.539C55.6405 381.585 55.5329 381.604 55.4258 381.595V381.595Z" fill="white"/>
<path d="M344.645 305.369C344.645 305.369 338.454 295.338 337.845 284.443C337.235 273.547 339.63 269.013 342.917 267.71C346.204 266.406 346.459 270.416 348.145 272.782C349.831 275.148 353.274 273.802 354.549 266.42C355.824 259.039 360.472 246.585 370.134 244.162C380.761 241.526 375.065 253.995 372.387 258.854C369.709 263.714 367.641 270.345 369.398 272.144C371.154 273.944 373.889 270.614 376.482 273.703C379.641 277.429 369.823 290.847 364.184 294.091L344.645 305.369Z" fill="#AE2BFF"/>
<path d="M353.132 301.161C353.039 301.158 352.948 301.136 352.863 301.097C352.779 301.058 352.703 301.002 352.64 300.934C352.576 300.865 352.527 300.785 352.495 300.698C352.463 300.61 352.448 300.518 352.452 300.424C353.412 282.898 358.877 265.915 368.321 251.118C368.374 251.041 368.443 250.976 368.522 250.926C368.602 250.876 368.691 250.843 368.783 250.828C368.876 250.814 368.971 250.818 369.062 250.841C369.153 250.864 369.238 250.906 369.313 250.962C369.461 251.073 369.561 251.237 369.59 251.42C369.619 251.602 369.575 251.789 369.469 251.94C360.194 266.52 354.827 283.241 353.883 300.495C353.878 300.588 353.854 300.68 353.813 300.763C353.773 300.847 353.716 300.922 353.646 300.984C353.576 301.046 353.495 301.094 353.407 301.124C353.319 301.154 353.225 301.167 353.132 301.161Z" fill="white"/>
<path d="M353.94 292.788C353.821 292.787 353.705 292.757 353.6 292.703C349.633 290.507 347.437 283.989 347.352 283.72C347.32 283.632 347.307 283.538 347.312 283.444C347.317 283.351 347.341 283.259 347.382 283.175C347.423 283.09 347.48 283.015 347.55 282.953C347.62 282.891 347.702 282.843 347.791 282.813C347.969 282.755 348.164 282.77 348.331 282.855C348.498 282.94 348.625 283.088 348.683 283.267C348.683 283.267 350.809 289.543 354.351 291.456C354.511 291.551 354.629 291.704 354.679 291.883C354.729 292.063 354.708 292.255 354.62 292.419C354.556 292.541 354.457 292.641 354.336 292.707C354.215 292.773 354.077 292.801 353.94 292.788Z" fill="white"/>
<path d="M354.634 288.495C354.477 288.493 354.325 288.439 354.202 288.342C354.079 288.244 353.992 288.109 353.954 287.956C353.931 287.867 353.926 287.774 353.939 287.682C353.952 287.591 353.983 287.503 354.031 287.424C354.078 287.345 354.141 287.276 354.215 287.221C354.29 287.167 354.374 287.128 354.464 287.106C364.694 284.513 368.236 279.158 368.264 279.101C368.314 279.022 368.38 278.954 368.456 278.9C368.533 278.846 368.62 278.808 368.711 278.787C368.802 278.767 368.897 278.765 368.989 278.781C369.082 278.797 369.17 278.831 369.249 278.881C369.328 278.932 369.396 278.997 369.45 279.074C369.504 279.15 369.542 279.237 369.563 279.328C369.583 279.42 369.585 279.514 369.569 279.607C369.553 279.699 369.519 279.787 369.468 279.866C369.313 280.107 365.629 285.732 354.818 288.48L354.634 288.495Z" fill="white"/>
<path d="M190.493 283.352C190.493 283.352 176.905 280.036 176.197 254.59C175.446 227.131 179.527 195.082 163.445 192.489C147.364 189.897 138.438 209.492 138.637 232.374C138.821 252.408 146.897 295.905 190.436 304.434L190.493 283.352Z" fill="#AE2BFF"/>
<path opacity="0.2" d="M190.493 283.352C190.493 283.352 176.905 280.036 176.197 254.59C175.446 227.131 179.527 195.082 163.445 192.489C147.364 189.897 138.438 209.492 138.637 232.374C138.821 252.408 146.897 295.905 190.436 304.434L190.493 283.352Z" fill="black"/>
<path d="M190.493 301.827H190.366C180.575 300.042 172.599 294.644 166.662 285.803C149.065 259.549 154.605 210.526 156.432 201.968C156.473 201.786 156.583 201.626 156.739 201.523C156.895 201.42 157.085 201.382 157.268 201.416C157.452 201.46 157.611 201.572 157.714 201.73C157.817 201.889 157.855 202.08 157.821 202.266C156.022 210.767 150.51 259.166 167.838 285.009C170.36 289.017 173.688 292.457 177.61 295.11C181.532 297.764 185.962 299.574 190.621 300.424C190.713 300.441 190.801 300.477 190.88 300.528C190.959 300.579 191.027 300.646 191.079 300.724C191.132 300.801 191.169 300.889 191.187 300.981C191.206 301.073 191.206 301.168 191.188 301.26C191.157 301.422 191.071 301.567 190.944 301.671C190.817 301.775 190.657 301.83 190.493 301.827V301.827Z" fill="white"/>
<path d="M190.493 367.129C176.452 369.028 153.655 369 140.493 358.628C127.33 348.257 130.079 339.331 135.137 335.605C140.195 331.878 144.587 327.628 135.888 319.353C127.188 311.079 113.218 297.789 108.685 277.854C104.151 257.919 106.389 245.451 115.287 241.3C123.916 237.276 126.197 243.68 131.482 256.885C136.766 270.09 148.654 258.769 158.827 262.892C168.999 267.015 168.589 275.176 169.226 282.19C169.864 289.203 173.222 291.144 178.988 291.144C184.755 291.144 190.493 294.46 190.493 301.062V367.129Z" fill="#AE2BFF"/>
<path d="M190.493 343.978C190.433 343.992 190.37 343.992 190.309 343.978C189.7 343.808 175.177 339.586 154.024 320.161C131.496 299.475 120.87 268.446 120.756 268.135C120.702 267.956 120.719 267.763 120.803 267.597C120.888 267.431 121.034 267.303 121.21 267.242C121.386 267.183 121.579 267.196 121.746 267.279C121.913 267.361 122.041 267.505 122.102 267.681C122.202 267.993 132.729 298.682 154.987 319.113C175.843 338.282 190.536 342.576 190.692 342.618C190.781 342.644 190.864 342.687 190.937 342.746C191.009 342.804 191.07 342.876 191.114 342.957C191.159 343.039 191.187 343.129 191.198 343.221C191.208 343.314 191.199 343.407 191.173 343.496C191.127 343.64 191.036 343.764 190.914 343.851C190.791 343.938 190.644 343.982 190.493 343.978Z" fill="white"/>
<path d="M159.932 325.092C159.79 325.094 159.65 325.051 159.533 324.97C159.416 324.889 159.328 324.773 159.28 324.638C154.732 312.963 153.698 287.985 153.613 286.922C153.609 286.735 153.678 286.554 153.804 286.416C153.931 286.279 154.106 286.196 154.293 286.185C154.478 286.188 154.656 286.259 154.792 286.384C154.928 286.51 155.012 286.681 155.03 286.865C155.03 287.12 156.092 312.666 160.555 324.128C160.59 324.216 160.606 324.309 160.604 324.403C160.602 324.496 160.581 324.589 160.543 324.675C160.504 324.76 160.449 324.837 160.381 324.902C160.313 324.966 160.232 325.016 160.145 325.049C160.076 325.074 160.005 325.088 159.932 325.092V325.092Z" fill="white"/>
<path d="M159.818 341.881C158.512 341.892 157.206 341.825 155.908 341.683C155.815 341.672 155.725 341.642 155.643 341.596C155.561 341.551 155.49 341.489 155.432 341.415C155.374 341.342 155.331 341.257 155.306 341.167C155.28 341.077 155.273 340.983 155.284 340.889C155.296 340.796 155.325 340.707 155.371 340.625C155.417 340.543 155.478 340.471 155.552 340.413C155.626 340.356 155.71 340.313 155.8 340.287C155.89 340.262 155.985 340.255 156.078 340.266C156.205 340.266 169.396 341.768 175.446 335.605C175.509 335.53 175.587 335.469 175.674 335.426C175.762 335.383 175.857 335.359 175.955 335.354C176.052 335.35 176.15 335.365 176.241 335.4C176.332 335.435 176.415 335.489 176.485 335.557C176.554 335.626 176.609 335.708 176.645 335.799C176.681 335.889 176.698 335.986 176.695 336.084C176.692 336.182 176.669 336.277 176.627 336.366C176.585 336.454 176.526 336.532 176.452 336.596C172.074 341.116 164.437 341.881 159.818 341.881Z" fill="white"/>
<path d="M149.617 73.5883L148.087 64.7613L140.209 69.947C139.489 68.5302 138.469 67.2876 137.22 66.3057L140.988 56.1044L133.904 54.5317L128.719 64.4496C126.842 64.7661 125.023 65.3582 123.32 66.2065L121.068 58.7256L112.652 65.3422L113.204 74.1267C111.49 76.0465 109.936 78.103 108.557 80.2758L101.614 79.9216L96.7404 90.8454L102.705 93.3957C102.083 95.6552 101.689 97.9716 101.529 100.31L93.9492 107.281L95.4652 116.122L103.357 110.936C104.073 112.352 105.094 113.591 106.347 114.563L102.649 124.779L109.733 126.337L117.157 119.111C118.871 118.842 118.446 115.612 120.317 114.691L122.569 122.143L130.971 115.541L130.759 112.084C132.459 110.185 138.891 106.006 140.28 103.824L142.023 100.99L146.897 90.0661L144.63 85.9573L142.108 80.6016L149.617 73.5883ZM123.901 102.648C117.44 107.72 115.4 108.839 114.309 102.053C113.218 95.266 116.916 84.9513 123.377 79.8649C129.838 74.7784 132.303 74.4242 133.465 81.1967C134.627 87.9692 130.376 97.6321 123.901 102.648Z" fill="#E0E0E0"/>
<path d="M133.961 54.5317L143.156 59.8307L137.97 69.7203L128.775 64.4213L133.961 54.5317Z" fill="#F5F5F5"/>
<path d="M157.282 70.0603L149.404 75.246L140.209 69.947L148.087 64.7614L157.282 70.0603Z" fill="#F5F5F5"/>
<path d="M156.021 95.3227L150.056 92.7865L140.861 87.4875L146.826 90.0237L156.021 95.3227Z" fill="#E0E0E0"/>
<path d="M102.634 124.779L111.83 130.064L115.598 119.862L106.403 114.563L102.634 124.779Z" fill="#E0E0E0"/>
<path d="M131.68 127.442L122.498 122.143L120.246 114.691L129.441 119.99L131.68 127.442Z" fill="#E0E0E0"/>
<path d="M158.798 78.8872L157.282 70.0603L149.404 75.2459C148.679 73.8285 147.654 72.586 146.401 71.6046L150.169 61.4034L143.156 59.8307L137.956 69.7486C136.08 70.0651 134.261 70.6571 132.558 71.5055L130.32 64.0529L121.903 70.6695L122.456 79.454C120.74 81.3873 119.186 83.4581 117.809 85.6456L110.852 85.2913L105.978 96.2152L111.943 98.7655C111.326 101.031 110.932 103.352 110.767 105.694L103.201 112.566L104.717 121.407L112.595 116.221C113.32 117.634 114.345 118.872 115.599 119.848L111.83 130.049L118.914 131.622L124.1 121.704C125.983 121.391 127.808 120.794 129.512 119.933L131.751 127.386L140.167 120.783L139.614 111.999C141.328 110.079 142.882 108.022 144.261 105.85L151.218 106.19L156.092 95.2659L150.042 92.7298C150.669 90.4659 151.068 88.1448 151.232 85.8014L158.798 78.8872ZM133.111 108.003C126.664 113.076 120.487 111.701 119.311 104.929C118.135 98.1563 122.428 88.5359 128.889 83.4636C135.349 78.3913 141.513 79.7798 142.689 86.5523C143.865 93.3248 139.572 102.931 133.111 108.003Z" fill="#EBEBEB"/>
<path d="M130.319 64.0246L121.124 58.7256L112.708 65.3422L121.903 70.6412L130.319 64.0246Z" fill="#F5F5F5"/>
<path d="M112.708 65.3422L113.261 74.1266L122.456 79.4256L121.903 70.6412L112.708 65.3422Z" fill="#E0E0E0"/>
<path d="M117.809 85.5747L108.613 80.2757L101.671 79.9357L110.852 85.2347L117.809 85.5747Z" fill="#F5F5F5"/>
<path d="M101.671 79.9357L96.7969 90.8453L105.978 96.1443L110.852 85.2347L101.671 79.9357Z" fill="#E0E0E0"/>
<path d="M110.767 105.609L101.586 100.31L94.0059 107.281L103.187 112.58L110.767 105.609Z" fill="#F5F5F5"/>
<path d="M104.717 121.421L95.5219 116.122L94.0059 107.281L103.187 112.58L104.717 121.421Z" fill="#E0E0E0"/>
<path d="M143.156 59.8307L133.96 54.5317L140.988 56.1044L150.169 61.4034L143.156 59.8307Z" fill="#F5F5F5"/>
<path d="M108.443 33.5199V20.3291L97.9444 25.0614C97.3884 22.8234 96.428 20.7059 95.1107 18.8131L101.727 5.48063L93.6514 0.819214L85.4054 13.2166C83.1074 13.0158 80.7921 13.2416 78.5762 13.8825L77.4144 2.42025L65.9947 9.02273L64.847 21.7743C62.3617 23.9765 60.0764 26.3946 58.0178 29.0002L49.7718 26.1665L41.6958 40.1649L48.2983 45.8323C47.0783 48.9175 46.1301 52.1033 45.4646 55.3535L34.9658 62.7352V75.9402L45.4646 71.2079C46.0207 73.4459 46.981 75.5634 48.2983 77.4562L41.7242 90.8029L49.8001 95.4643L58.0462 83.0669C60.3441 83.267 62.6593 83.0413 64.8753 82.401L66.023 93.8632L77.4427 87.2608L78.6045 74.5092C82.1688 73.2087 85.3263 70.9897 87.7574 68.0767L93.6797 70.1595L101.756 56.1752L96.7968 51.9247C97.8733 48.3803 98.2723 44.6647 97.9728 40.9725L108.443 33.5199ZM71.7045 66.4757C62.9485 71.5338 57.5361 67.8925 57.5361 57.8188C57.5361 47.745 64.7762 35.291 73.5464 30.2329C82.3167 25.1747 87.6157 28.816 87.6157 38.9748C87.6157 49.1335 80.4748 61.4034 71.7045 66.4757Z" fill="#E0E0E0"/>
<path d="M102.832 6.10404L93.6513 0.819214L85.4053 13.2166L94.5864 18.5156L102.832 6.10404Z" fill="#F5F5F5"/>
<path d="M117.638 25.6282L108.443 20.3292L97.9443 25.0615L107.14 30.3605L117.638 25.6282Z" fill="#F5F5F5"/>
<path d="M75.1759 99.1622L65.9948 93.8632L64.8472 82.401L74.0283 87.7L75.1759 99.1622Z" fill="#E0E0E0"/>
<path d="M41.6816 90.8028L50.8769 96.1018L57.4936 82.7693L48.2983 77.4703L41.6816 90.8028Z" fill="#E0E0E0"/>
<path d="M117.639 38.8897V25.6989L107.14 30.3887C106.59 28.1487 105.629 26.0301 104.306 24.1404L110.923 10.8079L102.847 6.13232L94.6007 18.5439C92.3027 18.3361 89.9861 18.562 87.7715 19.2098L86.6097 7.71919L75.19 14.3217L74.0282 27.0733C71.5464 29.2792 69.2614 31.6969 67.199 34.2992L58.953 31.4655L50.877 45.4639L57.4936 51.1312C56.2672 54.2142 55.3189 57.4006 54.6599 60.6524L44.1611 68.0342V81.2391L54.6599 76.5069C55.2099 78.747 56.1707 80.8656 57.4936 82.7552L50.877 96.0876L58.953 100.749L67.199 88.3517C69.497 88.5524 71.8123 88.3267 74.0282 87.6858L75.19 99.148L86.6097 92.5455L87.7574 79.7939C90.2427 77.5917 92.528 75.1736 94.5865 72.5681L102.833 75.4017L110.909 61.4175L104.292 55.7501C105.518 52.6671 106.466 49.4807 107.126 46.229L117.639 38.8897ZM80.8998 71.8455C72.1296 76.9036 65.0171 72.7947 65.0171 62.6785C65.0171 52.5622 72.1012 40.2499 80.8998 35.1776C89.6984 30.1053 96.7685 34.2283 96.7685 44.3446C96.7685 54.4608 89.6559 66.7023 80.8998 71.7746V71.8455Z" fill="#EBEBEB"/>
<path d="M58.018 29.0285L67.1991 34.3275L58.9531 31.4513L49.772 26.1382L58.018 29.0285Z" fill="#F0F0F0"/>
<path d="M49.7711 26.1526L41.6929 40.1558L50.8851 45.4586L58.9633 31.4555L49.7711 26.1526Z" fill="#F5F5F5"/>
<path d="M41.6816 40.1366L50.8769 45.4356L57.4936 51.1313L48.2983 45.8465L41.6816 40.1366Z" fill="#E0E0E0"/>
<path d="M45.4646 55.3676L54.6599 60.6665L44.1611 68.0483L34.9658 62.7493L45.4646 55.3676Z" fill="#F5F5F5"/>
<path d="M34.9658 62.7494L44.1611 68.0484V81.2533L34.9658 75.9544V62.7494Z" fill="#E0E0E0"/>
<path d="M86.6097 7.71915L77.4144 2.42017L65.9946 9.02264L75.1758 14.3216L86.6097 7.71915Z" fill="#F5F5F5"/>
<path d="M204.491 386.087L337.674 309.181C337.967 309.077 338.222 308.886 338.401 308.632C338.581 308.378 338.678 308.075 338.678 307.764C338.678 307.453 338.581 307.149 338.401 306.896C338.222 306.642 337.967 306.45 337.674 306.347L325.362 299.263C324.599 298.879 323.757 298.679 322.903 298.679C322.05 298.679 321.208 298.879 320.445 299.263L187.22 376.098C186.926 376.201 186.672 376.393 186.492 376.647C186.312 376.9 186.216 377.204 186.216 377.515C186.216 377.826 186.312 378.129 186.492 378.383C186.672 378.637 186.926 378.829 187.22 378.932L199.574 386.016C200.332 386.411 201.171 386.623 202.024 386.635C202.878 386.647 203.723 386.46 204.491 386.087V386.087Z" fill="#E0E0E0"/>
<path d="M334.019 12.253L213.927 81.5933C212.142 82.7583 210.656 84.3275 209.591 86.1736C208.525 88.0198 207.909 90.091 207.792 92.2196V377.104C207.792 381.015 210.541 382.601 213.927 380.646L334.019 311.306C335.806 310.143 337.294 308.575 338.36 306.728C339.426 304.881 340.041 302.809 340.154 300.68V15.7951C340.154 11.8846 337.419 10.2978 334.019 12.253Z" fill="#455A64"/>
<path d="M213.927 81.5932L334.019 12.253C337.051 10.4961 339.559 11.5871 340.069 14.6333C339.785 12.718 339.1 10.8845 338.057 9.25324C337.014 7.62198 335.638 6.22996 334.019 5.16876L329.031 2.33508C327.13 1.37049 325.028 0.867798 322.896 0.867798C320.765 0.867798 318.663 1.37049 316.762 2.33508L196.656 71.6187C194.847 72.7529 193.355 74.3275 192.32 76.1951L209.592 86.113C210.626 84.2602 212.119 82.7039 213.927 81.5932V81.5932Z" fill="#37474F"/>
<path d="M190.493 367.13C190.609 369.258 191.225 371.329 192.291 373.175C193.357 375.022 194.842 376.591 196.628 377.756L201.629 380.59C203.36 381.455 205.255 381.946 207.188 382.029C209.122 382.112 211.052 381.786 212.85 381.071C210.017 382.176 207.764 380.547 207.764 377.047V92.2196C207.835 90.0821 208.455 87.9987 209.563 86.1697L192.292 76.2518C191.199 78.0669 190.58 80.128 190.493 82.2451V367.13Z" fill="#263238"/>
<path d="M217.229 119.55L330.76 54.0215C332.8 52.8597 334.444 53.809 334.444 56.1468V267.001C334.376 268.279 334.007 269.523 333.367 270.631C332.726 271.739 331.833 272.68 330.76 273.377L217.271 338.906C215.231 340.082 213.587 339.133 213.587 336.781V125.926C213.652 124.652 214.015 123.412 214.648 122.304C215.28 121.196 216.164 120.253 217.229 119.55V119.55Z" fill="white"/>
<path d="M273.973 57.7195C273.346 58.1309 272.825 58.6837 272.451 59.3334C272.077 59.9831 271.86 60.7115 271.819 61.46C271.819 62.8768 272.783 63.4011 273.973 62.7068C274.602 62.2979 275.125 61.7457 275.5 61.0955C275.874 60.4453 276.089 59.7157 276.127 58.9663C276.127 57.592 275.163 57.0394 273.973 57.7195Z" fill="#37474F"/>
<path d="M273.973 316.222C271.496 317.843 269.436 320.024 267.959 322.589C266.482 325.154 265.63 328.03 265.472 330.986C265.472 336.412 269.283 338.623 273.973 335.902C276.449 334.281 278.509 332.1 279.986 329.535C281.463 326.97 282.315 324.094 282.474 321.139C282.503 315.712 278.677 313.502 273.973 316.222Z" fill="#37474F"/>
<path d="M253.585 79.6522C252.339 80.4788 251.306 81.5865 250.567 82.886C249.829 84.1854 249.407 85.6403 249.334 87.1331C249.334 89.8818 251.261 91.0011 253.585 89.6267C254.843 88.808 255.89 87.7037 256.641 86.4038C257.392 85.1038 257.825 83.6449 257.906 82.1458C257.906 79.3971 255.979 78.2778 253.585 79.6522Z" fill="#37474F"/>
<path d="M264.168 78.7171C264.168 80.559 265.585 81.2533 267.243 80.2757L295.58 63.8828C296.458 63.3346 297.194 62.5869 297.728 61.7006C298.262 60.8143 298.58 59.8144 298.654 58.7822C298.654 56.9544 297.238 56.2602 295.58 57.2378L267.243 73.6307C266.367 74.1775 265.632 74.9229 265.098 75.8066C264.564 76.6903 264.245 77.6874 264.168 78.7171V78.7171Z" fill="#37474F"/>
<path d="M200.07 128.675C201.076 129.33 201.913 130.213 202.513 131.251C203.114 132.29 203.461 133.456 203.527 134.654C203.527 136.864 201.983 137.757 200.07 136.652C199.068 135.994 198.235 135.111 197.637 134.072C197.039 133.034 196.693 131.869 196.627 130.673C196.627 128.477 198.172 127.584 200.07 128.675Z" fill="#37474F"/>
<path d="M200.07 155.283C201.076 155.938 201.913 156.821 202.513 157.86C203.114 158.898 203.461 160.064 203.527 161.262C203.527 163.458 201.983 164.351 200.07 163.26C199.068 162.603 198.235 161.719 197.637 160.681C197.039 159.642 196.693 158.478 196.627 157.281C196.627 155.071 198.172 154.178 200.07 155.283Z" fill="#37474F"/>
<path d="M198.994 129.213C199.999 129.868 200.836 130.751 201.437 131.79C202.037 132.829 202.385 133.994 202.451 135.192C202.451 137.388 200.906 138.281 198.994 137.19C197.988 136.535 197.151 135.653 196.551 134.614C195.95 133.575 195.603 132.409 195.537 131.211C195.551 129.001 197.095 128.151 198.994 129.213Z" fill="#455A64"/>
<path d="M198.994 155.807C200.001 156.464 200.839 157.349 201.44 158.39C202.041 159.432 202.387 160.6 202.451 161.801C202.451 163.997 200.906 164.889 198.994 163.784C197.986 163.132 197.147 162.25 196.546 161.21C195.945 160.171 195.599 159.004 195.537 157.805C195.551 155.609 197.095 154.716 198.994 155.807Z" fill="#455A64"/>
<path d="M357.425 62.8201C357.425 60.4681 355.781 59.5189 353.741 60.6948L340.154 68.53L240.252 126.224C239.179 126.921 238.286 127.862 237.646 128.97C237.006 130.078 236.636 131.322 236.568 132.6V343.397C236.568 345.749 238.212 346.699 240.252 345.523L340.196 287.815L353.741 279.994C354.814 279.296 355.707 278.355 356.347 277.247C356.988 276.139 357.357 274.896 357.425 273.618V62.8201Z" fill="white"/>
<path d="M358.842 62.8201C358.931 62.1095 358.809 61.3885 358.49 60.7471C358.172 60.1057 357.671 59.5725 357.051 59.2141C356.431 58.8558 355.72 58.6881 355.005 58.7323C354.29 58.7764 353.604 59.0302 353.033 59.4621L340.069 66.9572L239.544 125.048C238.25 125.865 237.174 126.984 236.408 128.31C235.643 129.635 235.212 131.127 235.152 132.656V343.397C235.095 344.105 235.231 344.814 235.545 345.45C235.86 346.087 236.341 346.626 236.937 347.01C237.444 347.305 238.022 347.457 238.609 347.449C239.439 347.424 240.249 347.184 240.961 346.755L341.557 288.665L354.492 281.198C355.779 280.373 356.85 279.252 357.614 277.928C358.378 276.604 358.814 275.116 358.885 273.589L358.842 62.8201ZM340.097 286.242L338.935 286.922L239.601 344.276C239.434 344.404 239.24 344.493 239.034 344.538C238.828 344.582 238.615 344.579 238.411 344.531C238.226 344.417 238.042 344.021 238.042 343.369V132.6C238.116 131.571 238.421 130.572 238.937 129.679C239.452 128.785 240.164 128.021 241.018 127.442L340.253 70.0601L354.422 61.8566C354.589 61.7283 354.782 61.6389 354.988 61.5948C355.194 61.5507 355.407 61.553 355.612 61.6016C355.796 61.7149 355.98 62.1116 355.98 62.7634V273.618C355.907 274.647 355.601 275.645 355.085 276.539C354.57 277.432 353.859 278.197 353.005 278.775L340.069 286.242H340.097Z" fill="#AE2BFF"/>
<path d="M296.997 111.8C309.748 104.461 320.021 110.383 320.021 125.104C320.021 139.825 309.706 157.692 296.997 164.974C284.288 172.257 273.973 166.391 273.973 151.684C273.973 136.978 284.288 119.154 296.997 111.8Z" fill="#AE2BFF"/>
<path d="M296.997 123.362C301.12 120.981 304.463 122.908 304.463 127.612C304.323 130.204 303.574 132.725 302.277 134.973C300.979 137.221 299.17 139.131 296.997 140.548C292.874 142.928 289.53 141.001 289.53 136.297C289.67 133.706 290.419 131.184 291.716 128.937C293.014 126.689 294.823 124.779 296.997 123.362V123.362Z" fill="#AE2BFF"/>
<path d="M311.548 148.752C311.548 140.931 306.064 137.757 299.278 141.667L295.027 144.119C288.255 148.029 282.757 157.55 282.757 165.371V167.482C286.682 168.772 291.613 168.077 296.926 164.974C302.811 161.344 307.789 156.415 311.477 150.565L311.548 148.752Z" fill="#AE2BFF"/>
<path opacity="0.7" d="M296.997 123.362C301.12 120.981 304.463 122.908 304.463 127.612C304.323 130.204 303.574 132.725 302.277 134.973C300.979 137.221 299.17 139.131 296.997 140.548C292.874 142.928 289.53 141.001 289.53 136.297C289.67 133.706 290.419 131.184 291.716 128.937C293.014 126.689 294.823 124.779 296.997 123.362V123.362Z" fill="white"/>
<path opacity="0.7" d="M311.548 148.752C311.548 140.931 306.064 137.757 299.278 141.667L295.027 144.119C288.255 148.029 282.757 157.55 282.757 165.371V167.482C286.682 168.772 291.613 168.077 296.926 164.974C302.811 161.344 307.789 156.415 311.477 150.565L311.548 148.752Z" fill="white"/>
<path d="M252.451 197.349L282.077 180.248C283.494 179.469 284.528 180.092 284.528 181.665V182.642C284.484 183.494 284.238 184.323 283.812 185.061C283.386 185.8 282.792 186.428 282.077 186.893L252.451 203.994C251.105 204.774 250 204.136 250 202.577V201.6C250.046 200.749 250.292 199.92 250.718 199.182C251.144 198.443 251.737 197.815 252.451 197.349V197.349Z" fill="#AE2BFF"/>
<path opacity="0.1" d="M252.451 197.349L282.077 180.248C283.494 179.469 284.528 180.092 284.528 181.665V182.642C284.484 183.494 284.238 184.323 283.812 185.061C283.386 185.8 282.792 186.428 282.077 186.893L252.451 203.994C251.105 204.774 250 204.136 250 202.577V201.6C250.046 200.749 250.292 199.92 250.718 199.182C251.144 198.443 251.737 197.815 252.451 197.349V197.349Z" fill="black"/>
<path d="M251.233 217.993L340.862 166.25C341.528 165.853 342.081 166.165 342.081 166.958V177.414C342.056 177.839 341.933 178.251 341.721 178.62C341.51 178.989 341.216 179.304 340.862 179.54L251.233 231.283C250.553 231.679 250 231.353 250 230.574V220.118C250.024 219.692 250.149 219.277 250.363 218.908C250.577 218.539 250.875 218.225 251.233 217.993V217.993Z" fill="#AE2BFF"/>
<path opacity="0.2" d="M251.233 217.993L340.862 166.25C341.528 165.853 342.081 166.165 342.081 166.958V177.414C342.056 177.839 341.933 178.251 341.721 178.62C341.51 178.989 341.216 179.304 340.862 179.54L251.233 231.283C250.553 231.679 250 231.353 250 230.574V220.118C250.024 219.692 250.149 219.277 250.363 218.908C250.577 218.539 250.875 218.225 251.233 217.993V217.993Z" fill="white"/>
<path d="M252.451 243.864L282.077 226.763C283.494 225.984 284.528 226.621 284.528 228.18V229.157C284.485 230.009 284.24 230.838 283.814 231.577C283.388 232.316 282.793 232.943 282.077 233.408L252.451 250.509C251.105 251.303 250 250.665 250 249.092V248.115C250.048 247.264 250.295 246.436 250.721 245.698C251.146 244.96 251.739 244.332 252.451 243.864V243.864Z" fill="#AE2BFF"/>
<path opacity="0.1" d="M252.451 243.864L282.077 226.763C283.494 225.984 284.528 226.621 284.528 228.18V229.157C284.485 230.009 284.24 230.838 283.814 231.577C283.388 232.316 282.793 232.943 282.077 233.408L252.451 250.509C251.105 251.303 250 250.665 250 249.092V248.115C250.048 247.264 250.295 246.436 250.721 245.698C251.146 244.96 251.739 244.332 252.451 243.864V243.864Z" fill="black"/>
<path d="M251.233 264.508L340.862 212.764C341.528 212.368 342.081 212.694 342.081 213.473V223.929C342.056 224.354 341.933 224.766 341.721 225.135C341.51 225.504 341.216 225.819 340.862 226.054L251.233 277.798C250.553 278.194 250 277.883 250 277.089V266.633C250.024 266.207 250.149 265.792 250.363 265.423C250.577 265.054 250.875 264.74 251.233 264.508V264.508Z" fill="#AE2BFF"/>
<path opacity="0.2" d="M251.233 264.508L340.862 212.764C341.528 212.368 342.081 212.694 342.081 213.473V223.929C342.056 224.354 341.933 224.766 341.721 225.135C341.51 225.504 341.216 225.819 340.862 226.054L251.233 277.798C250.553 278.194 250 277.883 250 277.089V266.633C250.024 266.207 250.149 265.792 250.363 265.423C250.577 265.054 250.875 264.74 251.233 264.508V264.508Z" fill="white"/>
<path d="M286.979 270.444L322.401 250.027C323.817 249.234 324.866 249.872 324.866 251.444V262.382C324.819 263.235 324.572 264.065 324.143 264.803C323.715 265.542 323.118 266.169 322.401 266.633L286.979 287.064C285.563 287.843 284.528 287.205 284.528 285.647V274.695C284.578 273.844 284.825 273.017 285.25 272.279C285.676 271.541 286.268 270.913 286.979 270.444Z" fill="#AE2BFF"/>
<path opacity="0.1" d="M286.979 270.444L322.401 250.027C323.817 249.234 324.866 249.872 324.866 251.444V262.382C324.819 263.235 324.572 264.065 324.143 264.803C323.715 265.542 323.118 266.169 322.401 266.633L286.979 287.064C285.563 287.843 284.528 287.205 284.528 285.647V274.695C284.578 273.844 284.825 273.017 285.25 272.279C285.676 271.541 286.268 270.913 286.979 270.444Z" fill="black"/>
<path d="M370.856 224.283C370.856 224.283 353.458 200.282 352.437 197.363C351.63 195.21 352.437 192.008 352.693 190.52C352.948 189.032 353.174 185.717 353.429 184.853C353.854 183.237 351.772 183.563 350.596 185.037C349.42 186.51 349.023 189.457 348.414 189.939C347.804 190.421 343.171 183.662 340.749 180.545C338.326 177.428 336.81 175.53 335.322 176.692C334.259 177.527 335.053 179.341 336.81 182.005C337.836 183.439 338.782 184.929 339.643 186.468C339.913 187.049 338.467 187.091 337.688 188.295C337.079 189.231 337.688 190.747 336.838 191.469C336.315 191.867 335.956 192.444 335.831 193.089C335.706 193.735 335.822 194.404 336.158 194.969C337.735 197.446 339.769 199.6 342.151 201.316C344.758 203.116 345.807 203.753 347.351 206.204C348.895 208.655 362.752 233.691 363.687 235.193C364.622 236.695 366.422 239.755 369.156 239.84C371.891 239.925 394.277 220.656 395.424 219.693C399.108 216.618 400.284 216.179 400.908 218.942C401.123 219.924 401.284 220.917 401.389 221.917C401.829 225.431 404.223 237.984 404.223 237.984C404.223 237.984 415.558 243.467 424.866 240.818C434.175 238.168 437.32 234.215 437.32 234.215L432.659 226.621C433.92 223.49 439.743 210.795 441.628 201.911L412.441 197.193C411.846 197.066 410.882 196.825 409.607 196.499C408.006 196.074 403.94 194.671 400.865 197.363C390.834 206.105 370.885 224.283 370.885 224.283" fill="#FFA8A7"/>
<path d="M428.72 371.55L423.492 378.818C425.868 379.928 428.464 380.485 431.086 380.448C435.776 380.618 437.066 379.031 437.236 378.719C438.029 377.019 436.796 373.958 436.456 371.323L428.72 371.55Z" fill="#37474F"/>
<path d="M423.79 375.333C423.79 375.333 417.442 374.922 413.064 374.384C408.686 373.845 405.215 375.97 406.235 377.77C407.255 379.569 409.678 381.071 413.447 382.332C416.663 383.423 420.531 384.202 423.875 385.166C427.219 386.129 429.542 387.39 431.483 386.71C433.651 385.959 434.586 385.095 434.402 383.508C433.929 381.251 433.342 379.019 432.645 376.821L423.79 375.333Z" fill="#37474F"/>
<path d="M437.236 364.253C437.236 364.253 436.442 370.856 436.385 372.272C436.329 373.689 429.939 374.143 428.72 371.55L428.522 363.474L437.236 364.253Z" fill="#F28F8F"/>
<path d="M430.803 368.305L433.084 378.337C433.084 378.337 433.296 379.555 428.082 380.334C422.868 381.114 414.679 377.6 413.276 376.891C411.874 376.183 411.718 374.752 416.847 375.035C421.976 375.319 423.789 375.333 423.789 375.333L422.118 370.898L430.803 368.305Z" fill="#FFA8A7"/>
<path d="M441.543 201.826L445.156 200.82C445.156 200.82 452.708 224.722 453.544 227.032C454.379 229.341 455.329 231.778 453.699 234.626C451.758 238.012 441.543 251.628 441.543 251.628L435.054 245.281L442.421 231.792L435.904 218.616L441.543 201.826Z" fill="#F28F8F"/>
<path d="M404.435 170.783C403.588 169.193 403.159 167.414 403.186 165.613C403.213 163.812 403.697 162.047 404.591 160.483C408.19 153.81 416.209 150.565 425.759 151.798C430.179 152.379 435.393 156.048 438.241 161.531C441.387 167.61 441.684 179.851 442.492 184.484L404.435 170.783Z" fill="#37474F"/>
<path d="M404.181 173.405C404.181 173.405 401.914 177.726 402.31 178.123C402.898 178.466 403.54 178.705 404.209 178.831L404.181 173.405Z" fill="#FFA8A7"/>
<path d="M411.066 159.746C408.601 161.347 404.35 164.294 404.166 174C403.968 183.917 405.385 187.19 406.858 188.338C407.85 189.117 413.673 188.721 416.167 188.14C418.66 187.559 425.844 184.002 428.437 178.604C431.483 172.257 430.859 163.019 426.34 160.185C424.039 158.825 421.431 158.071 418.76 157.994C416.088 157.917 413.441 158.52 411.066 159.746V159.746Z" fill="#FFA8A7"/>
<path d="M437.235 234.159C441.599 240.96 445.736 246.91 446.643 254.59C448.513 270.727 442.393 289.175 441.075 301.119C443.553 304.516 444.981 308.565 445.184 312.765C445.184 317.71 437.235 364.253 437.235 364.253C437.235 364.253 431.455 366.01 428.522 363.474L423.067 277.854L425.901 267.426L437.235 234.159Z" fill="#AE2BFF"/>
<path opacity="0.2" d="M437.235 234.159C441.599 240.96 445.736 246.91 446.643 254.59C448.513 270.727 442.393 289.175 441.075 301.119C443.553 304.516 444.981 308.565 445.184 312.765C445.184 317.71 437.235 364.253 437.235 364.253C437.235 364.253 431.455 366.01 428.522 363.474L423.067 277.854L425.901 267.426L437.235 234.159Z" fill="black"/>
<path d="M423.067 277.854L425.901 267.426C431.326 265.998 436.559 263.919 441.486 261.234C441.486 261.234 438.539 266.604 430.066 269.551L425.688 282.941L425.32 313.615L423.067 277.854Z" fill="#AE2BFF"/>
<path opacity="0.3" d="M423.067 277.854L425.901 267.426C431.326 265.998 436.559 263.919 441.486 261.234C441.486 261.234 438.539 266.604 430.066 269.551L425.688 282.941L425.32 313.615L423.067 277.854Z" fill="black"/>
<path d="M437.236 234.159C439.573 237.984 445.156 244.502 443.966 250.778C442.549 258.372 438.44 263.714 425.943 267.426L414.212 309.931C414.212 309.931 420.319 315.599 422.189 321.082C424.059 326.565 430.803 368.334 430.803 368.334C430.803 368.334 428.706 371.748 422.118 370.926C422.118 370.926 399.151 318.503 397.536 315.089C395.575 311.631 394.889 307.595 395.595 303.683C396.317 298.186 404.096 238.012 404.096 238.012L437.236 234.159Z" fill="#AE2BFF"/>
<path opacity="0.2" d="M437.236 234.159C439.573 237.984 445.156 244.502 443.966 250.778C442.549 258.372 438.44 263.714 425.943 267.426L414.212 309.931C414.212 309.931 420.319 315.599 422.189 321.082C424.059 326.565 430.803 368.334 430.803 368.334C430.803 368.334 428.706 371.748 422.118 370.926C422.118 370.926 399.151 318.503 397.536 315.089C395.575 311.631 394.889 307.595 395.595 303.683C396.317 298.186 404.096 238.012 404.096 238.012L437.236 234.159Z" fill="black"/>
<path d="M441.543 201.826L412.356 197.108C411.761 196.981 410.797 196.74 409.522 196.414C409.522 196.414 408.275 214.72 400.78 218.913C400.964 219.792 401.12 220.769 401.262 221.889C401.701 225.403 404.096 237.956 404.096 237.956C404.096 237.956 415.43 243.439 424.739 240.789C434.048 238.14 437.193 234.187 437.193 234.187L432.532 226.593C433.835 223.433 439.701 210.738 441.543 201.826Z" fill="#AE2BFF"/>
<path opacity="0.7" d="M441.543 201.826L412.356 197.108C411.761 196.981 410.797 196.74 409.522 196.414C409.522 196.414 408.275 214.72 400.78 218.913C400.964 219.792 401.12 220.769 401.262 221.889C401.701 225.403 404.096 237.956 404.096 237.956C404.096 237.956 415.43 243.439 424.739 240.789C434.048 238.14 437.193 234.187 437.193 234.187L432.532 226.593C433.835 223.433 439.701 210.738 441.543 201.826Z" fill="white"/>
<path d="M433.849 223.575C429.973 225.902 425.912 227.907 421.707 229.568C425.524 229.492 429.26 228.459 432.574 226.564L433.849 223.575Z" fill="#AE2BFF"/>
<path d="M410.344 160.228C410.344 160.228 408.927 169.437 412.271 174.85C412.271 174.85 413.518 171.18 416.621 171.874C419.724 172.569 419.894 176.663 417.712 178.958C417.157 179.602 416.432 180.077 415.62 180.327C414.808 180.578 413.942 180.595 413.121 180.375C413.121 180.375 412.625 187.034 412.356 192.617C412.087 198.199 410.613 210.37 416.89 215.286C423.166 220.203 438.922 221.931 446.303 211.617C450.412 205.878 444.957 195.734 442.421 184.357C440.084 173.9 438.766 158.4 427.672 155.906C416.578 153.413 410.344 160.228 410.344 160.228Z" fill="#37474F"/>
<path d="M451.05 34.3986L448.712 35.8154C448.909 34.9836 449.018 34.1337 449.038 33.2793C449.038 28.5329 445.709 26.6201 441.6 29.0288C440.349 29.783 439.234 30.7408 438.298 31.8625V31.8625C438.298 25.4867 433.821 22.8938 428.296 26.0817C425.384 27.9807 422.961 30.5393 421.223 33.5499C419.485 36.5606 418.481 39.9385 418.293 43.4097C418.293 43.7356 418.293 44.0473 418.293 44.359C416.869 44.1799 415.428 44.5112 414.226 45.2941C412.061 46.7049 410.259 48.6064 408.967 50.8441C407.675 53.0819 406.928 55.5928 406.788 58.1732C406.787 58.7731 406.849 59.3714 406.972 59.9584L405.725 60.681C402.339 62.6363 399.59 66.4476 399.59 69.1821C399.59 71.9166 402.339 72.5683 405.725 70.5989L451.064 44.4582C454.45 42.5029 457.199 38.6916 457.199 35.9571C457.199 33.2226 454.436 32.4292 451.05 34.3986Z" fill="#EBEBEB"/>
</svg>
