<svg width="508" height="484" viewBox="0 0 508 484" fill="none" xmlns="http://www.w3.org/2000/svg">
<path d="M426.56 132.368C454.055 187.155 445.358 256.318 410.984 307.088C376.61 357.858 319.444 390.75 259.314 402.68C216.4 411.231 170.221 409.492 131.01 390.066C91.7991 370.64 60.9602 331.575 58.6147 287.875C57.717 271.367 61.2183 253.838 72.2274 241.494C89.8127 221.821 119.844 221.125 146.227 221.933C172.611 222.741 202.608 222.135 220.294 202.53C233.873 187.47 235.871 165.62 243.031 146.643C255.196 114.379 284.553 89.1846 318.288 82.0584C322.953 81.0847 327.682 80.4472 332.439 80.1506C369.54 77.8388 404.733 96.9841 424.204 128.609L426.56 132.368Z" fill="#EBEBEB"/>
<path d="M508 476.455C508 476.612 394.273 476.747 254.017 476.747C113.76 476.747 0 476.612 0 476.455C0 476.298 113.704 476.163 254.017 476.163C394.329 476.163 508 476.287 508 476.455Z" fill="#3A0E55"/>
<path d="M343.964 151.064H159.312C152.154 151.064 146.351 156.867 146.351 164.026V463.123C146.351 470.281 152.154 476.085 159.312 476.085H343.964C351.123 476.085 356.926 470.281 356.926 463.123V164.026C356.926 156.867 351.123 151.064 343.964 151.064Z" fill="#455A64"/>
<path d="M258.091 460.968C257.978 462.542 257.407 464.048 256.449 465.302C255.492 466.556 254.189 467.503 252.701 468.027C251.213 468.551 249.604 468.629 248.072 468.252C246.54 467.875 245.152 467.058 244.077 465.903C243.003 464.748 242.289 463.304 242.023 461.749C241.757 460.194 241.951 458.595 242.581 457.148C243.212 455.702 244.25 454.471 245.57 453.607C246.89 452.742 248.433 452.282 250.011 452.282C252.233 452.367 254.331 453.328 255.845 454.956C257.359 456.584 258.167 458.746 258.091 460.968Z" fill="#3A0E55"/>
<path d="M281.972 160.424H221.293C220.537 160.424 219.924 161.037 219.924 161.793V162.646C219.924 163.402 220.537 164.015 221.293 164.015H281.972C282.728 164.015 283.341 163.402 283.341 162.646V161.793C283.341 161.037 282.728 160.424 281.972 160.424Z" fill="#3A0E55"/>
<path d="M350.821 169.716H153.533V443.933H350.821V169.716Z" fill="#3A0E55"/>
<path d="M299.603 415.63L300.333 415.563C301.042 415.519 301.747 415.425 302.442 415.282C303.569 415.042 304.662 414.665 305.697 414.16C307.118 413.49 308.413 412.578 309.524 411.467C310.928 410.082 312.023 408.414 312.733 406.574C313.563 404.385 313.874 402.034 313.642 399.706C313.392 396.855 312.278 394.148 310.449 391.946C308.62 389.745 306.164 388.153 303.407 387.384C302.642 387.176 301.861 387.026 301.073 386.935C300.265 386.935 299.457 386.845 298.616 386.856H293.498H282.646H258.687H203.798C201.419 386.873 199.082 387.482 196.998 388.629C194.956 389.786 193.237 391.437 192 393.431C190.762 395.426 190.046 397.699 189.916 400.042C189.734 402.335 190.084 404.64 190.938 406.776C191.81 408.836 193.151 410.665 194.854 412.117C196.539 413.527 198.529 414.522 200.667 415.024C202.795 415.408 204.961 415.54 207.12 415.417H213.483L258.316 415.484L288.538 415.574L296.753 415.63H298.885H299.614H298.885H296.753H288.538L258.316 415.72L213.483 415.787H203.821C203.271 415.787 202.699 415.787 202.149 415.686C201.594 415.617 201.043 415.52 200.499 415.394C198.274 414.876 196.202 413.842 194.45 412.376C192.676 410.866 191.277 408.964 190.365 406.821C189.485 404.62 189.12 402.248 189.299 399.885C189.446 397.492 190.199 395.175 191.487 393.152C192.781 391.075 194.581 389.361 196.717 388.169C198.889 386.969 201.328 386.332 203.81 386.317H258.698H282.657H298.627C299.457 386.317 300.299 386.317 301.129 386.396C301.941 386.498 302.743 386.66 303.531 386.878C306.379 387.691 308.908 389.359 310.775 391.658C312.642 393.957 313.757 396.774 313.968 399.728C314.189 402.103 313.855 404.496 312.991 406.72C312.255 408.584 311.13 410.271 309.692 411.669C308.552 412.786 307.227 413.698 305.775 414.362C304.722 414.869 303.61 415.246 302.465 415.484C301.761 415.612 301.048 415.684 300.333 415.697C299.895 415.641 299.603 415.63 299.603 415.63Z" fill="white"/>
<path d="M226.871 399.257L226.175 400.132C225.926 399.857 225.623 399.635 225.285 399.481C224.948 399.326 224.582 399.242 224.211 399.234C223.87 399.211 223.529 399.259 223.207 399.373C222.886 399.488 222.591 399.667 222.342 399.9C222.093 400.133 221.894 400.415 221.758 400.728C221.623 401.041 221.552 401.379 221.552 401.72C221.552 402.061 221.623 402.399 221.758 402.712C221.894 403.025 222.093 403.307 222.342 403.54C222.591 403.773 222.886 403.952 223.207 404.067C223.529 404.181 223.87 404.229 224.211 404.206C224.948 404.19 225.65 403.893 226.175 403.375L226.882 404.161C226.145 404.87 225.166 405.271 224.144 405.283C223.657 405.31 223.171 405.238 222.713 405.071C222.256 404.904 221.838 404.645 221.484 404.31C221.13 403.976 220.848 403.572 220.655 403.125C220.463 402.678 220.363 402.196 220.363 401.709C220.363 401.222 220.463 400.74 220.655 400.293C220.848 399.845 221.13 399.442 221.484 399.108C221.838 398.773 222.256 398.514 222.713 398.347C223.171 398.18 223.657 398.107 224.144 398.135C225.164 398.138 226.143 398.541 226.871 399.257Z" fill="white"/>
<path d="M234.805 401.737C234.841 402.485 234.652 403.226 234.262 403.866C233.873 404.505 233.301 405.014 232.62 405.325C231.939 405.636 231.18 405.737 230.442 405.613C229.703 405.489 229.018 405.147 228.476 404.631C227.934 404.115 227.559 403.448 227.399 402.716C227.239 401.985 227.302 401.222 227.58 400.527C227.857 399.831 228.337 399.235 228.957 398.814C229.576 398.394 230.308 398.169 231.056 398.168C231.538 398.15 232.019 398.229 232.47 398.399C232.921 398.57 233.334 398.829 233.683 399.162C234.032 399.495 234.312 399.894 234.504 400.336C234.697 400.778 234.799 401.254 234.805 401.737ZM228.52 401.737C228.526 402.407 228.797 403.049 229.275 403.52C229.752 403.991 230.397 404.254 231.068 404.251C231.563 404.244 232.046 404.091 232.455 403.811C232.864 403.53 233.181 403.136 233.366 402.676C233.551 402.216 233.596 401.711 233.495 401.226C233.395 400.741 233.153 400.296 232.8 399.948C232.447 399.599 231.999 399.363 231.512 399.269C231.025 399.175 230.522 399.226 230.064 399.418C229.607 399.609 229.216 399.931 228.942 400.344C228.667 400.756 228.52 401.241 228.52 401.737Z" fill="white"/>
<path d="M241.089 405.272L237.318 400.199V405.272H236.129V398.202H237.251L241.044 403.285V398.202H242.167V405.272H241.089Z" fill="white"/>
<path d="M245.321 399.268V401.31H248.53V402.376H245.321V405.272H244.12V398.202H248.878V399.268H245.321Z" fill="white"/>
<path d="M249.933 405.272V398.202H251.122V405.272H249.933Z" fill="white"/>
<path d="M256.128 403.095H254.13V405.227H252.985V398.157H255.847C257.654 398.157 258.698 399.032 258.698 400.57C258.728 401.051 258.602 401.529 258.339 401.933C258.077 402.337 257.691 402.646 257.239 402.814L258.821 405.182H257.463L256.128 403.095ZM255.802 402.04C256.924 402.04 257.519 401.568 257.519 400.615C257.519 399.661 256.902 399.234 255.802 399.234H254.13V402.04H255.802Z" fill="white"/>
<path d="M266.654 405.272V399.986L264.409 404.475H263.624L261.379 399.986V405.272H260.257V398.202H261.738L264.072 402.893L266.395 398.202H267.809V405.272H266.654Z" fill="white"/>
<path d="M270.817 399.268V401.176H274.273V402.298H270.817V404.217H274.801V405.283H269.594V398.213H274.644V399.279L270.817 399.268Z" fill="white"/>
<path d="M279.155 398.202C280.093 398.202 280.992 398.574 281.655 399.237C282.318 399.9 282.69 400.799 282.69 401.737C282.69 402.674 282.318 403.573 281.655 404.236C280.992 404.899 280.093 405.272 279.155 405.272H276.282V398.202H279.155ZM277.449 404.217H279.178C279.501 404.225 279.822 404.166 280.122 404.045C280.422 403.924 280.694 403.743 280.921 403.513C281.148 403.282 281.326 403.008 281.443 402.706C281.56 402.405 281.614 402.082 281.602 401.759C281.611 401.432 281.553 401.106 281.433 400.802C281.312 400.498 281.131 400.221 280.9 399.989C280.669 399.757 280.393 399.574 280.089 399.452C279.785 399.33 279.46 399.271 279.133 399.279H277.449V404.217Z" fill="white"/>
<path d="M175.943 265.307L325.379 264.23L329.543 365.825L174.81 364.389L175.943 265.307Z" fill="#AE2BFF"/>
<path d="M175.942 265.307L251.805 203.921L325.379 264.23" fill="#AE2BFF"/>
<g opacity="0.3">
<path d="M175.944 265.307L251.807 203.921L325.381 264.23" fill="black"/>
</g>
<path d="M174.81 364.389C174.619 364.221 186.582 351.158 201.53 335.211C216.478 319.264 228.733 306.493 228.924 306.673C229.115 306.852 217.152 319.904 202.204 335.851C187.255 351.798 175.001 364.569 174.81 364.389Z" fill="#3A0E55"/>
<path d="M329.543 365.826C329.352 365.994 317.703 353.2 303.529 337.242C289.356 321.284 278.01 308.21 278.201 308.064C278.391 307.918 290.04 320.689 304.214 336.648C318.388 352.606 329.733 365.657 329.543 365.826Z" fill="#3A0E55"/>
<g opacity="0.5">
<path d="M325.381 264.23L250.337 324.18L175.944 265.308" fill="black"/>
</g>
<path d="M183.473 270.862L183.249 227.398L314.135 224.189L315.56 271.749L250.336 323.394L183.473 270.862Z" fill="#EBEBEB"/>
<path d="M252.165 307.772C247.574 307.785 243.031 306.825 238.837 304.956C234.643 303.088 230.891 300.353 227.829 296.932C224.767 293.51 222.464 289.48 221.07 285.105C219.677 280.729 219.225 276.109 219.744 271.547C220.716 262.966 225.056 255.123 231.811 249.742C238.566 244.362 247.181 241.885 255.762 242.857C264.343 243.829 272.186 248.17 277.566 254.924C282.947 261.679 285.424 270.294 284.452 278.875C283.556 286.815 279.771 294.149 273.817 299.478C267.863 304.807 260.156 307.759 252.165 307.772ZM252.075 243.805C246.014 243.812 240.084 245.571 234.999 248.872C229.915 252.173 225.894 256.873 223.421 262.408C220.948 267.942 220.128 274.073 221.061 280.062C221.993 286.052 224.639 291.644 228.677 296.164C232.716 300.684 237.976 303.94 243.823 305.538C249.67 307.136 255.855 307.01 261.631 305.173C267.408 303.336 272.53 299.867 276.38 295.185C280.23 290.504 282.643 284.808 283.33 278.785C283.798 274.682 283.453 270.526 282.314 266.557C281.176 262.587 279.265 258.88 276.693 255.649C274.121 252.418 270.937 249.726 267.323 247.726C263.709 245.727 259.737 244.459 255.633 243.996C254.453 243.843 253.265 243.757 252.075 243.738V243.805Z" fill="#AE2BFF"/>
<path d="M229.967 279.728L235.41 273.062L248.136 282.253L268.818 257.878L275.058 263.366L248.45 294.025L229.967 279.728Z" fill="#AE2BFF"/>
<path d="M392.96 323.798C393.015 323.997 393.116 324.181 393.254 324.336C393.392 324.49 393.564 324.61 393.756 324.687C393.948 324.764 394.155 324.796 394.362 324.78C394.568 324.764 394.768 324.701 394.946 324.595C395.29 324.342 395.555 323.997 395.71 323.6C395.865 323.202 395.904 322.769 395.821 322.35C395.642 321.522 395.303 320.737 394.823 320.038C395.15 320.222 395.516 320.328 395.891 320.349C396.266 320.369 396.64 320.304 396.986 320.158C397.332 320.013 397.641 319.79 397.888 319.507C398.134 319.224 398.314 318.888 398.411 318.526C398.509 318.163 398.523 317.783 398.451 317.414C398.38 317.046 398.225 316.698 398 316.398C397.774 316.098 397.482 315.854 397.148 315.683C396.813 315.513 396.444 315.421 396.068 315.415C397.135 315.259 398.146 314.839 399.009 314.192C399.429 313.854 399.734 313.394 399.883 312.876C400.031 312.357 400.016 311.806 399.839 311.296C399.729 311.059 399.563 310.85 399.357 310.689C399.151 310.527 398.909 310.417 398.652 310.366C398.395 310.316 398.129 310.327 397.877 310.399C397.625 310.471 397.394 310.602 397.202 310.78C397.782 310.457 398.291 310.017 398.694 309.489C398.892 309.222 399.006 308.902 399.02 308.57C399.034 308.238 398.948 307.909 398.773 307.627C398.509 307.349 398.163 307.162 397.786 307.093C397.409 307.025 397.019 307.078 396.674 307.245C395.989 307.576 395.325 307.951 394.688 308.367C393.88 308.796 392.973 309.004 392.059 308.97C391.145 308.937 390.256 308.663 389.481 308.177L385.295 311.633L392.96 323.798Z" fill="#3A0E55"/>
<path d="M370.594 304.799C369.433 305.183 368.406 305.891 367.635 306.839C366.863 307.788 366.379 308.937 366.239 310.152C366.17 310.592 366.189 311.043 366.295 311.476C366.4 311.91 366.592 312.318 366.857 312.677C367.232 313.062 367.704 313.34 368.222 313.482C368.741 313.624 369.289 313.625 369.808 313.485C370.84 313.198 371.8 312.697 372.625 312.015C373.28 311.638 373.853 311.132 374.308 310.529C374.763 309.925 375.091 309.236 375.273 308.502C375.311 307.756 375.115 307.016 374.713 306.387C374.311 305.757 373.722 305.269 373.029 304.989C372.335 304.727 371.594 304.613 370.854 304.655C370.113 304.698 369.39 304.896 368.731 305.236" fill="#3A0E55"/>
<path d="M374.218 325.526C373.851 327.016 373.224 328.429 372.366 329.701C371.935 330.335 371.376 330.871 370.724 331.275C370.073 331.679 369.344 331.942 368.585 332.046C367.824 332.131 367.056 331.964 366.4 331.57C365.743 331.177 365.233 330.58 364.948 329.869C364.822 330.305 364.584 330.701 364.257 331.016C363.93 331.331 363.526 331.555 363.086 331.665C362.641 331.76 362.177 331.712 361.761 331.526C361.345 331.341 361 331.028 360.774 330.632C360.572 330.227 360.526 329.761 360.647 329.324C360.767 328.887 361.044 328.51 361.425 328.264C360.527 328.769 359.405 329.286 358.518 328.758C358.137 328.518 357.858 328.147 357.733 327.715C357.272 326.301 358.148 324.819 359.124 323.697C360.1 322.575 361.245 321.453 361.481 320.016C361.549 318.825 361.37 317.633 360.953 316.515C360.588 315.237 360.534 313.89 360.796 312.587C360.931 311.933 361.2 311.314 361.586 310.769C361.973 310.224 362.468 309.766 363.041 309.422C363.614 309.086 364.273 308.927 364.936 308.965C365.599 309.003 366.236 309.236 366.766 309.635L366.957 311.543L374.252 325.526" fill="#3A0E55"/>
<path d="M391.669 347.769C391.669 347.769 394.283 375.432 392.084 379.034C389.884 382.637 362.906 420.287 362.906 420.287H362.973C362.446 420.512 361.851 420.725 361.267 420.961C360.327 421.294 359.337 421.469 358.338 421.477C357.101 421.534 355.862 421.417 354.658 421.129C353.535 420.748 352.604 421.881 353.187 422.734C353.771 423.587 356.722 424.687 360.381 424.339C364.039 423.991 359.921 428.042 358.451 429.546C356.981 431.05 352.649 435.931 352.761 436.751C352.918 437.951 354.231 438.007 355.668 436.47C357.104 434.933 361.716 430.612 362.479 431.431C363.243 432.25 355.634 439.803 355.634 439.803C355.634 439.803 353.749 441.161 354.601 442.137C356.116 443.888 363.579 435.247 364.286 434.405C364.769 433.822 365.622 434.674 365.072 435.269C364.522 435.864 357.328 442.653 358.866 444.449C360.044 445.829 365.083 437.39 367.35 436.818C369.617 436.246 362.861 442.822 364.062 444.101C364.499 444.572 364.892 444.864 368.214 440.521C370.843 436.738 373.259 432.812 375.452 428.76C378.987 424.933 413.833 387.103 414.102 380.033C414.383 372.593 415.718 347.41 415.718 347.41L391.669 347.769Z" fill="#EB996E"/>
<path d="M350.113 470.9L349.788 460.631L369.023 459.913L369.651 474.929L368.461 475.052C363.165 475.546 341.528 477.184 337.903 476.242C333.908 475.187 350.113 470.9 350.113 470.9Z" fill="#AE2BFF"/>
<g opacity="0.4">
<path d="M342.201 473.279C342.201 473.279 336.534 475.142 337.286 476.062C338.037 476.982 359.988 476.141 369.651 474.94L369.594 474.513L343.996 475.703C343.996 475.703 343.323 473.279 342.201 473.279Z" fill="white"/>
</g>
<path d="M369.898 474.48H369.573L368.63 474.57L365.14 474.861C362.188 475.075 358.115 475.321 353.603 475.501C349.092 475.681 345.007 475.737 342.056 475.748H338.554H337.6C337.489 475.765 337.375 475.765 337.264 475.748H337.6H338.554L342.044 475.692C345.007 475.636 349.092 475.546 353.592 475.366C358.092 475.187 362.177 474.974 365.129 474.794L368.619 474.581H369.573L369.898 474.48Z" fill="#3A0E55"/>
<path d="M344.007 476.04C343.836 475.464 343.599 474.911 343.3 474.39C342.934 473.915 342.516 473.483 342.055 473.099C342.655 473.285 343.166 473.685 343.491 474.222C343.893 474.737 344.078 475.39 344.007 476.04Z" fill="#3A0E55"/>
<path d="M349.573 472.898C349.573 472.898 349.237 472.617 348.945 472.179C348.733 471.937 348.58 471.649 348.496 471.338C348.552 471.338 348.833 471.618 349.136 472.045C349.439 472.471 349.63 472.864 349.573 472.898Z" fill="#3A0E55"/>
<path d="M351.1 472.011C351.1 472.011 350.752 471.876 350.405 471.585C350.057 471.293 349.821 471.035 349.866 470.979C349.911 470.922 350.214 471.124 350.562 471.405C350.909 471.686 351.145 471.966 351.1 472.011Z" fill="#3A0E55"/>
<path d="M352.02 470.159C351.704 470.288 351.363 470.345 351.021 470.328C350.993 470.448 350.921 470.553 350.819 470.624C350.718 470.695 350.594 470.726 350.471 470.711C350.348 470.697 350.235 470.638 350.153 470.545C350.071 470.453 350.025 470.333 350.025 470.21C350.025 470.086 350.071 469.967 350.153 469.874C350.235 469.782 350.348 469.723 350.471 469.708C350.594 469.694 350.718 469.725 350.819 469.796C350.921 469.866 350.993 469.972 351.021 470.092C351.355 470.041 351.696 470.064 352.02 470.159Z" fill="#3A0E55"/>
<path d="M352.313 468.869C351.984 469.101 351.593 469.23 351.191 469.239C350.813 469.305 350.425 469.266 350.068 469.127C350.438 469.055 350.814 469.014 351.191 469.003C351.559 468.922 351.935 468.877 352.313 468.869Z" fill="#3A0E55"/>
<path d="M348.856 471.248C348.447 471.32 348.03 471.32 347.621 471.248C347.174 471.209 346.731 471.13 346.297 471.012C346.034 470.945 345.778 470.851 345.534 470.732C345.382 470.649 345.266 470.513 345.208 470.35C345.186 470.26 345.19 470.166 345.22 470.079C345.25 469.991 345.304 469.914 345.377 469.856C345.838 469.602 346.374 469.517 346.891 469.618C347.408 469.718 347.873 469.997 348.205 470.406C348.407 470.641 348.556 470.917 348.642 471.214C348.667 471.325 348.667 471.44 348.642 471.551C348.5 471.175 348.295 470.826 348.036 470.518C347.735 470.196 347.344 469.969 346.914 469.868C346.671 469.795 346.416 469.772 346.163 469.799C345.911 469.826 345.667 469.903 345.444 470.025C345.253 470.182 345.343 470.406 345.568 470.53C345.79 470.643 346.023 470.733 346.263 470.799C346.685 470.929 347.117 471.023 347.554 471.08C348.384 471.225 348.856 471.203 348.856 471.248Z" fill="#3A0E55"/>
<path d="M348.542 471.315C348.383 471.061 348.324 470.758 348.374 470.462C348.393 470.138 348.498 469.824 348.677 469.553C348.77 469.364 348.911 469.202 349.087 469.084C349.262 468.966 349.465 468.895 349.676 468.88C349.801 468.902 349.913 468.971 349.988 469.074C350.063 469.176 350.096 469.304 350.08 469.43C350.064 469.63 349.999 469.823 349.889 469.991C349.739 470.271 349.554 470.532 349.339 470.765C348.957 471.158 348.666 471.315 348.643 471.293C348.621 471.27 348.879 471.057 349.215 470.653C349.403 470.42 349.565 470.168 349.698 469.901C349.855 469.632 349.956 469.149 349.642 469.116C349.328 469.082 349.036 469.407 348.856 469.665C348.692 469.913 348.581 470.192 348.531 470.485C348.509 470.761 348.513 471.039 348.542 471.315Z" fill="#3A0E55"/>
<path d="M369.303 469.228C369.303 469.228 368.753 469.228 367.889 469.329C366.763 469.509 365.707 469.994 364.837 470.732C363.98 471.48 363.347 472.451 363.008 473.537C362.738 474.379 362.738 474.929 362.693 474.929C362.674 474.799 362.674 474.666 362.693 474.536C362.714 474.183 362.771 473.834 362.862 473.492C363.163 472.35 363.804 471.325 364.699 470.554C365.595 469.782 366.703 469.301 367.878 469.172C368.229 469.133 368.582 469.133 368.933 469.172C369.059 469.168 369.184 469.187 369.303 469.228Z" fill="#3A0E55"/>
<path d="M367.013 461.305C367.195 462.61 367.3 463.926 367.327 465.244C367.435 466.561 367.462 467.884 367.406 469.205C367.23 467.895 367.125 466.576 367.092 465.255C366.983 463.941 366.957 462.622 367.013 461.305Z" fill="#3A0E55"/>
<path d="M360.179 473.257C359.268 473.504 358.329 473.632 357.385 473.638C356.441 473.72 355.491 473.682 354.557 473.526C354.557 473.459 355.825 473.526 357.373 473.403C358.922 473.279 360.168 473.189 360.179 473.257Z" fill="#3A0E55"/>
<path d="M363.95 473.111C363.95 473.111 363.849 473.38 363.737 473.672C363.625 473.964 363.558 474.222 363.49 474.222C363.423 474.222 363.378 473.919 363.49 473.582C363.602 473.245 363.861 473.066 363.95 473.111Z" fill="#3A0E55"/>
<path d="M365.297 471.281C365.297 471.281 365.229 471.528 365.038 471.741C364.848 471.955 364.657 472.089 364.601 472.044C364.545 472 364.679 471.798 364.87 471.584C365.061 471.371 365.252 471.236 365.297 471.281Z" fill="#3A0E55"/>
<path d="M367.305 470.429C367.305 470.496 367.036 470.507 366.755 470.619C366.475 470.732 366.273 470.889 366.228 470.844C366.183 470.799 366.329 470.53 366.677 470.395C367.024 470.26 367.316 470.339 367.305 470.429Z" fill="#3A0E55"/>
<path d="M368.73 469.968C368.73 470.025 368.652 470.126 368.495 470.193C368.337 470.26 368.192 470.271 368.158 470.193C368.124 470.114 368.248 470.025 368.405 469.957C368.562 469.89 368.708 469.901 368.73 469.968Z" fill="#3A0E55"/>
<g opacity="0.3">
<path d="M369.257 468.712L350.034 469.127L349.978 466.804L369.37 467.488L369.257 468.712Z" fill="black"/>
</g>
<path d="M422.519 401.232L361.717 400.401C361.717 400.401 344.782 401.972 344.782 424.013L346.926 467.41H372.838L371.076 425.82C372.524 425.82 392.14 426.471 392.14 426.471L422.519 401.232Z" fill="#3A0E55"/>
<path d="M346.937 467.41C346.884 467.163 346.858 466.911 346.858 466.658C346.858 466.108 346.779 465.39 346.735 464.503L346.274 456.58C345.882 449.847 345.152 440.656 344.614 430.421C344.434 425.315 344.041 420.422 344.614 415.967C344.751 414.882 344.972 413.808 345.276 412.757C345.592 411.771 346.01 410.819 346.521 409.918C347.443 408.305 348.635 406.863 350.045 405.654C351.208 404.664 352.49 403.823 353.861 403.151C354.903 402.682 355.984 402.306 357.093 402.029L358.305 401.737L359.214 401.591C359.461 401.54 359.713 401.514 359.966 401.513C359.731 401.605 359.486 401.669 359.236 401.703L358.35 401.905L357.149 402.242C356.073 402.582 355.023 402.998 354.007 403.488C352.679 404.173 351.439 405.017 350.315 406.001C348.969 407.206 347.832 408.624 346.948 410.199C346.484 411.08 346.108 412.005 345.826 412.959C345.541 413.986 345.331 415.033 345.197 416.09C344.625 420.445 345.029 425.338 345.197 430.444C345.702 440.656 346.398 449.892 346.69 456.603C346.847 459.97 346.925 462.663 346.959 464.537C346.959 465.435 346.959 466.142 346.959 466.703C346.977 466.939 346.97 467.176 346.937 467.41Z" fill="#455A64"/>
<path d="M462.987 470.911L452.73 471.596L451.395 452.406L466.376 451.283L466.545 452.406C467.218 457.68 469.62 479.339 468.789 482.897C467.846 486.959 462.987 470.911 462.987 470.911Z" fill="#AE2BFF"/>
<g opacity="0.4">
<path d="M465.646 478.733C465.646 478.733 467.7 484.344 468.598 483.547C469.495 482.751 467.879 460.856 466.353 451.25H465.927L468.025 476.803C468.025 476.803 465.601 477.611 465.646 478.733Z" fill="white"/>
</g>
<path d="M465.859 451.014C465.895 451.119 465.918 451.229 465.927 451.339C465.927 451.62 466.005 451.934 466.05 452.282C466.162 453.225 466.297 454.392 466.454 455.761C466.78 458.701 467.172 462.764 467.498 467.264C467.823 471.764 468.048 475.838 468.16 478.8C468.16 480.17 468.238 481.348 468.272 482.291C468.272 482.65 468.272 482.964 468.272 483.244C468.285 483.356 468.285 483.469 468.272 483.581C468.265 483.469 468.265 483.357 468.272 483.244C468.272 482.964 468.272 482.65 468.216 482.302C468.216 481.348 468.104 480.181 468.025 478.8C467.868 475.849 467.632 471.775 467.307 467.275C466.982 462.775 466.6 458.713 466.319 455.772C466.196 454.403 466.084 453.236 465.994 452.293C465.994 451.934 465.938 451.631 465.904 451.339C465.871 451.048 465.859 451.014 465.859 451.014Z" fill="#3A0E55"/>
<path d="M468.284 476.825C467.72 477.028 467.179 477.288 466.668 477.6C466.202 477.979 465.784 478.412 465.422 478.89C465.597 478.273 465.998 477.745 466.544 477.409C467.033 477.009 467.652 476.801 468.284 476.825Z" fill="#3A0E55"/>
<path d="M464.995 471.371C464.995 471.427 464.726 471.719 464.311 472.033C463.895 472.348 463.514 472.561 463.469 472.505C463.424 472.449 463.75 472.157 464.165 471.843C464.407 471.631 464.689 471.47 464.995 471.371Z" fill="#3A0E55"/>
<path d="M464.064 469.879C464.064 469.879 463.929 470.238 463.66 470.597C463.391 470.956 463.121 471.203 463.077 471.158C463.032 471.113 463.2 470.799 463.481 470.451C463.761 470.103 464.008 469.845 464.064 469.879Z" fill="#3A0E55"/>
<path d="M462.179 469.037C462.247 469.037 462.336 469.475 462.381 470.025C462.458 470.357 462.458 470.702 462.381 471.035C462.314 471.035 462.224 470.597 462.179 470.047C462.134 469.497 462.112 469.037 462.179 469.037Z" fill="#3A0E55"/>
<path d="M460.876 468.79C461.126 469.112 461.267 469.505 461.28 469.913C461.367 470.285 461.343 470.675 461.213 471.035C461.124 470.667 461.072 470.291 461.056 469.913C460.959 469.545 460.899 469.169 460.876 468.79Z" fill="#3A0E55"/>
<path d="M463.369 472.146C463.475 472.548 463.505 472.967 463.458 473.38C463.433 473.831 463.366 474.278 463.256 474.716C463.202 474.982 463.119 475.241 463.01 475.49C462.934 475.642 462.807 475.761 462.65 475.827C462.559 475.853 462.463 475.854 462.371 475.828C462.28 475.802 462.198 475.751 462.134 475.681C461.863 475.227 461.761 474.693 461.845 474.172C461.929 473.65 462.195 473.175 462.594 472.83C462.824 472.621 463.096 472.464 463.391 472.37C463.493 472.324 463.605 472.305 463.717 472.314C463.343 472.463 463.001 472.679 462.707 472.954C462.397 473.259 462.186 473.65 462.101 474.076C462.034 474.321 462.019 474.577 462.056 474.827C462.092 475.078 462.18 475.319 462.314 475.535C462.471 475.726 462.695 475.636 462.808 475.4C462.911 475.173 462.994 474.936 463.054 474.693C463.168 474.266 463.246 473.831 463.29 473.391C463.369 472.673 463.335 472.157 463.369 472.146Z" fill="#3A0E55"/>
<path d="M463.458 472.46C463.21 472.634 462.906 472.71 462.605 472.673C462.281 472.655 461.967 472.563 461.685 472.404C461.493 472.312 461.327 472.174 461.204 472.001C461.08 471.828 461.002 471.627 460.978 471.416C460.997 471.291 461.064 471.178 461.164 471.101C461.264 471.024 461.39 470.988 461.516 471.001C461.718 471.011 461.914 471.069 462.089 471.169C462.374 471.307 462.638 471.485 462.874 471.697C463.107 471.871 463.295 472.098 463.424 472.359C463.424 472.359 463.188 472.134 462.773 471.82C462.53 471.643 462.271 471.489 461.999 471.36C461.718 471.214 461.247 471.124 461.213 471.439C461.18 471.753 461.539 472.045 461.797 472.213C462.048 472.371 462.332 472.471 462.627 472.505C462.905 472.52 463.183 472.505 463.458 472.46Z" fill="#3A0E55"/>
<path d="M460.641 451.788C460.641 451.788 460.641 452.338 460.799 453.202C461.012 454.319 461.529 455.356 462.291 456.199C463.074 457.028 464.067 457.629 465.164 457.938C466.017 458.163 466.567 458.151 466.567 458.196C466.437 458.218 466.304 458.218 466.174 458.196C465.822 458.19 465.472 458.145 465.13 458.062C463.978 457.798 462.933 457.191 462.131 456.322C461.33 455.453 460.811 454.361 460.641 453.191C460.6 452.841 460.6 452.487 460.641 452.136C460.623 452.021 460.623 451.904 460.641 451.788Z" fill="#3A0E55"/>
<path d="M452.797 454.358C454.097 454.134 455.408 453.984 456.725 453.909C458.036 453.754 459.355 453.679 460.675 453.685C459.376 453.917 458.064 454.067 456.747 454.134C455.436 454.29 454.117 454.365 452.797 454.358Z" fill="#3A0E55"/>
<path d="M464.984 460.766C465.264 461.669 465.426 462.605 465.467 463.549C465.596 464.488 465.596 465.439 465.467 466.377C465.399 466.377 465.388 465.12 465.253 463.572C465.119 462.023 464.917 460.789 464.984 460.766Z" fill="#3A0E55"/>
<path d="M464.703 456.962C464.703 456.962 464.973 457.051 465.276 457.152C465.579 457.253 465.826 457.31 465.826 457.377C465.826 457.444 465.534 457.5 465.197 457.377C464.861 457.253 464.659 457.051 464.703 456.962Z" fill="#3A0E55"/>
<path d="M462.83 455.716C462.83 455.716 463.088 455.784 463.301 455.963C463.514 456.143 463.66 456.334 463.615 456.39C463.57 456.446 463.368 456.322 463.144 456.143C462.919 455.963 462.796 455.772 462.83 455.716Z" fill="#3A0E55"/>
<path d="M461.876 453.752C461.943 453.752 461.965 454.01 462.078 454.291C462.19 454.571 462.369 454.762 462.325 454.807C462.28 454.852 462.01 454.729 461.864 454.381C461.719 454.033 461.82 453.741 461.876 453.752Z" fill="#3A0E55"/>
<path d="M461.393 452.338C461.393 452.338 461.562 452.405 461.629 452.563C461.696 452.72 461.719 452.866 461.629 452.899C461.539 452.933 461.461 452.821 461.382 452.664C461.304 452.506 461.337 452.361 461.393 452.338Z" fill="#3A0E55"/>
<g opacity="0.3">
<path d="M460.126 451.845L461.214 471.046L458.902 471.192V451.788L460.126 451.845Z" fill="black"/>
</g>
<path d="M400.108 451.934C400.108 451.934 451.922 423.643 457.791 414.429C459.551 411.732 460.628 408.647 460.93 405.441C461.231 402.234 460.747 399.002 459.519 396.025L415.921 401.849L384.913 432.901C378.18 438.254 365.981 449.443 365.981 460.474C365.981 479.35 390.39 476.264 407.908 476.309C431.856 476.365 458.734 476.466 458.734 476.466L458.801 450.733L400.108 451.934Z" fill="#3A0E55"/>
<path d="M387.798 457.321C389.983 456.639 392.117 455.803 394.183 454.818C396.316 453.982 398.383 452.988 400.367 451.844C398.18 452.527 396.046 453.367 393.981 454.358C391.849 455.191 389.783 456.181 387.798 457.321Z" fill="#455A64"/>
<path d="M391.916 451.014C393.394 451.306 394.899 451.438 396.405 451.407C397.923 451.535 399.45 451.501 400.961 451.306C399.483 451.015 397.979 450.88 396.472 450.902C394.954 450.766 393.426 450.803 391.916 451.014Z" fill="#455A64"/>
<path d="M412.509 406.214C412.364 406.408 412.203 406.589 412.026 406.753L410.545 408.212L405.035 413.52L386.708 430.87C383.129 434.237 379.65 437.412 376.608 440.409C373.898 443.019 371.502 445.938 369.471 449.106C368.121 451.251 367.129 453.601 366.531 456.064L366.273 457.186C366.273 457.523 366.194 457.803 366.149 458.062C366.135 458.302 366.09 458.54 366.015 458.769C365.987 458.53 365.987 458.289 366.015 458.05C366.015 457.792 366.015 457.5 366.082 457.164C366.149 456.827 366.205 456.423 366.284 455.974C366.805 453.454 367.758 451.043 369.101 448.848C371.102 445.613 373.487 442.633 376.204 439.971C379.223 436.93 382.691 433.776 386.304 430.387L404.754 413.195L410.365 408.032L411.925 406.641C412.108 406.484 412.303 406.341 412.509 406.214Z" fill="#455A64"/>
<path d="M396.955 350.002C395.86 350.592 394.654 350.946 393.414 351.041C392.174 351.135 390.928 350.968 389.757 350.55C388.585 350.132 387.515 349.473 386.615 348.615C385.715 347.757 385.005 346.719 384.532 345.569L382.556 340.755C382.556 340.755 375.823 343.134 372.456 336.995C370.549 333.55 367.844 327.67 365.846 323.17C365.021 321.298 364.691 319.246 364.887 317.21C365.084 315.174 365.8 313.222 366.969 311.543C372.456 304.619 376.811 305.775 385.53 307.189L386.832 307.402L400.871 338.544C401.79 340.595 401.897 342.918 401.17 345.044C400.443 347.171 398.937 348.943 396.955 350.002Z" fill="#FFBE9D"/>
<path d="M370.123 326.211C370.192 326.02 370.203 325.813 370.154 325.617C370.105 325.42 369.999 325.242 369.849 325.106C369.699 324.969 369.511 324.881 369.311 324.852C369.11 324.822 368.905 324.853 368.722 324.941C368.539 325.028 368.386 325.168 368.283 325.343C368.18 325.518 368.132 325.719 368.143 325.921C368.155 326.124 368.227 326.318 368.35 326.48C368.472 326.641 368.64 326.763 368.832 326.828C368.957 326.873 369.09 326.892 369.223 326.885C369.355 326.878 369.486 326.845 369.605 326.787C369.725 326.73 369.833 326.65 369.921 326.551C370.01 326.452 370.079 326.336 370.123 326.211Z" fill="#3A0E55"/>
<path d="M367.361 325.178C367.518 325.235 367.866 324.438 368.719 323.978C369.572 323.518 370.425 323.619 370.459 323.461C370.492 323.304 370.279 323.248 369.898 323.192C369.393 323.117 368.879 323.216 368.439 323.473C367.987 323.725 367.632 324.12 367.429 324.595C367.227 324.92 367.294 325.156 367.361 325.178Z" fill="#3A0E55"/>
<path d="M377.506 321.172C377.404 321.347 377.357 321.548 377.369 321.75C377.382 321.951 377.454 322.145 377.576 322.306C377.699 322.467 377.866 322.588 378.058 322.653C378.249 322.718 378.456 322.726 378.651 322.674C378.846 322.622 379.022 322.513 379.156 322.361C379.289 322.209 379.374 322.021 379.401 321.82C379.427 321.62 379.394 321.416 379.304 321.235C379.215 321.053 379.073 320.903 378.898 320.802C378.783 320.734 378.655 320.689 378.522 320.671C378.389 320.653 378.254 320.661 378.125 320.695C377.995 320.73 377.874 320.79 377.768 320.872C377.661 320.953 377.573 321.056 377.506 321.172Z" fill="#3A0E55"/>
<path d="M376.653 320.97C376.81 321.026 377.158 320.229 378.011 319.769C378.864 319.309 379.717 319.41 379.75 319.253C379.784 319.096 379.571 319.04 379.189 318.984C378.685 318.909 378.171 319.008 377.73 319.264C377.279 319.517 376.924 319.911 376.72 320.386C376.563 320.712 376.586 320.948 376.653 320.97Z" fill="#3A0E55"/>
<path d="M377.327 329.982C376.795 330.035 376.277 330.187 375.801 330.43C375.565 330.52 375.363 330.565 375.284 330.43C375.156 330.213 375.09 329.965 375.094 329.712C375.015 329.028 374.925 328.343 374.836 327.625C374.692 325.818 374.357 324.031 373.837 322.294C373.811 324.104 373.965 325.913 374.297 327.692C374.398 328.41 374.499 329.095 374.6 329.78C374.606 330.142 374.737 330.49 374.97 330.767C375.047 330.836 375.139 330.885 375.239 330.91C375.338 330.936 375.442 330.937 375.543 330.913C375.688 330.882 375.828 330.829 375.958 330.756C376.878 330.352 377.405 330.049 377.327 329.982Z" fill="#3A0E55"/>
<path d="M382.501 340.676C385.382 339.194 387.754 336.884 389.313 334.044C389.313 334.044 389.807 339.509 383.354 342.281L382.501 340.676Z" fill="#EB996E"/>
<path d="M389.593 314.315C389.694 314.203 394.531 311.341 395.967 316.616C397.213 321.183 392.05 321.969 391.983 321.823C391.916 321.677 389.593 314.315 389.593 314.315Z" fill="#FFBE9D"/>
<path d="M392.915 319.141C392.915 319.141 393.005 319.141 393.162 319.141C393.372 319.148 393.576 319.076 393.734 318.939C393.949 318.655 394.084 318.32 394.128 317.968C394.171 317.615 394.12 317.257 393.981 316.93C393.856 316.55 393.645 316.205 393.364 315.92C393.273 315.799 393.154 315.702 393.017 315.638C392.88 315.573 392.73 315.543 392.579 315.55C392.484 315.561 392.397 315.604 392.33 315.671C392.263 315.738 392.22 315.826 392.208 315.92C392.208 316.066 392.208 316.144 392.208 316.156C392.208 316.167 392.085 316.156 392.062 315.931C392.043 315.815 392.067 315.695 392.13 315.595C392.217 315.458 392.354 315.362 392.511 315.325C392.703 315.293 392.901 315.311 393.084 315.378C393.267 315.445 393.429 315.558 393.555 315.707C393.878 316.018 394.12 316.403 394.262 316.829C394.418 317.203 394.462 317.614 394.388 318.013C394.314 318.412 394.126 318.78 393.847 319.074C393.744 319.151 393.625 319.205 393.499 319.23C393.372 319.255 393.242 319.252 393.117 319.219C392.96 319.253 392.904 319.163 392.915 319.141Z" fill="#EB996E"/>
<path d="M387.349 349.228C387.349 349.228 399.413 329.028 418.064 346.029C430.241 357.139 450.104 380.055 457.197 389.033C458.79 391.042 461.27 394.106 459.531 395.991C454.211 401.737 439.712 414.62 412.88 404.969L387.427 369.574C385.302 366.614 384.15 363.066 384.132 359.422C384.114 355.779 385.23 352.22 387.326 349.239L387.349 349.228Z" fill="#AE2BFF"/>
<path d="M402.812 339.61L399.412 334.044L382.04 347.87L385.283 353.088L402.812 339.61Z" fill="#AE2BFF"/>
<g opacity="0.3">
<path d="M402.072 340.329C402.072 340.329 388.392 352.157 388.202 351.955C388.011 351.753 382.736 347.96 382.736 347.96L387.551 350.664L402.072 340.329Z" fill="black"/>
</g>
<path d="M402.958 339.543C402.647 339.662 402.353 339.82 402.083 340.014C401.544 340.351 400.77 340.856 399.838 341.507C397.953 342.797 395.428 344.672 392.645 346.736C390.748 348.139 388.964 349.43 387.438 350.485H387.662C386.035 349.609 384.677 348.88 383.723 348.397C383.234 348.11 382.72 347.869 382.186 347.679C382.621 348.041 383.095 348.353 383.6 348.611C384.52 349.172 385.844 349.946 387.449 350.855L387.561 350.911L387.673 350.844C389.233 349.811 391.04 348.543 392.937 347.14L400.04 341.799L402.195 340.183C402.475 340.002 402.731 339.787 402.958 339.543Z" fill="#3A0E55"/>
<path d="M328.79 392.647L325.491 391.311C323.554 390.78 321.674 390.058 319.88 389.157C318.981 388.73 318.165 388.149 317.467 387.44C316.559 386.595 315.773 385.628 315.133 384.567C315.064 384.326 314.916 384.115 314.713 383.968C314.51 383.82 314.264 383.745 314.013 383.754C313.763 383.763 313.523 383.856 313.331 384.018C313.139 384.179 313.007 384.4 312.956 384.645C312.765 385.667 314.078 388.54 316.85 390.896C319.622 393.253 313.887 393.141 311.789 393.141C309.69 393.141 303.17 393.477 302.654 394.128C301.902 395.071 302.788 396.047 304.898 395.991C307.008 395.935 313.326 396.216 313.27 397.327C313.214 398.438 302.508 398.314 302.508 398.314C302.508 398.314 300.263 397.921 300.117 399.201C299.938 401.524 311.34 400.794 312.462 400.693C313.214 400.626 313.203 401.816 312.383 401.872C311.564 401.928 301.7 401.513 301.486 403.869C301.329 405.676 310.88 403.364 312.877 404.576C314.875 405.788 305.459 405.597 305.381 407.326C305.381 407.977 305.381 408.448 310.846 407.786C316.311 407.124 331.147 402.803 331.147 402.803L328.656 392.467" fill="#FFBE9D"/>
<path d="M393.252 356.276C393.252 356.276 375.51 380.74 371.402 381.694C367.295 382.648 321.553 389.841 321.553 389.841L323.797 404.767C323.797 404.767 380.571 403.174 386.07 398.157C391.569 393.141 408.178 367.632 408.178 367.632L393.252 356.276Z" fill="#FFBE9D"/>
<path d="M380.761 397.731C380.761 397.731 380.884 397.933 381.232 398.146C381.746 398.427 382.332 398.548 382.915 398.494C383.356 398.457 383.783 398.319 384.162 398.091C384.541 397.864 384.864 397.552 385.104 397.181C385.414 396.727 385.592 396.196 385.618 395.647C385.643 395.098 385.516 394.553 385.25 394.072C384.972 393.548 384.507 393.148 383.948 392.95C383.417 392.78 382.841 392.824 382.343 393.073C382.136 393.183 381.953 393.334 381.807 393.517C381.66 393.7 381.552 393.91 381.49 394.136C381.428 394.363 381.413 394.599 381.446 394.831C381.479 395.063 381.559 395.286 381.681 395.486C381.864 395.737 382.125 395.921 382.423 396.01C382.721 396.099 383.039 396.089 383.331 395.98C383.723 395.812 383.824 395.565 383.802 395.553C383.78 395.542 383.622 395.699 383.263 395.789C383.025 395.847 382.775 395.831 382.546 395.743C382.318 395.654 382.121 395.498 381.984 395.295C381.902 395.139 381.852 394.968 381.837 394.793C381.821 394.618 381.841 394.441 381.894 394.273C381.947 394.105 382.033 393.949 382.147 393.814C382.261 393.68 382.4 393.569 382.556 393.488C382.944 393.309 383.386 393.285 383.791 393.421C384.227 393.577 384.591 393.889 384.812 394.297C385.006 394.669 385.109 395.082 385.111 395.501C385.113 395.921 385.015 396.335 384.826 396.709C384.636 397.084 384.359 397.407 384.019 397.653C383.679 397.899 383.285 398.06 382.871 398.123C382.144 398.196 381.412 398.059 380.761 397.731Z" fill="#EB996E"/>
<path d="M413.508 363.727L396.674 392.624L377.26 376.554C377.26 376.554 390.727 354.536 397.067 347.713L413.508 363.727Z" fill="#AE2BFF"/>
<path d="M365.229 418.896C366.788 419.457 368.152 420.454 369.159 421.77C370.166 423.085 370.773 424.663 370.908 426.314C369.894 423.278 367.895 420.667 365.229 418.896Z" fill="#455A64"/>
<path d="M385.328 316.941C385.449 317.17 385.621 317.367 385.831 317.517C386.042 317.667 386.284 317.765 386.54 317.805C387.045 317.906 387.561 317.895 388.077 317.996C388.88 318.148 389.605 318.572 390.131 319.197C390.34 319.482 390.576 319.745 390.838 319.982C390.973 320.097 391.14 320.168 391.316 320.186C391.492 320.205 391.67 320.169 391.825 320.083C392.274 319.747 392.072 319.051 391.825 318.546C390.771 316.459 389.723 314.371 388.683 312.284L382.735 313.575L385.294 316.548" fill="#3A0E55"/>
<path d="M365.903 309.838C366.588 309.018 367.609 308.345 368.417 309.052C369.165 309.835 369.651 310.831 369.808 311.902C369.975 312.968 370.333 313.994 370.863 314.932C371.248 315.493 371.777 315.94 372.395 316.223C373.013 316.507 373.696 316.618 374.372 316.545C375.048 316.471 375.691 316.215 376.233 315.805C376.776 315.395 377.196 314.845 377.451 314.214C378.189 315.487 379.138 316.625 380.256 317.581C380.822 318.047 381.495 318.364 382.214 318.503C382.934 318.643 383.677 318.599 384.375 318.378C384.712 318.249 385.021 318.054 385.281 317.804C385.542 317.554 385.75 317.254 385.892 316.922C386.034 316.591 386.109 316.233 386.11 315.872C386.112 315.511 386.041 315.153 385.901 314.82C386.664 315.454 387.615 315.817 388.606 315.853C389.097 315.867 389.581 315.737 390 315.48C390.419 315.223 390.753 314.849 390.962 314.405C391.051 314.177 391.091 313.934 391.082 313.689C391.073 313.445 391.014 313.206 390.909 312.985C390.804 312.764 390.655 312.567 390.471 312.406C390.287 312.245 390.073 312.123 389.84 312.048C390.388 312.409 391.032 312.595 391.687 312.581C392.343 312.567 392.978 312.353 393.51 311.97C394.024 311.563 394.378 310.986 394.507 310.343C394.637 309.7 394.534 309.032 394.217 308.457C393.862 307.919 393.308 307.544 392.677 307.414C392.046 307.283 391.389 307.408 390.85 307.761C391.624 307.378 392.279 306.792 392.747 306.067C392.967 305.697 393.034 305.257 392.936 304.838C392.838 304.42 392.581 304.055 392.219 303.822C391.288 303.396 390.289 304.26 389.268 304.451C387.607 304.754 386.249 303.261 384.914 302.206C383.668 301.324 382.252 300.714 380.755 300.414C379.259 300.115 377.716 300.132 376.228 300.467C373.245 301.166 370.496 302.628 368.249 304.709C366.745 306.022 365.297 307.93 365.903 309.826" fill="#3A0E55"/>
<path d="M369.471 321.935C369.471 322.418 369.011 322.833 368.45 323.057C368.213 323.185 367.945 323.242 367.676 323.222C367.408 323.202 367.151 323.106 366.935 322.945C366.61 322.597 366.935 321.823 367.811 321.43C368.686 321.037 369.471 321.452 369.471 321.935Z" fill="#3A0E55"/>
<path d="M378.314 317.671C378.213 318.153 377.618 318.456 377.024 318.737C376.429 319.017 375.789 319.242 375.363 318.984C375.257 318.881 375.188 318.745 375.167 318.599C375.147 318.453 375.176 318.303 375.251 318.176C375.458 317.71 375.836 317.341 376.305 317.143C376.768 316.919 377.298 316.883 377.787 317.042C378.157 317.188 378.337 317.435 378.314 317.671Z" fill="#3A0E55"/>
<path d="M380.885 328.018C381.03 327.962 381.412 329.14 380.885 330.374C380.357 331.609 379.235 332.147 379.179 332.002C379.123 331.856 379.875 331.238 380.301 330.139C380.727 329.039 380.694 328.04 380.885 328.018Z" fill="#3A0E55"/>
<path d="M393.835 310.084C393.835 310.084 393.756 310.152 393.577 310.241C393.306 310.354 393.017 310.415 392.724 310.421C392.167 310.439 391.616 310.298 391.136 310.016C390.655 309.734 390.264 309.322 390.008 308.827L390.311 308.895C389.298 309.821 387.981 310.344 386.608 310.365C385.768 310.397 384.932 310.245 384.157 309.922C383.382 309.598 382.686 309.11 382.119 308.491L382.613 308.289C382.613 308.67 382.517 309.045 382.332 309.379C382.148 309.713 381.881 309.994 381.558 310.196C380.919 310.627 380.146 310.814 379.381 310.724C378.181 310.469 377.104 309.811 376.328 308.861C375.554 308.019 374.937 307.144 374.218 306.459C373.586 305.781 372.765 305.308 371.862 305.101C371.068 304.972 370.254 305.073 369.516 305.393C368.419 305.884 367.437 306.599 366.632 307.492C366.337 307.832 366.014 308.147 365.667 308.434C365.887 308.03 366.155 307.654 366.464 307.312C367.236 306.328 368.222 305.534 369.348 304.989C370.161 304.612 371.064 304.476 371.951 304.596C372.958 304.799 373.878 305.304 374.589 306.044C375.363 306.774 376.003 307.649 376.743 308.446C377.434 309.288 378.386 309.876 379.448 310.118C380.682 310.297 382.108 309.422 382.052 308.289V307.469L382.59 308.098C383.11 308.663 383.745 309.111 384.451 309.412C385.157 309.714 385.919 309.863 386.686 309.849C387.947 309.849 389.168 309.404 390.132 308.592L390.334 308.412L390.435 308.648C390.65 309.098 390.985 309.482 391.402 309.756C391.819 310.031 392.303 310.187 392.803 310.208C393.15 310.196 393.495 310.155 393.835 310.084Z" fill="#455A64"/>
<path d="M416.324 359.261C416.268 359.261 416.324 358.587 416.066 357.42C415.767 355.76 415.146 354.174 414.237 352.752C412.913 350.639 410.975 348.983 408.682 348.005C405.86 346.839 402.714 346.727 399.816 347.69C398.342 348.205 396.965 348.964 395.743 349.935C394.59 350.851 393.537 351.885 392.601 353.021C391.03 354.983 389.605 357.057 388.336 359.227C387.214 361.056 386.294 362.594 385.609 363.548C385.284 364.053 385.003 364.423 384.812 364.67C384.621 364.917 384.52 365.051 384.498 365.04C384.765 364.476 385.073 363.932 385.418 363.413C386.069 362.291 386.933 360.798 387.977 359.002C389.211 356.782 390.619 354.662 392.185 352.662C394.104 350.14 396.683 348.198 399.637 347.051C402.664 346.038 405.958 346.169 408.895 347.421C410.866 348.3 412.58 349.667 413.874 351.393C415.168 353.119 416 355.148 416.291 357.285C416.355 357.75 416.381 358.219 416.369 358.688C416.391 358.88 416.376 359.074 416.324 359.261Z" fill="#3A0E55"/>
<path d="M411.375 369.832C411.369 369.656 411.325 369.483 411.248 369.325C411.171 369.166 411.061 369.026 410.926 368.912C410.603 368.661 410.212 368.513 409.804 368.485C409.208 368.471 408.617 368.365 408.054 368.171C407.365 367.782 406.771 367.245 406.315 366.599C405.859 365.953 405.552 365.213 405.416 364.434C405.181 363.604 405.001 362.739 404.687 361.898C404.419 361.033 403.889 360.273 403.172 359.721C402.414 359.217 401.542 358.912 400.636 358.834C399.761 358.773 398.884 358.773 398.01 358.834C396.48 359.004 394.933 358.771 393.521 358.161C393.045 357.925 392.623 357.593 392.283 357.185C391.943 356.777 391.692 356.303 391.546 355.793C391.469 355.515 391.45 355.225 391.489 354.94C391.496 354.842 391.523 354.747 391.568 354.659C391.605 355.038 391.668 355.413 391.759 355.782C392.12 356.695 392.82 357.434 393.711 357.847C395.093 358.365 396.581 358.534 398.043 358.34C399.693 358.273 401.78 358.116 403.565 359.339C404.375 359.956 404.972 360.812 405.27 361.786C405.596 362.683 405.764 363.57 405.977 364.389C406.082 365.097 406.337 365.774 406.724 366.376C407.111 366.978 407.621 367.49 408.222 367.879C408.747 368.083 409.299 368.212 409.86 368.261C410.325 368.312 410.76 368.518 411.095 368.844C411.208 368.943 411.3 369.064 411.365 369.199C411.431 369.333 411.468 369.48 411.476 369.63C411.443 369.742 411.387 369.832 411.375 369.832Z" fill="#FAFAFA"/>
<path d="M404.675 379.427C404.608 379.427 404.585 379.057 404.192 378.529C403.61 377.835 402.825 377.341 401.948 377.115C400.826 376.745 399.389 376.79 397.807 376.273C396.953 376.008 396.206 375.478 395.675 374.758C395.147 374.007 394.855 373.131 394.373 372.424C393.385 370.988 391.612 370.505 390.108 370.18C388.689 369.948 387.33 369.432 386.113 368.665C385.303 368.084 384.736 367.225 384.52 366.252C384.429 365.897 384.46 365.521 384.609 365.186C384.666 365.186 384.609 365.567 384.744 366.196C385.007 367.057 385.558 367.802 386.304 368.306C387.5 368.988 388.813 369.44 390.176 369.641C391.011 369.805 391.827 370.053 392.611 370.382C393.491 370.742 394.249 371.346 394.799 372.121C395.338 372.929 395.619 373.793 396.09 374.444C396.544 375.078 397.189 375.55 397.93 375.791C399.378 376.296 400.848 376.307 402.027 376.745C402.979 377.019 403.807 377.614 404.372 378.428C404.515 378.658 404.61 378.913 404.653 379.18C404.686 379.337 404.697 379.427 404.675 379.427Z" fill="#FAFAFA"/>
<path d="M435.682 364.221C435.712 364.376 435.712 364.536 435.682 364.692C435.581 365.133 435.415 365.557 435.188 365.949C434.278 367.351 432.963 368.442 431.418 369.08C430.475 369.518 429.409 369.91 428.309 370.393C427.138 370.868 426.068 371.561 425.156 372.435C423.248 374.321 422.317 377.239 420.97 380.1C420.354 381.543 419.47 382.857 418.366 383.972C418.097 384.242 417.8 384.483 417.48 384.69C417.182 384.92 416.863 385.119 416.526 385.285C415.874 385.595 415.189 385.828 414.483 385.981C411.756 386.564 409.276 386.418 407.335 387.036C405.773 387.41 404.421 388.386 403.575 389.751C403.3 390.272 403.107 390.832 403.003 391.412C403.003 391.412 403.003 391.244 403.003 390.941C403.049 390.491 403.179 390.053 403.384 389.65C403.788 388.915 404.336 388.268 404.995 387.749C405.655 387.23 406.412 386.85 407.223 386.632C409.243 385.947 411.768 386.048 414.371 385.453C415.035 385.305 415.679 385.079 416.29 384.78C416.6 384.626 416.893 384.442 417.165 384.23C417.463 384.037 417.738 383.812 417.985 383.557C419.031 382.483 419.868 381.223 420.454 379.842C421.778 377.048 422.698 374.051 424.785 372.054C425.758 371.139 426.902 370.425 428.152 369.955C429.274 369.473 430.34 369.114 431.272 368.698C432.774 368.12 434.079 367.123 435.031 365.826C435.316 365.32 435.534 364.781 435.682 364.221Z" fill="#FAFAFA"/>
<path d="M446.961 378.103C446.877 378.739 446.63 379.342 446.243 379.854C445.2 381.258 443.779 382.336 442.147 382.962C440.149 383.882 437.545 384.298 435.077 385.633C433.788 386.311 432.724 387.348 432.013 388.618C431.303 390.041 430.674 391.502 430.127 392.995C428.876 395.929 426.706 398.379 423.944 399.975C421.699 401.273 419.141 401.929 416.549 401.872C414.82 401.842 413.111 401.492 411.51 400.839C411.075 400.663 410.652 400.461 410.242 400.233C409.961 400.065 409.826 399.975 409.838 399.953C409.849 399.93 410.455 400.222 411.588 400.626C413.187 401.18 414.868 401.461 416.56 401.457C419.062 401.454 421.518 400.784 423.675 399.515C426.311 397.956 428.383 395.597 429.589 392.782C430.141 391.248 430.785 389.749 431.519 388.293C432.293 386.943 433.438 385.845 434.818 385.128C437.422 383.759 440.026 383.4 441.989 382.547C443.574 381.971 444.979 380.988 446.063 379.696C446.415 379.197 446.716 378.663 446.961 378.103Z" fill="#FAFAFA"/>
<path d="M457.139 389.078C455.533 389.797 454.025 390.717 452.65 391.816C451.191 393.048 449.983 394.549 449.093 396.238C448.577 397.169 448.218 398.247 447.746 399.358C447.308 400.567 446.528 401.623 445.502 402.399C444.409 403.058 443.173 403.443 441.9 403.521C440.699 403.656 439.565 403.689 438.533 403.869C436.647 404.168 434.816 404.747 433.101 405.586C431.521 406.401 430.018 407.359 428.612 408.448C428.902 408.061 429.242 407.714 429.622 407.415C430.625 406.549 431.72 405.796 432.888 405.171C434.626 404.258 436.497 403.626 438.432 403.297C439.554 403.095 440.676 403.05 441.799 402.904C442.988 402.829 444.142 402.471 445.165 401.86C446.101 401.147 446.813 400.181 447.219 399.077C447.679 397.955 448.072 396.9 448.61 395.924C449.553 394.19 450.836 392.663 452.381 391.435C453.404 390.611 454.537 389.935 455.748 389.426C456.185 389.258 456.522 389.145 456.758 389.078C456.993 389.011 457.128 389.056 457.139 389.078Z" fill="#FAFAFA"/>
<path d="M412.115 368.306C413.073 367.954 413.945 367.404 414.674 366.69C415.438 365.892 416.046 364.96 416.469 363.94C416.977 362.67 417.378 361.36 417.67 360.023C417.981 358.654 418.429 357.32 419.006 356.04C419.508 354.985 420.226 354.048 421.116 353.29C421.709 352.763 422.415 352.379 423.18 352.168C423.455 352.079 423.748 352.056 424.033 352.101C423.058 352.395 422.155 352.892 421.385 353.559C420.589 354.325 419.945 355.236 419.488 356.242C418.953 357.498 418.536 358.802 418.243 360.136C417.933 361.502 417.505 362.839 416.963 364.131C416.49 365.196 415.811 366.157 414.966 366.959C414.392 367.501 413.706 367.91 412.957 368.16C412.695 368.285 412.404 368.335 412.115 368.306Z" fill="#FAFAFA"/>
<path d="M408.873 348.106C409.102 346.912 409.657 345.804 410.477 344.907C411.298 344.009 412.35 343.357 413.519 343.022C413.586 343.179 412.172 343.886 410.904 345.266C409.636 346.647 409.03 348.207 408.873 348.106Z" fill="#FAFAFA"/>
<path d="M400.994 336.614C400.49 337.545 399.9 338.428 399.233 339.251C398.577 340.2 397.873 341.114 397.123 341.989C396.645 342.522 396.065 342.953 395.417 343.257C394.703 343.536 393.938 343.662 393.173 343.628C392.459 343.576 391.743 343.576 391.029 343.628C390.395 343.72 389.784 343.925 389.222 344.234C388.26 344.771 387.502 345.611 387.068 346.624C386.696 347.589 386.539 348.623 386.607 349.654C386.464 349.396 386.387 349.107 386.383 348.812C386.295 348.018 386.399 347.213 386.686 346.467C387.099 345.336 387.892 344.384 388.93 343.774C389.543 343.407 390.222 343.167 390.928 343.067C391.674 342.991 392.424 342.972 393.173 343.01C393.836 343.071 394.504 342.973 395.122 342.725C395.741 342.477 396.292 342.087 396.73 341.585C397.594 340.676 398.279 339.711 398.907 338.959C399.527 338.113 400.226 337.328 400.994 336.614Z" fill="#FAFAFA"/>
<g opacity="0.2">
<path d="M415.898 362.885L407.38 397.394L399.929 387.013L415.898 362.885Z" fill="black"/>
</g>
<path d="M452.842 476.489C452.684 476.489 452.55 470.754 452.55 463.684C452.55 456.614 452.684 450.868 452.842 450.868C452.999 450.868 453.133 456.603 453.133 463.684C453.133 470.765 453.01 476.489 452.842 476.489Z" fill="#455A64"/>
<path d="M73.4155 412.892C75.1091 413.022 76.7588 413.494 78.2651 414.279C79.7715 415.064 81.1032 416.146 82.1801 417.459C84.3176 420.099 85.8224 423.193 86.5793 426.504C88.2177 432.845 87.1179 440.297 85.255 446.57C78.4319 444.067 74.2796 436.728 72.3943 432.879C69.4316 426.785 67.7707 413.98 73.438 412.892" fill="#AE2BFF"/>
<path d="M95.019 454.325C94.0043 452.721 93.4315 450.878 93.3585 448.983C93.2856 447.087 93.7152 445.205 94.6038 443.529C95.5226 441.872 96.7617 440.415 98.2491 439.241C99.7364 438.068 101.442 437.202 103.267 436.694C104.079 436.373 104.951 436.232 105.823 436.28C106.695 436.329 107.546 436.566 108.317 436.975C108.968 437.475 109.473 438.141 109.779 438.903C110.085 439.665 110.181 440.495 110.057 441.307C109.788 442.928 109.095 444.45 108.048 445.717C104.681 450.206 100.608 453.909 95.019 454.325Z" fill="#AE2BFF"/>
<path d="M95.6469 475.456C95.5089 475.024 95.4076 474.581 95.3439 474.132C95.1755 473.2 94.9511 471.988 94.6705 470.53C93.8132 466.553 93.5973 462.465 94.0309 458.421C94.5293 454.337 96.1144 450.461 98.6208 447.198C99.386 446.23 100.264 445.356 101.236 444.595C101.495 444.385 101.769 444.194 102.055 444.022C102.149 443.952 102.251 443.892 102.358 443.843C101.087 444.914 99.9218 446.106 98.8789 447.4C96.5111 450.653 95.0054 454.452 94.5022 458.443C94.0757 462.441 94.2459 466.48 95.0072 470.429C95.2429 471.955 95.4224 473.2 95.5347 474.065C95.6157 474.524 95.6532 474.99 95.6469 475.456Z" fill="#3A0E55"/>
<path d="M75.5479 422.532C75.6534 422.695 75.7435 422.868 75.8172 423.048L76.5018 424.585C77.0965 425.91 77.9382 427.851 78.9482 430.253C80.9682 435.056 83.6616 441.733 86.4784 449.173C89.2952 456.614 91.6855 463.415 93.3464 468.364C94.1769 470.833 94.839 472.853 95.2654 474.222C95.4674 474.884 95.6358 475.411 95.7592 475.826C95.8258 476.012 95.8746 476.204 95.9051 476.399C95.8114 476.226 95.7325 476.046 95.6694 475.86L95.0971 474.289C94.5921 472.853 93.8851 470.922 93.0322 468.465C91.2815 463.56 88.8463 456.782 86.0295 449.387C83.2127 441.991 80.5754 435.258 78.634 430.421C77.6801 428.053 76.9058 426.1 76.3895 424.698L75.7835 423.138C75.6751 422.949 75.5956 422.744 75.5479 422.532Z" fill="#3A0E55"/>
<path d="M87.578 461.451C85.5577 457.999 82.7437 455.079 79.3693 452.932C75.9948 450.785 72.1572 449.474 68.1747 449.106C66.1434 448.949 63.6857 449.263 62.7992 451.07C61.9126 452.877 63.0685 455.054 64.4264 456.558C67.3344 459.648 71.0915 461.81 75.225 462.77C79.3585 463.731 83.6838 463.447 87.6566 461.956" fill="#AE2BFF"/>
<path d="M71.2051 454.549C71.6289 454.541 72.0527 454.564 72.4732 454.616C72.9669 454.641 73.4582 454.701 73.9434 454.796C74.5157 454.908 75.1778 454.976 75.8848 455.178C76.6447 455.356 77.394 455.577 78.1293 455.84C79.0017 456.12 79.8561 456.454 80.688 456.838C84.548 458.568 87.9239 461.219 90.5187 464.559C91.0768 465.28 91.5974 466.029 92.0786 466.804C92.4873 467.484 92.8619 468.185 93.2008 468.902C93.5487 469.553 93.762 470.182 93.9864 470.709C94.1834 471.169 94.3483 471.641 94.4802 472.123C94.6292 472.518 94.7346 472.928 94.7944 473.346C94.6934 473.346 94.2221 471.629 92.8978 469.06C92.5398 468.357 92.1426 467.675 91.7083 467.017C91.2265 466.24 90.702 465.491 90.1371 464.773C88.8384 463.162 87.3669 461.698 85.7492 460.407C84.1079 459.15 82.3402 458.067 80.4748 457.175C79.657 456.787 78.8177 456.446 77.961 456.154C77.2253 455.88 76.4762 455.644 75.7165 455.447C73.0007 454.774 71.1939 454.717 71.2051 454.549Z" fill="#3A0E55"/>
</svg>
